<?xml version="1.0" encoding="UTF-8"?><svg id="Capa_1" xmlns="http://www.w3.org/2000/svg" viewBox="0 0 792 612"><path d="M489.78,223.15h-1.23s0,4.53,0,4.53l-18.4,11.48c-60.87,37.97-137.93,38.45-199.28,1.25l-21.62-13.11v-4.53s-1.22,0-1.22,0c-1.32,0-2.4,1.08-2.4,2.4l-.3,186.7c-.04,25.81,16.16,48.03,38.9,56.97,6.86,2.69,14.3,4.2,22.08,4.21l33.84.05,52.52.08,38.42.06c8.44.01,16.49-1.73,23.82-4.86,21.64-9.27,36.92-30.79,36.96-55.72l.3-187.1c0-1.32-1.08-2.4-2.4-2.4Z" fill="#942934"/><path d="M306.31,473.03c-7.78-.01-15.22-1.51-22.08-4.21h0s-6.84,12.23-36.36,57.59c0,0,31.27,4.13,39.44-7.19,0,0,15.37,22.69,43.51,1.88l.63.44c2.54-10.27,5.77-29.02,8.71-48.47l-33.84-.05Z" fill="#7f7130"/><path d="M392.68,473.17h0c3.83,14,7.48,33.23,11.56,47.15l24,10.46s6.79,3.18,12.69-.43c5.9-3.62,12.25-8.59,12.25-8.59,0,0,9.5,10.44,35.79,6.4l-34.05-59.79h0c-7.33,3.13-15.38,4.87-23.82,4.86l-38.42-.06Z" fill="#7f7130"/><path d="M392.68,473.17l-52.52-.08c-2.94,19.45-6.18,38.2-8.71,48.47l8.99,6.33,20.71,14.58s3.2,3.64,7.27,3.43c.42-.02.86-.09,1.3-.21.26-.07.51-.15.77-.26.39-.15.78-.35,1.17-.59.48-.29.96-.65,1.44-1.09.4-.36.79-.78,1.19-1.26l6.36-7.69,23.59-14.46c-4.08-13.92-7.73-33.16-11.56-47.15h0Z" fill="#685f2f"/><path d="M260.9,98.67c12.18,9.54,26.12,17.12,40.87,21.87,15.29,4.93,34.58,6.89,47.63,16.71,11.88,8.94,19.61,22.95,19.58,37.98.03-15.59,6.46-32.41,20.03-41.11,11.83-7.59,26.28-10.04,39.44-14.74,40.64-14.52,60.34-37.17,60.34-42.82h0v-.25c0-.06,0-.13,0-.22v-.38s0-.09,0-.15v-.59c0-.11,0-.23,0-.35v-.95c0-.59,0-1.24,0-1.92,0-.16,0-.33,0-.49v-2.6c0-.17,0-1.26,0-1.97,0-.09,0-.22,0-.4,0-.09,0-.15,0-.19,0,0-5.13,0-5.13,0,.13,0-1.55,3.16-1.93,3.78-8.87,14.52-31.23,23.46-47.64,21.78-11.05-1.14-21.09-6.08-31.37-9.91-10.8-4.03-22.04-6.16-33.59-6.1-32.18.17-57.73,20.98-71.34,21.36-18.79.53-42.94-13.05-43.03-30.91l-5.26.03s0,4.76-.02,9.87v1.2c0,.11,0,.22,0,.33,0,1.39,0,2.77,0,4.06,0,.6,0,1.18,0,1.72,0,.64,0,1.23,0,1.78,0,.52,0,.99,0,1.41,0,.36,0,.68,0,.94v.91c0,2.76,9.42,8.74,11.43,10.31Z" fill="#942934"/><path d="M428.45,119.38c-13.16,4.7-27.6,7.15-39.44,14.74-13.57,8.7-20,25.52-20.03,41.11.03-15.03-7.7-29.04-19.58-37.98-13.05-9.82-32.35-11.78-47.63-16.71-14.75-4.76-28.69-12.33-40.87-21.87-2-1.57-11.43-7.55-11.43-10.31l-.22,134.4v4.53s21.61,13.11,21.61,13.11c61.34,37.2,138.4,36.72,199.28-1.25l18.4-11.48v-4.53s.24-146.59.24-146.59c0,5.65-19.7,28.3-60.34,42.82Z" fill="#7f7339"/><circle cx="316.74" cy="174.1" r="37.35" fill="#eae9e7"/><circle cx="316.74" cy="174.1" r="22.38" fill="#685f2f"/><circle cx="316.74" cy="174.1" r="9.75" fill="#151717"/><circle cx="421.88" cy="174.27" r="37.35" fill="#eae9e7"/><circle cx="290.45" cy="174.06" r="56.02" fill="none" stroke="#1d1d1b" stroke-miterlimit="10" stroke-width="9"/><circle cx="448.17" cy="174.32" r="56.02" fill="none" stroke="#1d1d1b" stroke-miterlimit="10" stroke-width="9"/><circle cx="421.88" cy="174.27" r="22.38" fill="#685f2f"/><circle cx="421.88" cy="174.27" r="9.75" fill="#151717"/><path d="M366.18,254.39l-6.53-23.48c-3.01-10.84-2.43-22.36,1.66-32.84l4.86-12.45c.86-2.2,3.95-2.26,4.9-.09l6.23,14.31c3.84,8.83,4.47,18.72,1.77,27.96l-7.79,26.61c-.75,2.56-4.38,2.53-5.1-.03Z" fill="#151717"/><path d="M591.08,192.08c15.29-36.13,7.72-77.04-16.39-110.24l-85.53,176.37c48.25-.76,84.39-24.71,101.92-66.14Z" fill="#7f7130"/><path d="M193.13,349.14c1.82,39.2,26.32,72.81,62.41,92.34l.33-195.67c-43.19,21.53-64.82,58.4-62.73,103.34Z" fill="#7f7130"/><path d="M324.06,461.52c-3.09,0-5.85,1.09-7.71,2.81-1.85-1.73-4.61-2.83-7.7-2.83-5.59,0-10.13,3.57-10.13,7.99,0,4.42,4.52,8.01,10.11,8.02.99,0,1.94-.11,2.85-.32,1.09.21,2.27.33,3.5.33,1.82,0,3.52-.24,4.99-.67,1.25.44,2.62.68,4.07.69,5.59,0,10.13-3.57,10.13-7.99,0-4.42-4.52-8.01-10.11-8.02Z" fill="#764912"/><ellipse cx="304.51" cy="477.53" rx="6.8" ry="3.55" transform="translate(-234.4 651.73) rotate(-75.39)" fill="#151717"/><ellipse cx="315.8" cy="477.99" rx="6.8" ry="3.55" transform="translate(-162.7 793.01) rotate(-89.91)" fill="#151717"/><ellipse cx="326.22" cy="477.53" rx="3.55" ry="6.8" transform="translate(-64.52 51.17) rotate(-8.17)" fill="#151717"/><path d="M425.21,462.58c-3.09,0-5.85,1.09-7.71,2.81-1.85-1.73-4.61-2.83-7.7-2.83-5.59,0-10.13,3.57-10.13,7.99,0,4.42,4.52,8.01,10.11,8.02.99,0,1.94-.11,2.85-.32,1.09.21,2.27.33,3.5.33,1.82,0,3.52-.24,4.99-.67,1.25.44,2.62.68,4.07.69,5.59,0,10.13-3.57,10.13-7.99,0-4.42-4.52-8.01-10.11-8.02Z" fill="#764912"/><ellipse cx="406.83" cy="476.56" rx="6.8" ry="3.55" transform="translate(-160.09 743.44) rotate(-74.72)" fill="#151717"/><ellipse cx="417.21" cy="479.4" rx="6.8" ry="3.55" transform="translate(-62.86 895.83) rotate(-89.91)" fill="#151717"/><ellipse cx="428.56" cy="476.56" rx="3.55" ry="6.8" transform="translate(-152.23 205.53) rotate(-23.02)" fill="#151717"/><path d="M359.25,295.84l-26.92,100.33c-.2.76.19,1.53,1.1,2.17l27.87,19.63c2.98,2.1,9.87,2.03,12.63-.13l24.59-19.26c.75-.59,1.08-1.27.94-1.95l-20.92-100.7c-.35-1.7-3.54-3-7.35-3h-4.62c-3.73,0-6.88,1.25-7.33,2.91Z" fill="#bbdde1"/><path d="M374.83,297.96h-11.47c-1.78,0-3.35-1.18-3.86-2.89l-5.31-18.11c-.76-2.57,1.17-5.15,3.86-5.15h23.08c2.76,0,4.7,2.73,3.8,5.34l-6.3,18.11c-.56,1.62-2.09,2.7-3.8,2.7Z" fill="#92b8bc"/><path d="M486.76,220.7l-108.05,48.76c-2.79,1.26-2.44,3.8.64,4.53l72.04,17.15c2.34.56,5.1-.27,5.93-1.78l36.01-65.91c1.33-2.44-3.12-4.3-6.56-2.75Z" fill="#bbdde1"/><path d="M251.03,220.7l108.05,48.76c2.79,1.26,2.44,3.8-.64,4.53l-72.04,17.15c-2.34.56-5.1-.27-5.93-1.78l-36.01-65.91c-1.33-2.44,3.12-4.3,6.56-2.75Z" fill="#bbdde1"/><path d="M363.35,376.1c-.45-.48-.69-.98-.71-1.5h-4.85v-2.54h7.05v-3.77h-12.04v14.81h4.99v-4.74h3.95c.02-.46.15-.87.39-1.22.26-.39.67-.73,1.23-1.04Z" fill="#685f2f"/><path d="M374.93,379.21c-1.04,0-1.88-.33-2.52-1.01-.63-.67-.95-1.57-.95-2.7s.32-2.03.95-2.7c.63-.67,1.47-1,2.52-1,1.24,0,2.32.58,3.24,1.73l3.15-2.81c-.73-.96-1.66-1.69-2.79-2.2-1.13-.51-2.41-.76-3.85-.76-1.57,0-2.98.33-4.23.98-1.26.66-2.24,1.57-2.95,2.75-.19.31-.35.64-.49.98.03.01.06.02.09.03.42.17.74.42.97.74.23.32.35.69.35,1.12s-.12.8-.35,1.13c-.23.33-.6.63-1.09.91l.88.75c.14-.32.25-.68.32-1.09l2.16.64c-.16.7-.42,1.33-.79,1.89l.79.67-1.44,1.63-.88-.76s-.04.02-.06.03c.66.87,1.49,1.57,2.5,2.1,1.26.66,2.67.98,4.23.98,1.44,0,2.72-.25,3.85-.76,1.13-.51,2.06-1.24,2.79-2.2l-3.15-2.81c-.92,1.16-2,1.74-3.24,1.74Z" fill="#685f2f"/><path d="M378.21,385.98c-.04-.08-.11-.15-.18-.19-.08-.05-.17-.07-.27-.07s-.2.02-.27.07c-.08.05-.14.11-.18.2-.03.05-.04.1-.05.16h1.02c0-.06-.03-.12-.05-.17Z" fill="none"/><path d="M373,385.86c-.08-.05-.17-.07-.27-.07s-.19.02-.26.07c-.08.05-.14.11-.19.2-.05.09-.07.19-.07.32s.02.23.07.32c.05.09.11.16.19.2.08.05.17.07.26.07s.19-.02.27-.07c.08-.05.14-.11.19-.2.05-.09.07-.2.07-.32s-.02-.23-.07-.32c-.05-.09-.11-.15-.19-.2Z" fill="none"/><path d="M357.39,385.86c-.08-.05-.17-.07-.27-.07s-.19.02-.26.07c-.08.05-.14.11-.19.2-.05.09-.07.19-.07.32s.02.23.07.32c.05.09.11.16.19.2.08.05.17.07.26.07s.19-.02.27-.07c.08-.05.14-.11.19-.2.05-.09.07-.2.07-.32s-.02-.23-.07-.32c-.05-.09-.11-.15-.19-.2Z" fill="none"/><path d="M353.61,385.35c.08-.08.17-.14.28-.19.11-.04.23-.06.36-.06.15,0,.29.03.42.1.12.06.24.16.34.28l.58-.52c-.16-.2-.35-.35-.59-.45-.23-.1-.5-.16-.8-.16-.25,0-.49.04-.7.12-.22.08-.4.2-.56.35-.16.15-.28.33-.37.53-.09.2-.13.43-.13.67s.04.47.13.67c.09.2.21.38.37.53.16.15.34.27.56.35.22.08.45.12.7.12.3,0,.56-.05.8-.16.23-.11.43-.25.59-.45l-.58-.52c-.1.12-.22.22-.34.28-.12.06-.26.1-.42.1-.13,0-.25-.02-.36-.06-.11-.04-.2-.1-.28-.19-.08-.08-.14-.18-.18-.29-.04-.11-.07-.24-.07-.38s.02-.26.07-.38c.04-.11.11-.21.18-.29Z" fill="#942934"/><path d="M357.85,385.26c-.21-.11-.46-.16-.73-.16s-.51.05-.73.16c-.21.11-.38.26-.5.45-.12.19-.18.41-.18.67s.06.47.18.67c.12.19.29.35.5.46.21.11.45.17.73.17s.51-.06.73-.17c.21-.11.38-.26.5-.46.12-.19.18-.42.18-.67s-.06-.47-.18-.67c-.12-.19-.29-.34-.5-.45ZM357.58,386.7c-.05.09-.11.16-.19.2-.08.05-.17.07-.27.07s-.19-.02-.26-.07c-.08-.05-.14-.11-.19-.2-.05-.09-.07-.2-.07-.32s.02-.23.07-.32c.05-.09.11-.15.19-.2.08-.05.17-.07.26-.07s.19.02.27.07c.08.05.14.11.19.2.05.09.07.19.07.32s-.02.23-.07.32Z" fill="#942934"/><path d="M361.08,385.21c-.16-.08-.33-.12-.52-.12-.21,0-.39.05-.56.14-.09.05-.16.11-.23.18v.43l-.16-.21c.05-.09.1-.16.16-.23v-.27h-.83v2.49h.87v-1.2c0-.14.02-.25.06-.34.04-.09.1-.15.18-.19.08-.04.16-.06.25-.06.13,0,.23.04.3.12.07.08.11.21.11.39v1.28h.87v-1.42c0-.26-.05-.47-.14-.63-.09-.16-.21-.28-.37-.36Z" fill="#942934"/><path d="M359.76,385.84v-.43c-.06.07-.12.14-.16.23l.16.21Z" fill="#942934"/><path d="M363.98,386.29c-.09-.05-.18-.09-.29-.12-.11-.03-.21-.05-.31-.06-.1-.01-.2-.03-.29-.04-.09-.01-.16-.03-.21-.06-.05-.03-.08-.06-.08-.11s.03-.09.09-.12c.06-.03.16-.05.31-.05.11,0,.23.01.35.04.12.03.24.07.37.14l.26-.59c-.12-.07-.27-.12-.45-.16-.18-.04-.36-.05-.53-.05-.26,0-.48.04-.66.11-.18.07-.32.17-.41.29-.09.12-.14.27-.14.42,0,.14.03.26.08.35.05.09.12.16.21.22.09.05.18.09.29.12.11.03.21.05.31.06.1.02.2.03.29.04.09.01.16.03.21.05.05.02.08.06.08.11,0,.05-.03.09-.08.12-.06.03-.16.05-.31.05s-.3-.02-.46-.06c-.16-.04-.29-.1-.41-.17l-.26.6c.12.07.28.13.48.18.2.05.41.07.62.07.27,0,.5-.04.68-.11.18-.07.32-.17.41-.29.09-.12.14-.26.14-.41,0-.14-.03-.26-.08-.35-.05-.09-.12-.16-.21-.22Z" fill="#942934"/><path d="M366.43,386.92v.44c.06-.07.12-.15.16-.24l-.16-.2Z" fill="#942934"/><path d="M366.38,386.34c0,.14-.02.25-.06.34-.04.09-.1.15-.17.19-.07.04-.15.06-.23.06-.13,0-.23-.04-.31-.12-.07-.08-.11-.22-.11-.41v-1.25h-.87v1.39c0,.26.05.48.14.65.09.17.22.29.38.37.16.08.34.12.54.12.19,0,.37-.05.53-.14.08-.04.15-.1.21-.17v-.44l.16.2c-.04.09-.1.17-.16.24v.26h.83v-2.49h-.87v1.2Z" fill="#942934"/><rect x="367.82" y="384.22" width=".87" height="3.41" fill="#942934"/><rect x="369.6" y="385.23" width=".87" height=".65" fill="#942934"/><path d="M370.74,386.99c-.08,0-.14-.03-.19-.08s-.07-.12-.07-.21v-.83h-.87v.84c0,.32.09.56.27.71.18.16.43.24.74.24.12,0,.23-.01.34-.03.11-.02.2-.06.27-.11l-.22-.61c-.07.05-.16.08-.27.08Z" fill="#942934"/><rect x="370.48" y="385.23" width=".57" height=".65" fill="#942934"/><rect x="369.24" y="385.23" width=".36" height=".65" fill="#942934"/><rect x="369.6" y="384.58" width=".87" height=".65" fill="#942934"/><path d="M373.46,385.26c-.21-.11-.46-.16-.73-.16s-.51.05-.73.16c-.21.11-.38.26-.5.45-.12.19-.18.41-.18.67s.06.47.18.67c.12.19.29.35.5.46.21.11.45.17.73.17s.51-.06.73-.17c.21-.11.38-.26.5-.46.12-.19.18-.42.18-.67s-.06-.47-.18-.67c-.12-.19-.29-.34-.5-.45ZM373.18,386.7c-.05.09-.11.16-.19.2-.08.05-.17.07-.27.07s-.19-.02-.26-.07c-.08-.05-.14-.11-.19-.2-.05-.09-.07-.2-.07-.32s.02-.23.07-.32c.05-.09.11-.15.19-.2.08-.05.17-.07.26-.07s.19.02.27.07c.08.05.14.11.19.2.05.09.07.19.07.32s-.02.23-.07.32Z" fill="#942934"/><path d="M375.37,385.44v.43l-.12-.21c.03-.08.07-.15.12-.22v-.3h-.83v2.49h.87v-1.14c0-.22.06-.37.17-.47.11-.1.25-.14.43-.14.03,0,.06,0,.09,0,.03,0,.06,0,.1.01v-.79c-.24,0-.44.05-.6.14-.09.05-.17.12-.23.2Z" fill="#942934"/><path d="M375.37,385.86v-.43c-.05.06-.09.14-.12.22l.12.21Z" fill="#942934"/><path d="M377.24,386.28s0-.09.01-.13h-.15v.46h.16c-.02-.06-.02-.12-.02-.19v-.13Z" fill="#942934"/><path d="M378.42,385.25c-.2-.1-.43-.15-.67-.15-.26,0-.49.05-.7.16-.21.11-.37.26-.49.45-.12.19-.18.42-.18.66s.06.47.18.66c.12.19.29.35.51.46.22.11.48.17.77.17.24,0,.45-.03.62-.1.17-.07.32-.17.44-.3l-.46-.48c-.09.07-.17.13-.26.16-.09.04-.19.05-.31.05-.13,0-.24-.02-.34-.07-.09-.05-.17-.12-.22-.2-.02-.04-.04-.08-.05-.12h-.16v-.46h.15c.01-.06.03-.11.05-.16.04-.08.1-.15.18-.2.08-.05.17-.07.27-.07s.2.02.27.07c.08.05.14.11.18.19.03.05.04.1.05.17h.34l-.33.13s0-.09,0-.13h-1.02s-.01.09-.01.13v.13c0,.07,0,.13.02.19h1.81s0-.07,0-.11c0-.04,0-.07,0-.11,0-.28-.06-.51-.18-.7-.12-.19-.28-.34-.48-.44Z" fill="#942934"/><path d="M378.61,386.14h-.34s.01.08,0,.13l.33-.13Z" fill="#942934"/><path d="M381.54,386.5c-.05-.09-.12-.16-.21-.22-.09-.05-.18-.09-.29-.12-.11-.03-.21-.05-.31-.06-.1-.01-.2-.03-.29-.04-.09-.01-.16-.03-.21-.06-.05-.03-.08-.06-.08-.11s.03-.09.09-.12c.06-.03.16-.05.31-.05.11,0,.23.01.35.04.12.03.24.07.37.14l.26-.59c-.12-.07-.27-.12-.45-.16-.18-.04-.36-.05-.53-.05-.26,0-.48.04-.66.11-.18.07-.32.17-.41.29-.09.12-.14.27-.14.42,0,.14.03.26.08.35.05.09.12.16.21.22.09.05.18.09.29.12.11.03.21.05.31.06.1.02.2.03.29.04.09.01.16.03.21.05.05.02.08.06.08.11,0,.05-.03.09-.08.12s-.16.05-.31.05-.3-.02-.46-.06c-.16-.04-.29-.1-.41-.17l-.26.6c.12.07.28.13.48.18.2.05.41.07.62.07.27,0,.5-.04.68-.11.18-.07.32-.17.41-.29.09-.12.14-.26.14-.41,0-.14-.03-.26-.08-.35Z" fill="#942934"/><rect x="352.47" y="388.41" width="29.18" height=".3" fill="#942934"/><path d="M353.27,389.61v.34h.49v.12h-.49v.4h-.14v-.98h.69v.12h-.55Z" fill="#685f2f"/><path d="M354.09,390.43c-.06-.03-.1-.08-.14-.13-.03-.06-.05-.12-.05-.19s.02-.14.05-.19c.03-.06.08-.1.14-.13.06-.03.12-.05.2-.05s.14.02.2.05c.06.03.1.08.14.13.03.06.05.12.05.19s-.02.14-.05.19c-.03.06-.08.1-.14.13-.06.03-.12.05-.2.05s-.14-.02-.2-.05ZM354.42,390.33s.07-.05.09-.09c.02-.04.03-.08.03-.14s-.01-.1-.03-.14c-.02-.04-.05-.07-.09-.09-.04-.02-.08-.03-.13-.03s-.09.01-.13.03c-.04.02-.07.05-.09.09-.02.04-.03.08-.03.14s.01.1.03.14c.02.04.05.07.09.09s.08.03.13.03.09-.01.13-.03Z" fill="#685f2f"/><path d="M355.09,389.75s.1-.03.17-.03v.13s-.02,0-.03,0c-.07,0-.13.02-.17.06-.04.04-.06.11-.06.19v.37h-.13v-.74h.13v.12s.06-.08.1-.1Z" fill="#685f2f"/><path d="M356.57,389.8c.05.05.08.13.08.24v.43h-.13v-.41c0-.07-.02-.13-.05-.16-.03-.04-.08-.05-.14-.05-.07,0-.12.02-.16.06-.04.04-.06.1-.06.18v.38h-.13v-.41c0-.07-.02-.13-.05-.16-.03-.04-.08-.05-.14-.05-.07,0-.12.02-.16.06-.04.04-.06.1-.06.18v.38h-.13v-.74h.13v.11s.06-.07.11-.09c.04-.02.09-.03.15-.03s.11.01.15.03c.04.02.08.06.1.1.03-.04.07-.08.12-.1s.11-.04.17-.04c.09,0,.17.03.22.08Z" fill="#685f2f"/><path d="M357.41,389.8c.05.05.08.13.08.22v.45h-.13v-.1s-.05.06-.1.08c-.04.02-.09.03-.15.03-.08,0-.15-.02-.2-.06-.05-.04-.07-.09-.07-.16s.02-.12.07-.16c.05-.04.12-.06.23-.06h.21v-.03c0-.06-.02-.1-.05-.13s-.08-.05-.15-.05c-.04,0-.09,0-.13.02-.04.01-.08.03-.11.06l-.06-.1s.08-.05.14-.07c.05-.02.11-.02.17-.02.1,0,.18.03.24.08ZM357.27,390.34s.06-.06.08-.1v-.1h-.21c-.11,0-.17.04-.17.11,0,.04.01.07.04.09s.07.03.12.03.1-.01.13-.03Z" fill="#685f2f"/><path d="M357.86,390.43c-.06-.03-.11-.08-.14-.13s-.05-.12-.05-.19.02-.14.05-.19c.03-.06.08-.1.14-.13.06-.03.13-.05.2-.05.07,0,.13.01.18.04.05.03.09.07.12.12l-.1.07s-.05-.06-.09-.08c-.03-.02-.07-.03-.11-.03-.05,0-.09.01-.13.03-.04.02-.07.05-.09.09-.02.04-.03.08-.03.14s.01.1.03.14c.02.04.05.07.09.09s.08.03.13.03c.04,0,.08,0,.11-.03.03-.02.06-.04.09-.08l.1.06c-.03.05-.07.09-.12.12-.05.03-.11.04-.18.04-.08,0-.14-.02-.2-.05Z" fill="#685f2f"/><path d="M358.54,389.56s-.03-.04-.03-.06,0-.04.03-.06c.02-.02.04-.03.06-.03s.05,0,.07.02c.02.02.03.04.03.06s0,.05-.03.06c-.02.02-.04.03-.07.03s-.05,0-.06-.03ZM358.54,389.73h.13v.74h-.13v-.74Z" fill="#685f2f"/><path d="M359.05,390.43c-.06-.03-.1-.08-.14-.13-.03-.06-.05-.12-.05-.19s.02-.14.05-.19c.03-.06.08-.1.14-.13.06-.03.12-.05.2-.05s.14.02.2.05c.06.03.1.08.14.13.03.06.05.12.05.19s-.02.14-.05.19c-.03.06-.08.1-.14.13-.06.03-.12.05-.2.05s-.14-.02-.2-.05ZM359.38,390.33s.07-.05.09-.09c.02-.04.03-.08.03-.14s-.01-.1-.03-.14c-.02-.04-.05-.07-.09-.09-.04-.02-.08-.03-.13-.03s-.09.01-.13.03c-.04.02-.07.05-.09.09-.02.04-.03.08-.03.14s.01.1.03.14c.02.04.05.07.09.09s.08.03.13.03.09-.01.13-.03ZM359.33,389.44h.17l-.23.18h-.13l.19-.18Z" fill="#685f2f"/><path d="M360.44,389.8c.06.05.08.13.08.24v.43h-.13v-.41c0-.07-.02-.13-.05-.16-.03-.04-.08-.05-.15-.05-.07,0-.13.02-.17.06-.04.04-.06.1-.06.18v.38h-.13v-.74h.13v.11s.06-.07.11-.09.1-.03.16-.03c.09,0,.17.03.22.08Z" fill="#685f2f"/><path d="M361.8,389.73l-.36.81c-.03.08-.07.13-.11.16s-.09.05-.15.05c-.04,0-.07,0-.11-.02-.03-.01-.06-.03-.08-.05l.06-.1s.08.05.13.05c.03,0,.06,0,.08-.03.02-.02.04-.05.06-.09l.02-.05-.33-.74h.14l.26.59.26-.59h.13Z" fill="#685f2f"/><path d="M362.42,390.43c-.06-.03-.11-.08-.14-.13s-.05-.12-.05-.19.02-.14.05-.19c.03-.06.08-.1.14-.13.06-.03.13-.05.2-.05.07,0,.13.01.18.04.05.03.09.07.12.12l-.1.07s-.05-.06-.09-.08c-.03-.02-.07-.03-.11-.03-.05,0-.09.01-.13.03-.04.02-.07.05-.09.09-.02.04-.03.08-.03.14s.01.1.03.14c.02.04.05.07.09.09s.08.03.13.03c.04,0,.08,0,.11-.03.03-.02.06-.04.09-.08l.1.06c-.03.05-.07.09-.12.12-.05.03-.11.04-.18.04-.08,0-.14-.02-.2-.05Z" fill="#685f2f"/><path d="M363.6,389.8c.05.05.08.13.08.22v.45h-.13v-.1s-.05.06-.1.08c-.04.02-.09.03-.15.03-.08,0-.15-.02-.2-.06-.05-.04-.07-.09-.07-.16s.02-.12.07-.16c.05-.04.12-.06.23-.06h.21v-.03c0-.06-.02-.1-.05-.13s-.08-.05-.15-.05c-.04,0-.09,0-.13.02-.04.01-.08.03-.11.06l-.06-.1s.08-.05.14-.07c.05-.02.11-.02.17-.02.1,0,.18.03.24.08ZM363.47,390.34s.06-.06.08-.1v-.1h-.21c-.11,0-.17.04-.17.11,0,.04.01.07.04.09s.07.03.12.03.1-.01.13-.03Z" fill="#685f2f"/><path d="M364.52,389.77c.06.03.1.08.13.13.03.06.05.12.05.2s-.02.14-.05.2c-.03.06-.08.1-.13.13-.06.03-.12.05-.19.05-.05,0-.1-.01-.15-.03s-.08-.05-.11-.09v.38h-.13v-1.01h.13v.12s.07-.07.11-.09c.05-.02.1-.03.15-.03.07,0,.14.02.19.05ZM364.44,390.33s.07-.05.09-.09c.02-.04.03-.08.03-.14s-.01-.1-.03-.14c-.02-.04-.05-.07-.09-.09-.04-.02-.08-.03-.13-.03s-.09.01-.13.03c-.04.02-.07.05-.09.09-.02.04-.03.08-.03.14s.01.1.03.14c.02.04.05.07.09.09s.08.03.13.03.09-.01.13-.03Z" fill="#685f2f"/><path d="M365.39,389.8c.05.05.08.13.08.22v.45h-.13v-.1s-.05.06-.1.08c-.04.02-.09.03-.15.03-.08,0-.15-.02-.2-.06-.05-.04-.07-.09-.07-.16s.02-.12.07-.16c.05-.04.12-.06.23-.06h.21v-.03c0-.06-.02-.1-.05-.13s-.08-.05-.15-.05c-.04,0-.09,0-.13.02-.04.01-.08.03-.11.06l-.06-.1s.08-.05.14-.07c.05-.02.11-.02.17-.02.1,0,.18.03.24.08ZM365.25,390.34s.06-.06.08-.1v-.1h-.21c-.11,0-.17.04-.17.11,0,.04.01.07.04.09s.07.03.12.03.1-.01.13-.03Z" fill="#685f2f"/><path d="M365.84,390.43c-.06-.03-.11-.08-.14-.13s-.05-.12-.05-.19.02-.14.05-.19c.03-.06.08-.1.14-.13.06-.03.13-.05.2-.05.07,0,.13.01.18.04.05.03.09.07.12.12l-.1.07s-.05-.06-.09-.08c-.03-.02-.07-.03-.11-.03-.05,0-.09.01-.13.03-.04.02-.07.05-.09.09-.02.04-.03.08-.03.14s.01.1.03.14c.02.04.05.07.09.09s.08.03.13.03c.04,0,.08,0,.11-.03.03-.02.06-.04.09-.08l.1.06c-.03.05-.07.09-.12.12-.05.03-.11.04-.18.04-.08,0-.14-.02-.2-.05Z" fill="#685f2f"/><path d="M366.52,389.56s-.03-.04-.03-.06,0-.04.03-.06c.02-.02.04-.03.06-.03s.05,0,.07.02c.02.02.03.04.03.06s0,.05-.03.06c-.02.02-.04.03-.07.03s-.05,0-.06-.03ZM366.52,389.73h.13v.74h-.13v-.74Z" fill="#685f2f"/><path d="M367.33,390.43s-.04.03-.07.04c-.03,0-.06.01-.09.01-.07,0-.13-.02-.17-.06-.04-.04-.06-.1-.06-.17v-.41h-.13v-.11h.13v-.16h.13v.16h.21v.11h-.21v.4s0,.07.03.09c.02.02.05.03.09.03.04,0,.08-.01.1-.03l.04.1Z" fill="#685f2f"/><path d="M367.99,389.8c.05.05.08.13.08.22v.45h-.13v-.1s-.05.06-.1.08c-.04.02-.09.03-.15.03-.08,0-.15-.02-.2-.06-.05-.04-.07-.09-.07-.16s.02-.12.07-.16c.05-.04.12-.06.23-.06h.21v-.03c0-.06-.02-.1-.05-.13s-.08-.05-.15-.05c-.04,0-.09,0-.13.02-.04.01-.08.03-.11.06l-.06-.1s.08-.05.14-.07c.05-.02.11-.02.17-.02.1,0,.18.03.24.08ZM367.86,390.34s.06-.06.08-.1v-.1h-.21c-.11,0-.17.04-.17.11,0,.04.01.07.04.09s.07.03.12.03.1-.01.13-.03Z" fill="#685f2f"/><path d="M368.45,390.43c-.06-.03-.11-.08-.14-.13s-.05-.12-.05-.19.02-.14.05-.19c.03-.06.08-.1.14-.13.06-.03.13-.05.2-.05.07,0,.13.01.18.04.05.03.09.07.12.12l-.1.07s-.05-.06-.09-.08c-.03-.02-.07-.03-.11-.03-.05,0-.09.01-.13.03-.04.02-.07.05-.09.09-.02.04-.03.08-.03.14s.01.1.03.14c.02.04.05.07.09.09s.08.03.13.03c.04,0,.08,0,.11-.03.03-.02.06-.04.09-.08l.1.06c-.03.05-.07.09-.12.12-.05.03-.11.04-.18.04-.08,0-.14-.02-.2-.05Z" fill="#685f2f"/><path d="M369.13,389.56s-.03-.04-.03-.06,0-.04.03-.06c.02-.02.04-.03.06-.03s.05,0,.07.02c.02.02.03.04.03.06s0,.05-.03.06c-.02.02-.04.03-.07.03s-.05,0-.06-.03ZM369.12,389.73h.13v.74h-.13v-.74Z" fill="#685f2f"/><path d="M369.63,390.43c-.06-.03-.1-.08-.14-.13-.03-.06-.05-.12-.05-.19s.02-.14.05-.19c.03-.06.08-.1.14-.13.06-.03.12-.05.2-.05s.14.02.2.05c.06.03.1.08.14.13.03.06.05.12.05.19s-.02.14-.05.19c-.03.06-.08.1-.14.13-.06.03-.12.05-.2.05s-.14-.02-.2-.05ZM369.96,390.33s.07-.05.09-.09c.02-.04.03-.08.03-.14s-.01-.1-.03-.14c-.02-.04-.05-.07-.09-.09-.04-.02-.08-.03-.13-.03s-.09.01-.13.03c-.04.02-.07.05-.09.09-.02.04-.03.08-.03.14s.01.1.03.14c.02.04.05.07.09.09s.08.03.13.03.09-.01.13-.03ZM369.92,389.44h.17l-.23.18h-.13l.19-.18Z" fill="#685f2f"/><path d="M371.02,389.8c.06.05.08.13.08.24v.43h-.13v-.41c0-.07-.02-.13-.05-.16-.03-.04-.08-.05-.15-.05-.07,0-.13.02-.17.06-.04.04-.06.1-.06.18v.38h-.13v-.74h.13v.11s.06-.07.11-.09.1-.03.16-.03c.09,0,.17.03.22.08Z" fill="#685f2f"/><path d="M372.4,390.14h-.6c0,.07.04.12.09.16s.11.06.18.06c.09,0,.16-.03.21-.09l.07.09s-.08.07-.12.09c-.05.02-.11.03-.17.03-.08,0-.15-.02-.21-.05s-.11-.08-.14-.13c-.03-.06-.05-.12-.05-.2s.02-.14.05-.19c.03-.06.08-.1.13-.13.06-.03.12-.05.19-.05s.13.02.19.05c.06.03.1.08.13.13.03.06.05.12.05.2,0,.01,0,.02,0,.04ZM371.87,389.89s-.07.09-.08.15h.48c0-.06-.03-.11-.08-.15-.04-.04-.1-.06-.16-.06s-.12.02-.16.06Z" fill="#685f2f"/><path d="M372.62,390.45c-.06-.02-.1-.04-.13-.06l.06-.11s.07.04.12.06c.05.01.09.02.14.02.12,0,.18-.03.18-.1,0-.02,0-.04-.02-.05s-.04-.02-.06-.03c-.02,0-.06-.01-.1-.02-.06,0-.11-.02-.15-.03-.04-.01-.07-.03-.1-.06s-.04-.07-.04-.12c0-.07.03-.12.08-.16.06-.04.13-.06.22-.06.05,0,.1,0,.15.02.05.01.09.03.12.05l-.06.11c-.06-.04-.13-.06-.21-.06-.06,0-.1,0-.13.03-.03.02-.04.04-.04.07,0,.02,0,.04.02.06.02.01.04.02.06.03.02,0,.06.01.1.02.06.01.11.02.14.03.04.01.07.03.09.06.03.03.04.07.04.12,0,.07-.03.12-.09.16-.06.04-.14.06-.23.06-.06,0-.12,0-.17-.02Z" fill="#685f2f"/><path d="M373.87,389.77c.06.03.1.08.13.13.03.06.05.12.05.2s-.02.14-.05.2c-.03.06-.08.1-.13.13-.06.03-.12.05-.19.05-.05,0-.1-.01-.15-.03s-.08-.05-.11-.09v.38h-.13v-1.01h.13v.12s.07-.07.11-.09c.05-.02.1-.03.15-.03.07,0,.14.02.19.05ZM373.79,390.33s.07-.05.09-.09c.02-.04.03-.08.03-.14s-.01-.1-.03-.14c-.02-.04-.05-.07-.09-.09-.04-.02-.08-.03-.13-.03s-.09.01-.13.03c-.04.02-.07.05-.09.09-.02.04-.03.08-.03.14s.01.1.03.14c.02.04.05.07.09.09s.08.03.13.03.09-.01.13-.03Z" fill="#685f2f"/><path d="M374.9,390.14h-.6c0,.07.04.12.09.16s.11.06.18.06c.09,0,.16-.03.21-.09l.07.09s-.08.07-.12.09c-.05.02-.11.03-.17.03-.08,0-.15-.02-.21-.05s-.11-.08-.14-.13c-.03-.06-.05-.12-.05-.2s.02-.14.05-.19c.03-.06.08-.1.13-.13.06-.03.12-.05.19-.05s.13.02.19.05c.06.03.1.08.13.13.03.06.05.12.05.2,0,.01,0,.02,0,.04ZM374.38,389.89s-.07.09-.08.15h.48c0-.06-.03-.11-.08-.15-.04-.04-.1-.06-.16-.06s-.12.02-.16.06Z" fill="#685f2f"/><path d="M375.21,390.43c-.06-.03-.11-.08-.14-.13s-.05-.12-.05-.19.02-.14.05-.19c.03-.06.08-.1.14-.13.06-.03.13-.05.2-.05.07,0,.13.01.18.04.05.03.09.07.12.12l-.1.07s-.05-.06-.09-.08c-.03-.02-.07-.03-.11-.03-.05,0-.09.01-.13.03-.04.02-.07.05-.09.09-.02.04-.03.08-.03.14s.01.1.03.14c.02.04.05.07.09.09s.08.03.13.03c.04,0,.08,0,.11-.03.03-.02.06-.04.09-.08l.1.06c-.03.05-.07.09-.12.12-.05.03-.11.04-.18.04-.08,0-.14-.02-.2-.05Z" fill="#685f2f"/><path d="M375.89,389.56s-.03-.04-.03-.06,0-.04.03-.06c.02-.02.04-.03.06-.03s.05,0,.07.02c.02.02.03.04.03.06s0,.05-.03.06c-.02.02-.04.03-.07.03s-.05,0-.06-.03ZM375.89,389.73h.13v.74h-.13v-.74Z" fill="#685f2f"/><path d="M376.79,389.8c.05.05.08.13.08.22v.45h-.13v-.1s-.05.06-.1.08c-.04.02-.09.03-.15.03-.08,0-.15-.02-.2-.06-.05-.04-.07-.09-.07-.16s.02-.12.07-.16c.05-.04.12-.06.23-.06h.21v-.03c0-.06-.02-.1-.05-.13s-.08-.05-.15-.05c-.04,0-.09,0-.13.02-.04.01-.08.03-.11.06l-.06-.1s.08-.05.14-.07c.05-.02.11-.02.17-.02.1,0,.18.03.24.08ZM376.65,390.34s.06-.06.08-.1v-.1h-.21c-.11,0-.17.04-.17.11,0,.04.01.07.04.09s.07.03.12.03.1-.01.13-.03Z" fill="#685f2f"/><path d="M377.12,389.43h.13v1.04h-.13v-1.04Z" fill="#685f2f"/><path d="M377.51,389.56s-.03-.04-.03-.06,0-.04.03-.06c.02-.02.04-.03.06-.03s.05,0,.07.02c.02.02.03.04.03.06s0,.05-.03.06c-.02.02-.04.03-.07.03s-.05,0-.06-.03ZM377.51,389.73h.13v.74h-.13v-.74Z" fill="#685f2f"/><path d="M378.45,390.36v.11h-.62v-.09l.44-.54h-.43v-.11h.6v.09l-.44.54h.45Z" fill="#685f2f"/><path d="M379.13,389.8c.05.05.08.13.08.22v.45h-.13v-.1s-.05.06-.1.08c-.04.02-.09.03-.15.03-.08,0-.15-.02-.2-.06-.05-.04-.07-.09-.07-.16s.02-.12.07-.16c.05-.04.12-.06.23-.06h.21v-.03c0-.06-.02-.1-.05-.13s-.08-.05-.15-.05c-.04,0-.09,0-.13.02-.04.01-.08.03-.11.06l-.06-.1s.08-.05.14-.07c.05-.02.11-.02.17-.02.1,0,.18.03.24.08ZM379,390.34s.06-.06.08-.1v-.1h-.21c-.11,0-.17.04-.17.11,0,.04.01.07.04.09s.07.03.12.03.1-.01.13-.03Z" fill="#685f2f"/><path d="M380.16,389.43v1.04h-.13v-.12s-.07.07-.11.09-.1.03-.15.03c-.07,0-.14-.02-.19-.05-.06-.03-.1-.08-.13-.13-.03-.06-.05-.12-.05-.2s.02-.14.05-.2c.03-.06.08-.1.13-.13.06-.03.12-.05.19-.05.05,0,.1.01.15.03.04.02.08.05.11.09v-.41h.13ZM379.91,390.33s.07-.05.09-.09c.02-.04.03-.08.03-.14s-.01-.1-.03-.14c-.02-.04-.05-.07-.09-.09-.04-.02-.08-.03-.13-.03s-.09.01-.13.03c-.04.02-.07.05-.09.09-.02.04-.03.08-.03.14s.01.1.03.14c.02.04.05.07.09.09s.08.03.13.03.09-.01.13-.03Z" fill="#685f2f"/><path d="M380.92,389.8c.05.05.08.13.08.22v.45h-.13v-.1s-.05.06-.1.08c-.04.02-.09.03-.15.03-.08,0-.15-.02-.2-.06-.05-.04-.07-.09-.07-.16s.02-.12.07-.16c.05-.04.12-.06.23-.06h.21v-.03c0-.06-.02-.1-.05-.13s-.08-.05-.15-.05c-.04,0-.09,0-.13.02-.04.01-.08.03-.11.06l-.06-.1s.08-.05.14-.07c.05-.02.11-.02.17-.02.1,0,.18.03.24.08ZM380.79,390.34s.06-.06.08-.1v-.1h-.21c-.11,0-.17.04-.17.11,0,.04.01.07.04.09s.07.03.12.03.1-.01.13-.03Z" fill="#685f2f"/><path d="M364.84,374.37c-.1.09-.15.21-.15.35,0,.1.03.21.09.3.06.1.17.22.33.37.44-.24.67-.48.67-.73,0-.13-.04-.23-.13-.31-.09-.08-.21-.12-.38-.12-.19,0-.33.04-.43.13ZM369.21,378.9l.8.68-1.46,1.66-.9-.77c-.84.54-1.78.81-2.83.81-.67,0-1.27-.11-1.81-.32-.54-.21-.96-.51-1.26-.88-.31-.37-.46-.79-.46-1.26,0-.53.13-.99.4-1.38s.68-.74,1.25-1.06c-.48-.52-.73-1.06-.73-1.62,0-.45.13-.85.38-1.19.25-.34.61-.61,1.07-.8.46-.19.99-.29,1.6-.29.56,0,1.05.09,1.47.26.42.17.75.42.99.75.23.33.35.7.35,1.13s-.12.81-.36,1.14c-.24.33-.61.64-1.11.93l.9.76c.15-.32.25-.69.33-1.1l2.19.65c-.16.71-.43,1.35-.8,1.91ZM365.98,379.04l-1.55-1.33c-.31.23-.47.5-.47.81,0,.21.09.38.28.52.19.14.45.21.78.21s.64-.07.96-.21Z" fill="#942934"/><path d="M364.84,374.37c-.1.09-.15.21-.15.35,0,.1.03.21.09.3.06.1.17.22.33.37.44-.24.67-.48.67-.73,0-.13-.04-.23-.13-.31-.09-.08-.21-.12-.38-.12-.19,0-.33.04-.43.13ZM369.22,378.9l.8.68-1.46,1.66-.9-.77c-.84.54-1.78.81-2.83.81-.67,0-1.27-.11-1.81-.32-.54-.21-.96-.51-1.26-.88-.31-.37-.46-.79-.46-1.26,0-.53.13-.99.4-1.38s.68-.74,1.25-1.06c-.48-.52-.73-1.06-.73-1.62,0-.45.13-.85.38-1.19.25-.34.61-.61,1.07-.8.46-.19.99-.29,1.6-.29.56,0,1.05.09,1.47.26.42.17.75.42.99.75.23.33.35.7.35,1.13s-.12.81-.36,1.14c-.24.33-.61.64-1.11.93l.9.76c.15-.32.25-.69.33-1.1l2.19.65c-.16.71-.43,1.35-.8,1.91ZM365.99,379.04l-1.55-1.33c-.31.23-.47.5-.47.81,0,.21.09.38.28.52.19.14.45.21.78.21s.64-.07.96-.21Z" fill="#942934"/><path d="M364.85,374.36c-.1.09-.15.21-.15.35,0,.1.03.21.09.3.06.1.17.22.33.37.44-.24.67-.48.67-.73,0-.13-.04-.23-.13-.31-.09-.08-.21-.12-.38-.12-.19,0-.33.04-.43.13ZM369.22,378.9l.8.68-1.46,1.66-.9-.77c-.84.54-1.78.81-2.83.81-.67,0-1.27-.11-1.81-.32-.54-.21-.96-.51-1.26-.88-.31-.37-.46-.79-.46-1.26,0-.53.13-.99.4-1.38s.68-.74,1.25-1.06c-.48-.52-.73-1.06-.73-1.62,0-.45.13-.85.38-1.19.25-.34.61-.61,1.07-.8.46-.19.99-.29,1.6-.29.56,0,1.05.09,1.47.26.42.17.75.42.99.75.23.33.35.7.35,1.13s-.12.81-.36,1.14c-.24.33-.61.64-1.11.93l.9.76c.15-.32.25-.69.33-1.1l2.19.65c-.16.71-.43,1.35-.8,1.91ZM365.99,379.03l-1.55-1.33c-.31.23-.47.5-.47.81,0,.21.09.38.28.52.19.14.45.21.78.21s.64-.07.96-.21Z" fill="#942934"/><path d="M364.85,374.36c-.1.09-.15.21-.15.35,0,.1.03.21.09.3.06.1.17.22.33.37.44-.24.67-.48.67-.73,0-.13-.04-.23-.13-.31-.09-.08-.21-.12-.38-.12-.19,0-.33.04-.43.13ZM369.23,378.9l.8.68-1.46,1.66-.9-.77c-.84.54-1.78.81-2.83.81-.67,0-1.27-.11-1.81-.32-.54-.21-.96-.51-1.26-.88-.31-.37-.46-.79-.46-1.26,0-.53.13-.99.4-1.38s.68-.74,1.25-1.06c-.48-.52-.73-1.06-.73-1.62,0-.45.13-.85.38-1.19.25-.34.61-.61,1.07-.8.46-.19.99-.29,1.6-.29.56,0,1.05.09,1.47.26.42.17.75.42.99.75.23.33.35.7.35,1.13s-.12.81-.36,1.14c-.24.33-.61.64-1.11.93l.9.76c.15-.32.25-.69.33-1.1l2.19.65c-.16.71-.43,1.35-.8,1.91ZM366,379.03l-1.55-1.33c-.31.23-.47.5-.47.81,0,.21.09.38.28.52.19.14.45.21.78.21s.64-.07.96-.21Z" fill="#942934"/><path d="M364.86,374.36c-.1.09-.15.21-.15.35,0,.1.03.21.09.3.06.1.17.22.33.37.44-.24.67-.48.67-.73,0-.13-.04-.23-.13-.31-.09-.08-.21-.12-.38-.12-.19,0-.33.04-.43.13ZM369.23,378.89l.8.68-1.46,1.66-.9-.77c-.84.54-1.78.81-2.83.81-.67,0-1.27-.11-1.81-.32-.54-.21-.96-.51-1.26-.88-.31-.37-.46-.79-.46-1.26,0-.53.13-.99.4-1.38s.68-.74,1.25-1.06c-.48-.52-.73-1.06-.73-1.62,0-.45.13-.85.38-1.19.25-.34.61-.61,1.07-.8.46-.19.99-.29,1.6-.29.56,0,1.05.09,1.47.26.42.17.75.42.99.75.23.33.35.7.35,1.13s-.12.81-.36,1.14c-.24.33-.61.64-1.11.93l.9.76c.15-.32.25-.69.33-1.1l2.19.65c-.16.71-.43,1.35-.8,1.91ZM366,379.03l-1.55-1.33c-.31.23-.47.5-.47.81,0,.21.09.38.28.52.19.14.45.21.78.21s.64-.07.96-.21Z" fill="#942934"/><path d="M364.86,374.36c-.1.09-.15.21-.15.35,0,.1.03.21.09.3.06.1.17.22.33.37.44-.24.67-.48.67-.73,0-.13-.04-.23-.13-.31-.09-.08-.21-.12-.38-.12-.19,0-.33.04-.43.13ZM369.24,378.89l.8.68-1.46,1.66-.9-.77c-.84.54-1.78.81-2.83.81-.67,0-1.27-.11-1.81-.32-.54-.21-.96-.51-1.26-.88-.31-.37-.46-.79-.46-1.26,0-.53.13-.99.4-1.38s.68-.74,1.25-1.06c-.48-.52-.73-1.06-.73-1.62,0-.45.13-.85.38-1.19.25-.34.61-.61,1.07-.8.46-.19.99-.29,1.6-.29.56,0,1.05.09,1.47.26.42.17.75.42.99.75.23.33.35.7.35,1.13s-.12.81-.36,1.14c-.24.33-.61.64-1.11.93l.9.76c.15-.32.25-.69.33-1.1l2.19.65c-.16.71-.43,1.35-.8,1.91ZM366.01,379.02l-1.55-1.33c-.31.23-.47.5-.47.81,0,.21.09.38.28.52.19.14.45.21.78.21s.64-.07.96-.21Z" fill="#942934"/><path d="M364.87,374.35c-.1.09-.15.21-.15.35,0,.1.03.21.09.3.06.1.17.22.33.37.44-.24.67-.48.67-.73,0-.13-.04-.23-.13-.31-.09-.08-.21-.12-.38-.12-.19,0-.33.04-.43.13ZM369.24,378.89l.8.68-1.46,1.66-.9-.77c-.84.54-1.78.81-2.83.81-.67,0-1.27-.11-1.81-.32-.54-.21-.96-.51-1.26-.88-.31-.37-.46-.79-.46-1.26,0-.53.13-.99.4-1.38s.68-.74,1.25-1.06c-.48-.52-.73-1.06-.73-1.62,0-.45.13-.85.38-1.19.25-.34.61-.61,1.07-.8.46-.19.99-.29,1.6-.29.56,0,1.05.09,1.47.26.42.17.75.42.99.75.23.33.35.7.35,1.13s-.12.81-.36,1.14c-.24.33-.61.64-1.11.93l.9.76c.15-.32.25-.69.33-1.1l2.19.65c-.16.71-.43,1.35-.8,1.91ZM366.01,379.02l-1.55-1.33c-.31.23-.47.5-.47.81,0,.21.09.38.28.52.19.14.45.21.78.21s.64-.07.96-.21Z" fill="#942934"/><path d="M364.87,374.35c-.1.09-.15.21-.15.35,0,.1.03.21.09.3.06.1.17.22.33.37.44-.24.67-.48.67-.73,0-.13-.04-.23-.13-.31-.09-.08-.21-.12-.38-.12-.19,0-.33.04-.43.13ZM369.25,378.89l.8.68-1.46,1.66-.9-.77c-.84.54-1.78.81-2.83.81-.67,0-1.27-.11-1.81-.32-.54-.21-.96-.51-1.26-.88-.31-.37-.46-.79-.46-1.26,0-.53.13-.99.4-1.38s.68-.74,1.25-1.06c-.48-.52-.73-1.06-.73-1.62,0-.45.13-.85.38-1.19.25-.34.61-.61,1.07-.8.46-.19.99-.29,1.6-.29.56,0,1.05.09,1.47.26.42.17.75.42.99.75.23.33.35.7.35,1.13s-.12.81-.36,1.14c-.24.33-.61.64-1.11.93l.9.76c.15-.32.25-.69.33-1.1l2.19.65c-.16.71-.43,1.35-.8,1.91ZM366.02,379.02l-1.55-1.33c-.31.23-.47.5-.47.81,0,.21.09.38.28.52.19.14.45.21.78.21s.64-.07.96-.21Z" fill="#942934"/><path d="M364.88,374.35c-.1.09-.15.21-.15.35,0,.1.03.21.09.3.06.1.17.22.33.37.44-.24.67-.48.67-.73,0-.13-.04-.23-.13-.31-.09-.08-.21-.12-.38-.12-.19,0-.33.04-.43.13ZM369.25,378.88l.8.68-1.46,1.66-.9-.77c-.84.54-1.78.81-2.83.81-.67,0-1.27-.11-1.81-.32-.54-.21-.96-.51-1.26-.88-.31-.37-.46-.79-.46-1.26,0-.53.13-.99.4-1.38s.68-.74,1.25-1.06c-.48-.52-.73-1.06-.73-1.62,0-.45.13-.85.38-1.19.25-.34.61-.61,1.07-.8.46-.19.99-.29,1.6-.29.56,0,1.05.09,1.47.26.42.17.75.42.99.75.23.33.35.7.35,1.13s-.12.81-.36,1.14c-.24.33-.61.64-1.11.93l.9.76c.15-.32.25-.69.33-1.1l2.19.65c-.16.71-.43,1.35-.8,1.91ZM366.02,379.02l-1.55-1.33c-.31.23-.47.5-.47.81,0,.21.09.38.28.52.19.14.45.21.78.21s.64-.07.96-.21Z" fill="#942934"/><path d="M364.88,374.35c-.1.09-.15.21-.15.35,0,.1.03.21.09.3.06.1.17.22.33.37.44-.24.67-.48.67-.73,0-.13-.04-.23-.13-.31-.09-.08-.21-.12-.38-.12-.19,0-.33.04-.43.13ZM369.26,378.88l.8.68-1.46,1.66-.9-.77c-.84.54-1.78.81-2.83.81-.67,0-1.27-.11-1.81-.32-.54-.21-.96-.51-1.26-.88-.31-.37-.46-.79-.46-1.26,0-.53.13-.99.4-1.38s.68-.74,1.25-1.06c-.48-.52-.73-1.06-.73-1.62,0-.45.13-.85.38-1.19.25-.34.61-.61,1.07-.8.46-.19.99-.29,1.6-.29.56,0,1.05.09,1.47.26.42.17.75.42.99.75.23.33.35.7.35,1.13s-.12.81-.36,1.14c-.24.33-.61.64-1.11.93l.9.76c.15-.32.25-.69.33-1.1l2.19.65c-.16.71-.43,1.35-.8,1.91ZM366.03,379.01l-1.55-1.33c-.31.23-.47.5-.47.81,0,.21.09.38.28.52.19.14.45.21.78.21s.64-.07.96-.21Z" fill="#942934"/><path d="M364.89,374.34c-.1.09-.15.21-.15.35,0,.1.03.21.09.3.06.1.17.22.33.37.44-.24.67-.48.67-.73,0-.13-.04-.23-.13-.31-.09-.08-.21-.12-.38-.12-.19,0-.33.04-.43.13ZM369.26,378.88l.8.68-1.46,1.66-.9-.77c-.84.54-1.78.81-2.83.81-.67,0-1.27-.11-1.81-.32-.54-.21-.96-.51-1.26-.88-.31-.37-.46-.79-.46-1.26,0-.53.13-.99.4-1.38s.68-.74,1.25-1.06c-.48-.52-.73-1.06-.73-1.62,0-.45.13-.85.38-1.19.25-.34.61-.61,1.07-.8.46-.19.99-.29,1.6-.29.56,0,1.05.09,1.47.26.42.17.75.42.99.75.23.33.35.7.35,1.13s-.12.81-.36,1.14c-.24.33-.61.64-1.11.93l.9.76c.15-.32.25-.69.33-1.1l2.19.65c-.16.71-.43,1.35-.8,1.91ZM366.03,379.01l-1.55-1.33c-.31.23-.47.5-.47.81,0,.21.09.38.28.52.19.14.45.21.78.21s.64-.07.96-.21Z" fill="#942934"/><path d="M364.89,374.34c-.1.09-.15.21-.15.35,0,.1.03.21.09.3.06.1.17.22.33.37.44-.24.67-.48.67-.73,0-.13-.04-.23-.13-.31-.09-.08-.21-.12-.38-.12-.19,0-.33.04-.43.13ZM369.27,378.88l.8.68-1.46,1.66-.9-.77c-.84.54-1.78.81-2.83.81-.67,0-1.27-.11-1.81-.32-.54-.21-.96-.51-1.26-.88-.31-.37-.46-.79-.46-1.26,0-.53.13-.99.4-1.38s.68-.74,1.25-1.06c-.48-.52-.73-1.06-.73-1.62,0-.45.13-.85.38-1.19.25-.34.61-.61,1.07-.8.46-.19.99-.29,1.6-.29.56,0,1.05.09,1.47.26.42.17.75.42.99.75.23.33.35.7.35,1.13s-.12.81-.36,1.14c-.24.33-.61.64-1.11.93l.9.76c.15-.32.25-.69.33-1.1l2.19.65c-.16.71-.43,1.35-.8,1.91ZM366.04,379.01l-1.55-1.33c-.31.23-.47.5-.47.81,0,.21.09.38.28.52.19.14.45.21.78.21s.64-.07.96-.21Z" fill="#942934"/><path d="M364.9,374.34c-.1.09-.15.21-.15.35,0,.1.03.21.09.3.06.1.17.22.33.37.44-.24.67-.48.67-.73,0-.13-.04-.23-.13-.31-.09-.08-.21-.12-.38-.12-.19,0-.33.04-.43.13ZM369.27,378.87l.8.68-1.46,1.66-.9-.77c-.84.54-1.78.81-2.83.81-.67,0-1.27-.11-1.81-.32-.54-.21-.96-.51-1.26-.88-.31-.37-.46-.79-.46-1.26,0-.53.13-.99.4-1.38s.68-.74,1.25-1.06c-.48-.52-.73-1.06-.73-1.62,0-.45.13-.85.38-1.19.25-.34.61-.61,1.07-.8.46-.19.99-.29,1.6-.29.56,0,1.05.09,1.47.26.42.17.75.42.99.75.23.33.35.7.35,1.13s-.12.81-.36,1.14c-.24.33-.61.64-1.11.93l.9.76c.15-.32.25-.69.33-1.1l2.19.65c-.16.71-.43,1.35-.8,1.91ZM366.04,379.01l-1.55-1.33c-.31.23-.47.5-.47.81,0,.21.09.38.28.52.19.14.45.21.78.21s.64-.07.96-.21Z" fill="#942934"/><path d="M364.9,374.33c-.1.09-.15.21-.15.35,0,.1.03.21.09.3.06.1.17.22.33.37.44-.24.67-.48.67-.73,0-.13-.04-.23-.13-.31-.09-.08-.21-.12-.38-.12-.19,0-.33.04-.43.13ZM369.28,378.87l.8.68-1.46,1.66-.9-.77c-.84.54-1.78.81-2.83.81-.67,0-1.27-.11-1.81-.32-.54-.21-.96-.51-1.26-.88-.31-.37-.46-.79-.46-1.26,0-.53.13-.99.4-1.38s.68-.74,1.25-1.06c-.48-.52-.73-1.06-.73-1.62,0-.45.13-.85.38-1.19.25-.34.61-.61,1.07-.8.46-.19.99-.29,1.6-.29.56,0,1.05.09,1.47.26.42.17.75.42.99.75.23.33.35.7.35,1.13s-.12.81-.36,1.14c-.24.33-.61.64-1.11.93l.9.76c.15-.32.25-.69.33-1.1l2.19.65c-.16.71-.43,1.35-.8,1.91ZM366.05,379l-1.55-1.33c-.31.23-.47.5-.47.81,0,.21.09.38.28.52.19.14.45.21.78.21s.64-.07.96-.21Z" fill="#942934"/><path d="M364.91,374.33c-.1.09-.15.21-.15.35,0,.1.03.21.09.3.06.1.17.22.33.37.44-.24.67-.48.67-.73,0-.13-.04-.23-.13-.31-.09-.08-.21-.12-.38-.12-.19,0-.33.04-.43.13ZM369.28,378.87l.8.68-1.46,1.66-.9-.77c-.84.54-1.78.81-2.83.81-.67,0-1.27-.11-1.81-.32-.54-.21-.96-.51-1.26-.88-.31-.37-.46-.79-.46-1.26,0-.53.13-.99.4-1.38s.68-.74,1.25-1.06c-.48-.52-.73-1.06-.73-1.62,0-.45.13-.85.38-1.19.25-.34.61-.61,1.07-.8.46-.19.99-.29,1.6-.29.56,0,1.05.09,1.47.26.42.17.75.42.99.75.23.33.35.7.35,1.13s-.12.81-.36,1.14c-.24.33-.61.64-1.11.93l.9.76c.15-.32.25-.69.33-1.1l2.19.65c-.16.71-.43,1.35-.8,1.91ZM366.05,379l-1.55-1.33c-.31.23-.47.5-.47.81,0,.21.09.38.28.52.19.14.45.21.78.21s.64-.07.96-.21Z" fill="#942934"/><path d="M364.91,374.33c-.1.09-.15.21-.15.35,0,.1.03.21.09.3.06.1.17.22.33.37.44-.24.67-.48.67-.73,0-.13-.04-.23-.13-.31-.09-.08-.21-.12-.38-.12-.19,0-.33.04-.43.13ZM369.29,378.87l.8.68-1.46,1.66-.9-.77c-.84.54-1.78.81-2.83.81-.67,0-1.27-.11-1.81-.32-.54-.21-.96-.51-1.26-.88-.31-.37-.46-.79-.46-1.26,0-.53.13-.99.4-1.38s.68-.74,1.25-1.06c-.48-.52-.73-1.06-.73-1.62,0-.45.13-.85.38-1.19.25-.34.61-.61,1.07-.8.46-.19.99-.29,1.6-.29.56,0,1.05.09,1.47.26.42.17.75.42.99.75.23.33.35.7.35,1.13s-.12.81-.36,1.14c-.24.33-.61.64-1.11.93l.9.76c.15-.32.25-.69.33-1.1l2.19.65c-.16.71-.43,1.35-.8,1.91ZM366.06,379l-1.55-1.33c-.31.23-.47.5-.47.81,0,.21.09.38.28.52.19.14.45.21.78.21s.64-.07.96-.21Z" fill="#942934"/><path d="M364.92,374.33c-.1.09-.15.21-.15.35,0,.1.03.21.09.3.06.1.17.22.33.37.44-.24.67-.48.67-.73,0-.13-.04-.23-.13-.31-.09-.08-.21-.12-.38-.12-.19,0-.33.04-.43.13ZM369.29,378.86l.8.68-1.46,1.66-.9-.77c-.84.54-1.78.81-2.83.81-.67,0-1.27-.11-1.81-.32-.54-.21-.96-.51-1.26-.88-.31-.37-.46-.79-.46-1.26,0-.53.13-.99.4-1.38s.68-.74,1.25-1.06c-.48-.52-.73-1.06-.73-1.62,0-.45.13-.85.38-1.19.25-.34.61-.61,1.07-.8.46-.19.99-.29,1.6-.29.56,0,1.05.09,1.47.26.42.17.75.42.99.75.23.33.35.7.35,1.13s-.12.81-.36,1.14c-.24.33-.61.64-1.11.93l.9.76c.15-.32.25-.69.33-1.1l2.19.65c-.16.71-.43,1.35-.8,1.91ZM366.06,379l-1.55-1.33c-.31.23-.47.5-.47.81,0,.21.09.38.28.52.19.14.45.21.78.21s.64-.07.96-.21Z" fill="#942934"/><path d="M364.92,374.32c-.1.09-.15.21-.15.35,0,.1.03.21.09.3.06.1.17.22.33.37.44-.24.67-.48.67-.73,0-.13-.04-.23-.13-.31-.09-.08-.21-.12-.38-.12-.19,0-.33.04-.43.13ZM369.3,378.86l.8.68-1.46,1.66-.9-.77c-.84.54-1.78.81-2.83.81-.67,0-1.27-.11-1.81-.32-.54-.21-.96-.51-1.26-.88-.31-.37-.46-.79-.46-1.26,0-.53.13-.99.4-1.38s.68-.74,1.25-1.06c-.48-.52-.73-1.06-.73-1.62,0-.45.13-.85.38-1.19.25-.34.61-.61,1.07-.8.46-.19.99-.29,1.6-.29.56,0,1.05.09,1.47.26.42.17.75.42.99.75.23.33.35.7.35,1.13s-.12.81-.36,1.14c-.24.33-.61.64-1.11.93l.9.76c.15-.32.25-.69.33-1.1l2.19.65c-.16.71-.43,1.35-.8,1.91ZM366.07,378.99l-1.55-1.33c-.31.23-.47.5-.47.81,0,.21.09.38.28.52.19.14.45.21.78.21s.64-.07.96-.21Z" fill="#942934"/><path d="M364.93,374.32c-.1.09-.15.21-.15.35,0,.1.03.21.09.3.06.1.17.22.33.37.44-.24.67-.48.67-.73,0-.13-.04-.23-.13-.31-.09-.08-.21-.12-.38-.12-.19,0-.33.04-.43.13ZM369.3,378.86l.8.68-1.46,1.66-.9-.77c-.84.54-1.78.81-2.83.81-.67,0-1.27-.11-1.81-.32-.54-.21-.96-.51-1.26-.88-.31-.37-.46-.79-.46-1.26,0-.53.13-.99.4-1.38s.68-.74,1.25-1.06c-.48-.52-.73-1.06-.73-1.62,0-.45.13-.85.38-1.19.25-.34.61-.61,1.07-.8.46-.19.99-.29,1.6-.29.56,0,1.05.09,1.47.26.42.17.75.42.99.75.23.33.35.7.35,1.13s-.12.81-.36,1.14c-.24.33-.61.64-1.11.93l.9.76c.15-.32.25-.69.33-1.1l2.19.65c-.16.71-.43,1.35-.8,1.91ZM366.07,378.99l-1.55-1.33c-.31.23-.47.5-.47.81,0,.21.09.38.28.52.19.14.45.21.78.21s.64-.07.96-.21Z" fill="#942934"/><path d="M364.93,374.32c-.1.09-.15.21-.15.35,0,.1.03.21.09.3.06.1.17.22.33.37.44-.24.67-.48.67-.73,0-.13-.04-.23-.13-.31-.09-.08-.21-.12-.38-.12-.19,0-.33.04-.43.13ZM369.31,378.86l.8.68-1.46,1.66-.9-.77c-.84.54-1.78.81-2.83.81-.67,0-1.27-.11-1.81-.32-.54-.21-.96-.51-1.26-.88-.31-.37-.46-.79-.46-1.26,0-.53.13-.99.4-1.38s.68-.74,1.25-1.06c-.48-.52-.73-1.06-.73-1.62,0-.45.13-.85.38-1.19.25-.34.61-.61,1.07-.8.46-.19.99-.29,1.6-.29.56,0,1.05.09,1.47.26.42.17.75.42.99.75.23.33.35.7.35,1.13s-.12.81-.36,1.14c-.24.33-.61.64-1.11.93l.9.76c.15-.32.25-.69.33-1.1l2.19.65c-.16.71-.43,1.35-.8,1.91ZM366.08,378.99l-1.55-1.33c-.31.23-.47.5-.47.81,0,.21.09.38.28.52.19.14.45.21.78.21s.64-.07.96-.21Z" fill="#942934"/><path d="M364.94,374.32c-.1.09-.15.21-.15.35,0,.1.03.21.09.3.06.1.17.22.33.37.44-.24.67-.48.67-.73,0-.13-.04-.23-.13-.31-.09-.08-.21-.12-.38-.12-.19,0-.33.04-.43.13ZM369.31,378.85l.8.68-1.46,1.66-.9-.77c-.84.54-1.78.81-2.83.81-.67,0-1.27-.11-1.81-.32-.54-.21-.96-.51-1.26-.88-.31-.37-.46-.79-.46-1.26,0-.53.13-.99.4-1.38s.68-.74,1.25-1.06c-.48-.52-.73-1.06-.73-1.62,0-.45.13-.85.38-1.19.25-.34.61-.61,1.07-.8.46-.19.99-.29,1.6-.29.56,0,1.05.09,1.47.26.42.17.75.42.99.75.23.33.35.7.35,1.13s-.12.81-.36,1.14c-.24.33-.61.64-1.11.93l.9.76c.15-.32.25-.69.33-1.1l2.19.65c-.16.71-.43,1.35-.8,1.91ZM366.08,378.99l-1.55-1.33c-.31.23-.47.5-.47.81,0,.21.09.38.28.52.19.14.45.21.78.21s.64-.07.96-.21Z" fill="#942934"/><path d="M364.94,374.31c-.1.09-.15.21-.15.35,0,.1.03.21.09.3.06.1.17.22.33.37.44-.24.67-.48.67-.73,0-.13-.04-.23-.13-.31-.09-.08-.21-.12-.38-.12-.19,0-.33.04-.43.13ZM369.32,378.85l.8.68-1.46,1.66-.9-.77c-.84.54-1.78.81-2.83.81-.67,0-1.27-.11-1.81-.32-.54-.21-.96-.51-1.26-.88-.31-.37-.46-.79-.46-1.26,0-.53.13-.99.4-1.38s.68-.74,1.25-1.06c-.48-.52-.73-1.06-.73-1.62,0-.45.13-.85.38-1.19.25-.34.61-.61,1.07-.8.46-.19.99-.29,1.6-.29.56,0,1.05.09,1.47.26.42.17.75.42.99.75.23.33.35.7.35,1.13s-.12.81-.36,1.14c-.24.33-.61.64-1.11.93l.9.76c.15-.32.25-.69.33-1.1l2.19.65c-.16.71-.43,1.35-.8,1.91ZM366.09,378.98l-1.55-1.33c-.31.23-.47.5-.47.81,0,.21.09.38.28.52.19.14.45.21.78.21s.64-.07.96-.21Z" fill="#942934"/><path d="M364.95,374.31c-.1.09-.15.21-.15.35,0,.1.03.21.09.3.06.1.17.22.33.37.44-.24.67-.48.67-.73,0-.13-.04-.23-.13-.31-.09-.08-.21-.12-.38-.12-.19,0-.33.04-.43.13ZM369.32,378.85l.8.68-1.46,1.66-.9-.77c-.84.54-1.78.81-2.83.81-.67,0-1.27-.11-1.81-.32-.54-.21-.96-.51-1.26-.88-.31-.37-.46-.79-.46-1.26,0-.53.13-.99.4-1.38s.68-.74,1.25-1.06c-.48-.52-.73-1.06-.73-1.62,0-.45.13-.85.38-1.19.25-.34.61-.61,1.07-.8.46-.19.99-.29,1.6-.29.56,0,1.05.09,1.47.26.42.17.75.42.99.75.23.33.35.7.35,1.13s-.12.81-.36,1.14c-.24.33-.61.64-1.11.93l.9.76c.15-.32.25-.69.33-1.1l2.19.65c-.16.71-.43,1.35-.8,1.91ZM366.09,378.98l-1.55-1.33c-.31.23-.47.5-.47.81,0,.21.09.38.28.52.19.14.45.21.78.21s.64-.07.96-.21Z" fill="#942934"/><path d="M364.95,374.31c-.1.09-.15.21-.15.35,0,.1.03.21.09.3.06.1.17.22.33.37.44-.24.67-.48.67-.73,0-.13-.04-.23-.13-.31-.09-.08-.21-.12-.38-.12-.19,0-.33.04-.43.13ZM369.33,378.85l.8.68-1.46,1.66-.9-.77c-.84.54-1.78.81-2.83.81-.67,0-1.27-.11-1.81-.32-.54-.21-.96-.51-1.26-.88-.31-.37-.46-.79-.46-1.26,0-.53.13-.99.4-1.38s.68-.74,1.25-1.06c-.48-.52-.73-1.06-.73-1.62,0-.45.13-.85.38-1.19.25-.34.61-.61,1.07-.8.46-.19.99-.29,1.6-.29.56,0,1.05.09,1.47.26.42.17.75.42.99.75.23.33.35.7.35,1.13s-.12.81-.36,1.14c-.24.33-.61.64-1.11.93l.9.76c.15-.32.25-.69.33-1.1l2.19.65c-.16.71-.43,1.35-.8,1.91ZM366.1,378.98l-1.55-1.33c-.31.23-.47.5-.47.81,0,.21.09.38.28.52.19.14.45.21.78.21s.64-.07.96-.21Z" fill="#942934"/><path d="M364.96,374.31c-.1.09-.15.21-.15.35,0,.1.03.21.09.3.06.1.17.22.33.37.44-.24.67-.48.67-.73,0-.13-.04-.23-.13-.31-.09-.08-.21-.12-.38-.12-.19,0-.33.04-.43.13ZM369.33,378.84l.8.68-1.46,1.66-.9-.77c-.84.54-1.78.81-2.83.81-.67,0-1.27-.11-1.81-.32-.54-.21-.96-.51-1.26-.88-.31-.37-.46-.79-.46-1.26,0-.53.13-.99.4-1.38s.68-.74,1.25-1.06c-.48-.52-.73-1.06-.73-1.62,0-.45.13-.85.38-1.19.25-.34.61-.61,1.07-.8.46-.19.99-.29,1.6-.29.56,0,1.05.09,1.47.26.42.17.75.42.99.75.23.33.35.7.35,1.13s-.12.81-.36,1.14c-.24.33-.61.64-1.11.93l.9.76c.15-.32.25-.69.33-1.1l2.19.65c-.16.71-.43,1.35-.8,1.91ZM366.1,378.98l-1.55-1.33c-.31.23-.47.5-.47.81,0,.21.09.38.28.52.19.14.45.21.78.21s.64-.07.96-.21Z" fill="#942934"/><path d="M364.96,374.3c-.1.09-.15.21-.15.35,0,.1.03.21.09.3.06.1.17.22.33.37.44-.24.67-.48.67-.73,0-.13-.04-.23-.13-.31-.09-.08-.21-.12-.38-.12-.19,0-.33.04-.43.13ZM369.34,378.84l.8.68-1.46,1.66-.9-.77c-.84.54-1.78.81-2.83.81-.67,0-1.27-.11-1.81-.32-.54-.21-.96-.51-1.26-.88-.31-.37-.46-.79-.46-1.26,0-.53.13-.99.4-1.38s.68-.74,1.25-1.06c-.48-.52-.73-1.06-.73-1.62,0-.45.13-.85.38-1.19.25-.34.61-.61,1.07-.8.46-.19.99-.29,1.6-.29.56,0,1.05.09,1.47.26.42.17.75.42.99.75.23.33.35.7.35,1.13s-.12.81-.36,1.14c-.24.33-.61.64-1.11.93l.9.76c.15-.32.25-.69.33-1.1l2.19.65c-.16.71-.43,1.35-.8,1.91ZM366.11,378.97l-1.55-1.33c-.31.23-.47.5-.47.81,0,.21.09.38.28.52.19.14.45.21.78.21s.64-.07.96-.21Z" fill="#942934"/><path d="M364.97,374.3c-.1.09-.15.21-.15.35,0,.1.03.21.09.3.06.1.17.22.33.37.44-.24.67-.48.67-.73,0-.13-.04-.23-.13-.31-.09-.08-.21-.12-.38-.12-.19,0-.33.04-.43.13ZM369.34,378.84l.8.68-1.46,1.66-.9-.77c-.84.54-1.78.81-2.83.81-.67,0-1.27-.11-1.81-.32-.54-.21-.96-.51-1.26-.88-.31-.37-.46-.79-.46-1.26,0-.53.13-.99.4-1.38s.68-.74,1.25-1.06c-.48-.52-.73-1.06-.73-1.62,0-.45.13-.85.38-1.19.25-.34.61-.61,1.07-.8.46-.19.99-.29,1.6-.29.56,0,1.05.09,1.47.26.42.17.75.42.99.75.23.33.35.7.35,1.13s-.12.81-.36,1.14c-.24.33-.61.64-1.11.93l.9.76c.15-.32.25-.69.33-1.1l2.19.65c-.16.71-.43,1.35-.8,1.91ZM366.11,378.97l-1.55-1.33c-.31.23-.47.5-.47.81,0,.21.09.38.28.52.19.14.45.21.78.21s.64-.07.96-.21Z" fill="#942934"/><path d="M364.97,374.3c-.1.09-.15.21-.15.35,0,.1.03.21.09.3.06.1.17.22.33.37.44-.24.67-.48.67-.73,0-.13-.04-.23-.13-.31-.09-.08-.21-.12-.38-.12-.19,0-.33.04-.43.13ZM369.35,378.84l.8.68-1.46,1.66-.9-.77c-.84.54-1.78.81-2.83.81-.67,0-1.27-.11-1.81-.32-.54-.21-.96-.51-1.26-.88-.31-.37-.46-.79-.46-1.26,0-.53.13-.99.4-1.38s.68-.74,1.25-1.06c-.48-.52-.73-1.06-.73-1.62,0-.45.13-.85.38-1.19.25-.34.61-.61,1.07-.8.46-.19.99-.29,1.6-.29.56,0,1.05.09,1.47.26.42.17.75.42.99.75.23.33.35.7.35,1.13s-.12.81-.36,1.14c-.24.33-.61.64-1.11.93l.9.76c.15-.32.25-.69.33-1.1l2.19.65c-.16.71-.43,1.35-.8,1.91ZM366.12,378.97l-1.55-1.33c-.31.23-.47.5-.47.81,0,.21.09.38.28.52.19.14.45.21.78.21s.64-.07.96-.21Z" fill="#942934"/><path d="M364.98,374.3c-.1.09-.15.21-.15.35,0,.1.03.21.09.3.06.1.17.22.33.37.44-.24.67-.48.67-.73,0-.13-.04-.23-.13-.31-.09-.08-.21-.12-.38-.12-.19,0-.33.04-.43.13ZM369.35,378.83l.8.68-1.46,1.66-.9-.77c-.84.54-1.78.81-2.83.81-.67,0-1.27-.11-1.81-.32-.54-.21-.96-.51-1.26-.88-.31-.37-.46-.79-.46-1.26,0-.53.13-.99.4-1.38s.68-.74,1.25-1.06c-.48-.52-.73-1.06-.73-1.62,0-.45.13-.85.38-1.19.25-.34.61-.61,1.07-.8.46-.19.99-.29,1.6-.29.56,0,1.05.09,1.47.26.42.17.75.42.99.75.23.33.35.7.35,1.13s-.12.81-.36,1.14c-.24.33-.61.64-1.11.93l.9.76c.15-.32.25-.69.33-1.1l2.19.65c-.16.71-.43,1.35-.8,1.91ZM366.12,378.97l-1.55-1.33c-.31.23-.47.5-.47.81,0,.21.09.38.28.52.19.14.45.21.78.21s.64-.07.96-.21Z" fill="#942934"/><path d="M364.98,374.29c-.1.09-.15.21-.15.35,0,.1.03.21.09.3.06.1.17.22.33.37.44-.24.67-.48.67-.73,0-.13-.04-.23-.13-.31-.09-.08-.21-.12-.38-.12-.19,0-.33.04-.43.13ZM369.36,378.83l.8.68-1.46,1.66-.9-.77c-.84.54-1.78.81-2.83.81-.67,0-1.27-.11-1.81-.32-.54-.21-.96-.51-1.26-.88-.31-.37-.46-.79-.46-1.26,0-.53.13-.99.4-1.38s.68-.74,1.25-1.06c-.48-.52-.73-1.06-.73-1.62,0-.45.13-.85.38-1.19.25-.34.61-.61,1.07-.8.46-.19.99-.29,1.6-.29.56,0,1.05.09,1.47.26.42.17.75.42.99.75.23.33.35.7.35,1.13s-.12.81-.36,1.14c-.24.33-.61.64-1.11.93l.9.76c.15-.32.25-.69.33-1.1l2.19.65c-.16.71-.43,1.35-.8,1.91ZM366.13,378.96l-1.55-1.33c-.31.23-.47.5-.47.81,0,.21.09.38.28.52.19.14.45.21.78.21s.64-.07.96-.21Z" fill="#942934"/><path d="M364.99,374.29c-.1.09-.15.21-.15.35,0,.1.03.21.09.3.06.1.17.22.33.37.44-.24.67-.48.67-.73,0-.13-.04-.23-.13-.31-.09-.08-.21-.12-.38-.12-.19,0-.33.04-.43.13ZM369.36,378.83l.8.68-1.46,1.66-.9-.77c-.84.54-1.78.81-2.83.81-.67,0-1.27-.11-1.81-.32-.54-.21-.96-.51-1.26-.88-.31-.37-.46-.79-.46-1.26,0-.53.13-.99.4-1.38s.68-.74,1.25-1.06c-.48-.52-.73-1.06-.73-1.62,0-.45.13-.85.38-1.19.25-.34.61-.61,1.07-.8.46-.19.99-.29,1.6-.29.56,0,1.05.09,1.47.26.42.17.75.42.99.75.23.33.35.7.35,1.13s-.12.81-.36,1.14c-.24.33-.61.64-1.11.93l.9.76c.15-.32.25-.69.33-1.1l2.19.65c-.16.71-.43,1.35-.8,1.91ZM366.13,378.96l-1.55-1.33c-.31.23-.47.5-.47.81,0,.21.09.38.28.52.19.14.45.21.78.21s.64-.07.96-.21Z" fill="#942934"/><path d="M364.99,374.29c-.1.09-.15.21-.15.35,0,.1.03.21.09.3.06.1.17.22.33.37.44-.24.67-.48.67-.73,0-.13-.04-.23-.13-.31-.09-.08-.21-.12-.38-.12-.19,0-.33.04-.43.13ZM369.37,378.83l.8.68-1.46,1.66-.9-.77c-.84.54-1.78.81-2.83.81-.67,0-1.27-.11-1.81-.32-.54-.21-.96-.51-1.26-.88-.31-.37-.46-.79-.46-1.26,0-.53.13-.99.4-1.38s.68-.74,1.25-1.06c-.48-.52-.73-1.06-.73-1.62,0-.45.13-.85.38-1.19.25-.34.61-.61,1.07-.8.46-.19.99-.29,1.6-.29.56,0,1.05.09,1.47.26.42.17.75.42.99.75.23.33.35.7.35,1.13s-.12.81-.36,1.14c-.24.33-.61.64-1.11.93l.9.76c.15-.32.25-.69.33-1.1l2.19.65c-.16.71-.43,1.35-.8,1.91ZM366.14,378.96l-1.55-1.33c-.31.23-.47.5-.47.81,0,.21.09.38.28.52.19.14.45.21.78.21s.64-.07.96-.21Z" fill="#942934"/><path d="M365,374.29c-.1.09-.15.21-.15.35,0,.1.03.21.09.3.06.1.17.22.33.37.44-.24.67-.48.67-.73,0-.13-.04-.23-.13-.31-.09-.08-.21-.12-.38-.12-.19,0-.33.04-.43.13ZM369.37,378.82l.8.68-1.46,1.66-.9-.77c-.84.54-1.78.81-2.83.81-.67,0-1.27-.11-1.81-.32-.54-.21-.96-.51-1.26-.88-.31-.37-.46-.79-.46-1.26,0-.53.13-.99.4-1.38s.68-.74,1.25-1.06c-.48-.52-.73-1.06-.73-1.62,0-.45.13-.85.38-1.19.25-.34.61-.61,1.07-.8.46-.19.99-.29,1.6-.29.56,0,1.05.09,1.47.26.42.17.75.42.99.75.23.33.35.7.35,1.13s-.12.81-.36,1.14c-.24.33-.61.64-1.11.93l.9.76c.15-.32.25-.69.33-1.1l2.19.65c-.16.71-.43,1.35-.8,1.91ZM366.14,378.96l-1.55-1.33c-.31.23-.47.5-.47.81,0,.21.09.38.28.52.19.14.45.21.78.21s.64-.07.96-.21Z" fill="#942934"/><path d="M365,374.28c-.1.09-.15.21-.15.35,0,.1.03.21.09.3.06.1.17.22.33.37.44-.24.67-.48.67-.73,0-.13-.04-.23-.13-.31-.09-.08-.21-.12-.38-.12-.19,0-.33.04-.43.13ZM369.38,378.82l.8.68-1.46,1.66-.9-.77c-.84.54-1.78.81-2.83.81-.67,0-1.27-.11-1.81-.32-.54-.21-.96-.51-1.26-.88-.31-.37-.46-.79-.46-1.26,0-.53.13-.99.4-1.38.27-.39.68-.74,1.25-1.06-.48-.52-.73-1.06-.73-1.62,0-.45.13-.85.38-1.19.25-.34.61-.61,1.07-.8.46-.19.99-.29,1.6-.29.56,0,1.05.09,1.47.26.42.17.75.42.99.75.23.33.35.7.35,1.13s-.12.81-.36,1.14c-.24.33-.61.64-1.11.93l.9.76c.15-.32.25-.69.33-1.1l2.19.65c-.16.71-.43,1.35-.8,1.91ZM366.15,378.95l-1.55-1.33c-.31.23-.47.5-.47.81,0,.21.09.38.28.52.19.14.45.21.78.21s.64-.07.96-.21Z" fill="#942934"/><path d="M365.01,374.28c-.1.09-.15.21-.15.35,0,.1.03.21.09.3.06.1.17.22.33.37.44-.24.67-.48.67-.73,0-.13-.04-.23-.13-.31-.09-.08-.21-.12-.38-.12-.19,0-.33.04-.43.13ZM369.38,378.82l.8.68-1.46,1.66-.9-.77c-.84.54-1.78.81-2.83.81-.67,0-1.27-.11-1.81-.32-.54-.21-.96-.51-1.26-.88-.31-.37-.46-.79-.46-1.26,0-.53.13-.99.4-1.38s.68-.74,1.25-1.06c-.48-.52-.73-1.06-.73-1.62,0-.45.13-.85.38-1.19.25-.34.61-.61,1.07-.8.46-.19.99-.29,1.6-.29.56,0,1.05.09,1.47.26.42.17.75.42.99.75.23.33.35.7.35,1.13s-.12.81-.36,1.14c-.24.33-.61.64-1.11.93l.9.76c.15-.32.25-.69.33-1.1l2.19.65c-.16.71-.43,1.35-.8,1.91ZM366.15,378.95l-1.55-1.33c-.31.23-.47.5-.47.81,0,.21.09.38.28.52.19.14.45.21.78.21s.64-.07.96-.21Z" fill="#942934"/><path d="M365.01,374.28c-.1.09-.15.21-.15.35,0,.1.03.21.09.3.06.1.17.22.33.37.44-.24.67-.48.67-.73,0-.13-.04-.23-.13-.31-.09-.08-.21-.12-.38-.12-.19,0-.33.04-.43.13ZM369.39,378.81l.8.68-1.46,1.66-.9-.77c-.84.54-1.78.81-2.83.81-.67,0-1.27-.11-1.81-.32-.54-.21-.96-.51-1.26-.88-.31-.37-.46-.79-.46-1.26,0-.53.13-.99.4-1.38s.68-.74,1.25-1.06c-.48-.52-.73-1.06-.73-1.62,0-.45.13-.85.38-1.19.25-.34.61-.61,1.07-.8.46-.19.99-.29,1.6-.29.56,0,1.05.09,1.47.26.42.17.75.42.99.75.23.33.35.7.35,1.13s-.12.81-.36,1.14c-.24.33-.61.64-1.11.93l.9.76c.15-.32.25-.69.33-1.1l2.19.65c-.16.71-.43,1.35-.8,1.91ZM366.16,378.95l-1.55-1.33c-.31.23-.47.5-.47.81,0,.21.09.38.28.52.19.14.45.21.78.21s.64-.07.96-.21Z" fill="#942934"/><path d="M365.02,374.28c-.1.09-.15.21-.15.35,0,.1.03.21.09.3.06.1.17.22.33.37.44-.24.67-.48.67-.73,0-.13-.04-.23-.13-.31-.09-.08-.21-.12-.38-.12-.19,0-.33.04-.43.13ZM369.39,378.81l.8.68-1.46,1.66-.9-.77c-.84.54-1.78.81-2.83.81-.67,0-1.27-.11-1.81-.32-.54-.21-.96-.51-1.26-.88-.31-.37-.46-.79-.46-1.26,0-.53.13-.99.4-1.38.27-.39.68-.74,1.25-1.06-.48-.52-.73-1.06-.73-1.62,0-.45.13-.85.38-1.19.25-.34.61-.61,1.07-.8.46-.19.99-.29,1.6-.29.56,0,1.05.09,1.47.26.42.17.75.42.99.75.23.33.35.7.35,1.13s-.12.81-.36,1.14c-.24.33-.61.64-1.11.93l.9.76c.15-.32.25-.69.33-1.1l2.19.65c-.16.71-.43,1.35-.8,1.91ZM366.16,378.95l-1.55-1.33c-.31.23-.47.5-.47.81,0,.21.09.38.28.52.19.14.45.21.78.21s.64-.07.96-.21Z" fill="#942934"/><path d="M365.02,374.27c-.1.09-.15.21-.15.35,0,.1.03.21.09.3.06.1.17.22.33.37.44-.24.67-.48.67-.73,0-.13-.04-.23-.13-.31-.09-.08-.21-.12-.38-.12-.19,0-.33.04-.43.13ZM369.4,378.81l.8.68-1.46,1.66-.9-.77c-.84.54-1.78.81-2.83.81-.67,0-1.27-.11-1.81-.32-.54-.21-.96-.51-1.26-.88-.31-.37-.46-.79-.46-1.26,0-.53.13-.99.4-1.38.27-.39.68-.74,1.25-1.06-.48-.52-.73-1.06-.73-1.62,0-.45.13-.85.38-1.19.25-.34.61-.61,1.07-.8.46-.19.99-.29,1.6-.29.56,0,1.05.09,1.47.26.42.17.75.42.99.75.23.33.35.7.35,1.13s-.12.81-.36,1.14c-.24.33-.61.64-1.11.93l.9.76c.15-.32.25-.69.33-1.1l2.19.65c-.16.71-.43,1.35-.8,1.91ZM366.17,378.94l-1.55-1.33c-.31.23-.47.5-.47.81,0,.21.09.38.28.52.19.14.45.21.78.21s.64-.07.96-.21Z" fill="#942934"/><path d="M365.03,374.27c-.1.09-.15.21-.15.35,0,.1.03.21.09.3.06.1.17.22.33.37.44-.24.67-.48.67-.73,0-.13-.04-.23-.13-.31-.09-.08-.21-.12-.38-.12-.19,0-.33.04-.43.13ZM369.4,378.81l.8.68-1.46,1.66-.9-.77c-.84.54-1.78.81-2.83.81-.67,0-1.27-.11-1.81-.32-.54-.21-.96-.51-1.26-.88-.31-.37-.46-.79-.46-1.26,0-.53.13-.99.4-1.38.27-.39.68-.74,1.25-1.06-.48-.52-.73-1.06-.73-1.62,0-.45.13-.85.38-1.19.25-.34.61-.61,1.07-.8.46-.19.99-.29,1.6-.29.56,0,1.05.09,1.47.26.42.17.75.42.99.75.23.33.35.7.35,1.13s-.12.81-.36,1.14c-.24.33-.61.64-1.11.93l.9.76c.15-.32.25-.69.33-1.1l2.19.65c-.16.71-.43,1.35-.8,1.91ZM366.17,378.94l-1.55-1.33c-.31.23-.47.5-.47.81,0,.21.09.38.28.52.19.14.45.21.78.21s.64-.07.96-.21Z" fill="#942934"/><path d="M365.03,374.27c-.1.09-.15.21-.15.35,0,.1.03.21.09.3.06.1.17.22.33.37.44-.24.67-.48.67-.73,0-.13-.04-.23-.13-.31-.09-.08-.21-.12-.38-.12-.19,0-.33.04-.43.13ZM369.41,378.8l.8.68-1.46,1.66-.9-.77c-.84.54-1.78.81-2.83.81-.67,0-1.27-.11-1.81-.32-.54-.21-.96-.51-1.26-.88-.31-.37-.46-.79-.46-1.26,0-.53.13-.99.4-1.38.27-.39.68-.74,1.25-1.06-.48-.52-.73-1.06-.73-1.62,0-.45.13-.85.38-1.19.25-.34.61-.61,1.07-.8.46-.19.99-.29,1.6-.29.56,0,1.05.09,1.47.26.42.17.75.42.99.75.23.33.35.7.35,1.13s-.12.81-.36,1.14c-.24.33-.61.64-1.11.93l.9.76c.15-.32.25-.69.33-1.1l2.19.65c-.16.71-.43,1.35-.8,1.91ZM366.18,378.94l-1.55-1.33c-.31.23-.47.5-.47.81,0,.21.09.38.28.52.19.14.45.21.78.21s.64-.07.96-.21Z" fill="#942934"/><path d="M365.04,374.27c-.1.09-.15.21-.15.35,0,.1.03.21.09.3.06.1.17.22.33.37.44-.24.67-.48.67-.73,0-.13-.04-.23-.13-.31-.09-.08-.21-.12-.38-.12-.19,0-.33.04-.43.13ZM369.41,378.8l.8.68-1.46,1.66-.9-.77c-.84.54-1.78.81-2.83.81-.67,0-1.27-.11-1.81-.32-.54-.21-.96-.51-1.26-.88-.31-.37-.46-.79-.46-1.26,0-.53.13-.99.4-1.38.27-.39.68-.74,1.25-1.06-.48-.52-.73-1.06-.73-1.62,0-.45.13-.85.38-1.19.25-.34.61-.61,1.07-.8.46-.19.99-.29,1.6-.29.56,0,1.05.09,1.47.26.42.17.75.42.99.75.23.33.35.7.35,1.13s-.12.81-.36,1.14c-.24.33-.61.64-1.11.93l.9.76c.15-.32.25-.69.33-1.1l2.19.65c-.16.71-.43,1.35-.8,1.91ZM366.18,378.93l-1.55-1.33c-.31.23-.47.5-.47.81,0,.21.09.38.28.52.19.14.45.21.78.21s.64-.07.96-.21Z" fill="#942934"/><path d="M365.04,374.26c-.1.09-.15.21-.15.35,0,.1.03.21.09.3.06.1.17.22.33.37.44-.24.67-.48.67-.73,0-.13-.04-.23-.13-.31-.09-.08-.21-.12-.38-.12-.19,0-.33.04-.43.13ZM369.42,378.8l.8.68-1.46,1.66-.9-.77c-.84.54-1.78.81-2.83.81-.67,0-1.27-.11-1.81-.32-.54-.21-.96-.51-1.26-.88-.31-.37-.46-.79-.46-1.26,0-.53.13-.99.4-1.38.27-.39.68-.74,1.25-1.06-.48-.52-.73-1.06-.73-1.62,0-.45.13-.85.38-1.19.25-.34.61-.61,1.07-.8.46-.19.99-.29,1.6-.29.56,0,1.05.09,1.47.26.42.17.75.42.99.75.23.33.35.7.35,1.13s-.12.81-.36,1.14c-.24.33-.61.64-1.11.93l.9.76c.15-.32.25-.69.33-1.1l2.19.65c-.16.71-.43,1.35-.8,1.91ZM366.19,378.93l-1.55-1.33c-.31.23-.47.5-.47.81,0,.21.09.38.28.52.19.14.45.21.78.21s.64-.07.96-.21Z" fill="#942934"/><path d="M365.05,374.26c-.1.09-.15.21-.15.35,0,.1.03.21.09.3.06.1.17.22.33.37.44-.24.67-.48.67-.73,0-.13-.04-.23-.13-.31-.09-.08-.21-.12-.38-.12-.19,0-.33.04-.43.13ZM369.42,378.8l.8.68-1.46,1.66-.9-.77c-.84.54-1.78.81-2.83.81-.67,0-1.27-.11-1.81-.32-.54-.21-.96-.51-1.26-.88-.31-.37-.46-.79-.46-1.26,0-.53.13-.99.4-1.38.27-.39.68-.74,1.25-1.06-.48-.52-.73-1.06-.73-1.62,0-.45.13-.85.38-1.19.25-.34.61-.61,1.07-.8.46-.19.99-.29,1.6-.29.56,0,1.05.09,1.47.26.42.17.75.42.99.75.23.33.35.7.35,1.13s-.12.81-.36,1.14c-.24.33-.61.64-1.11.93l.9.76c.15-.32.25-.69.33-1.1l2.19.65c-.16.71-.43,1.35-.8,1.91ZM366.19,378.93l-1.55-1.33c-.31.23-.47.5-.47.81,0,.21.09.38.28.52.19.14.45.21.78.21s.64-.07.96-.21Z" fill="#942934"/><path d="M365.05,374.26c-.1.09-.15.21-.15.35,0,.1.03.21.09.3.06.1.17.22.33.37.44-.24.67-.48.67-.73,0-.13-.04-.23-.13-.31-.09-.08-.21-.12-.38-.12-.19,0-.33.04-.43.13ZM369.43,378.79l.8.68-1.46,1.66-.9-.77c-.84.54-1.78.81-2.83.81-.67,0-1.27-.11-1.81-.32-.54-.21-.96-.51-1.26-.88-.31-.37-.46-.79-.46-1.26,0-.53.13-.99.4-1.38.27-.39.68-.74,1.25-1.06-.48-.52-.73-1.06-.73-1.62,0-.45.13-.85.38-1.19.25-.34.61-.61,1.07-.8.46-.19.99-.29,1.6-.29.56,0,1.05.09,1.47.26.42.17.75.42.99.75.23.33.35.7.35,1.13s-.12.81-.36,1.14c-.24.33-.61.64-1.11.93l.9.76c.15-.32.25-.69.33-1.1l2.19.65c-.16.71-.43,1.35-.8,1.91ZM366.2,378.93l-1.55-1.33c-.31.23-.47.5-.47.81,0,.21.09.38.28.52.19.14.45.21.78.21s.64-.07.96-.21Z" fill="#942934"/><path d="M365.06,374.26c-.1.09-.15.21-.15.35,0,.1.03.21.09.3.06.1.17.22.33.37.44-.24.67-.48.67-.73,0-.13-.04-.23-.13-.31-.09-.08-.21-.12-.38-.12-.19,0-.33.04-.43.13ZM369.43,378.79l.8.68-1.46,1.66-.9-.77c-.84.54-1.78.81-2.83.81-.67,0-1.27-.11-1.81-.32-.54-.21-.96-.51-1.26-.88-.31-.37-.46-.79-.46-1.26,0-.53.13-.99.4-1.38.27-.39.68-.74,1.25-1.06-.48-.52-.73-1.06-.73-1.62,0-.45.13-.85.38-1.19.25-.34.61-.61,1.07-.8.46-.19.99-.29,1.6-.29.56,0,1.05.09,1.47.26.42.17.75.42.99.75.23.33.35.7.35,1.13s-.12.81-.36,1.14c-.24.33-.61.64-1.11.93l.9.76c.15-.32.25-.69.33-1.1l2.19.65c-.16.71-.43,1.35-.8,1.91ZM366.2,378.92l-1.55-1.33c-.31.23-.47.5-.47.81,0,.21.09.38.28.52.19.14.45.21.78.21s.64-.07.96-.21Z" fill="#942934"/><path d="M365.06,374.25c-.1.09-.15.21-.15.35,0,.1.03.21.09.3.06.1.17.22.33.37.44-.24.67-.48.67-.73,0-.13-.04-.23-.13-.31-.09-.08-.21-.12-.38-.12-.19,0-.33.04-.43.13ZM369.43,378.79l.8.68-1.46,1.66-.9-.77c-.84.54-1.78.81-2.83.81-.67,0-1.27-.11-1.81-.32-.54-.21-.96-.51-1.26-.88-.31-.37-.46-.79-.46-1.26,0-.53.13-.99.4-1.38.27-.39.68-.74,1.25-1.06-.48-.52-.73-1.06-.73-1.62,0-.45.13-.85.38-1.19.25-.34.61-.61,1.07-.8.46-.19.99-.29,1.6-.29.56,0,1.05.09,1.47.26.42.17.75.42.99.75.23.33.35.7.35,1.13s-.12.81-.36,1.14c-.24.33-.61.64-1.11.93l.9.76c.15-.32.25-.69.33-1.1l2.19.65c-.16.71-.43,1.35-.8,1.91ZM366.21,378.92l-1.55-1.33c-.31.23-.47.5-.47.81,0,.21.09.38.28.52.19.14.45.21.78.21s.64-.07.96-.21Z" fill="#942934"/><path d="M365.07,374.25c-.1.09-.15.21-.15.35,0,.1.03.21.09.3.06.1.17.22.33.37.44-.24.67-.48.67-.73,0-.13-.04-.23-.13-.31-.09-.08-.21-.12-.38-.12-.19,0-.33.04-.43.13ZM369.44,378.79l.8.68-1.46,1.66-.9-.77c-.84.54-1.78.81-2.83.81-.67,0-1.27-.11-1.81-.32-.54-.21-.96-.51-1.26-.88-.31-.37-.46-.79-.46-1.26,0-.53.13-.99.4-1.38.27-.39.68-.74,1.25-1.06-.48-.52-.73-1.06-.73-1.62,0-.45.13-.85.38-1.19.25-.34.61-.61,1.07-.8.46-.19.99-.29,1.6-.29.56,0,1.05.09,1.47.26.42.17.75.42.99.75.23.33.35.7.35,1.13s-.12.81-.36,1.14c-.24.33-.61.64-1.11.93l.9.76c.15-.32.25-.69.33-1.1l2.19.65c-.16.71-.43,1.35-.8,1.91ZM366.21,378.92l-1.55-1.33c-.31.23-.47.5-.47.81,0,.21.09.38.28.52.19.14.45.21.78.21s.64-.07.96-.21Z" fill="#942934"/><path d="M365.07,374.25c-.1.09-.15.21-.15.35,0,.1.03.21.09.3.06.1.17.22.33.37.44-.24.67-.48.67-.73,0-.13-.04-.23-.13-.31-.09-.08-.21-.12-.38-.12-.19,0-.33.04-.43.13ZM369.44,378.78l.8.68-1.46,1.66-.9-.77c-.84.54-1.78.81-2.83.81-.67,0-1.27-.11-1.81-.32-.54-.21-.96-.51-1.26-.88-.31-.37-.46-.79-.46-1.26,0-.53.13-.99.4-1.38.27-.39.68-.74,1.25-1.06-.48-.52-.73-1.06-.73-1.62,0-.45.13-.85.38-1.19.25-.34.61-.61,1.07-.8.46-.19.99-.29,1.6-.29.56,0,1.05.09,1.47.26.42.17.75.42.99.75.23.33.35.7.35,1.13s-.12.81-.36,1.14c-.24.33-.61.64-1.11.93l.9.76c.15-.32.25-.69.33-1.1l2.19.65c-.16.71-.43,1.35-.8,1.91ZM366.22,378.92l-1.55-1.33c-.31.23-.47.5-.47.81,0,.21.09.38.28.52.19.14.45.21.78.21s.64-.07.96-.21Z" fill="#942934"/><path d="M365.08,374.24c-.1.09-.15.21-.15.35,0,.1.03.21.09.3.06.1.17.22.33.37.44-.24.67-.48.67-.73,0-.13-.04-.23-.13-.31-.09-.08-.21-.12-.38-.12-.19,0-.33.04-.43.13ZM369.45,378.78l.8.68-1.46,1.66-.9-.77c-.84.54-1.78.81-2.83.81-.67,0-1.27-.11-1.81-.32-.54-.21-.96-.51-1.26-.88-.31-.37-.46-.79-.46-1.26,0-.53.13-.99.4-1.38.27-.39.68-.74,1.25-1.06-.48-.52-.73-1.06-.73-1.62,0-.45.13-.85.38-1.19.25-.34.61-.61,1.07-.8.46-.19.99-.29,1.6-.29.56,0,1.05.09,1.47.26.42.17.75.42.99.75.23.33.35.7.35,1.13s-.12.81-.36,1.14c-.24.33-.61.64-1.11.93l.9.76c.15-.32.25-.69.33-1.1l2.19.65c-.16.71-.43,1.35-.8,1.91ZM366.22,378.91l-1.55-1.33c-.31.23-.47.5-.47.81,0,.21.09.38.28.52.19.14.45.21.78.21s.64-.07.96-.21Z" fill="#942934"/><path d="M365.08,374.24c-.1.09-.15.21-.15.35,0,.1.03.21.09.3.06.1.17.22.33.37.44-.24.67-.48.67-.73,0-.13-.04-.23-.13-.31-.09-.08-.21-.12-.38-.12-.19,0-.33.04-.43.13ZM369.45,378.78l.8.68-1.46,1.66-.9-.77c-.84.54-1.78.81-2.83.81-.67,0-1.27-.11-1.81-.32-.54-.21-.96-.51-1.26-.88-.31-.37-.46-.79-.46-1.26,0-.53.13-.99.4-1.38.27-.39.68-.74,1.25-1.06-.48-.52-.73-1.06-.73-1.62,0-.45.13-.85.38-1.19.25-.34.61-.61,1.07-.8.46-.19.99-.29,1.6-.29.56,0,1.05.09,1.47.26.42.17.75.42.99.75.23.33.35.7.35,1.13s-.12.81-.36,1.14c-.24.33-.61.64-1.11.93l.9.76c.15-.32.25-.69.33-1.1l2.19.65c-.16.71-.43,1.35-.8,1.91ZM366.22,378.91l-1.55-1.33c-.31.23-.47.5-.47.81,0,.21.09.38.28.52.19.14.45.21.78.21s.64-.07.96-.21Z" fill="#942934"/><path d="M365.09,374.24c-.1.09-.15.21-.15.35,0,.1.03.21.09.3.06.1.17.22.33.37.44-.24.67-.48.67-.73,0-.13-.04-.23-.13-.31-.09-.08-.21-.12-.38-.12-.19,0-.33.04-.43.13ZM369.46,378.78l.8.68-1.46,1.66-.9-.77c-.84.54-1.78.81-2.83.81-.67,0-1.27-.11-1.81-.32-.54-.21-.96-.51-1.26-.88-.31-.37-.46-.79-.46-1.26,0-.53.13-.99.4-1.38.27-.39.68-.74,1.25-1.06-.48-.52-.73-1.06-.73-1.62,0-.45.13-.85.38-1.19.25-.34.61-.61,1.07-.8.46-.19.99-.29,1.6-.29.56,0,1.05.09,1.47.26.42.17.75.42.99.75.23.33.35.7.35,1.13s-.12.81-.36,1.14c-.24.33-.61.64-1.11.93l.9.76c.15-.32.25-.69.33-1.1l2.19.65c-.16.71-.43,1.35-.8,1.91ZM366.23,378.91l-1.55-1.33c-.31.23-.47.5-.47.81,0,.21.09.38.28.52.19.14.45.21.78.21s.64-.07.96-.21Z" fill="#942934"/><path d="M365.09,374.24c-.1.09-.15.21-.15.35,0,.1.03.21.09.3.06.1.17.22.33.37.44-.24.67-.48.67-.73,0-.13-.04-.23-.13-.31-.09-.08-.21-.12-.38-.12-.19,0-.33.04-.43.13ZM369.46,378.77l.8.68-1.46,1.66-.9-.77c-.84.54-1.78.81-2.83.81-.67,0-1.27-.11-1.81-.32-.54-.21-.96-.51-1.26-.88-.31-.37-.46-.79-.46-1.26,0-.53.13-.99.4-1.38.27-.39.68-.74,1.25-1.06-.48-.52-.73-1.06-.73-1.62,0-.45.13-.85.38-1.19.25-.34.61-.61,1.07-.8.46-.19.99-.29,1.6-.29.56,0,1.05.09,1.47.26.42.17.75.42.99.75.23.33.35.7.35,1.13s-.12.81-.36,1.14c-.24.33-.61.64-1.11.93l.9.76c.15-.32.25-.69.33-1.1l2.19.65c-.16.71-.43,1.35-.8,1.91ZM366.23,378.91l-1.55-1.33c-.31.23-.47.5-.47.81,0,.21.09.38.28.52.19.14.45.21.78.21s.64-.07.96-.21Z" fill="#942934"/><path d="M365.1,374.23c-.1.09-.15.21-.15.35,0,.1.03.21.09.3.06.1.17.22.33.37.44-.24.67-.48.67-.73,0-.13-.04-.23-.13-.31-.09-.08-.21-.12-.38-.12-.19,0-.33.04-.43.13ZM369.47,378.77l.8.68-1.46,1.66-.9-.77c-.84.54-1.78.81-2.83.81-.67,0-1.27-.11-1.81-.32-.54-.21-.96-.51-1.26-.88-.31-.37-.46-.79-.46-1.26,0-.53.13-.99.4-1.38.27-.39.68-.74,1.25-1.06-.48-.52-.73-1.06-.73-1.62,0-.45.13-.85.38-1.19.25-.34.61-.61,1.07-.8.46-.19.99-.29,1.6-.29.56,0,1.05.09,1.47.26.42.17.75.42.99.75.23.33.35.7.35,1.13s-.12.81-.36,1.14c-.24.33-.61.64-1.11.93l.9.76c.15-.32.25-.69.33-1.1l2.19.65c-.16.71-.43,1.35-.8,1.91ZM366.24,378.9l-1.55-1.33c-.31.23-.47.5-.47.81,0,.21.09.38.28.52.19.14.45.21.78.21s.64-.07.96-.21Z" fill="#942934"/><path d="M365.1,374.23c-.1.09-.15.21-.15.35,0,.1.03.21.09.3.06.1.17.22.33.37.44-.24.67-.48.67-.73,0-.13-.04-.23-.13-.31-.09-.08-.21-.12-.38-.12-.19,0-.33.04-.43.13ZM369.47,378.77l.8.68-1.46,1.66-.9-.77c-.84.54-1.78.81-2.83.81-.67,0-1.27-.11-1.81-.32-.54-.21-.96-.51-1.26-.88-.31-.37-.46-.79-.46-1.26,0-.53.13-.99.4-1.38.27-.39.68-.74,1.25-1.06-.48-.52-.73-1.06-.73-1.62,0-.45.13-.85.38-1.19.25-.34.61-.61,1.07-.8.46-.19.99-.29,1.6-.29.56,0,1.05.09,1.47.26.42.17.75.42.99.75.23.33.35.7.35,1.13s-.12.81-.36,1.14c-.24.33-.61.64-1.11.93l.9.76c.15-.32.25-.69.33-1.1l2.19.65c-.16.71-.43,1.35-.8,1.91ZM366.24,378.9l-1.55-1.33c-.31.23-.47.5-.47.81,0,.21.09.38.28.52.19.14.45.21.78.21s.64-.07.96-.21Z" fill="#942934"/><path d="M365.11,374.23c-.1.09-.15.21-.15.35,0,.1.03.21.09.3.06.1.17.22.33.37.44-.24.67-.48.67-.73,0-.13-.04-.23-.13-.31-.09-.08-.21-.12-.38-.12-.19,0-.33.04-.43.13ZM369.48,378.77l.8.68-1.46,1.66-.9-.77c-.84.54-1.78.81-2.83.81-.67,0-1.27-.11-1.81-.32-.54-.21-.96-.51-1.26-.88-.31-.37-.46-.79-.46-1.26,0-.53.13-.99.4-1.38.27-.39.68-.74,1.25-1.06-.48-.52-.73-1.06-.73-1.62,0-.45.13-.85.38-1.19.25-.34.61-.61,1.07-.8.46-.19.99-.29,1.6-.29.56,0,1.05.09,1.47.26.42.17.75.42.99.75.23.33.35.7.35,1.13s-.12.81-.36,1.14c-.24.33-.61.64-1.11.93l.9.76c.15-.32.25-.69.33-1.1l2.19.65c-.16.71-.43,1.35-.8,1.91ZM366.25,378.9l-1.55-1.33c-.31.23-.47.5-.47.81,0,.21.09.38.28.52.19.14.45.21.78.21s.64-.07.96-.21Z" fill="#942934"/><path d="M365.11,374.23c-.1.09-.15.21-.15.35,0,.1.03.21.09.3.06.1.17.22.33.37.44-.24.67-.48.67-.73,0-.13-.04-.23-.13-.31-.09-.08-.21-.12-.38-.12-.19,0-.33.04-.43.13ZM369.48,378.76l.8.68-1.46,1.66-.9-.77c-.84.54-1.78.81-2.83.81-.67,0-1.27-.11-1.81-.32-.54-.21-.96-.51-1.26-.88-.31-.37-.46-.79-.46-1.26,0-.53.13-.99.4-1.38.27-.39.68-.74,1.25-1.06-.48-.52-.73-1.06-.73-1.62,0-.45.13-.85.38-1.19.25-.34.61-.61,1.07-.8.46-.19.99-.29,1.6-.29.56,0,1.05.09,1.47.26.42.17.75.42.99.75.23.33.35.7.35,1.13s-.12.81-.36,1.14c-.24.33-.61.64-1.11.93l.9.76c.15-.32.25-.69.33-1.1l2.19.65c-.16.71-.43,1.35-.8,1.91ZM366.25,378.9l-1.55-1.33c-.31.23-.47.5-.47.81,0,.21.09.38.28.52.19.14.45.21.78.21s.64-.07.96-.21Z" fill="#942934"/><path d="M365.12,374.22c-.1.09-.15.21-.15.35,0,.1.03.21.09.3.06.1.17.22.33.37.44-.24.67-.48.67-.73,0-.13-.04-.23-.13-.31-.09-.08-.21-.12-.38-.12-.19,0-.33.04-.43.13ZM369.49,378.76l.8.68-1.46,1.66-.9-.77c-.84.54-1.78.81-2.83.81-.67,0-1.27-.11-1.81-.32-.54-.21-.96-.51-1.26-.88-.31-.37-.46-.79-.46-1.26,0-.53.13-.99.4-1.38.27-.39.68-.74,1.25-1.06-.48-.52-.73-1.06-.73-1.62,0-.45.13-.85.38-1.19.25-.34.61-.61,1.07-.8.46-.19.99-.29,1.6-.29.56,0,1.05.09,1.47.26.42.17.75.42.99.75.23.33.35.7.35,1.13s-.12.81-.36,1.14c-.24.33-.61.64-1.11.93l.9.76c.15-.32.25-.69.33-1.1l2.19.65c-.16.71-.43,1.35-.8,1.91ZM366.26,378.89l-1.55-1.33c-.31.23-.47.5-.47.81,0,.21.09.38.28.52.19.14.45.21.78.21s.64-.07.96-.21Z" fill="#942934"/><path d="M365.12,374.22c-.1.09-.15.21-.15.35,0,.1.03.21.09.3.06.1.17.22.33.37.44-.24.67-.48.67-.73,0-.13-.04-.23-.13-.31-.09-.08-.21-.12-.38-.12-.19,0-.33.04-.43.13ZM369.49,378.76l.8.68-1.46,1.66-.9-.77c-.84.54-1.78.81-2.83.81-.67,0-1.27-.11-1.81-.32-.54-.21-.96-.51-1.26-.88-.31-.37-.46-.79-.46-1.26,0-.53.13-.99.4-1.38.27-.39.68-.74,1.25-1.06-.48-.52-.73-1.06-.73-1.62,0-.45.13-.85.38-1.19.25-.34.61-.61,1.07-.8.46-.19.99-.29,1.6-.29.56,0,1.05.09,1.47.26.42.17.75.42.99.75.23.33.35.7.35,1.13s-.12.81-.36,1.14c-.24.33-.61.64-1.11.93l.9.76c.15-.32.25-.69.33-1.1l2.19.65c-.16.71-.43,1.35-.8,1.91ZM366.26,378.89l-1.55-1.33c-.31.23-.47.5-.47.81,0,.21.09.38.28.52.19.14.45.21.78.21s.64-.07.96-.21Z" fill="#942934"/><path d="M365.13,374.22c-.1.09-.15.21-.15.35,0,.1.03.21.09.3.06.1.17.22.33.37.44-.24.67-.48.67-.73,0-.13-.04-.23-.13-.31-.09-.08-.21-.12-.38-.12-.19,0-.33.04-.43.13ZM369.5,378.76l.8.68-1.46,1.66-.9-.77c-.84.54-1.78.81-2.83.81-.67,0-1.27-.11-1.81-.32-.54-.21-.96-.51-1.26-.88-.31-.37-.46-.79-.46-1.26,0-.53.13-.99.4-1.38.27-.39.68-.74,1.25-1.06-.48-.52-.73-1.06-.73-1.62,0-.45.13-.85.38-1.19.25-.34.61-.61,1.07-.8.46-.19.99-.29,1.6-.29.56,0,1.05.09,1.47.26.42.17.75.42.99.75.23.33.35.7.35,1.13s-.12.81-.36,1.14c-.24.33-.61.64-1.11.93l.9.76c.15-.32.25-.69.33-1.1l2.19.65c-.16.71-.43,1.35-.8,1.91ZM366.27,378.89l-1.55-1.33c-.31.23-.47.5-.47.81,0,.21.09.38.28.52.19.14.45.21.78.21s.64-.07.96-.21Z" fill="#942934"/><path d="M365.13,374.22c-.1.09-.15.21-.15.35,0,.1.03.21.09.3.06.1.17.22.33.37.44-.24.67-.48.67-.73,0-.13-.04-.23-.13-.31-.09-.08-.21-.12-.38-.12-.19,0-.33.04-.43.13ZM369.5,378.75l.8.68-1.46,1.66-.9-.77c-.84.54-1.78.81-2.83.81-.67,0-1.27-.11-1.81-.32-.54-.21-.96-.51-1.26-.88-.31-.37-.46-.79-.46-1.26,0-.53.13-.99.4-1.38.27-.39.68-.74,1.25-1.06-.48-.52-.73-1.06-.73-1.62,0-.45.13-.85.38-1.19.25-.34.61-.61,1.07-.8.46-.19.99-.29,1.6-.29.56,0,1.05.09,1.47.26.42.17.75.42.99.75.23.33.35.7.35,1.13s-.12.81-.36,1.14c-.24.33-.61.64-1.11.93l.9.76c.15-.32.25-.69.33-1.1l2.19.65c-.16.71-.43,1.35-.8,1.91ZM366.27,378.89l-1.55-1.33c-.31.23-.47.5-.47.81,0,.21.09.38.28.52.19.14.45.21.78.21s.64-.07.96-.21Z" fill="#942934"/><path d="M365.14,374.21c-.1.09-.15.21-.15.35,0,.1.03.21.09.3.06.1.17.22.33.37.44-.24.67-.48.67-.73,0-.13-.04-.23-.13-.31-.09-.08-.21-.12-.38-.12-.19,0-.33.04-.43.13ZM369.51,378.75l.8.68-1.46,1.66-.9-.77c-.84.54-1.78.81-2.83.81-.67,0-1.27-.11-1.81-.32-.54-.21-.96-.51-1.26-.88-.31-.37-.46-.79-.46-1.26,0-.53.13-.99.4-1.38.27-.39.68-.74,1.25-1.06-.48-.52-.73-1.06-.73-1.62,0-.45.13-.85.38-1.19.25-.34.61-.61,1.07-.8.46-.19.99-.29,1.6-.29.56,0,1.05.09,1.47.26.42.17.75.42.99.75.23.33.35.7.35,1.13s-.12.81-.36,1.14c-.24.33-.61.64-1.11.93l.9.76c.15-.32.25-.69.33-1.1l2.19.65c-.16.71-.43,1.35-.8,1.91ZM366.28,378.88l-1.55-1.33c-.31.23-.47.5-.47.81,0,.21.09.38.28.52.19.14.45.21.78.21s.64-.07.96-.21Z" fill="#942934"/><path d="M365.14,374.21c-.1.09-.15.21-.15.35,0,.1.03.21.09.3.06.1.17.22.33.37.44-.24.67-.48.67-.73,0-.13-.04-.23-.13-.31-.09-.08-.21-.12-.38-.12-.19,0-.33.04-.43.13ZM369.51,378.75l.8.68-1.46,1.66-.9-.77c-.84.54-1.78.81-2.83.81-.67,0-1.27-.11-1.81-.32-.54-.21-.96-.51-1.26-.88-.31-.37-.46-.79-.46-1.26,0-.53.13-.99.4-1.38.27-.39.68-.74,1.25-1.06-.48-.52-.73-1.06-.73-1.62,0-.45.13-.85.38-1.19.25-.34.61-.61,1.07-.8.46-.19.99-.29,1.6-.29.56,0,1.05.09,1.47.26.42.17.75.42.99.75.23.33.35.7.35,1.13s-.12.81-.36,1.14c-.24.33-.61.64-1.11.93l.9.76c.15-.32.25-.69.33-1.1l2.19.65c-.16.71-.43,1.35-.8,1.91ZM366.28,378.88l-1.55-1.33c-.31.23-.47.5-.47.81,0,.21.09.38.28.52.19.14.45.21.78.21s.64-.07.96-.21Z" fill="#942934"/><path d="M365.15,374.21c-.1.09-.15.21-.15.35,0,.1.03.21.09.3.06.1.17.22.33.37.44-.24.67-.48.67-.73,0-.13-.04-.23-.13-.31-.09-.08-.21-.12-.38-.12-.19,0-.33.04-.43.13ZM369.52,378.75l.8.68-1.46,1.66-.9-.77c-.84.54-1.78.81-2.83.81-.67,0-1.27-.11-1.81-.32-.54-.21-.96-.51-1.26-.88-.31-.37-.46-.79-.46-1.26,0-.53.13-.99.4-1.38.27-.39.68-.74,1.25-1.06-.48-.52-.73-1.06-.73-1.62,0-.45.13-.85.38-1.19.25-.34.61-.61,1.07-.8.46-.19.99-.29,1.6-.29.56,0,1.05.09,1.47.26.42.17.75.42.99.75.23.33.35.7.35,1.13s-.12.81-.36,1.14c-.24.33-.61.64-1.11.93l.9.76c.15-.32.25-.69.33-1.1l2.19.65c-.16.71-.43,1.35-.8,1.91ZM366.29,378.88l-1.55-1.33c-.31.23-.47.5-.47.81,0,.21.09.38.28.52.19.14.45.21.78.21s.64-.07.96-.21Z" fill="#942934"/><path d="M365.15,374.21c-.1.09-.15.21-.15.35,0,.1.03.21.09.3.06.1.17.22.33.37.44-.24.67-.48.67-.73,0-.13-.04-.23-.13-.31-.09-.08-.21-.12-.38-.12-.19,0-.33.04-.43.13ZM369.52,378.74l.8.68-1.46,1.66-.9-.77c-.84.54-1.78.81-2.83.81-.67,0-1.27-.11-1.81-.32-.54-.21-.96-.51-1.26-.88-.31-.37-.46-.79-.46-1.26,0-.53.13-.99.4-1.38.27-.39.68-.74,1.25-1.06-.48-.52-.73-1.06-.73-1.62,0-.45.13-.85.38-1.19.25-.34.61-.61,1.07-.8.46-.19.99-.29,1.6-.29.56,0,1.05.09,1.47.26.42.17.75.42.99.75.23.33.35.7.35,1.13s-.12.81-.36,1.14c-.24.33-.61.64-1.11.93l.9.76c.15-.32.25-.69.33-1.1l2.19.65c-.16.71-.43,1.35-.8,1.91ZM366.29,378.88l-1.55-1.33c-.31.23-.47.5-.47.81,0,.21.09.38.28.52.19.14.45.21.78.21s.64-.07.96-.21Z" fill="#942934"/><path d="M365.16,374.2c-.1.09-.15.21-.15.35,0,.1.03.21.09.3.06.1.17.22.33.37.44-.24.67-.48.67-.73,0-.13-.04-.23-.13-.31-.09-.08-.21-.12-.38-.12-.19,0-.33.04-.43.13ZM369.53,378.74l.8.68-1.46,1.66-.9-.77c-.84.54-1.78.81-2.83.81-.67,0-1.27-.11-1.81-.32-.54-.21-.96-.51-1.26-.88-.31-.37-.46-.79-.46-1.26,0-.53.13-.99.4-1.38.27-.39.68-.74,1.25-1.06-.48-.52-.73-1.06-.73-1.62,0-.45.13-.85.38-1.19.25-.34.61-.61,1.07-.8.46-.19.99-.29,1.6-.29.56,0,1.05.09,1.47.26.42.17.75.42.99.75.23.33.35.7.35,1.13s-.12.81-.36,1.14c-.24.33-.61.64-1.11.93l.9.76c.15-.32.25-.69.33-1.1l2.19.65c-.16.71-.43,1.35-.8,1.91ZM366.3,378.87l-1.55-1.33c-.31.23-.47.5-.47.81,0,.21.09.38.28.52.19.14.45.21.78.21s.64-.07.96-.21Z" fill="#942934"/><path d="M365.16,374.2c-.1.09-.15.21-.15.35,0,.1.03.21.09.3.06.1.17.22.33.37.44-.24.67-.48.67-.73,0-.13-.04-.23-.13-.31-.09-.08-.21-.12-.38-.12-.19,0-.33.04-.43.13ZM369.53,378.74l.8.68-1.46,1.66-.9-.77c-.84.54-1.78.81-2.83.81-.67,0-1.27-.11-1.81-.32-.54-.21-.96-.51-1.26-.88-.31-.37-.46-.79-.46-1.26,0-.53.13-.99.4-1.38.27-.39.68-.74,1.25-1.06-.48-.52-.73-1.06-.73-1.62,0-.45.13-.85.38-1.19.25-.34.61-.61,1.07-.8.46-.19.99-.29,1.6-.29.56,0,1.05.09,1.47.26.42.17.75.42.99.75.23.33.35.7.35,1.13s-.12.81-.36,1.14c-.24.33-.61.64-1.11.93l.9.76c.15-.32.25-.69.33-1.1l2.19.65c-.16.71-.43,1.35-.8,1.91ZM366.3,378.87l-1.55-1.33c-.31.23-.47.5-.47.81,0,.21.09.38.28.52.19.14.45.21.78.21s.64-.07.96-.21Z" fill="#942934"/><path d="M365.17,374.2c-.1.09-.15.21-.15.35,0,.1.03.21.09.3.06.1.17.22.33.37.44-.24.67-.48.67-.73,0-.13-.04-.23-.13-.31-.09-.08-.21-.12-.38-.12-.19,0-.33.04-.43.13ZM369.54,378.74l.8.68-1.46,1.66-.9-.77c-.84.54-1.78.81-2.83.81-.67,0-1.27-.11-1.81-.32-.54-.21-.96-.51-1.26-.88-.31-.37-.46-.79-.46-1.26,0-.53.13-.99.4-1.38.27-.39.68-.74,1.25-1.06-.48-.52-.73-1.06-.73-1.62,0-.45.13-.85.38-1.19.25-.34.61-.61,1.07-.8.46-.19.99-.29,1.6-.29.56,0,1.05.09,1.47.26.42.17.75.42.99.75.23.33.35.7.35,1.13s-.12.81-.36,1.14c-.24.33-.61.64-1.11.93l.9.76c.15-.32.25-.69.33-1.1l2.19.65c-.16.71-.43,1.35-.8,1.91ZM366.31,378.87l-1.55-1.33c-.31.23-.47.5-.47.81,0,.21.09.38.28.52.19.14.45.21.78.21s.64-.07.96-.21Z" fill="#942934"/><path d="M365.17,374.2c-.1.09-.15.21-.15.35,0,.1.03.21.09.3.06.1.17.22.33.37.44-.24.67-.48.67-.73,0-.13-.04-.23-.13-.31-.09-.08-.21-.12-.38-.12-.19,0-.33.04-.43.13ZM369.54,378.73l.8.68-1.46,1.66-.9-.77c-.84.54-1.78.81-2.83.81-.67,0-1.27-.11-1.81-.32-.54-.21-.96-.51-1.26-.88-.31-.37-.46-.79-.46-1.26,0-.53.13-.99.4-1.38.27-.39.68-.74,1.25-1.06-.48-.52-.73-1.06-.73-1.62,0-.45.13-.85.38-1.19.25-.34.61-.61,1.07-.8.46-.19.99-.29,1.6-.29.56,0,1.05.09,1.47.26.42.17.75.42.99.75.23.33.35.7.35,1.13s-.12.81-.36,1.14c-.24.33-.61.64-1.11.93l.9.76c.15-.32.25-.69.33-1.1l2.19.65c-.16.71-.43,1.35-.8,1.91ZM366.31,378.87l-1.55-1.33c-.31.23-.47.5-.47.81,0,.21.09.38.28.52.19.14.45.21.78.21s.64-.07.96-.21Z" fill="#942934"/><path d="M365.18,374.19c-.1.09-.15.21-.15.35,0,.1.03.21.09.3.06.1.17.22.33.37.44-.24.67-.48.67-.73,0-.13-.04-.23-.13-.31-.09-.08-.21-.12-.38-.12-.19,0-.33.04-.43.13ZM369.55,378.73l.8.68-1.46,1.66-.9-.77c-.84.54-1.78.81-2.83.81-.67,0-1.27-.11-1.81-.32-.54-.21-.96-.51-1.26-.88-.31-.37-.46-.79-.46-1.26,0-.53.13-.99.4-1.38.27-.39.68-.74,1.25-1.06-.48-.52-.73-1.06-.73-1.62,0-.45.13-.85.38-1.19.25-.34.61-.61,1.07-.8.46-.19.99-.29,1.6-.29.56,0,1.05.09,1.47.26.42.17.75.42.99.75.23.33.35.7.35,1.13s-.12.81-.36,1.14c-.24.33-.61.64-1.11.93l.9.76c.15-.32.25-.69.33-1.1l2.19.65c-.16.71-.43,1.35-.8,1.91ZM366.32,378.86l-1.55-1.33c-.31.23-.47.5-.47.81,0,.21.09.38.28.52.19.14.45.21.78.21s.64-.07.96-.21Z" fill="#942934"/><path d="M365.18,374.19c-.1.09-.15.21-.15.35,0,.1.03.21.09.3.06.1.17.22.33.37.44-.24.67-.48.67-.73,0-.13-.04-.23-.13-.31-.09-.08-.21-.12-.38-.12-.19,0-.33.04-.43.13ZM369.55,378.73l.8.68-1.46,1.66-.9-.77c-.84.54-1.78.81-2.83.81-.67,0-1.27-.11-1.81-.32-.54-.21-.96-.51-1.26-.88-.31-.37-.46-.79-.46-1.26,0-.53.13-.99.4-1.38.27-.39.68-.74,1.25-1.06-.48-.52-.73-1.06-.73-1.62,0-.45.13-.85.38-1.19.25-.34.61-.61,1.07-.8.46-.19.99-.29,1.6-.29.56,0,1.05.09,1.47.26.42.17.75.42.99.75.23.33.35.7.35,1.13s-.12.81-.36,1.14c-.24.33-.61.64-1.11.93l.9.76c.15-.32.25-.69.33-1.1l2.19.65c-.16.71-.43,1.35-.8,1.91ZM366.32,378.86l-1.55-1.33c-.31.23-.47.5-.47.81,0,.21.09.38.28.52.19.14.45.21.78.21s.64-.07.96-.21Z" fill="#942934"/><path d="M365.19,374.19c-.1.09-.15.21-.15.35,0,.1.03.21.09.3.06.1.17.22.33.37.44-.24.67-.48.67-.73,0-.13-.04-.23-.13-.31-.09-.08-.21-.12-.38-.12-.19,0-.33.04-.43.13ZM369.56,378.72l.8.68-1.46,1.66-.9-.77c-.84.54-1.78.81-2.83.81-.67,0-1.27-.11-1.81-.32-.54-.21-.96-.51-1.26-.88-.31-.37-.46-.79-.46-1.26,0-.53.13-.99.4-1.38.27-.39.68-.74,1.25-1.06-.48-.52-.73-1.06-.73-1.62,0-.45.13-.85.38-1.19.25-.34.61-.61,1.07-.8.46-.19.99-.29,1.6-.29.56,0,1.05.09,1.47.26.42.17.75.42.99.75.23.33.35.7.35,1.13s-.12.81-.36,1.14c-.24.33-.61.64-1.11.93l.9.76c.15-.32.25-.69.33-1.1l2.19.65c-.16.71-.43,1.35-.8,1.91ZM366.33,378.86l-1.55-1.33c-.31.23-.47.5-.47.81,0,.21.09.38.28.52.19.14.45.21.78.21s.64-.07.96-.21Z" fill="#942934"/><path d="M365.19,374.19c-.1.09-.15.21-.15.35,0,.1.03.21.09.3.06.1.17.22.33.37.44-.24.67-.48.67-.73,0-.13-.04-.23-.13-.31-.09-.08-.21-.12-.38-.12-.19,0-.33.04-.43.13ZM369.56,378.72l.8.68-1.46,1.66-.9-.77c-.84.54-1.78.81-2.83.81-.67,0-1.27-.11-1.81-.32-.54-.21-.96-.51-1.26-.88-.31-.37-.46-.79-.46-1.26,0-.53.13-.99.4-1.38.27-.39.68-.74,1.25-1.06-.48-.52-.73-1.06-.73-1.62,0-.45.13-.85.38-1.19.25-.34.61-.61,1.07-.8.46-.19.99-.29,1.6-.29.56,0,1.05.09,1.47.26.42.17.75.42.99.75.23.33.35.7.35,1.13s-.12.81-.36,1.14c-.24.33-.61.64-1.11.93l.9.76c.15-.32.25-.69.33-1.1l2.19.65c-.16.71-.43,1.35-.8,1.91ZM366.33,378.86l-1.55-1.33c-.31.23-.47.5-.47.81,0,.21.09.38.28.52.19.14.45.21.78.21s.64-.07.96-.21Z" fill="#942934"/><path d="M365.2,374.18c-.1.09-.15.21-.15.35,0,.1.03.21.09.3.06.1.17.22.33.37.44-.24.67-.48.67-.73,0-.13-.04-.23-.13-.31-.09-.08-.21-.12-.38-.12-.19,0-.33.04-.43.13ZM369.57,378.72l.8.68-1.46,1.66-.9-.77c-.84.54-1.78.81-2.83.81-.67,0-1.27-.11-1.81-.32-.54-.21-.96-.51-1.26-.88-.31-.37-.46-.79-.46-1.26,0-.53.13-.99.4-1.38.27-.39.68-.74,1.25-1.06-.48-.52-.73-1.06-.73-1.62,0-.45.13-.85.38-1.19.25-.34.61-.61,1.07-.8.46-.19.99-.29,1.6-.29.56,0,1.05.09,1.47.26.42.17.75.42.99.75.23.33.35.7.35,1.13s-.12.81-.36,1.14c-.24.33-.61.64-1.11.93l.9.76c.15-.32.25-.69.33-1.1l2.19.65c-.16.71-.43,1.35-.8,1.91ZM366.34,378.85l-1.55-1.33c-.31.23-.47.5-.47.81,0,.21.09.38.28.52.19.14.45.21.78.21s.64-.07.96-.21Z" fill="#942934"/><path d="M365.2,374.18c-.1.09-.15.21-.15.35,0,.1.03.21.09.3.06.1.17.22.33.37.44-.24.67-.48.67-.73,0-.13-.04-.23-.13-.31-.09-.08-.21-.12-.38-.12-.19,0-.33.04-.43.13ZM369.57,378.72l.8.68-1.46,1.66-.9-.77c-.84.54-1.78.81-2.83.81-.67,0-1.27-.11-1.81-.32-.54-.21-.96-.51-1.26-.88-.31-.37-.46-.79-.46-1.26,0-.53.13-.99.4-1.38.27-.39.68-.74,1.25-1.06-.48-.52-.73-1.06-.73-1.62,0-.45.13-.85.38-1.19.25-.34.61-.61,1.07-.8.46-.19.99-.29,1.6-.29.56,0,1.05.09,1.47.26.42.17.75.42.99.75.23.33.35.7.35,1.13s-.12.81-.36,1.14c-.24.33-.61.64-1.11.93l.9.76c.15-.32.25-.69.33-1.1l2.19.65c-.16.71-.43,1.35-.8,1.91ZM366.34,378.85l-1.55-1.33c-.31.23-.47.5-.47.81,0,.21.09.38.28.52.19.14.45.21.78.21s.64-.07.96-.21Z" fill="#942934"/><path d="M365.21,374.18c-.1.09-.15.21-.15.35,0,.1.03.21.09.3.06.1.17.22.33.37.44-.24.67-.48.67-.73,0-.13-.04-.23-.13-.31-.09-.08-.21-.12-.38-.12-.19,0-.33.04-.43.13ZM369.58,378.71l.8.68-1.46,1.66-.9-.77c-.84.54-1.78.81-2.83.81-.67,0-1.27-.11-1.81-.32-.54-.21-.96-.51-1.26-.88-.31-.37-.46-.79-.46-1.26,0-.53.13-.99.4-1.38.27-.39.68-.74,1.25-1.06-.48-.52-.73-1.06-.73-1.62,0-.45.13-.85.38-1.19.25-.34.61-.61,1.07-.8.46-.19.99-.29,1.6-.29.56,0,1.05.09,1.47.26.42.17.75.42.99.75.23.33.35.7.35,1.13s-.12.81-.36,1.14c-.24.33-.61.64-1.11.93l.9.76c.15-.32.25-.69.33-1.1l2.19.65c-.16.71-.43,1.35-.8,1.91ZM366.35,378.85l-1.55-1.33c-.31.23-.47.5-.47.81,0,.21.09.38.28.52.19.14.45.21.78.21s.64-.07.96-.21Z" fill="#942934"/><path d="M365.21,374.18c-.1.09-.15.21-.15.35,0,.1.03.21.09.3.06.1.17.22.33.37.44-.24.67-.48.67-.73,0-.13-.04-.23-.13-.31-.09-.08-.21-.12-.38-.12-.19,0-.33.04-.43.13ZM369.58,378.71l.8.68-1.46,1.66-.9-.77c-.84.54-1.78.81-2.83.81-.67,0-1.27-.11-1.81-.32-.54-.21-.96-.51-1.26-.88-.31-.37-.46-.79-.46-1.26,0-.53.13-.99.4-1.38.27-.39.68-.74,1.25-1.06-.48-.52-.73-1.06-.73-1.62,0-.45.13-.85.38-1.19.25-.34.61-.61,1.07-.8.46-.19.99-.29,1.6-.29.56,0,1.05.09,1.47.26.42.17.75.42.99.75.23.33.35.7.35,1.13s-.12.81-.36,1.14c-.24.33-.61.64-1.11.93l.9.76c.15-.32.25-.69.33-1.1l2.19.65c-.16.71-.43,1.35-.8,1.91ZM366.35,378.85l-1.55-1.33c-.31.23-.47.5-.47.81,0,.21.09.38.28.52.19.14.45.21.78.21s.64-.07.96-.21Z" fill="#942934"/><path d="M365.22,374.17c-.1.09-.15.21-.15.35,0,.1.03.21.09.3.06.1.17.22.33.37.44-.24.67-.48.67-.73,0-.13-.04-.23-.13-.31-.09-.08-.21-.12-.38-.12-.19,0-.33.04-.43.13ZM369.59,378.71l.8.68-1.46,1.66-.9-.77c-.84.54-1.78.81-2.83.81-.67,0-1.27-.11-1.81-.32-.54-.21-.96-.51-1.26-.88-.31-.37-.46-.79-.46-1.26,0-.53.13-.99.4-1.38.27-.39.68-.74,1.25-1.06-.48-.52-.73-1.06-.73-1.62,0-.45.13-.85.38-1.19.25-.34.61-.61,1.07-.8.46-.19.99-.29,1.6-.29.56,0,1.05.09,1.47.26.42.17.75.42.99.75.23.33.35.7.35,1.13s-.12.81-.36,1.14c-.24.33-.61.64-1.11.93l.9.76c.15-.32.25-.69.33-1.1l2.19.65c-.16.71-.43,1.35-.8,1.91ZM366.36,378.84l-1.55-1.33c-.31.23-.47.5-.47.81,0,.21.09.38.28.52.19.14.45.21.78.21s.64-.07.96-.21Z" fill="#942934"/><path d="M365.22,374.17c-.1.09-.15.21-.15.35,0,.1.03.21.09.3.06.1.17.22.33.37.44-.24.67-.48.67-.73,0-.13-.04-.23-.13-.31-.09-.08-.21-.12-.38-.12-.19,0-.33.04-.43.13ZM369.59,378.71l.8.68-1.46,1.66-.9-.77c-.84.54-1.78.81-2.83.81-.67,0-1.27-.11-1.81-.32-.54-.21-.96-.51-1.26-.88-.31-.37-.46-.79-.46-1.26,0-.53.13-.99.4-1.38.27-.39.68-.74,1.25-1.06-.48-.52-.73-1.06-.73-1.62,0-.45.13-.85.38-1.19.25-.34.61-.61,1.07-.8.46-.19.99-.29,1.6-.29.56,0,1.05.09,1.47.26.42.17.75.42.99.75.23.33.35.7.35,1.13s-.12.81-.36,1.14c-.24.33-.61.64-1.11.93l.9.76c.15-.32.25-.69.33-1.1l2.19.65c-.16.71-.43,1.35-.8,1.91ZM366.36,378.84l-1.55-1.33c-.31.23-.47.5-.47.81,0,.21.09.38.28.52.19.14.45.21.78.21s.64-.07.96-.21Z" fill="#942934"/><path d="M365.23,374.17c-.1.09-.15.21-.15.35,0,.1.03.21.09.3.06.1.17.22.33.37.44-.24.67-.48.67-.73,0-.13-.04-.23-.13-.31-.09-.08-.21-.12-.38-.12-.19,0-.33.04-.43.13ZM369.6,378.7l.8.68-1.46,1.66-.9-.77c-.84.54-1.78.81-2.83.81-.67,0-1.27-.11-1.81-.32-.54-.21-.96-.51-1.26-.88-.31-.37-.46-.79-.46-1.26,0-.53.13-.99.4-1.38.27-.39.68-.74,1.25-1.06-.48-.52-.73-1.06-.73-1.62,0-.45.13-.85.38-1.19.25-.34.61-.61,1.07-.8.46-.19.99-.29,1.6-.29.56,0,1.05.09,1.47.26.42.17.75.42.99.75.23.33.35.7.35,1.13s-.12.81-.36,1.14c-.24.33-.61.64-1.11.93l.9.76c.15-.32.25-.69.33-1.1l2.19.65c-.16.71-.43,1.35-.8,1.91ZM366.37,378.84l-1.55-1.33c-.31.23-.47.5-.47.81,0,.21.09.38.28.52.19.14.45.21.78.21s.64-.07.96-.21Z" fill="#942934"/><path d="M365.23,374.17c-.1.09-.15.21-.15.35,0,.1.03.21.09.3.06.1.17.22.33.37.44-.24.67-.48.67-.73,0-.13-.04-.23-.13-.31-.09-.08-.21-.12-.38-.12-.19,0-.33.04-.43.13ZM369.6,378.7l.8.68-1.46,1.66-.9-.77c-.84.54-1.78.81-2.83.81-.67,0-1.27-.11-1.81-.32-.54-.21-.96-.51-1.26-.88-.31-.37-.46-.79-.46-1.26,0-.53.13-.99.4-1.38.27-.39.68-.74,1.25-1.06-.48-.52-.73-1.06-.73-1.62,0-.45.13-.85.38-1.19.25-.34.61-.61,1.07-.8.46-.19.99-.29,1.6-.29.56,0,1.05.09,1.47.26.42.17.75.42.99.75.23.33.35.7.35,1.13s-.12.81-.36,1.14c-.24.33-.61.64-1.11.93l.9.76c.15-.32.25-.69.33-1.1l2.19.65c-.16.71-.43,1.35-.8,1.91ZM366.37,378.83l-1.55-1.33c-.31.23-.47.5-.47.81,0,.21.09.38.28.52.19.14.45.21.78.21s.64-.07.96-.21Z" fill="#942934"/><path d="M365.24,374.16c-.1.09-.15.21-.15.35,0,.1.03.21.09.3.06.1.17.22.33.37.44-.24.67-.48.67-.73,0-.13-.04-.23-.13-.31-.09-.08-.21-.12-.38-.12-.19,0-.33.04-.43.13ZM369.61,378.7l.8.68-1.46,1.66-.9-.77c-.84.54-1.78.81-2.83.81-.67,0-1.27-.11-1.81-.32-.54-.21-.96-.51-1.26-.88-.31-.37-.46-.79-.46-1.26,0-.53.13-.99.4-1.38.27-.39.68-.74,1.25-1.06-.48-.52-.73-1.06-.73-1.62,0-.45.13-.85.38-1.19.25-.34.61-.61,1.07-.8.46-.19.99-.29,1.6-.29.56,0,1.05.09,1.47.26.42.17.75.42.99.75.23.33.35.7.35,1.13s-.12.81-.36,1.14c-.24.33-.61.64-1.11.93l.9.76c.15-.32.25-.69.33-1.1l2.19.65c-.16.71-.43,1.35-.8,1.91ZM366.38,378.83l-1.55-1.33c-.31.23-.47.5-.47.81,0,.21.09.38.28.52.19.14.45.21.78.21s.64-.07.96-.21Z" fill="#942934"/><path d="M365.24,374.16c-.1.09-.15.21-.15.35,0,.1.03.21.09.3.06.1.17.22.33.37.44-.24.67-.48.67-.73,0-.13-.04-.23-.13-.31-.09-.08-.21-.12-.38-.12-.19,0-.33.04-.43.13ZM369.61,378.7l.8.68-1.46,1.66-.9-.77c-.84.54-1.78.81-2.83.81-.67,0-1.27-.11-1.81-.32-.54-.21-.96-.51-1.26-.88-.31-.37-.46-.79-.46-1.26,0-.53.13-.99.4-1.38.27-.39.68-.74,1.25-1.06-.48-.52-.73-1.06-.73-1.62,0-.45.13-.85.38-1.19.25-.34.61-.61,1.07-.8.46-.19.99-.29,1.6-.29.56,0,1.05.09,1.47.26.42.17.75.42.99.75.23.33.35.7.35,1.13s-.12.81-.36,1.14c-.24.33-.61.64-1.11.93l.9.76c.15-.32.25-.69.33-1.1l2.19.65c-.16.71-.43,1.35-.8,1.91ZM366.38,378.83l-1.55-1.33c-.31.23-.47.5-.47.81,0,.21.09.38.28.52.19.14.45.21.78.21s.64-.07.96-.21Z" fill="#942934"/><path d="M365.25,374.16c-.1.09-.15.21-.15.35,0,.1.03.21.09.3.06.1.17.22.33.37.44-.24.67-.48.67-.73,0-.13-.04-.23-.13-.31-.09-.08-.21-.12-.38-.12-.19,0-.33.04-.43.13ZM369.62,378.69l.8.68-1.46,1.66-.9-.77c-.84.54-1.78.81-2.83.81-.67,0-1.27-.11-1.81-.32-.54-.21-.96-.51-1.26-.88-.31-.37-.46-.79-.46-1.26,0-.53.13-.99.4-1.38.27-.39.68-.74,1.25-1.06-.48-.52-.73-1.06-.73-1.62,0-.45.13-.85.38-1.19.25-.34.61-.61,1.07-.8.46-.19.99-.29,1.6-.29.56,0,1.05.09,1.47.26.42.17.75.42.99.75.23.33.35.7.35,1.13s-.12.81-.36,1.14c-.24.33-.61.64-1.11.93l.9.76c.15-.32.25-.69.33-1.1l2.19.65c-.16.71-.43,1.35-.8,1.91ZM366.39,378.83l-1.55-1.33c-.31.23-.47.5-.47.81,0,.21.09.38.28.52.19.14.45.21.78.21s.64-.07.96-.21Z" fill="#942934"/><path d="M365.25,374.16c-.1.09-.15.21-.15.35,0,.1.03.21.09.3.06.1.17.22.33.37.44-.24.67-.48.67-.73,0-.13-.04-.23-.13-.31-.09-.08-.21-.12-.38-.12-.19,0-.33.04-.43.13ZM369.62,378.69l.8.68-1.46,1.66-.9-.77c-.84.54-1.78.81-2.83.81-.67,0-1.27-.11-1.81-.32-.54-.21-.96-.51-1.26-.88-.31-.37-.46-.79-.46-1.26,0-.53.13-.99.4-1.38.27-.39.68-.74,1.25-1.06-.48-.52-.73-1.06-.73-1.62,0-.45.13-.85.38-1.19.25-.34.61-.61,1.07-.8.46-.19.99-.29,1.6-.29.56,0,1.05.09,1.47.26.42.17.75.42.99.75.23.33.35.7.35,1.13s-.12.81-.36,1.14c-.24.33-.61.64-1.11.93l.9.76c.15-.32.25-.69.33-1.1l2.19.65c-.16.71-.43,1.35-.8,1.91ZM366.39,378.82l-1.55-1.33c-.31.23-.47.5-.47.81,0,.21.09.38.28.52.19.14.45.21.78.21s.64-.07.96-.21Z" fill="#942934"/><path d="M365.26,374.15c-.1.09-.15.21-.15.35,0,.1.03.21.09.3.06.1.17.22.33.37.44-.24.67-.48.67-.73,0-.13-.04-.23-.13-.31-.09-.08-.21-.12-.38-.12-.19,0-.33.04-.43.13ZM369.63,378.69l.8.68-1.46,1.66-.9-.77c-.84.54-1.78.81-2.83.81-.67,0-1.27-.11-1.81-.32-.54-.21-.96-.51-1.26-.88-.31-.37-.46-.79-.46-1.26,0-.53.13-.99.4-1.38.27-.39.68-.74,1.25-1.06-.48-.52-.73-1.06-.73-1.62,0-.45.13-.85.38-1.19.25-.34.61-.61,1.07-.8.46-.19.99-.29,1.6-.29.56,0,1.05.09,1.47.26.42.17.75.42.99.75.23.33.35.7.35,1.13s-.12.81-.36,1.14c-.24.33-.61.64-1.11.93l.9.76c.15-.32.25-.69.33-1.1l2.19.65c-.16.71-.43,1.35-.8,1.91ZM366.4,378.82l-1.55-1.33c-.31.23-.47.5-.47.81,0,.21.09.38.28.52.19.14.45.21.78.21s.64-.07.96-.21Z" fill="#942934"/><path d="M365.26,374.15c-.1.09-.15.21-.15.35,0,.1.03.21.09.3.06.1.17.22.33.37.44-.24.67-.48.67-.73,0-.13-.04-.23-.13-.31-.09-.08-.21-.12-.38-.12-.19,0-.33.04-.43.13ZM369.63,378.69l.8.68-1.46,1.66-.9-.77c-.84.54-1.78.81-2.83.81-.67,0-1.27-.11-1.81-.32-.54-.21-.96-.51-1.26-.88-.31-.37-.46-.79-.46-1.26,0-.53.13-.99.4-1.38.27-.39.68-.74,1.25-1.06-.48-.52-.73-1.06-.73-1.62,0-.45.13-.85.38-1.19.25-.34.61-.61,1.07-.8.46-.19.99-.29,1.6-.29.56,0,1.05.09,1.47.26.42.17.75.42.99.75.23.33.35.7.35,1.13s-.12.81-.36,1.14c-.24.33-.61.64-1.11.93l.9.76c.15-.32.25-.69.33-1.1l2.19.65c-.16.71-.43,1.35-.8,1.91ZM366.4,378.82l-1.55-1.33c-.31.23-.47.5-.47.81,0,.21.09.38.28.52.19.14.45.21.78.21s.64-.07.96-.21Z" fill="#942934"/><path d="M365.27,374.15c-.1.09-.15.21-.15.35,0,.1.03.21.09.3.06.1.17.22.33.37.44-.24.67-.48.67-.73,0-.13-.04-.23-.13-.31-.09-.08-.21-.12-.38-.12-.19,0-.33.04-.43.13ZM369.64,378.68l.8.68-1.46,1.66-.9-.77c-.84.54-1.78.81-2.83.81-.67,0-1.27-.11-1.81-.32-.54-.21-.96-.51-1.26-.88-.31-.37-.46-.79-.46-1.26,0-.53.13-.99.4-1.38.27-.39.68-.74,1.25-1.06-.48-.52-.73-1.06-.73-1.62,0-.45.13-.85.38-1.19.25-.34.61-.61,1.07-.8.46-.19.99-.29,1.6-.29.56,0,1.05.09,1.47.26.42.17.75.42.99.75.23.33.35.7.35,1.13s-.12.81-.36,1.14c-.24.33-.61.64-1.11.93l.9.76c.15-.32.25-.69.33-1.1l2.19.65c-.16.71-.43,1.35-.8,1.91ZM366.41,378.82l-1.55-1.33c-.31.23-.47.5-.47.81,0,.21.09.38.28.52.19.14.45.21.78.21s.64-.07.96-.21Z" fill="#942934"/><path d="M365.27,374.14c-.1.09-.15.21-.15.35,0,.1.03.21.09.3.06.1.17.22.33.37.44-.24.67-.48.67-.73,0-.13-.04-.23-.13-.31-.09-.08-.21-.12-.38-.12-.19,0-.33.04-.43.13ZM369.64,378.68l.8.68-1.46,1.66-.9-.77c-.84.54-1.78.81-2.83.81-.67,0-1.27-.11-1.81-.32-.54-.21-.96-.51-1.26-.88-.31-.37-.46-.79-.46-1.26,0-.53.13-.99.4-1.38.27-.39.68-.74,1.25-1.06-.48-.52-.73-1.06-.73-1.62,0-.45.13-.85.38-1.19.25-.34.61-.61,1.07-.8.46-.19.99-.29,1.6-.29.56,0,1.05.09,1.47.26.42.17.75.42.99.75.23.33.35.7.35,1.13s-.12.81-.36,1.14c-.24.33-.61.64-1.11.93l.9.76c.15-.32.25-.69.33-1.1l2.19.65c-.16.71-.43,1.35-.8,1.91ZM366.41,378.81l-1.55-1.33c-.31.23-.47.5-.47.81,0,.21.09.38.28.52.19.14.45.21.78.21s.64-.07.96-.21Z" fill="#942934"/><path d="M365.28,374.14c-.1.09-.15.21-.15.35,0,.1.03.21.09.3.06.1.17.22.33.37.44-.24.67-.48.67-.73,0-.13-.04-.23-.13-.31-.09-.08-.21-.12-.38-.12-.19,0-.33.04-.43.13ZM369.65,378.68l.8.68-1.46,1.66-.9-.77c-.84.54-1.78.81-2.83.81-.67,0-1.27-.11-1.81-.32-.54-.21-.96-.51-1.26-.88-.31-.37-.46-.79-.46-1.26,0-.53.13-.99.4-1.38.27-.39.68-.74,1.25-1.06-.48-.52-.73-1.06-.73-1.62,0-.45.13-.85.38-1.19.25-.34.61-.61,1.07-.8.46-.19.99-.29,1.6-.29.56,0,1.05.09,1.47.26.42.17.75.42.99.75.23.33.35.7.35,1.13s-.12.81-.36,1.14c-.24.33-.61.64-1.11.93l.9.76c.15-.32.25-.69.33-1.1l2.19.65c-.16.71-.43,1.35-.8,1.91ZM366.42,378.81l-1.55-1.33c-.31.23-.47.5-.47.81,0,.21.09.38.28.52.19.14.45.21.78.21s.64-.07.96-.21Z" fill="#942934"/><path d="M365.28,374.14c-.1.09-.15.21-.15.35,0,.1.03.21.09.3.06.1.17.22.33.37.44-.24.67-.48.67-.73,0-.13-.04-.23-.13-.31-.09-.08-.21-.12-.38-.12-.19,0-.33.04-.43.13ZM369.65,378.68l.8.68-1.46,1.66-.9-.77c-.84.54-1.78.81-2.83.81-.67,0-1.27-.11-1.81-.32-.54-.21-.96-.51-1.26-.88-.31-.37-.46-.79-.46-1.26,0-.53.13-.99.4-1.38.27-.39.68-.74,1.25-1.06-.48-.52-.73-1.06-.73-1.62,0-.45.13-.85.38-1.19.25-.34.61-.61,1.07-.8.46-.19.99-.29,1.6-.29.56,0,1.05.09,1.47.26.42.17.75.42.99.75.23.33.35.7.35,1.13s-.12.81-.36,1.14c-.24.33-.61.64-1.11.93l.9.76c.15-.32.25-.69.33-1.1l2.19.65c-.16.71-.43,1.35-.8,1.91ZM366.42,378.81l-1.55-1.33c-.31.23-.47.5-.47.81,0,.21.09.38.28.52.19.14.45.21.78.21s.64-.07.96-.21Z" fill="#942934"/><path d="M365.29,374.14c-.1.09-.15.21-.15.35,0,.1.03.21.09.3.06.1.17.22.33.37.44-.24.67-.48.67-.73,0-.13-.04-.23-.13-.31-.09-.08-.21-.12-.38-.12-.19,0-.33.04-.43.13ZM369.66,378.67l.8.68-1.46,1.66-.9-.77c-.84.54-1.78.81-2.83.81-.67,0-1.27-.11-1.81-.32-.54-.21-.96-.51-1.26-.88-.31-.37-.46-.79-.46-1.26,0-.53.13-.99.4-1.38.27-.39.68-.74,1.25-1.06-.48-.52-.73-1.06-.73-1.62,0-.45.13-.85.38-1.19.25-.34.61-.61,1.07-.8.46-.19.99-.29,1.6-.29.56,0,1.05.09,1.47.26.42.17.75.42.99.75.23.33.35.7.35,1.13s-.12.81-.36,1.14c-.24.33-.61.64-1.11.93l.9.76c.15-.32.25-.69.33-1.1l2.19.65c-.16.71-.43,1.35-.8,1.91ZM366.43,378.81l-1.55-1.33c-.31.23-.47.5-.47.81,0,.21.09.38.28.52.19.14.45.21.78.21s.64-.07.96-.21Z" fill="#942934"/><path d="M365.29,374.13c-.1.09-.15.21-.15.35,0,.1.03.21.09.3.06.1.17.22.33.37.44-.24.67-.48.67-.73,0-.13-.04-.23-.13-.31-.09-.08-.21-.12-.38-.12-.19,0-.33.04-.43.13ZM369.66,378.67l.8.68-1.46,1.66-.9-.77c-.84.54-1.78.81-2.83.81-.67,0-1.27-.11-1.81-.32-.54-.21-.96-.51-1.26-.88-.31-.37-.46-.79-.46-1.26,0-.53.13-.99.4-1.38.27-.39.68-.74,1.25-1.06-.48-.52-.73-1.06-.73-1.62,0-.45.13-.85.38-1.19.25-.34.61-.61,1.07-.8.46-.19.99-.29,1.6-.29.56,0,1.05.09,1.47.26.42.17.75.42.99.75.23.33.35.7.35,1.13s-.12.81-.36,1.14c-.24.33-.61.64-1.11.93l.9.76c.15-.32.25-.69.33-1.1l2.19.65c-.16.71-.43,1.35-.8,1.91ZM366.43,378.8l-1.55-1.33c-.31.23-.47.5-.47.81,0,.21.09.38.28.52.19.14.45.21.78.21s.64-.07.96-.21Z" fill="#942934"/><path d="M365.3,374.13c-.1.09-.15.21-.15.35,0,.1.03.21.09.3.06.1.17.22.33.37.44-.24.67-.48.67-.73,0-.13-.04-.23-.13-.31-.09-.08-.21-.12-.38-.12-.19,0-.33.04-.43.13ZM369.67,378.67l.8.68-1.46,1.66-.9-.77c-.84.54-1.78.81-2.83.81-.67,0-1.27-.11-1.81-.32-.54-.21-.96-.51-1.26-.88-.31-.37-.46-.79-.46-1.26,0-.53.13-.99.4-1.38.27-.39.68-.74,1.25-1.06-.48-.52-.73-1.06-.73-1.62,0-.45.13-.85.38-1.19.25-.34.61-.61,1.07-.8.46-.19.99-.29,1.6-.29.56,0,1.05.09,1.47.26.42.17.75.42.99.75.23.33.35.7.35,1.13s-.12.81-.36,1.14c-.24.33-.61.64-1.11.93l.9.76c.15-.32.25-.69.33-1.1l2.19.65c-.16.71-.43,1.35-.8,1.91ZM366.44,378.8l-1.55-1.33c-.31.23-.47.5-.47.81,0,.21.09.38.28.52.19.14.45.21.78.21s.64-.07.96-.21Z" fill="#942934"/><path d="M365.3,374.13c-.1.09-.15.21-.15.35,0,.1.03.21.09.3.06.1.17.22.33.37.44-.24.67-.48.67-.73,0-.13-.04-.23-.13-.31-.09-.08-.21-.12-.38-.12-.19,0-.33.04-.43.13ZM369.67,378.67l.8.68-1.46,1.66-.9-.77c-.84.54-1.78.81-2.83.81-.67,0-1.27-.11-1.81-.32-.54-.21-.96-.51-1.26-.88-.31-.37-.46-.79-.46-1.26,0-.53.13-.99.4-1.38.27-.39.68-.74,1.25-1.06-.48-.52-.73-1.06-.73-1.62,0-.45.13-.85.38-1.19.25-.34.61-.61,1.07-.8.46-.19.99-.29,1.6-.29.56,0,1.05.09,1.47.26.42.17.75.42.99.75.23.33.35.7.35,1.13s-.12.81-.36,1.14c-.24.33-.61.64-1.11.93l.9.76c.15-.32.25-.69.33-1.1l2.19.65c-.16.71-.43,1.35-.8,1.91ZM366.44,378.8l-1.55-1.33c-.31.23-.47.5-.47.81,0,.21.09.38.28.52.19.14.45.21.78.21s.64-.07.96-.21Z" fill="#942934"/><path d="M365.31,374.13c-.1.09-.15.21-.15.35,0,.1.03.21.09.3.06.1.17.22.33.37.44-.24.67-.48.67-.73,0-.13-.04-.23-.13-.31-.09-.08-.21-.12-.38-.12-.19,0-.33.04-.43.13ZM369.68,378.66l.8.68-1.46,1.66-.9-.77c-.84.54-1.78.81-2.83.81-.67,0-1.27-.11-1.81-.32-.54-.21-.96-.51-1.26-.88-.31-.37-.46-.79-.46-1.26,0-.53.13-.99.4-1.38.27-.39.68-.74,1.25-1.06-.48-.52-.73-1.06-.73-1.62,0-.45.13-.85.38-1.19.25-.34.61-.61,1.07-.8.46-.19.99-.29,1.6-.29.56,0,1.05.09,1.47.26.42.17.75.42.99.75.23.33.35.7.35,1.13s-.12.81-.36,1.14c-.24.33-.61.64-1.11.93l.9.76c.15-.32.25-.69.33-1.1l2.19.65c-.16.71-.43,1.35-.8,1.91ZM366.45,378.8l-1.55-1.33c-.31.23-.47.5-.47.81,0,.21.09.38.28.52.19.14.45.21.78.21s.64-.07.96-.21Z" fill="#942934"/><path d="M365.31,374.12c-.1.09-.15.21-.15.35,0,.1.03.21.09.3.06.1.17.22.33.37.44-.24.67-.48.67-.73,0-.13-.04-.23-.13-.31-.09-.08-.21-.12-.38-.12-.19,0-.33.04-.43.13ZM369.68,378.66l.8.68-1.46,1.66-.9-.77c-.84.54-1.78.81-2.83.81-.67,0-1.27-.11-1.81-.32-.54-.21-.96-.51-1.26-.88-.31-.37-.46-.79-.46-1.26,0-.53.13-.99.4-1.38.27-.39.68-.74,1.25-1.06-.48-.52-.73-1.06-.73-1.62,0-.45.13-.85.38-1.19.25-.34.61-.61,1.07-.8.46-.19.99-.29,1.6-.29.56,0,1.05.09,1.47.26.42.17.75.42.99.75.23.33.35.7.35,1.13s-.12.81-.36,1.14c-.24.33-.61.64-1.11.93l.9.76c.15-.32.25-.69.33-1.1l2.19.65c-.16.71-.43,1.35-.8,1.91ZM366.45,378.79l-1.55-1.33c-.31.23-.47.5-.47.81,0,.21.09.38.28.52.19.14.45.21.78.21s.64-.07.96-.21Z" fill="#942934"/><path d="M365.32,374.12c-.1.09-.15.21-.15.35,0,.1.03.21.09.3.06.1.17.22.33.37.44-.24.67-.48.67-.73,0-.13-.04-.23-.13-.31-.09-.08-.21-.12-.38-.12-.19,0-.33.04-.43.13ZM369.69,378.66l.8.68-1.46,1.66-.9-.77c-.84.54-1.78.81-2.83.81-.67,0-1.27-.11-1.81-.32-.54-.21-.96-.51-1.26-.88-.31-.37-.46-.79-.46-1.26,0-.53.13-.99.4-1.38.27-.39.68-.74,1.25-1.06-.48-.52-.73-1.06-.73-1.62,0-.45.13-.85.38-1.19.25-.34.61-.61,1.07-.8.46-.19.99-.29,1.6-.29.56,0,1.05.09,1.47.26.42.17.75.42.99.75.23.33.35.7.35,1.13s-.12.81-.36,1.14c-.24.33-.61.64-1.11.93l.9.76c.15-.32.25-.69.33-1.1l2.19.65c-.16.71-.43,1.35-.8,1.91ZM366.46,378.79l-1.55-1.33c-.31.23-.47.5-.47.81,0,.21.09.38.28.52.19.14.45.21.78.21s.64-.07.96-.21Z" fill="#942934"/><path d="M365.32,374.12c-.1.09-.15.21-.15.35,0,.1.03.21.09.3.06.1.17.22.33.37.44-.24.67-.48.67-.73,0-.13-.04-.23-.13-.31-.09-.08-.21-.12-.38-.12-.19,0-.33.04-.43.13ZM369.69,378.66l.8.68-1.46,1.66-.9-.77c-.84.54-1.78.81-2.83.81-.67,0-1.27-.11-1.81-.32-.54-.21-.96-.51-1.26-.88-.31-.37-.46-.79-.46-1.26,0-.53.13-.99.4-1.38.27-.39.68-.74,1.25-1.06-.48-.52-.73-1.06-.73-1.62,0-.45.13-.85.38-1.19.25-.34.61-.61,1.07-.8.46-.19.99-.29,1.6-.29.56,0,1.05.09,1.47.26.42.17.75.42.99.75.23.33.35.7.35,1.13s-.12.81-.36,1.14c-.24.33-.61.64-1.11.93l.9.76c.15-.32.25-.69.33-1.1l2.19.65c-.16.71-.43,1.35-.8,1.91ZM366.46,378.79l-1.55-1.33c-.31.23-.47.5-.47.81,0,.21.09.38.28.52.19.14.45.21.78.21s.64-.07.96-.21Z" fill="#942934"/><path d="M365.33,374.12c-.1.09-.15.21-.15.35,0,.1.03.21.09.3.06.1.17.22.33.37.44-.24.67-.48.67-.73,0-.13-.04-.23-.13-.31-.09-.08-.21-.12-.38-.12-.19,0-.33.04-.43.13ZM369.7,378.65l.8.68-1.46,1.66-.9-.77c-.84.54-1.78.81-2.83.81-.67,0-1.27-.11-1.81-.32-.54-.21-.96-.51-1.26-.88-.31-.37-.46-.79-.46-1.26,0-.53.13-.99.4-1.38.27-.39.68-.74,1.25-1.06-.48-.52-.73-1.06-.73-1.62,0-.45.13-.85.38-1.19.25-.34.61-.61,1.07-.8.46-.19.99-.29,1.6-.29.56,0,1.05.09,1.47.26.42.17.75.42.99.75.23.33.35.7.35,1.13s-.12.81-.36,1.14c-.24.33-.61.64-1.11.93l.9.76c.15-.32.25-.69.33-1.1l2.19.65c-.16.71-.43,1.35-.8,1.91ZM366.47,378.79l-1.55-1.33c-.31.23-.47.5-.47.81,0,.21.09.38.28.52.19.14.45.21.78.21s.64-.07.96-.21Z" fill="#942934"/><path d="M365.33,374.11c-.1.09-.15.21-.15.35,0,.1.03.21.09.3.06.1.17.22.33.37.44-.24.67-.48.67-.73,0-.13-.04-.23-.13-.31-.09-.08-.21-.12-.38-.12-.19,0-.33.04-.43.13ZM369.7,378.65l.8.68-1.46,1.66-.9-.77c-.84.54-1.78.81-2.83.81-.67,0-1.27-.11-1.81-.32-.54-.21-.96-.51-1.26-.88-.31-.37-.46-.79-.46-1.26,0-.53.13-.99.4-1.38.27-.39.68-.74,1.25-1.06-.48-.52-.73-1.06-.73-1.62,0-.45.13-.85.38-1.19.25-.34.61-.61,1.07-.8.46-.19.99-.29,1.6-.29.56,0,1.05.09,1.47.26.42.17.75.42.99.75.23.33.35.7.35,1.13s-.12.81-.36,1.14c-.24.33-.61.64-1.11.93l.9.76c.15-.32.25-.69.33-1.1l2.19.65c-.16.71-.43,1.35-.8,1.91ZM366.47,378.78l-1.55-1.33c-.31.23-.47.5-.47.81,0,.21.09.38.28.52.19.14.45.21.78.21s.64-.07.96-.21Z" fill="#942934"/><path d="M365.34,374.11c-.1.09-.15.21-.15.35,0,.1.03.21.09.3.06.1.17.22.33.37.44-.24.67-.48.67-.73,0-.13-.04-.23-.13-.31-.09-.08-.21-.12-.38-.12-.19,0-.33.04-.43.13ZM369.71,378.65l.8.68-1.46,1.66-.9-.77c-.84.54-1.78.81-2.83.81-.67,0-1.27-.11-1.81-.32-.54-.21-.96-.51-1.26-.88-.31-.37-.46-.79-.46-1.26,0-.53.13-.99.4-1.38.27-.39.68-.74,1.25-1.06-.48-.52-.73-1.06-.73-1.62,0-.45.13-.85.38-1.19.25-.34.61-.61,1.07-.8.46-.19.99-.29,1.6-.29.56,0,1.05.09,1.47.26.42.17.75.42.99.75.23.33.35.7.35,1.13s-.12.81-.36,1.14c-.24.33-.61.64-1.11.93l.9.76c.15-.32.25-.69.33-1.1l2.19.65c-.16.71-.43,1.35-.8,1.91ZM366.48,378.78l-1.55-1.33c-.31.23-.47.5-.47.81,0,.21.09.38.28.52.19.14.45.21.78.21s.64-.07.96-.21Z" fill="#942934"/><path d="M365.34,374.11c-.1.09-.15.21-.15.35,0,.1.03.21.09.3.06.1.17.22.33.37.44-.24.67-.48.67-.73,0-.13-.04-.23-.13-.31-.09-.08-.21-.12-.38-.12-.19,0-.33.04-.43.13ZM369.71,378.65l.8.68-1.46,1.66-.9-.77c-.84.54-1.78.81-2.83.81-.67,0-1.27-.11-1.81-.32-.54-.21-.96-.51-1.26-.88-.31-.37-.46-.79-.46-1.26,0-.53.13-.99.4-1.38.27-.39.68-.74,1.25-1.06-.48-.52-.73-1.06-.73-1.62,0-.45.13-.85.38-1.19.25-.34.61-.61,1.07-.8.46-.19.99-.29,1.6-.29.56,0,1.05.09,1.47.26.42.17.75.42.99.75.23.33.35.7.35,1.13s-.12.81-.36,1.14c-.24.33-.61.64-1.11.93l.9.76c.15-.32.25-.69.33-1.1l2.19.65c-.16.71-.43,1.35-.8,1.91ZM366.48,378.78l-1.55-1.33c-.31.23-.47.5-.47.81,0,.21.09.38.28.52.19.14.45.21.78.21s.64-.07.96-.21Z" fill="#942934"/><path d="M369.71,378.65l.8.68-1.46,1.66-.9-.77c-.84.54-1.78.81-2.83.81-.67,0-1.27-.11-1.81-.32-.54-.21-.96-.51-1.26-.88-.31-.37-.46-.79-.46-1.26,0-.53.13-.99.4-1.38.27-.39.68-.74,1.25-1.06-.48-.52-.73-1.06-.73-1.62,0-.45.13-.85.38-1.19.25-.34.61-.61,1.07-.8.46-.19.99-.29,1.6-.29.56,0,1.05.09,1.47.26.42.17.75.42.99.75.23.33.35.7.35,1.13s-.12.81-.36,1.14c-.24.33-.61.64-1.11.93l.9.76c.15-.32.25-.69.33-1.1l2.19.65c-.16.71-.43,1.35-.8,1.91ZM366.48,378.78l-1.55-1.33c-.31.23-.47.5-.47.81,0,.21.09.38.28.52.19.14.45.21.78.21s.64-.07.96-.21ZM365.34,374.11c-.1.09-.15.21-.15.35,0,.1.03.21.09.3.06.1.17.22.33.37.44-.24.67-.48.67-.73,0-.13-.04-.23-.13-.31-.09-.08-.21-.12-.38-.12-.19,0-.33.04-.43.13Z" fill="#fff"/><path d="M383.29,389.07l-.17-.29h-.12v.29h-.19v-.86h.35c.06,0,.11.01.15.04s.08.06.11.1c.03.04.04.09.04.15s-.01.1-.04.15c-.03.04-.07.08-.11.1l.19.32h-.21ZM383,388.39v.22h.15s.07-.01.09-.03c.02-.02.03-.05.03-.08,0-.02,0-.04-.01-.06,0-.02-.02-.03-.04-.04-.02,0-.04-.01-.07-.01h-.15Z" fill="#685f2f"/><path d="M383.16,389.53c-.49,0-.89-.4-.89-.89s.4-.89.89-.89.89.4.89.89-.4.89-.89.89ZM383.16,387.89c-.42,0-.75.34-.75.75s.34.75.75.75.75-.34.75-.75-.34-.75-.75-.75Z" fill="#685f2f"/><polygon points="346.47 174.15 392.15 174.23 392.23 177.26 346.38 177.26 346.47 174.15" fill="none" stroke="#1d1d1b" stroke-miterlimit="10" stroke-width="9"/></svg>