<?xml version="1.0" encoding="UTF-8"?><svg id="Capa_1" xmlns="http://www.w3.org/2000/svg" viewBox="0 0 792 612"><path d="M515.2,222.97h-1.23s0,4.53,0,4.53l-18.41,11.48c-60.89,37.98-137.98,38.47-199.34,1.25l-21.63-13.12v-4.53s-1.22,0-1.22,0c-1.32,0-2.4,1.08-2.4,2.4l-.3,186.76c-.04,25.82,16.17,48.05,38.92,56.99,6.86,2.69,14.3,4.2,22.08,4.21l33.85.05,52.54.08,38.44.06c8.44.01,16.5-1.73,23.83-4.86,21.65-9.27,36.93-30.8,36.97-55.74l.3-187.16c0-1.32-1.08-2.4-2.4-2.4Z" fill="#942934"/><path d="M514.54,66.03s0,.1,0,.19c0-.06,0-.11,0-.19Z" fill="none"/><path d="M514.54,68.58c0-.24,0-.48,0-.72v-1.14s0-.07,0-.11c0,.71,0,1.8,0,1.97Z" fill="none"/><path d="M514.53,76.02c0,.09,0,.15,0,.22v-.22Z" fill="#7f7339"/><path d="M275.13,86.44c0-.42,0-.89,0-1.41v1.41Z" fill="#7f7339"/><path d="M514.53,74.9v.59c0-.18,0-.38,0-.59Z" fill="#942934"/><path d="M514.53,73.6v.95c0-.29,0-.61,0-.95Z" fill="#942934"/><path d="M514.54,68.58v2.6c0-.85,0-1.73,0-2.6Z" fill="#942934"/><path d="M514.54,66.62s0,.08,0,.11v-.7c0,.07,0,.13,0,.19,0,.1,0,.25,0,.4Z" fill="#942934"/><path d="M514.54,66.72v1.14c0-.78,0-.94,0-1.14Z" fill="#942934"/><path d="M275.13,88.29h0s0-.91,0-.91c0,.58,0,.91,0,.91Z" fill="#942934"/><path d="M514.53,76.23v.23s0-.11,0-.23Z" fill="#942934"/><path d="M275.13,85.03c0-.55,0-1.14,0-1.78v1.78Z" fill="#942934"/><path d="M275.13,87.38c0-.26,0-.58,0-.94v.94Z" fill="#942934"/><path d="M275.14,81.52c0-1.29,0-2.67,0-4.06v4.06Z" fill="#942934"/><path d="M514.53,74.55c0,.12,0,.24,0,.35v-.35Z" fill="#942934"/><path d="M514.53,71.67c0,.68,0,1.33,0,1.92v-1.92Z" fill="#942934"/><path d="M514.54,66.62c0-.16,0-.3,0-.4,0,.19,0,.31,0,.4Z" fill="#942934"/><path d="M331.98,473.08c-7.78-.01-15.23-1.52-22.08-4.21h0s-6.84,12.23-36.37,57.61c0,0,31.28,4.13,39.45-7.19,0,0,15.38,22.69,43.52,1.88l.63.44c2.54-10.27,5.78-29.03,8.72-48.48l-33.85-.05Z" fill="#7f7130"/><path d="M418.38,473.22h0c3.83,14,7.48,33.24,11.56,47.17l24.01,10.47s6.8,3.18,12.7-.43c5.9-3.62,12.25-8.59,12.25-8.59,0,0,9.5,10.44,35.81,6.4l-34.06-59.81h0c-7.33,3.13-15.38,4.87-23.83,4.86l-38.44-.06Z" fill="#7f7130"/><path d="M418.38,473.22l-52.54-.08c-2.94,19.46-6.18,38.21-8.72,48.48l8.99,6.33,20.72,14.58s3.2,3.64,7.27,3.43c.42-.02.86-.09,1.3-.21.26-.07.51-.15.77-.26.39-.15.78-.35,1.17-.59.48-.29.96-.65,1.44-1.09.4-.36.79-.78,1.19-1.26l6.36-7.7,23.6-14.47c-4.08-13.93-7.73-33.17-11.56-47.17h0Z" fill="#685f2f"/><path d="M286.56,98.6c12.18,9.55,26.12,17.12,40.88,21.88,15.29,4.93,34.59,6.89,47.65,16.71,11.88,8.94,19.62,22.96,19.58,37.99.03-15.6,6.46-32.42,20.04-41.13,11.84-7.59,26.29-10.04,39.45-14.74,40.66-14.53,60.36-37.18,60.36-42.83h0v-.25c0-.06,0-.13,0-.22v-.38s0-.09,0-.15v-.59c0-.11,0-.23,0-.35v-.95c0-.59,0-1.24,0-1.92,0-.16,0-.33,0-.49v-2.6c0-.17,0-1.26,0-1.97,0-.09,0-.22,0-.4,0-.09,0-.15,0-.19,0,0-5.13,0-5.13,0,.13,0-1.55,3.16-1.94,3.78-8.87,14.52-31.24,23.47-47.66,21.78-11.05-1.14-21.1-6.08-31.38-9.91-10.8-4.03-22.05-6.16-33.6-6.1-32.19.17-57.74,20.99-71.36,21.37-18.8.53-42.95-13.06-43.05-30.92l-5.26.03s0,4.76-.02,9.87v1.2c0,.11,0,.22,0,.33,0,1.39,0,2.77,0,4.06,0,.6,0,1.18,0,1.73,0,.64,0,1.23,0,1.78,0,.52,0,.99,0,1.41,0,.36,0,.68,0,.94v.91c0,2.76,9.43,8.74,11.43,10.31Z" fill="#942934"/><path d="M454.16,119.32c-13.16,4.7-27.61,7.15-39.45,14.74-13.58,8.7-20.01,25.53-20.04,41.13.03-15.04-7.7-29.05-19.58-37.99-13.06-9.82-32.36-11.78-47.65-16.71-14.76-4.76-28.7-12.33-40.88-21.88-2-1.57-11.43-7.55-11.43-10.31l-.22,134.44v4.53s21.62,13.12,21.62,13.12c61.37,37.21,138.45,36.73,199.34-1.25l18.41-11.48v-4.53s.24-146.64.24-146.64c0,5.65-19.71,28.31-60.36,42.83Z" fill="#7f7339"/><circle cx="342.41" cy="174.06" r="37.36" fill="#eae9e7"/><circle cx="343.14" cy="177.04" r="22.39" fill="#685f2f"/><circle cx="343.14" cy="177.04" r="9.75" fill="#151717"/><circle cx="447.59" cy="174.23" r="37.36" fill="#eae9e7"/><circle cx="448.32" cy="177.21" r="22.39" fill="#685f2f"/><circle cx="448.32" cy="177.21" r="9.75" fill="#151717"/><path d="M391.88,254.37l-6.53-23.48c-3.01-10.84-2.43-22.37,1.66-32.85l4.86-12.45c.86-2.2,3.96-2.26,4.9-.09l6.24,14.32c3.85,8.83,4.47,18.73,1.77,27.97l-7.79,26.62c-.75,2.56-4.38,2.54-5.1-.03Z" fill="#151717"/><path d="M598.82,329.53c8.35,38.35-6.67,77.16-36.52,105.33l-51.44-189.22c47.29,9.68,78.38,39.91,87.95,83.88Z" fill="#7f7130"/><path d="M193.4,328.6c-8.73,38.27,5.89,77.22,35.45,105.7l52.67-188.52c-47.39,9.2-78.11,38.94-88.12,82.82Z" fill="#7f7130"/><path d="M349.73,461.57c-3.09,0-5.85,1.09-7.71,2.81-1.85-1.73-4.61-2.83-7.7-2.83-5.59,0-10.13,3.57-10.14,7.99,0,4.42,4.52,8.02,10.11,8.03.99,0,1.94-.11,2.85-.32,1.09.21,2.27.33,3.5.33,1.82,0,3.52-.24,4.99-.67,1.25.44,2.62.69,4.07.69,5.59,0,10.13-3.57,10.14-7.99,0-4.42-4.52-8.02-10.11-8.03Z" fill="#764912"/><ellipse cx="330.18" cy="477.59" rx="6.8" ry="3.55" transform="translate(-215.26 676.61) rotate(-75.39)" fill="#151717"/><ellipse cx="341.47" cy="478.04" rx="6.8" ry="3.55" transform="translate(-137.12 818.74) rotate(-89.91)" fill="#151717"/><ellipse cx="351.89" cy="477.59" rx="3.55" ry="6.8" transform="translate(-64.26 54.82) rotate(-8.17)" fill="#151717"/><path d="M450.92,462.63c-3.09,0-5.85,1.09-7.71,2.81-1.85-1.73-4.61-2.83-7.7-2.83-5.59,0-10.13,3.57-10.14,7.99,0,4.42,4.52,8.02,10.11,8.03.99,0,1.94-.11,2.85-.32,1.09.21,2.27.33,3.5.33,1.82,0,3.52-.24,4.99-.67,1.25.44,2.62.69,4.07.69,5.59,0,10.13-3.57,10.14-7.99,0-4.42-4.52-8.02-10.11-8.03Z" fill="#764912"/><ellipse cx="432.54" cy="476.62" rx="6.8" ry="3.55" transform="translate(-141.21 768.28) rotate(-74.72)" fill="#151717"/><ellipse cx="442.92" cy="479.45" rx="6.8" ry="3.55" transform="translate(-37.25 921.59) rotate(-89.91)" fill="#151717"/><ellipse cx="454.27" cy="476.62" rx="3.55" ry="6.8" transform="translate(-150.2 215.59) rotate(-23.02)" fill="#151717"/><path d="M462.18,239.97s23.48,29.56,4.74,90.96c-8.83-2.07-19.79-5.44-31.7-11.11-12.13-5.78-21.8-12.28-29.04-17.93v-36.11s40.74-24.78,56-25.81Z" fill="#bbdde1"/><path d="M381.29,267.13s-35.56-25.68-56.3-26.42c0,0-21.33,34.67-3.41,89.33,0,0,19.7,2.52,59.7-28.15v-34.77Z" fill="#bbdde1"/><path d="M381.29,267.13s-3.56,17.88,0,34.77c0,0,15.56,5.78,24.89,0,0,0,5.78-18.44,0-36.11l-24.89,1.34Z" fill="#92b8bc"/><path d="M392.26,284.37c-.25-.26-.37-.54-.39-.82h-2.65v-1.38h3.84v-2.05h-6.56v8.07h2.72v-2.58h2.15c.01-.25.08-.47.21-.66.14-.21.37-.4.67-.57Z" fill="#685f2f"/><path d="M398.58,286.07c-.57,0-1.03-.18-1.37-.55-.35-.37-.52-.86-.52-1.47s.17-1.11.52-1.47c.35-.37.8-.55,1.37-.55.68,0,1.26.32,1.76.95l1.72-1.53c-.4-.52-.91-.92-1.52-1.2-.62-.28-1.32-.42-2.1-.42-.85,0-1.62.18-2.31.54-.68.36-1.22.86-1.61,1.5-.1.17-.19.35-.27.53.02,0,.03.01.05.02.23.09.4.23.53.4.13.18.19.38.19.61s-.06.43-.19.61c-.13.18-.33.35-.6.5l.48.41c.08-.17.14-.37.18-.59l1.18.35c-.09.38-.23.72-.43,1.03l.43.36-.79.89-.48-.42s-.02.01-.03.02c.36.47.81.85,1.36,1.14.68.36,1.45.54,2.31.54.78,0,1.48-.14,2.1-.42.62-.28,1.12-.68,1.52-1.2l-1.72-1.53c-.5.63-1.09.95-1.76.95Z" fill="#685f2f"/><path d="M400.37,289.75s-.06-.08-.1-.11c-.04-.03-.09-.04-.15-.04s-.11.01-.15.04c-.04.02-.08.06-.1.11-.01.03-.02.06-.03.09h.55s-.01-.06-.03-.09Z" fill="none"/><path d="M397.53,289.69s-.09-.04-.15-.04-.1.01-.14.04c-.04.03-.08.06-.1.11-.03.05-.04.11-.04.17s.01.13.04.18c.03.05.06.09.1.11.04.03.09.04.14.04s.1-.01.15-.04c.04-.02.08-.06.1-.11.03-.05.04-.11.04-.18s-.01-.13-.04-.17c-.03-.05-.06-.08-.1-.11Z" fill="none"/><path d="M389.02,289.69s-.09-.04-.15-.04-.1.01-.14.04c-.04.03-.08.06-.1.11-.03.05-.04.11-.04.17s.01.13.04.18c.03.05.06.09.1.11.04.03.09.04.14.04s.1-.01.15-.04c.04-.02.08-.06.1-.11.03-.05.04-.11.04-.18s-.01-.13-.04-.17c-.03-.05-.06-.08-.1-.11Z" fill="none"/><path d="M386.96,289.41s.09-.08.15-.1c.06-.02.13-.04.2-.04.08,0,.16.02.23.05.07.04.13.09.19.15l.32-.29c-.09-.11-.19-.19-.32-.25-.13-.06-.27-.09-.43-.09-.14,0-.27.02-.38.07-.12.04-.22.11-.31.19-.09.08-.15.18-.2.29-.05.11-.07.23-.07.37s.02.26.07.37c.05.11.12.21.2.29.09.08.19.14.31.19.12.04.25.07.38.07.16,0,.31-.03.43-.09.13-.06.23-.14.32-.24l-.32-.29c-.06.07-.12.12-.19.15-.07.04-.14.05-.23.05-.07,0-.14-.01-.2-.04-.06-.02-.11-.06-.15-.1-.04-.04-.08-.1-.1-.16-.02-.06-.04-.13-.04-.21s.01-.14.04-.21c.02-.06.06-.11.1-.16Z" fill="#942934"/><path d="M389.27,289.36c-.12-.06-.25-.09-.4-.09s-.28.03-.4.09c-.12.06-.21.14-.27.25-.07.11-.1.23-.1.36s.03.26.1.36c.07.11.16.19.27.25.12.06.25.09.4.09s.28-.03.4-.09c.12-.06.21-.14.27-.25.07-.11.1-.23.1-.36s-.03-.26-.1-.36c-.07-.11-.16-.19-.27-.25ZM389.12,290.15s-.06.09-.1.11c-.04.03-.09.04-.15.04s-.1-.01-.14-.04c-.04-.02-.08-.06-.1-.11-.03-.05-.04-.11-.04-.18s.01-.13.04-.17c.03-.05.06-.08.1-.11.04-.03.09-.04.14-.04s.1.01.15.04c.04.03.08.06.1.11.03.05.04.11.04.17s-.01.13-.04.18Z" fill="#942934"/><path d="M391.03,289.34c-.09-.04-.18-.06-.29-.06-.11,0-.22.02-.31.07-.05.03-.09.06-.13.1v.24l-.09-.11s.05-.09.09-.12v-.15h-.45v1.36h.48v-.66c0-.08.01-.14.04-.18.02-.05.06-.08.1-.1.04-.02.09-.03.14-.03.07,0,.12.02.16.07.04.04.06.11.06.21v.7h.48v-.78c0-.14-.02-.25-.07-.34-.05-.09-.12-.15-.2-.2Z" fill="#942934"/><path d="M390.31,289.68v-.24s-.06.08-.09.12l.09.11Z" fill="#942934"/><path d="M392.61,289.92s-.1-.05-.16-.07c-.06-.01-.11-.03-.17-.03-.06,0-.11-.01-.16-.02-.05,0-.09-.02-.11-.03-.03-.01-.04-.03-.04-.06s.02-.05.05-.07c.03-.02.09-.03.17-.03.06,0,.12,0,.19.02.07.01.13.04.2.08l.14-.32c-.07-.04-.15-.07-.25-.09-.1-.02-.19-.03-.29-.03-.14,0-.26.02-.36.06-.1.04-.17.09-.22.16-.05.07-.08.14-.08.23,0,.08.01.14.04.19.03.05.07.09.11.12.05.03.1.05.16.07.06.01.11.03.17.03.06,0,.11.02.16.02.05,0,.09.02.12.03.03.01.04.03.04.06,0,.03-.02.05-.05.07-.03.02-.09.02-.17.02s-.17-.01-.25-.03c-.09-.02-.16-.05-.22-.09l-.14.33c.07.04.15.07.26.1.11.03.22.04.34.04.15,0,.27-.02.37-.06.1-.04.17-.09.23-.16.05-.07.08-.14.08-.23,0-.08-.01-.14-.04-.19-.03-.05-.07-.09-.11-.12Z" fill="#942934"/><path d="M393.94,290.27v.24s.06-.08.09-.13l-.09-.11Z" fill="#942934"/><path d="M393.92,289.95c0,.08-.01.14-.04.18-.02.05-.05.08-.09.1-.04.02-.08.03-.13.03-.07,0-.13-.02-.17-.07-.04-.05-.06-.12-.06-.23v-.68h-.48v.76c0,.14.02.26.07.35.05.09.12.16.21.2.09.04.19.07.3.07.1,0,.2-.02.29-.07.04-.02.08-.05.12-.09v-.24l.09.11c-.02.05-.05.1-.09.13v.14h.45v-1.36h-.48v.65Z" fill="#942934"/><rect x="394.7" y="288.8" width=".48" height="1.86" fill="#942934"/><rect x="395.68" y="289.35" width=".48" height=".36" fill="#942934"/><path d="M396.29,290.31s-.08-.01-.1-.04-.04-.07-.04-.11v-.45h-.48v.46c0,.17.05.3.15.39.1.09.23.13.41.13.06,0,.12,0,.18-.02.06-.01.11-.03.15-.06l-.12-.33s-.09.04-.15.04Z" fill="#942934"/><rect x="396.15" y="289.35" width=".31" height=".36" fill="#942934"/><rect x="395.48" y="289.35" width=".2" height=".36" fill="#942934"/><rect x="395.68" y="288.99" width=".48" height=".35" fill="#942934"/><path d="M397.78,289.36c-.12-.06-.25-.09-.4-.09s-.28.03-.4.09c-.12.06-.21.14-.27.25-.07.11-.1.23-.1.36s.03.26.1.36c.07.11.16.19.27.25.12.06.25.09.4.09s.28-.03.4-.09c.12-.06.21-.14.27-.25.07-.11.1-.23.1-.36s-.03-.26-.1-.36c-.07-.11-.16-.19-.27-.25ZM397.63,290.15s-.06.09-.1.11c-.04.03-.09.04-.15.04s-.1-.01-.14-.04c-.04-.02-.08-.06-.1-.11-.03-.05-.04-.11-.04-.18s.01-.13.04-.17c.03-.05.06-.08.1-.11.04-.03.09-.04.14-.04s.1.01.15.04c.04.03.08.06.1.11.03.05.04.11.04.17s-.01.13-.04.18Z" fill="#942934"/><path d="M398.82,289.46v.23l-.07-.11s.04-.08.07-.12v-.16h-.45v1.36h.48v-.62c0-.12.03-.2.09-.26.06-.05.14-.08.24-.08.02,0,.04,0,.05,0,.02,0,.03,0,.06,0v-.43c-.13,0-.24.03-.33.08-.05.03-.09.07-.13.11Z" fill="#942934"/><path d="M398.82,289.69v-.23s-.05.07-.07.12l.07.11Z" fill="#942934"/><path d="M399.84,289.92s0-.05,0-.07h-.08v.25h.09s-.01-.07-.01-.11v-.07Z" fill="#942934"/><path d="M400.48,289.35c-.11-.05-.23-.08-.37-.08-.14,0-.27.03-.38.09-.11.06-.2.14-.27.25-.06.11-.1.23-.1.36s.03.26.1.36c.07.11.16.19.28.25.12.06.26.09.42.09.13,0,.24-.02.34-.06.1-.04.18-.09.24-.16l-.25-.26s-.09.07-.14.09c-.05.02-.1.03-.17.03-.07,0-.13-.01-.19-.04-.05-.03-.09-.06-.12-.11-.01-.02-.02-.04-.03-.07h-.09v-.25h.08s.01-.06.03-.09c.02-.05.06-.08.1-.11.04-.03.09-.04.15-.04s.11.01.15.04c.04.02.08.06.1.11.01.03.02.06.03.09h.19l-.18.07s0-.05,0-.07h-.55s0,.05,0,.07v.07s0,.07.01.11h.99s0-.04,0-.06c0-.02,0-.04,0-.06,0-.15-.03-.28-.1-.38-.07-.11-.15-.18-.26-.24Z" fill="#942934"/><path d="M400.58,289.84h-.19s0,.05,0,.07l.18-.07Z" fill="#942934"/><path d="M402.19,290.04s-.07-.09-.11-.12c-.05-.03-.1-.05-.16-.07-.06-.01-.11-.03-.17-.03-.06,0-.11-.01-.16-.02-.05,0-.09-.02-.11-.03-.03-.01-.04-.03-.04-.06s.02-.05.05-.07c.03-.02.09-.03.17-.03.06,0,.12,0,.19.02.07.01.13.04.2.08l.14-.32c-.07-.04-.15-.07-.25-.09-.1-.02-.19-.03-.29-.03-.14,0-.26.02-.36.06-.1.04-.17.09-.22.16-.05.07-.08.14-.08.23,0,.08.01.14.04.19.03.05.07.09.11.12.05.03.1.05.16.07.06.01.11.03.17.03.06,0,.11.02.16.02.05,0,.09.02.12.03.03.01.04.03.04.06,0,.03-.02.05-.05.07s-.09.02-.17.02-.17-.01-.25-.03c-.09-.02-.16-.05-.22-.09l-.14.33c.07.04.15.07.26.1.11.03.22.04.34.04.15,0,.27-.02.37-.06.1-.04.17-.09.23-.16.05-.07.08-.14.08-.23,0-.08-.01-.14-.04-.19Z" fill="#942934"/><rect x="386.33" y="291.08" width="15.91" height=".16" fill="#942934"/><path d="M386.77,291.74v.19h.27v.07h-.27v.22h-.08v-.53h.38v.07h-.3Z" fill="#685f2f"/><path d="M387.22,292.18s-.06-.04-.07-.07c-.02-.03-.03-.07-.03-.11s0-.07.03-.11c.02-.03.04-.06.07-.07.03-.02.07-.03.11-.03s.08,0,.11.03c.03.02.06.04.07.07.02.03.03.07.03.11s0,.08-.03.11c-.02.03-.04.06-.07.07-.03.02-.07.03-.11.03s-.08,0-.11-.03ZM387.4,292.13s.04-.03.05-.05c.01-.02.02-.05.02-.07s0-.05-.02-.07c-.01-.02-.03-.04-.05-.05-.02-.01-.04-.02-.07-.02s-.05,0-.07.02c-.02.01-.04.03-.05.05-.01.02-.02.05-.02.07s0,.05.02.07c.01.02.03.04.05.05s.04.02.07.02.05,0,.07-.02Z" fill="#685f2f"/><path d="M387.77,291.81s.06-.02.09-.02v.07s0,0-.02,0c-.04,0-.07.01-.09.04-.02.02-.03.06-.03.1v.2h-.07v-.4h.07v.07s.03-.04.06-.05Z" fill="#685f2f"/><path d="M388.57,291.84s.04.07.04.13v.23h-.07v-.22s0-.07-.03-.09c-.02-.02-.04-.03-.08-.03-.04,0-.07.01-.09.03-.02.02-.03.06-.03.1v.21h-.07v-.22s0-.07-.03-.09c-.02-.02-.04-.03-.08-.03-.04,0-.07.01-.09.03-.02.02-.03.06-.03.1v.21h-.07v-.4h.07v.06s.03-.04.06-.05c.02-.01.05-.02.08-.02s.06,0,.08.02c.02.01.04.03.06.06.02-.02.04-.04.06-.05s.06-.02.09-.02c.05,0,.09.01.12.04Z" fill="#685f2f"/><path d="M389.03,291.84s.04.07.04.12v.24h-.07v-.05s-.03.03-.05.04c-.02,0-.05.01-.08.01-.05,0-.08-.01-.11-.03-.03-.02-.04-.05-.04-.09s.01-.06.04-.09c.03-.02.07-.03.12-.03h.12s0-.07-.03-.09-.05-.03-.08-.03c-.02,0-.05,0-.07.01-.02,0-.04.02-.06.03l-.03-.05s.05-.03.07-.04c.03,0,.06-.01.09-.01.06,0,.1.01.13.04ZM388.95,292.13s.04-.03.04-.05v-.06h-.11c-.06,0-.09.02-.09.06,0,.02,0,.04.02.05s.04.02.07.02.05,0,.07-.02Z" fill="#685f2f"/><path d="M389.28,292.18s-.06-.04-.08-.07-.03-.07-.03-.11,0-.07.03-.11c.02-.03.04-.06.08-.07.03-.02.07-.03.11-.03.04,0,.07,0,.1.02.03.01.05.04.07.06l-.06.04s-.03-.03-.05-.04c-.02,0-.04-.01-.06-.01-.03,0-.05,0-.07.02-.02.01-.04.03-.05.05-.01.02-.02.05-.02.07s0,.05.02.08c.01.02.03.04.05.05s.04.02.07.02c.02,0,.04,0,.06-.01.02,0,.03-.02.05-.04l.06.04s-.04.05-.07.06c-.03.01-.06.02-.1.02-.04,0-.08,0-.11-.03Z" fill="#685f2f"/><path d="M389.65,291.71s-.01-.02-.01-.03,0-.02.01-.03c0,0,.02-.01.04-.01s.03,0,.04.01c0,0,.01.02.01.03s0,.03-.01.03c0,0-.02.01-.04.01s-.03,0-.04-.01ZM389.64,291.8h.07v.4h-.07v-.4Z" fill="#685f2f"/><path d="M389.92,292.18s-.06-.04-.07-.07c-.02-.03-.03-.07-.03-.11s0-.07.03-.11c.02-.03.04-.06.07-.07.03-.02.07-.03.11-.03s.08,0,.11.03c.03.02.06.04.07.07.02.03.03.07.03.11s0,.08-.03.11c-.02.03-.04.06-.07.07-.03.02-.07.03-.11.03s-.08,0-.11-.03ZM390.1,292.13s.04-.03.05-.05c.01-.02.02-.05.02-.07s0-.05-.02-.07c-.01-.02-.03-.04-.05-.05-.02-.01-.04-.02-.07-.02s-.05,0-.07.02c-.02.01-.04.03-.05.05-.01.02-.02.05-.02.07s0,.05.02.07c.01.02.03.04.05.05s.04.02.07.02.05,0,.07-.02ZM390.08,291.64h.09l-.13.1h-.07l.1-.1Z" fill="#685f2f"/><path d="M390.68,291.84s.05.07.05.13v.23h-.07v-.22s0-.07-.03-.09c-.02-.02-.05-.03-.08-.03-.04,0-.07.01-.09.03-.02.02-.03.06-.03.1v.21h-.07v-.4h.07v.06s.03-.04.06-.05.05-.02.09-.02c.05,0,.09.01.12.04Z" fill="#685f2f"/><path d="M391.42,291.8l-.2.44s-.04.07-.06.09-.05.03-.08.03c-.02,0-.04,0-.06,0-.02,0-.03-.02-.05-.03l.03-.05s.04.03.07.03c.02,0,.03,0,.04-.01.01,0,.02-.03.03-.05v-.03s-.17-.4-.17-.4h.08l.14.32.14-.32h.07Z" fill="#685f2f"/><path d="M391.76,292.18s-.06-.04-.08-.07-.03-.07-.03-.11,0-.07.03-.11c.02-.03.04-.06.08-.07.03-.02.07-.03.11-.03.04,0,.07,0,.1.02.03.01.05.04.07.06l-.06.04s-.03-.03-.05-.04c-.02,0-.04-.01-.06-.01-.03,0-.05,0-.07.02-.02.01-.04.03-.05.05-.01.02-.02.05-.02.07s0,.05.02.08c.01.02.03.04.05.05s.04.02.07.02c.02,0,.04,0,.06-.01.02,0,.03-.02.05-.04l.06.04s-.04.05-.07.06c-.03.01-.06.02-.1.02-.04,0-.08,0-.11-.03Z" fill="#685f2f"/><path d="M392.41,291.84s.04.07.04.12v.24h-.07v-.05s-.03.03-.05.04c-.02,0-.05.01-.08.01-.05,0-.08-.01-.11-.03-.03-.02-.04-.05-.04-.09s.01-.06.04-.09c.03-.02.07-.03.12-.03h.12s0-.07-.03-.09-.05-.03-.08-.03c-.02,0-.05,0-.07.01-.02,0-.04.02-.06.03l-.03-.05s.05-.03.07-.04c.03,0,.06-.01.09-.01.06,0,.1.01.13.04ZM392.33,292.13s.04-.03.04-.05v-.06h-.11c-.06,0-.09.02-.09.06,0,.02,0,.04.02.05s.04.02.07.02.05,0,.07-.02Z" fill="#685f2f"/><path d="M392.9,291.82s.06.04.07.07c.02.03.03.07.03.11s0,.08-.03.11c-.02.03-.04.06-.07.07-.03.02-.07.03-.11.03-.03,0-.06,0-.08-.02s-.04-.03-.06-.05v.21h-.07v-.55h.07v.06s.04-.04.06-.05c.02-.01.05-.02.08-.02.04,0,.07,0,.11.03ZM392.86,292.13s.04-.03.05-.05c.01-.02.02-.05.02-.07s0-.05-.02-.07c-.01-.02-.03-.04-.05-.05-.02-.01-.04-.02-.07-.02s-.05,0-.07.02c-.02.01-.04.03-.05.05-.01.02-.02.05-.02.07s0,.05.02.07c.01.02.03.04.05.05s.04.02.07.02.05,0,.07-.02Z" fill="#685f2f"/><path d="M393.38,291.84s.04.07.04.12v.24h-.07v-.05s-.03.03-.05.04c-.02,0-.05.01-.08.01-.05,0-.08-.01-.11-.03-.03-.02-.04-.05-.04-.09s.01-.06.04-.09c.03-.02.07-.03.12-.03h.12s0-.07-.03-.09-.05-.03-.08-.03c-.02,0-.05,0-.07.01-.02,0-.04.02-.06.03l-.03-.05s.05-.03.07-.04c.03,0,.06-.01.09-.01.06,0,.1.01.13.04ZM393.3,292.13s.04-.03.04-.05v-.06h-.11c-.06,0-.09.02-.09.06,0,.02,0,.04.02.05s.04.02.07.02.05,0,.07-.02Z" fill="#685f2f"/><path d="M393.62,292.18s-.06-.04-.08-.07-.03-.07-.03-.11,0-.07.03-.11c.02-.03.04-.06.08-.07.03-.02.07-.03.11-.03.04,0,.07,0,.1.02.03.01.05.04.07.06l-.06.04s-.03-.03-.05-.04c-.02,0-.04-.01-.06-.01-.03,0-.05,0-.07.02-.02.01-.04.03-.05.05-.01.02-.02.05-.02.07s0,.05.02.08c.01.02.03.04.05.05s.04.02.07.02c.02,0,.04,0,.06-.01.02,0,.03-.02.05-.04l.06.04s-.04.05-.07.06c-.03.01-.06.02-.1.02-.04,0-.08,0-.11-.03Z" fill="#685f2f"/><path d="M394,291.71s-.01-.02-.01-.03,0-.02.01-.03c0,0,.02-.01.04-.01s.03,0,.04.01c0,0,.01.02.01.03s0,.03-.01.03c0,0-.02.01-.04.01s-.03,0-.04-.01ZM393.99,291.8h.07v.4h-.07v-.4Z" fill="#685f2f"/><path d="M394.43,292.18s-.02.02-.04.02c-.02,0-.03,0-.05,0-.04,0-.07-.01-.09-.03-.02-.02-.03-.05-.03-.09v-.22h-.07v-.06h.07v-.09h.07v.09h.12v.06h-.12v.22s0,.04.02.05c.01.01.03.02.05.02.02,0,.04,0,.06-.02l.02.05Z" fill="#685f2f"/><path d="M394.8,291.84s.04.07.04.12v.24h-.07v-.05s-.03.03-.05.04c-.02,0-.05.01-.08.01-.05,0-.08-.01-.11-.03-.03-.02-.04-.05-.04-.09s.01-.06.04-.09c.03-.02.07-.03.12-.03h.12s0-.07-.03-.09-.05-.03-.08-.03c-.02,0-.05,0-.07.01-.02,0-.04.02-.06.03l-.03-.05s.05-.03.07-.04c.03,0,.06-.01.09-.01.06,0,.1.01.13.04ZM394.72,292.13s.04-.03.04-.05v-.06h-.11c-.06,0-.09.02-.09.06,0,.02,0,.04.02.05s.04.02.07.02.05,0,.07-.02Z" fill="#685f2f"/><path d="M395.05,292.18s-.06-.04-.08-.07-.03-.07-.03-.11,0-.07.03-.11c.02-.03.04-.06.08-.07.03-.02.07-.03.11-.03.04,0,.07,0,.1.02.03.01.05.04.07.06l-.06.04s-.03-.03-.05-.04c-.02,0-.04-.01-.06-.01-.03,0-.05,0-.07.02-.02.01-.04.03-.05.05-.01.02-.02.05-.02.07s0,.05.02.08c.01.02.03.04.05.05s.04.02.07.02c.02,0,.04,0,.06-.01.02,0,.03-.02.05-.04l.06.04s-.04.05-.07.06c-.03.01-.06.02-.1.02-.04,0-.08,0-.11-.03Z" fill="#685f2f"/><path d="M395.42,291.71s-.01-.02-.01-.03,0-.02.01-.03c0,0,.02-.01.04-.01s.03,0,.04.01c0,0,.01.02.01.03s0,.03-.01.03c0,0-.02.01-.04.01s-.03,0-.04-.01ZM395.41,291.8h.07v.4h-.07v-.4Z" fill="#685f2f"/><path d="M395.69,292.18s-.06-.04-.07-.07c-.02-.03-.03-.07-.03-.11s0-.07.03-.11c.02-.03.04-.06.07-.07.03-.02.07-.03.11-.03s.08,0,.11.03c.03.02.06.04.07.07.02.03.03.07.03.11s0,.08-.03.11c-.02.03-.04.06-.07.07-.03.02-.07.03-.11.03s-.08,0-.11-.03ZM395.87,292.13s.04-.03.05-.05c.01-.02.02-.05.02-.07s0-.05-.02-.07c-.01-.02-.03-.04-.05-.05-.02-.01-.04-.02-.07-.02s-.05,0-.07.02c-.02.01-.04.03-.05.05-.01.02-.02.05-.02.07s0,.05.02.07c.01.02.03.04.05.05s.04.02.07.02.05,0,.07-.02ZM395.85,291.64h.09l-.13.1h-.07l.1-.1Z" fill="#685f2f"/><path d="M396.45,291.84s.05.07.05.13v.23h-.07v-.22s0-.07-.03-.09c-.02-.02-.05-.03-.08-.03-.04,0-.07.01-.09.03-.02.02-.03.06-.03.1v.21h-.07v-.4h.07v.06s.03-.04.06-.05.05-.02.09-.02c.05,0,.09.01.12.04Z" fill="#685f2f"/><path d="M397.2,292.02h-.33s.02.06.05.09.06.03.1.03c.05,0,.09-.02.12-.05l.04.05s-.04.04-.07.05c-.03.01-.06.02-.09.02-.04,0-.08,0-.11-.03s-.06-.04-.08-.07c-.02-.03-.03-.07-.03-.11s0-.07.03-.11c.02-.03.04-.06.07-.07.03-.02.07-.03.1-.03s.07,0,.1.03c.03.02.05.04.07.07.02.03.03.07.03.11,0,0,0,.01,0,.02ZM396.91,291.89s-.04.05-.04.08h.26s-.02-.06-.04-.08c-.02-.02-.05-.03-.09-.03s-.06.01-.09.03Z" fill="#685f2f"/><path d="M397.32,292.19s-.05-.02-.07-.03l.03-.06s.04.02.06.03c.03,0,.05.01.08.01.06,0,.1-.02.1-.05,0-.01,0-.02-.01-.03s-.02-.01-.03-.02c-.01,0-.03,0-.06-.01-.03,0-.06-.01-.08-.02-.02,0-.04-.02-.05-.03s-.02-.04-.02-.07c0-.04.02-.07.05-.09.03-.02.07-.03.12-.03.03,0,.05,0,.08,0,.03,0,.05.02.07.03l-.03.06s-.07-.03-.12-.03c-.03,0-.05,0-.07.02-.02.01-.02.02-.02.04,0,.01,0,.02.01.03,0,0,.02.01.03.02.01,0,.03,0,.06.01.03,0,.06.01.08.02.02,0,.04.02.05.03.01.02.02.04.02.06,0,.04-.02.07-.05.09-.03.02-.07.03-.13.03-.03,0-.06,0-.1-.01Z" fill="#685f2f"/><path d="M398,291.82s.06.04.07.07c.02.03.03.07.03.11s0,.08-.03.11c-.02.03-.04.06-.07.07-.03.02-.07.03-.11.03-.03,0-.06,0-.08-.02s-.04-.03-.06-.05v.21h-.07v-.55h.07v.06s.04-.04.06-.05c.02-.01.05-.02.08-.02.04,0,.07,0,.11.03ZM397.96,292.13s.04-.03.05-.05c.01-.02.02-.05.02-.07s0-.05-.02-.07c-.01-.02-.03-.04-.05-.05-.02-.01-.04-.02-.07-.02s-.05,0-.07.02c-.02.01-.04.03-.05.05-.01.02-.02.05-.02.07s0,.05.02.07c.01.02.03.04.05.05s.04.02.07.02.05,0,.07-.02Z" fill="#685f2f"/><path d="M398.57,292.02h-.33s.02.06.05.09.06.03.1.03c.05,0,.09-.02.12-.05l.04.05s-.04.04-.07.05c-.03.01-.06.02-.09.02-.04,0-.08,0-.11-.03s-.06-.04-.08-.07c-.02-.03-.03-.07-.03-.11s0-.07.03-.11c.02-.03.04-.06.07-.07.03-.02.07-.03.1-.03s.07,0,.1.03c.03.02.05.04.07.07.02.03.03.07.03.11,0,0,0,.01,0,.02ZM398.28,291.89s-.04.05-.04.08h.26s-.02-.06-.04-.08c-.02-.02-.05-.03-.09-.03s-.06.01-.09.03Z" fill="#685f2f"/><path d="M398.73,292.18s-.06-.04-.08-.07-.03-.07-.03-.11,0-.07.03-.11c.02-.03.04-.06.08-.07.03-.02.07-.03.11-.03.04,0,.07,0,.1.02.03.01.05.04.07.06l-.06.04s-.03-.03-.05-.04c-.02,0-.04-.01-.06-.01-.03,0-.05,0-.07.02-.02.01-.04.03-.05.05-.01.02-.02.05-.02.07s0,.05.02.08c.01.02.03.04.05.05s.04.02.07.02c.02,0,.04,0,.06-.01.02,0,.03-.02.05-.04l.06.04s-.04.05-.07.06c-.03.01-.06.02-.1.02-.04,0-.08,0-.11-.03Z" fill="#685f2f"/><path d="M399.1,291.71s-.01-.02-.01-.03,0-.02.01-.03c0,0,.02-.01.04-.01s.03,0,.04.01c0,0,.01.02.01.03s0,.03-.01.03c0,0-.02.01-.04.01s-.03,0-.04-.01ZM399.1,291.8h.07v.4h-.07v-.4Z" fill="#685f2f"/><path d="M399.59,291.84s.04.07.04.12v.24h-.07v-.05s-.03.03-.05.04c-.02,0-.05.01-.08.01-.05,0-.08-.01-.11-.03-.03-.02-.04-.05-.04-.09s.01-.06.04-.09c.03-.02.07-.03.12-.03h.12s0-.07-.03-.09-.05-.03-.08-.03c-.02,0-.05,0-.07.01-.02,0-.04.02-.06.03l-.03-.05s.05-.03.07-.04c.03,0,.06-.01.09-.01.06,0,.1.01.13.04ZM399.52,292.13s.04-.03.04-.05v-.06h-.11c-.06,0-.09.02-.09.06,0,.02,0,.04.02.05s.04.02.07.02.05,0,.07-.02Z" fill="#685f2f"/><path d="M399.77,291.64h.07v.57h-.07v-.57Z" fill="#685f2f"/><path d="M399.99,291.71s-.01-.02-.01-.03,0-.02.01-.03c0,0,.02-.01.04-.01s.03,0,.04.01c0,0,.01.02.01.03s0,.03-.01.03c0,0-.02.01-.04.01s-.03,0-.04-.01ZM399.98,291.8h.07v.4h-.07v-.4Z" fill="#685f2f"/><path d="M400.5,292.14v.06h-.34v-.05l.24-.3h-.23v-.06h.33v.05l-.24.3h.24Z" fill="#685f2f"/><path d="M400.87,291.84s.04.07.04.12v.24h-.07v-.05s-.03.03-.05.04c-.02,0-.05.01-.08.01-.05,0-.08-.01-.11-.03-.03-.02-.04-.05-.04-.09s.01-.06.04-.09c.03-.02.07-.03.12-.03h.12s0-.07-.03-.09-.05-.03-.08-.03c-.02,0-.05,0-.07.01-.02,0-.04.02-.06.03l-.03-.05s.05-.03.07-.04c.03,0,.06-.01.09-.01.06,0,.1.01.13.04ZM400.8,292.13s.04-.03.04-.05v-.06h-.11c-.06,0-.09.02-.09.06,0,.02,0,.04.02.05s.04.02.07.02.05,0,.07-.02Z" fill="#685f2f"/><path d="M401.43,291.64v.57h-.07v-.06s-.04.04-.06.05-.05.02-.08.02c-.04,0-.07,0-.11-.03-.03-.02-.06-.04-.07-.07-.02-.03-.03-.07-.03-.11s0-.08.03-.11c.02-.03.04-.06.07-.07.03-.02.07-.03.11-.03.03,0,.06,0,.08.02.02.01.04.03.06.05v-.22h.07ZM401.29,292.13s.04-.03.05-.05c.01-.02.02-.05.02-.07s0-.05-.02-.07c-.01-.02-.03-.04-.05-.05-.02-.01-.04-.02-.07-.02s-.05,0-.07.02c-.02.01-.04.03-.05.05-.01.02-.02.05-.02.07s0,.05.02.07c.01.02.03.04.05.05s.04.02.07.02.05,0,.07-.02Z" fill="#685f2f"/><path d="M401.85,291.84s.04.07.04.12v.24h-.07v-.05s-.03.03-.05.04c-.02,0-.05.01-.08.01-.05,0-.08-.01-.11-.03-.03-.02-.04-.05-.04-.09s.01-.06.04-.09c.03-.02.07-.03.12-.03h.12s0-.07-.03-.09-.05-.03-.08-.03c-.02,0-.05,0-.07.01-.02,0-.04.02-.06.03l-.03-.05s.05-.03.07-.04c.03,0,.06-.01.09-.01.06,0,.1.01.13.04ZM401.77,292.13s.04-.03.04-.05v-.06h-.11c-.06,0-.09.02-.09.06,0,.02,0,.04.02.05s.04.02.07.02.05,0,.07-.02Z" fill="#685f2f"/><path d="M393.08,283.43c-.06.05-.08.11-.08.19,0,.06.02.11.05.16.03.05.09.12.18.2.24-.13.36-.26.36-.4,0-.07-.02-.13-.07-.17-.05-.04-.12-.07-.2-.07-.1,0-.18.02-.23.07ZM395.46,285.9l.44.37-.8.9-.49-.42c-.46.29-.97.44-1.54.44-.37,0-.69-.06-.99-.17-.29-.12-.52-.28-.69-.48-.17-.2-.25-.43-.25-.69,0-.29.07-.54.22-.76s.37-.41.68-.58c-.26-.28-.4-.58-.4-.88,0-.25.07-.46.21-.65.14-.19.33-.33.58-.44.25-.11.54-.16.87-.16.3,0,.57.05.8.14.23.09.41.23.54.41.13.18.19.38.19.62s-.06.44-.19.62c-.13.18-.33.35-.6.5l.49.42c.08-.18.14-.38.18-.6l1.19.36c-.09.39-.23.73-.44,1.04ZM393.7,285.97l-.84-.73c-.17.12-.26.27-.26.44,0,.11.05.21.16.28.1.07.25.11.43.11s.35-.04.52-.11Z" fill="#942934"/><path d="M393.08,283.42c-.06.05-.08.11-.08.19,0,.06.02.11.05.16.03.05.09.12.18.2.24-.13.36-.26.36-.4,0-.07-.02-.13-.07-.17-.05-.04-.12-.07-.2-.07-.1,0-.18.02-.23.07ZM395.46,285.9l.44.37-.8.9-.49-.42c-.46.29-.97.44-1.54.44-.37,0-.69-.06-.99-.17-.29-.12-.52-.28-.69-.48-.17-.2-.25-.43-.25-.69,0-.29.07-.54.22-.76s.37-.41.68-.58c-.26-.28-.4-.58-.4-.88,0-.25.07-.46.21-.65.14-.19.33-.33.58-.44.25-.11.54-.16.87-.16.3,0,.57.05.8.14.23.09.41.23.54.41.13.18.19.38.19.62s-.06.44-.19.62c-.13.18-.33.35-.6.5l.49.42c.08-.18.14-.38.18-.6l1.19.36c-.09.39-.23.73-.44,1.04ZM393.7,285.97l-.84-.73c-.17.12-.26.27-.26.44,0,.11.05.21.16.28.1.07.25.11.43.11s.35-.04.52-.11Z" fill="#942934"/><path d="M393.08,283.42c-.06.05-.08.11-.08.19,0,.06.02.11.05.16.03.05.09.12.18.2.24-.13.36-.26.36-.4,0-.07-.02-.13-.07-.17-.05-.04-.12-.07-.2-.07-.1,0-.18.02-.23.07ZM395.47,285.9l.44.37-.8.9-.49-.42c-.46.29-.97.44-1.54.44-.37,0-.69-.06-.99-.17-.29-.12-.52-.28-.69-.48-.17-.2-.25-.43-.25-.69,0-.29.07-.54.22-.76s.37-.41.68-.58c-.26-.28-.4-.58-.4-.88,0-.25.07-.46.21-.65.14-.19.33-.33.58-.44.25-.11.54-.16.87-.16.3,0,.57.05.8.14.23.09.41.23.54.41.13.18.19.38.19.62s-.06.44-.19.62c-.13.18-.33.35-.6.5l.49.42c.08-.18.14-.38.18-.6l1.19.36c-.09.39-.23.73-.44,1.04ZM393.71,285.97l-.84-.73c-.17.12-.26.27-.26.44,0,.11.05.21.16.28.1.07.25.11.43.11s.35-.04.52-.11Z" fill="#942934"/><path d="M393.09,283.42c-.06.05-.08.11-.08.19,0,.06.02.11.05.16.03.05.09.12.18.2.24-.13.36-.26.36-.4,0-.07-.02-.13-.07-.17-.05-.04-.12-.07-.2-.07-.1,0-.18.02-.23.07ZM395.47,285.89l.44.37-.8.9-.49-.42c-.46.29-.97.44-1.54.44-.37,0-.69-.06-.99-.17-.29-.12-.52-.28-.69-.48-.17-.2-.25-.43-.25-.69,0-.29.07-.54.22-.76s.37-.41.68-.58c-.26-.28-.4-.58-.4-.88,0-.25.07-.46.21-.65.14-.19.33-.33.58-.44.25-.11.54-.16.87-.16.3,0,.57.05.8.14.23.09.41.23.54.41.13.18.19.38.19.62s-.06.44-.19.62c-.13.18-.33.35-.6.5l.49.42c.08-.18.14-.38.18-.6l1.19.36c-.09.39-.23.73-.44,1.04ZM393.71,285.97l-.84-.73c-.17.12-.26.27-.26.44,0,.11.05.21.16.28.1.07.25.11.43.11s.35-.04.52-.11Z" fill="#942934"/><path d="M393.09,283.42c-.06.05-.08.11-.08.19,0,.06.02.11.05.16.03.05.09.12.18.2.24-.13.36-.26.36-.4,0-.07-.02-.13-.07-.17-.05-.04-.12-.07-.2-.07-.1,0-.18.02-.23.07ZM395.47,285.89l.44.37-.8.9-.49-.42c-.46.29-.97.44-1.54.44-.37,0-.69-.06-.99-.17-.29-.12-.52-.28-.69-.48-.17-.2-.25-.43-.25-.69,0-.29.07-.54.22-.76s.37-.41.68-.58c-.26-.28-.4-.58-.4-.88,0-.25.07-.46.21-.65.14-.19.33-.33.58-.44.25-.11.54-.16.87-.16.3,0,.57.05.8.14.23.09.41.23.54.41.13.18.19.38.19.62s-.06.44-.19.62c-.13.18-.33.35-.6.5l.49.42c.08-.18.14-.38.18-.6l1.19.36c-.09.39-.23.73-.44,1.04ZM393.71,285.97l-.84-.73c-.17.12-.26.27-.26.44,0,.11.05.21.16.28.1.07.25.11.43.11s.35-.04.52-.11Z" fill="#942934"/><path d="M393.09,283.42c-.06.05-.08.11-.08.19,0,.06.02.11.05.16.03.05.09.12.18.2.24-.13.36-.26.36-.4,0-.07-.02-.13-.07-.17-.05-.04-.12-.07-.2-.07-.1,0-.18.02-.23.07ZM395.48,285.89l.44.37-.8.9-.49-.42c-.46.29-.97.44-1.54.44-.37,0-.69-.06-.99-.17-.29-.12-.52-.28-.69-.48-.17-.2-.25-.43-.25-.69,0-.29.07-.54.22-.76s.37-.41.68-.58c-.26-.28-.4-.58-.4-.88,0-.25.07-.46.21-.65.14-.19.33-.33.58-.44.25-.11.54-.16.87-.16.3,0,.57.05.8.14.23.09.41.23.54.41.13.18.19.38.19.62s-.06.44-.19.62c-.13.18-.33.35-.6.5l.49.42c.08-.18.14-.38.18-.6l1.19.36c-.09.39-.23.73-.44,1.04ZM393.71,285.96l-.84-.73c-.17.12-.26.27-.26.44,0,.11.05.21.16.28.1.07.25.11.43.11s.35-.04.52-.11Z" fill="#942934"/><path d="M393.09,283.42c-.06.05-.08.11-.08.19,0,.06.02.11.05.16.03.05.09.12.18.2.24-.13.36-.26.36-.4,0-.07-.02-.13-.07-.17-.05-.04-.12-.07-.2-.07-.1,0-.18.02-.23.07ZM395.48,285.89l.44.37-.8.9-.49-.42c-.46.29-.97.44-1.54.44-.37,0-.69-.06-.99-.17-.29-.12-.52-.28-.69-.48-.17-.2-.25-.43-.25-.69,0-.29.07-.54.22-.76s.37-.41.68-.58c-.26-.28-.4-.58-.4-.88,0-.25.07-.46.21-.65.14-.19.33-.33.58-.44.25-.11.54-.16.87-.16.3,0,.57.05.8.14.23.09.41.23.54.41.13.18.19.38.19.62s-.06.44-.19.62c-.13.18-.33.35-.6.5l.49.42c.08-.18.14-.38.18-.6l1.19.36c-.09.39-.23.73-.44,1.04ZM393.72,285.96l-.84-.73c-.17.12-.26.27-.26.44,0,.11.05.21.16.28.1.07.25.11.43.11s.35-.04.52-.11Z" fill="#942934"/><path d="M393.1,283.42c-.06.05-.08.11-.08.19,0,.06.02.11.05.16.03.05.09.12.18.2.24-.13.36-.26.36-.4,0-.07-.02-.13-.07-.17-.05-.04-.12-.07-.2-.07-.1,0-.18.02-.23.07ZM395.48,285.89l.44.37-.8.9-.49-.42c-.46.29-.97.44-1.54.44-.37,0-.69-.06-.99-.17-.29-.12-.52-.28-.69-.48-.17-.2-.25-.43-.25-.69,0-.29.07-.54.22-.76s.37-.41.68-.58c-.26-.28-.4-.58-.4-.88,0-.25.07-.46.21-.65.14-.19.33-.33.58-.44.25-.11.54-.16.87-.16.3,0,.57.05.8.14.23.09.41.23.54.41.13.18.19.38.19.62s-.06.44-.19.62c-.13.18-.33.35-.6.5l.49.42c.08-.18.14-.38.18-.6l1.19.36c-.09.39-.23.73-.44,1.04ZM393.72,285.96l-.84-.73c-.17.12-.26.27-.26.44,0,.11.05.21.16.28.1.07.25.11.43.11s.35-.04.52-.11Z" fill="#942934"/><path d="M393.1,283.41c-.06.05-.08.11-.08.19,0,.06.02.11.05.16.03.05.09.12.18.2.24-.13.36-.26.36-.4,0-.07-.02-.13-.07-.17-.05-.04-.12-.07-.2-.07-.1,0-.18.02-.23.07ZM395.48,285.89l.44.37-.8.9-.49-.42c-.46.29-.97.44-1.54.44-.37,0-.69-.06-.99-.17-.29-.12-.52-.28-.69-.48-.17-.2-.25-.43-.25-.69,0-.29.07-.54.22-.76s.37-.41.68-.58c-.26-.28-.4-.58-.4-.88,0-.25.07-.46.21-.65.14-.19.33-.33.58-.44.25-.11.54-.16.87-.16.3,0,.57.05.8.14.23.09.41.23.54.41.13.18.19.38.19.62s-.06.44-.19.62c-.13.18-.33.35-.6.5l.49.42c.08-.18.14-.38.18-.6l1.19.36c-.09.39-.23.73-.44,1.04ZM393.72,285.96l-.84-.73c-.17.12-.26.27-.26.44,0,.11.05.21.16.28.1.07.25.11.43.11s.35-.04.52-.11Z" fill="#942934"/><path d="M393.1,283.41c-.06.05-.08.11-.08.19,0,.06.02.11.05.16.03.05.09.12.18.2.24-.13.36-.26.36-.4,0-.07-.02-.13-.07-.17-.05-.04-.12-.07-.2-.07-.1,0-.18.02-.23.07ZM395.49,285.89l.44.37-.8.9-.49-.42c-.46.29-.97.44-1.54.44-.37,0-.69-.06-.99-.17-.29-.12-.52-.28-.69-.48-.17-.2-.25-.43-.25-.69,0-.29.07-.54.22-.76s.37-.41.68-.58c-.26-.28-.4-.58-.4-.88,0-.25.07-.46.21-.65.14-.19.33-.33.58-.44.25-.11.54-.16.87-.16.3,0,.57.05.8.14.23.09.41.23.54.41.13.18.19.38.19.62s-.06.44-.19.62c-.13.18-.33.35-.6.5l.49.42c.08-.18.14-.38.18-.6l1.19.36c-.09.39-.23.73-.44,1.04ZM393.73,285.96l-.84-.73c-.17.12-.26.27-.26.44,0,.11.05.21.16.28.1.07.25.11.43.11s.35-.04.52-.11Z" fill="#942934"/><path d="M393.1,283.41c-.06.05-.08.11-.08.19,0,.06.02.11.05.16.03.05.09.12.18.2.24-.13.36-.26.36-.4,0-.07-.02-.13-.07-.17-.05-.04-.12-.07-.2-.07-.1,0-.18.02-.23.07ZM395.49,285.88l.44.37-.8.9-.49-.42c-.46.29-.97.44-1.54.44-.37,0-.69-.06-.99-.17-.29-.12-.52-.28-.69-.48-.17-.2-.25-.43-.25-.69,0-.29.07-.54.22-.76s.37-.41.68-.58c-.26-.28-.4-.58-.4-.88,0-.25.07-.46.21-.65.14-.19.33-.33.58-.44.25-.11.54-.16.87-.16.3,0,.57.05.8.14.23.09.41.23.54.41.13.18.19.38.19.62s-.06.44-.19.62c-.13.18-.33.35-.6.5l.49.42c.08-.18.14-.38.18-.6l1.19.36c-.09.39-.23.73-.44,1.04ZM393.73,285.96l-.84-.73c-.17.12-.26.27-.26.44,0,.11.05.21.16.28.1.07.25.11.43.11s.35-.04.52-.11Z" fill="#942934"/><path d="M393.11,283.41c-.06.05-.08.11-.08.19,0,.06.02.11.05.16.03.05.09.12.18.2.24-.13.36-.26.36-.4,0-.07-.02-.13-.07-.17-.05-.04-.12-.07-.2-.07-.1,0-.18.02-.23.07ZM395.49,285.88l.44.37-.8.9-.49-.42c-.46.29-.97.44-1.54.44-.37,0-.69-.06-.99-.17-.29-.12-.52-.28-.69-.48-.17-.2-.25-.43-.25-.69,0-.29.07-.54.22-.76s.37-.41.68-.58c-.26-.28-.4-.58-.4-.88,0-.25.07-.46.21-.65.14-.19.33-.33.58-.44.25-.11.54-.16.87-.16.3,0,.57.05.8.14.23.09.41.23.54.41.13.18.19.38.19.62s-.06.44-.19.62c-.13.18-.33.35-.6.5l.49.42c.08-.18.14-.38.18-.6l1.19.36c-.09.39-.23.73-.44,1.04ZM393.73,285.96l-.84-.73c-.17.12-.26.27-.26.44,0,.11.05.21.16.28.1.07.25.11.43.11s.35-.04.52-.11Z" fill="#942934"/><path d="M393.11,283.41c-.06.05-.08.11-.08.19,0,.06.02.11.05.16.03.05.09.12.18.2.24-.13.36-.26.36-.4,0-.07-.02-.13-.07-.17-.05-.04-.12-.07-.2-.07-.1,0-.18.02-.23.07ZM395.49,285.88l.44.37-.8.9-.49-.42c-.46.29-.97.44-1.54.44-.37,0-.69-.06-.99-.17-.29-.12-.52-.28-.69-.48-.17-.2-.25-.43-.25-.69,0-.29.07-.54.22-.76s.37-.41.68-.58c-.26-.28-.4-.58-.4-.88,0-.25.07-.46.21-.65.14-.19.33-.33.58-.44.25-.11.54-.16.87-.16.3,0,.57.05.8.14.23.09.41.23.54.41.13.18.19.38.19.62s-.06.44-.19.62c-.13.18-.33.35-.6.5l.49.42c.08-.18.14-.38.18-.6l1.19.36c-.09.39-.23.73-.44,1.04ZM393.73,285.95l-.84-.73c-.17.12-.26.27-.26.44,0,.11.05.21.16.28.1.07.25.11.43.11s.35-.04.52-.11Z" fill="#942934"/><path d="M393.11,283.41c-.06.05-.08.11-.08.19,0,.06.02.11.05.16.03.05.09.12.18.2.24-.13.36-.26.36-.4,0-.07-.02-.13-.07-.17-.05-.04-.12-.07-.2-.07-.1,0-.18.02-.23.07ZM395.5,285.88l.44.37-.8.9-.49-.42c-.46.29-.97.44-1.54.44-.37,0-.69-.06-.99-.17-.29-.12-.52-.28-.69-.48-.17-.2-.25-.43-.25-.69,0-.29.07-.54.22-.76s.37-.41.68-.58c-.26-.28-.4-.58-.4-.88,0-.25.07-.46.21-.65.14-.19.33-.33.58-.44.25-.11.54-.16.87-.16.3,0,.57.05.8.14.23.09.41.23.54.41.13.18.19.38.19.62s-.06.44-.19.62c-.13.18-.33.35-.6.5l.49.42c.08-.18.14-.38.18-.6l1.19.36c-.09.39-.23.73-.44,1.04ZM393.74,285.95l-.84-.73c-.17.12-.26.27-.26.44,0,.11.05.21.16.28.1.07.25.11.43.11s.35-.04.52-.11Z" fill="#942934"/><path d="M393.12,283.41c-.06.05-.08.11-.08.19,0,.06.02.11.05.16.03.05.09.12.18.2.24-.13.36-.26.36-.4,0-.07-.02-.13-.07-.17-.05-.04-.12-.07-.2-.07-.1,0-.18.02-.23.07ZM395.5,285.88l.44.37-.8.9-.49-.42c-.46.29-.97.44-1.54.44-.37,0-.69-.06-.99-.17-.29-.12-.52-.28-.69-.48-.17-.2-.25-.43-.25-.69,0-.29.07-.54.22-.76s.37-.41.68-.58c-.26-.28-.4-.58-.4-.88,0-.25.07-.46.21-.65.14-.19.33-.33.58-.44.25-.11.54-.16.87-.16.3,0,.57.05.8.14.23.09.41.23.54.41.13.18.19.38.19.62s-.06.44-.19.62c-.13.18-.33.35-.6.5l.49.42c.08-.18.14-.38.18-.6l1.19.36c-.09.39-.23.73-.44,1.04ZM393.74,285.95l-.84-.73c-.17.12-.26.27-.26.44,0,.11.05.21.16.28.1.07.25.11.43.11s.35-.04.52-.11Z" fill="#942934"/><path d="M393.12,283.4c-.06.05-.08.11-.08.19,0,.06.02.11.05.16.03.05.09.12.18.2.24-.13.36-.26.36-.4,0-.07-.02-.13-.07-.17-.05-.04-.12-.07-.2-.07-.1,0-.18.02-.23.07ZM395.5,285.88l.44.37-.8.9-.49-.42c-.46.29-.97.44-1.54.44-.37,0-.69-.06-.99-.17-.29-.12-.52-.28-.69-.48-.17-.2-.25-.43-.25-.69,0-.29.07-.54.22-.76s.37-.41.68-.58c-.26-.28-.4-.58-.4-.88,0-.25.07-.46.21-.65.14-.19.33-.33.58-.44.25-.11.54-.16.87-.16.3,0,.57.05.8.14.23.09.41.23.54.41.13.18.19.38.19.62s-.06.44-.19.62c-.13.18-.33.35-.6.5l.49.42c.08-.18.14-.38.18-.6l1.19.36c-.09.39-.23.73-.44,1.04ZM393.74,285.95l-.84-.73c-.17.12-.26.27-.26.44,0,.11.05.21.16.28.1.07.25.11.43.11s.35-.04.52-.11Z" fill="#942934"/><path d="M393.12,283.4c-.06.05-.08.11-.08.19,0,.06.02.11.05.16.03.05.09.12.18.2.24-.13.36-.26.36-.4,0-.07-.02-.13-.07-.17-.05-.04-.12-.07-.2-.07-.1,0-.18.02-.23.07ZM395.51,285.88l.44.37-.8.9-.49-.42c-.46.29-.97.44-1.54.44-.37,0-.69-.06-.99-.17-.29-.12-.52-.28-.69-.48-.17-.2-.25-.43-.25-.69,0-.29.07-.54.22-.76s.37-.41.68-.58c-.26-.28-.4-.58-.4-.88,0-.25.07-.46.21-.65.14-.19.33-.33.58-.44.25-.11.54-.16.87-.16.3,0,.57.05.8.14.23.09.41.23.54.41.13.18.19.38.19.62s-.06.44-.19.62c-.13.18-.33.35-.6.5l.49.42c.08-.18.14-.38.18-.6l1.19.36c-.09.39-.23.73-.44,1.04ZM393.74,285.95l-.84-.73c-.17.12-.26.27-.26.44,0,.11.05.21.16.28.1.07.25.11.43.11s.35-.04.52-.11Z" fill="#942934"/><path d="M393.12,283.4c-.06.05-.08.11-.08.19,0,.06.02.11.05.16.03.05.09.12.18.2.24-.13.36-.26.36-.4,0-.07-.02-.13-.07-.17-.05-.04-.12-.07-.2-.07-.1,0-.18.02-.23.07ZM395.51,285.87l.44.37-.8.9-.49-.42c-.46.29-.97.44-1.54.44-.37,0-.69-.06-.99-.17-.29-.12-.52-.28-.69-.48-.17-.2-.25-.43-.25-.69,0-.29.07-.54.22-.76s.37-.41.68-.58c-.26-.28-.4-.58-.4-.88,0-.25.07-.46.21-.65.14-.19.33-.33.58-.44.25-.11.54-.16.87-.16.3,0,.57.05.8.14.23.09.41.23.54.41.13.18.19.38.19.62s-.06.44-.19.62c-.13.18-.33.35-.6.5l.49.42c.08-.18.14-.38.18-.6l1.19.36c-.09.39-.23.73-.44,1.04ZM393.75,285.95l-.84-.73c-.17.12-.26.27-.26.44,0,.11.05.21.16.28.1.07.25.11.43.11s.35-.04.52-.11Z" fill="#942934"/><path d="M393.13,283.4c-.06.05-.08.11-.08.19,0,.06.02.11.05.16.03.05.09.12.18.2.24-.13.36-.26.36-.4,0-.07-.02-.13-.07-.17-.05-.04-.12-.07-.2-.07-.1,0-.18.02-.23.07ZM395.51,285.87l.44.37-.8.9-.49-.42c-.46.29-.97.44-1.54.44-.37,0-.69-.06-.99-.17-.29-.12-.52-.28-.69-.48-.17-.2-.25-.43-.25-.69,0-.29.07-.54.22-.76s.37-.41.68-.58c-.26-.28-.4-.58-.4-.88,0-.25.07-.46.21-.65.14-.19.33-.33.58-.44.25-.11.54-.16.87-.16.3,0,.57.05.8.14.23.09.41.23.54.41.13.18.19.38.19.62s-.06.44-.19.62c-.13.18-.33.35-.6.5l.49.42c.08-.18.14-.38.18-.6l1.19.36c-.09.39-.23.73-.44,1.04ZM393.75,285.95l-.84-.73c-.17.12-.26.27-.26.44,0,.11.05.21.16.28.1.07.25.11.43.11s.35-.04.52-.11Z" fill="#942934"/><path d="M393.13,283.4c-.06.05-.08.11-.08.19,0,.06.02.11.05.16.03.05.09.12.18.2.24-.13.36-.26.36-.4,0-.07-.02-.13-.07-.17-.05-.04-.12-.07-.2-.07-.1,0-.18.02-.23.07ZM395.51,285.87l.44.37-.8.9-.49-.42c-.46.29-.97.44-1.54.44-.37,0-.69-.06-.99-.17-.29-.12-.52-.28-.69-.48-.17-.2-.25-.43-.25-.69,0-.29.07-.54.22-.76s.37-.41.68-.58c-.26-.28-.4-.58-.4-.88,0-.25.07-.46.21-.65.14-.19.33-.33.58-.44.25-.11.54-.16.87-.16.3,0,.57.05.8.14.23.09.41.23.54.41.13.18.19.38.19.62s-.06.44-.19.62c-.13.18-.33.35-.6.5l.49.42c.08-.18.14-.38.18-.6l1.19.36c-.09.39-.23.73-.44,1.04ZM393.75,285.94l-.84-.73c-.17.12-.26.27-.26.44,0,.11.05.21.16.28.1.07.25.11.43.11s.35-.04.52-.11Z" fill="#942934"/><path d="M393.13,283.4c-.06.05-.08.11-.08.19,0,.06.02.11.05.16.03.05.09.12.18.2.24-.13.36-.26.36-.4,0-.07-.02-.13-.07-.17-.05-.04-.12-.07-.2-.07-.1,0-.18.02-.23.07ZM395.52,285.87l.44.37-.8.9-.49-.42c-.46.29-.97.44-1.54.44-.37,0-.69-.06-.99-.17-.29-.12-.52-.28-.69-.48-.17-.2-.25-.43-.25-.69,0-.29.07-.54.22-.76s.37-.41.68-.58c-.26-.28-.4-.58-.4-.88,0-.25.07-.46.21-.65.14-.19.33-.33.58-.44.25-.11.54-.16.87-.16.3,0,.57.05.8.14.23.09.41.23.54.41.13.18.19.38.19.62s-.06.44-.19.62c-.13.18-.33.35-.6.5l.49.42c.08-.18.14-.38.18-.6l1.19.36c-.09.39-.23.73-.44,1.04ZM393.76,285.94l-.84-.73c-.17.12-.26.27-.26.44,0,.11.05.21.16.28.1.07.25.11.43.11s.35-.04.52-.11Z" fill="#942934"/><path d="M393.13,283.4c-.06.05-.08.11-.08.19,0,.06.02.11.05.16.03.05.09.12.18.2.24-.13.36-.26.36-.4,0-.07-.02-.13-.07-.17-.05-.04-.12-.07-.2-.07-.1,0-.18.02-.23.07ZM395.52,285.87l.44.37-.8.9-.49-.42c-.46.29-.97.44-1.54.44-.37,0-.69-.06-.99-.17-.29-.12-.52-.28-.69-.48-.17-.2-.25-.43-.25-.69,0-.29.07-.54.22-.76s.37-.41.68-.58c-.26-.28-.4-.58-.4-.88,0-.25.07-.46.21-.65.14-.19.33-.33.58-.44.25-.11.54-.16.87-.16.3,0,.57.05.8.14.23.09.41.23.54.41.13.18.19.38.19.62s-.06.44-.19.62c-.13.18-.33.35-.6.5l.49.42c.08-.18.14-.38.18-.6l1.19.36c-.09.39-.23.73-.44,1.04ZM393.76,285.94l-.84-.73c-.17.12-.26.27-.26.44,0,.11.05.21.16.28.1.07.25.11.43.11s.35-.04.52-.11Z" fill="#942934"/><path d="M393.14,283.39c-.06.05-.08.11-.08.19,0,.06.02.11.05.16.03.05.09.12.18.2.24-.13.36-.26.36-.4,0-.07-.02-.13-.07-.17-.05-.04-.12-.07-.2-.07-.1,0-.18.02-.23.07ZM395.52,285.87l.44.37-.8.9-.49-.42c-.46.29-.97.44-1.54.44-.37,0-.69-.06-.99-.17-.29-.12-.52-.28-.69-.48-.17-.2-.25-.43-.25-.69,0-.29.07-.54.22-.76s.37-.41.68-.58c-.26-.28-.4-.58-.4-.88,0-.25.07-.46.21-.65.14-.19.33-.33.58-.44.25-.11.54-.16.87-.16.3,0,.57.05.8.14.23.09.41.23.54.41.13.18.19.38.19.62s-.06.44-.19.62c-.13.18-.33.35-.6.5l.49.42c.08-.18.14-.38.18-.6l1.19.36c-.09.39-.23.73-.44,1.04ZM393.76,285.94l-.84-.73c-.17.12-.26.27-.26.44,0,.11.05.21.16.28.1.07.25.11.43.11s.35-.04.52-.11Z" fill="#942934"/><path d="M393.14,283.39c-.06.05-.08.11-.08.19,0,.06.02.11.05.16.03.05.09.12.18.2.24-.13.36-.26.36-.4,0-.07-.02-.13-.07-.17-.05-.04-.12-.07-.2-.07-.1,0-.18.02-.23.07ZM395.52,285.87l.44.37-.8.9-.49-.42c-.46.29-.97.44-1.54.44-.37,0-.69-.06-.99-.17-.29-.12-.52-.28-.69-.48-.17-.2-.25-.43-.25-.69,0-.29.07-.54.22-.76s.37-.41.68-.58c-.26-.28-.4-.58-.4-.88,0-.25.07-.46.21-.65.14-.19.33-.33.58-.44.25-.11.54-.16.87-.16.3,0,.57.05.8.14.23.09.41.23.54.41.13.18.19.38.19.62s-.06.44-.19.62c-.13.18-.33.35-.6.5l.49.42c.08-.18.14-.38.18-.6l1.19.36c-.09.39-.23.73-.44,1.04ZM393.76,285.94l-.84-.73c-.17.12-.26.27-.26.44,0,.11.05.21.16.28.1.07.25.11.43.11s.35-.04.52-.11Z" fill="#942934"/><path d="M393.14,283.39c-.06.05-.08.11-.08.19,0,.06.02.11.05.16.03.05.09.12.18.2.24-.13.36-.26.36-.4,0-.07-.02-.13-.07-.17-.05-.04-.12-.07-.2-.07-.1,0-.18.02-.23.07ZM395.53,285.86l.44.37-.8.9-.49-.42c-.46.29-.97.44-1.54.44-.37,0-.69-.06-.99-.17-.29-.12-.52-.28-.69-.48-.17-.2-.25-.43-.25-.69,0-.29.07-.54.22-.76s.37-.41.68-.58c-.26-.28-.4-.58-.4-.88,0-.25.07-.46.21-.65.14-.19.33-.33.58-.44.25-.11.54-.16.87-.16.3,0,.57.05.8.14.23.09.41.23.54.41.13.18.19.38.19.62s-.06.44-.19.62c-.13.18-.33.35-.6.5l.49.42c.08-.18.14-.38.18-.6l1.19.36c-.09.39-.23.73-.44,1.04ZM393.77,285.94l-.84-.73c-.17.12-.26.27-.26.44,0,.11.05.21.16.28.1.07.25.11.43.11s.35-.04.52-.11Z" fill="#942934"/><path d="M393.15,283.39c-.06.05-.08.11-.08.19,0,.06.02.11.05.16.03.05.09.12.18.2.24-.13.36-.26.36-.4,0-.07-.02-.13-.07-.17-.05-.04-.12-.07-.2-.07-.1,0-.18.02-.23.07ZM395.53,285.86l.44.37-.8.9-.49-.42c-.46.29-.97.44-1.54.44-.37,0-.69-.06-.99-.17-.29-.12-.52-.28-.69-.48-.17-.2-.25-.43-.25-.69,0-.29.07-.54.22-.76s.37-.41.68-.58c-.26-.28-.4-.58-.4-.88,0-.25.07-.46.21-.65.14-.19.33-.33.58-.44.25-.11.54-.16.87-.16.3,0,.57.05.8.14.23.09.41.23.54.41.13.18.19.38.19.62s-.06.44-.19.62c-.13.18-.33.35-.6.5l.49.42c.08-.18.14-.38.18-.6l1.19.36c-.09.39-.23.73-.44,1.04ZM393.77,285.94l-.84-.73c-.17.12-.26.27-.26.44,0,.11.05.21.16.28.1.07.25.11.43.11s.35-.04.52-.11Z" fill="#942934"/><path d="M393.15,283.39c-.06.05-.08.11-.08.19,0,.06.02.11.05.16.03.05.09.12.18.2.24-.13.36-.26.36-.4,0-.07-.02-.13-.07-.17-.05-.04-.12-.07-.2-.07-.1,0-.18.02-.23.07ZM395.53,285.86l.44.37-.8.9-.49-.42c-.46.29-.97.44-1.54.44-.37,0-.69-.06-.99-.17-.29-.12-.52-.28-.69-.48-.17-.2-.25-.43-.25-.69,0-.29.07-.54.22-.76s.37-.41.68-.58c-.26-.28-.4-.58-.4-.88,0-.25.07-.46.21-.65.14-.19.33-.33.58-.44.25-.11.54-.16.87-.16.3,0,.57.05.8.14.23.09.41.23.54.41.13.18.19.38.19.62s-.06.44-.19.62c-.13.18-.33.35-.6.5l.49.42c.08-.18.14-.38.18-.6l1.19.36c-.09.39-.23.73-.44,1.04ZM393.77,285.93l-.84-.73c-.17.12-.26.27-.26.44,0,.11.05.21.16.28.1.07.25.11.43.11s.35-.04.52-.11Z" fill="#942934"/><path d="M393.15,283.39c-.06.05-.08.11-.08.19,0,.06.02.11.05.16.03.05.09.12.18.2.24-.13.36-.26.36-.4,0-.07-.02-.13-.07-.17-.05-.04-.12-.07-.2-.07-.1,0-.18.02-.23.07ZM395.54,285.86l.44.37-.8.9-.49-.42c-.46.29-.97.44-1.54.44-.37,0-.69-.06-.99-.17-.29-.12-.52-.28-.69-.48-.17-.2-.25-.43-.25-.69,0-.29.07-.54.22-.76s.37-.41.68-.58c-.26-.28-.4-.58-.4-.88,0-.25.07-.46.21-.65.14-.19.33-.33.58-.44.25-.11.54-.16.87-.16.3,0,.57.05.8.14.23.09.41.23.54.41.13.18.19.38.19.62s-.06.44-.19.62c-.13.18-.33.35-.6.5l.49.42c.08-.18.14-.38.18-.6l1.19.36c-.09.39-.23.73-.44,1.04ZM393.77,285.93l-.84-.73c-.17.12-.26.27-.26.44,0,.11.05.21.16.28.1.07.25.11.43.11s.35-.04.52-.11Z" fill="#942934"/><path d="M393.15,283.39c-.06.05-.08.11-.08.19,0,.06.02.11.05.16.03.05.09.12.18.2.24-.13.36-.26.36-.4,0-.07-.02-.13-.07-.17-.05-.04-.12-.07-.2-.07-.1,0-.18.02-.23.07ZM395.54,285.86l.44.37-.8.9-.49-.42c-.46.29-.97.44-1.54.44-.37,0-.69-.06-.99-.17-.29-.12-.52-.28-.69-.48-.17-.2-.25-.43-.25-.69,0-.29.07-.54.22-.76s.37-.41.68-.58c-.26-.28-.4-.58-.4-.88,0-.25.07-.46.21-.65.14-.19.33-.33.58-.44.25-.11.54-.16.87-.16.3,0,.57.05.8.14.23.09.41.23.54.41.13.18.19.38.19.62s-.06.44-.19.62c-.13.18-.33.35-.6.5l.49.42c.08-.18.14-.38.18-.6l1.19.36c-.09.39-.23.73-.44,1.04ZM393.78,285.93l-.84-.73c-.17.12-.26.27-.26.44,0,.11.05.21.16.28.1.07.25.11.43.11s.35-.04.52-.11Z" fill="#942934"/><path d="M393.16,283.38c-.06.05-.08.11-.08.19,0,.06.02.11.05.16.03.05.09.12.18.2.24-.13.36-.26.36-.4,0-.07-.02-.13-.07-.17-.05-.04-.12-.07-.2-.07-.1,0-.18.02-.23.07ZM395.54,285.86l.44.37-.8.9-.49-.42c-.46.29-.97.44-1.54.44-.37,0-.69-.06-.99-.17-.29-.12-.52-.28-.69-.48-.17-.2-.25-.43-.25-.69,0-.29.07-.54.22-.76s.37-.41.68-.58c-.26-.28-.4-.58-.4-.88,0-.25.07-.46.21-.65.14-.19.33-.33.58-.44.25-.11.54-.16.87-.16.3,0,.57.05.8.14.23.09.41.23.54.41.13.18.19.38.19.62s-.06.44-.19.62c-.13.18-.33.35-.6.5l.49.42c.08-.18.14-.38.18-.6l1.19.36c-.09.39-.23.73-.44,1.04ZM393.78,285.93l-.84-.73c-.17.12-.26.27-.26.44,0,.11.05.21.16.28.1.07.25.11.43.11s.35-.04.52-.11Z" fill="#942934"/><path d="M393.16,283.38c-.06.05-.08.11-.08.19,0,.06.02.11.05.16.03.05.09.12.18.2.24-.13.36-.26.36-.4,0-.07-.02-.13-.07-.17-.05-.04-.12-.07-.2-.07-.1,0-.18.02-.23.07ZM395.54,285.86l.44.37-.8.9-.49-.42c-.46.29-.97.44-1.54.44-.37,0-.69-.06-.99-.17-.29-.12-.52-.28-.69-.48-.17-.2-.25-.43-.25-.69,0-.29.07-.54.22-.76s.37-.41.68-.58c-.26-.28-.4-.58-.4-.88,0-.25.07-.46.21-.65.14-.19.33-.33.58-.44.25-.11.54-.16.87-.16.3,0,.57.05.8.14.23.09.41.23.54.41.13.18.19.38.19.62s-.06.44-.19.62c-.13.18-.33.35-.6.5l.49.42c.08-.18.14-.38.18-.6l1.19.36c-.09.39-.23.73-.44,1.04ZM393.78,285.93l-.84-.73c-.17.12-.26.27-.26.44,0,.11.05.21.16.28.1.07.25.11.43.11s.35-.04.52-.11Z" fill="#942934"/><path d="M393.16,283.38c-.06.05-.08.11-.08.19,0,.06.02.11.05.16.03.05.09.12.18.2.24-.13.36-.26.36-.4,0-.07-.02-.13-.07-.17-.05-.04-.12-.07-.2-.07-.1,0-.18.02-.23.07ZM395.55,285.85l.44.37-.8.9-.49-.42c-.46.29-.97.44-1.54.44-.37,0-.69-.06-.99-.17-.29-.12-.52-.28-.69-.48-.17-.2-.25-.43-.25-.69,0-.29.07-.54.22-.76s.37-.41.68-.58c-.26-.28-.4-.58-.4-.88,0-.25.07-.46.21-.65.14-.19.33-.33.58-.44.25-.11.54-.16.87-.16.3,0,.57.05.8.14.23.09.41.23.54.41.13.18.19.38.19.62s-.06.44-.19.62c-.13.18-.33.35-.6.5l.49.42c.08-.18.14-.38.18-.6l1.19.36c-.09.39-.23.73-.44,1.04ZM393.79,285.93l-.84-.73c-.17.12-.26.27-.26.44,0,.11.05.21.16.28.1.07.25.11.43.11s.35-.04.52-.11Z" fill="#942934"/><path d="M393.16,283.38c-.06.05-.08.11-.08.19,0,.06.02.11.05.16.03.05.09.12.18.2.24-.13.36-.26.36-.4,0-.07-.02-.13-.07-.17-.05-.04-.12-.07-.2-.07-.1,0-.18.02-.23.07ZM395.55,285.85l.44.37-.8.9-.49-.42c-.46.29-.97.44-1.54.44-.37,0-.69-.06-.99-.17-.29-.12-.52-.28-.69-.48-.17-.2-.25-.43-.25-.69,0-.29.07-.54.22-.76s.37-.41.68-.58c-.26-.28-.4-.58-.4-.88,0-.25.07-.46.21-.65.14-.19.33-.33.58-.44.25-.11.54-.16.87-.16.3,0,.57.05.8.14.23.09.41.23.54.41.13.18.19.38.19.62s-.06.44-.19.62c-.13.18-.33.35-.6.5l.49.42c.08-.18.14-.38.18-.6l1.19.36c-.09.39-.23.73-.44,1.04ZM393.79,285.93l-.84-.73c-.17.12-.26.27-.26.44,0,.11.05.21.16.28.1.07.25.11.43.11s.35-.04.52-.11Z" fill="#942934"/><path d="M393.17,283.38c-.06.05-.08.11-.08.19,0,.06.02.11.05.16.03.05.09.12.18.2.24-.13.36-.26.36-.4,0-.07-.02-.13-.07-.17-.05-.04-.12-.07-.2-.07-.1,0-.18.02-.23.07ZM395.55,285.85l.44.37-.8.9-.49-.42c-.46.29-.97.44-1.54.44-.37,0-.69-.06-.99-.17-.29-.12-.52-.28-.69-.48-.17-.2-.25-.43-.25-.69,0-.29.07-.54.22-.76s.37-.41.68-.58c-.26-.28-.4-.58-.4-.88,0-.25.07-.46.21-.65.14-.19.33-.33.58-.44.25-.11.54-.16.87-.16.3,0,.57.05.8.14.23.09.41.23.54.41.13.18.19.38.19.62s-.06.44-.19.62c-.13.18-.33.35-.6.5l.49.42c.08-.18.14-.38.18-.6l1.19.36c-.09.39-.23.73-.44,1.04ZM393.79,285.92l-.84-.73c-.17.12-.26.27-.26.44,0,.11.05.21.16.28.1.07.25.11.43.11s.35-.04.52-.11Z" fill="#942934"/><path d="M393.17,283.38c-.06.05-.08.11-.08.19,0,.06.02.11.05.16.03.05.09.12.18.2.24-.13.36-.26.36-.4,0-.07-.02-.13-.07-.17-.05-.04-.12-.07-.2-.07-.1,0-.18.02-.23.07ZM395.55,285.85l.44.37-.8.9-.49-.42c-.46.29-.97.44-1.54.44-.37,0-.69-.06-.99-.17-.29-.12-.52-.28-.69-.48-.17-.2-.25-.43-.25-.69,0-.29.07-.54.22-.76s.37-.41.68-.58c-.26-.28-.4-.58-.4-.88,0-.25.07-.46.21-.65.14-.19.33-.33.58-.44.25-.11.54-.16.87-.16.3,0,.57.05.8.14.23.09.41.23.54.41.13.18.19.38.19.62s-.06.44-.19.62c-.13.18-.33.35-.6.5l.49.42c.08-.18.14-.38.18-.6l1.19.36c-.09.39-.23.73-.44,1.04ZM393.79,285.92l-.84-.73c-.17.12-.26.27-.26.44,0,.11.05.21.16.28.1.07.25.11.43.11s.35-.04.52-.11Z" fill="#942934"/><path d="M393.17,283.38c-.06.05-.08.11-.08.19,0,.06.02.11.05.16.03.05.09.12.18.2.24-.13.36-.26.36-.4,0-.07-.02-.13-.07-.17-.05-.04-.12-.07-.2-.07-.1,0-.18.02-.23.07ZM395.56,285.85l.44.37-.8.9-.49-.42c-.46.29-.97.44-1.54.44-.37,0-.69-.06-.99-.17-.29-.12-.52-.28-.69-.48-.17-.2-.25-.43-.25-.69,0-.29.07-.54.22-.76s.37-.41.68-.58c-.26-.28-.4-.58-.4-.88,0-.25.07-.46.21-.65.14-.19.33-.33.58-.44.25-.11.54-.16.87-.16.3,0,.57.05.8.14.23.09.41.23.54.41.13.18.19.38.19.62s-.06.44-.19.62c-.13.18-.33.35-.6.5l.49.42c.08-.18.14-.38.18-.6l1.19.36c-.09.39-.23.73-.44,1.04ZM393.8,285.92l-.84-.73c-.17.12-.26.27-.26.44,0,.11.05.21.16.28.1.07.25.11.43.11s.35-.04.52-.11Z" fill="#942934"/><path d="M393.18,283.37c-.06.05-.08.11-.08.19,0,.06.02.11.05.16.03.05.09.12.18.2.24-.13.36-.26.36-.4,0-.07-.02-.13-.07-.17-.05-.04-.12-.07-.2-.07-.1,0-.18.02-.23.07ZM395.56,285.85l.44.37-.8.9-.49-.42c-.46.29-.97.44-1.54.44-.37,0-.69-.06-.99-.17-.29-.12-.52-.28-.69-.48-.17-.2-.25-.43-.25-.69,0-.29.07-.54.22-.76s.37-.41.68-.58c-.26-.28-.4-.58-.4-.88,0-.25.07-.46.21-.65.14-.19.33-.33.58-.44.25-.11.54-.16.87-.16.3,0,.57.05.8.14.23.09.41.23.54.41.13.18.19.38.19.62s-.06.44-.19.62c-.13.18-.33.35-.6.5l.49.42c.08-.18.14-.38.18-.6l1.19.36c-.09.39-.23.73-.44,1.04ZM393.8,285.92l-.84-.73c-.17.12-.26.27-.26.44,0,.11.05.21.16.28.1.07.25.11.43.11s.35-.04.52-.11Z" fill="#942934"/><path d="M393.18,283.37c-.06.05-.08.11-.08.19,0,.06.02.11.05.16.03.05.09.12.18.2.24-.13.36-.26.36-.4,0-.07-.02-.13-.07-.17-.05-.04-.12-.07-.2-.07-.1,0-.18.02-.23.07ZM395.56,285.85l.44.37-.8.9-.49-.42c-.46.29-.97.44-1.54.44-.37,0-.69-.06-.99-.17-.29-.12-.52-.28-.69-.48-.17-.2-.25-.43-.25-.69,0-.29.07-.54.22-.76s.37-.41.68-.58c-.26-.28-.4-.58-.4-.88,0-.25.07-.46.21-.65.14-.19.33-.33.58-.44.25-.11.54-.16.87-.16.3,0,.57.05.8.14.23.09.41.23.54.41.13.18.19.38.19.62s-.06.44-.19.62c-.13.18-.33.35-.6.5l.49.42c.08-.18.14-.38.18-.6l1.19.36c-.09.39-.23.73-.44,1.04ZM393.8,285.92l-.84-.73c-.17.12-.26.27-.26.44,0,.11.05.21.16.28.1.07.25.11.43.11s.35-.04.52-.11Z" fill="#942934"/><path d="M393.18,283.37c-.06.05-.08.11-.08.19,0,.06.02.11.05.16.03.05.09.12.18.2.24-.13.36-.26.36-.4,0-.07-.02-.13-.07-.17-.05-.04-.12-.07-.2-.07-.1,0-.18.02-.23.07ZM395.56,285.85l.44.37-.8.9-.49-.42c-.46.29-.97.44-1.54.44-.37,0-.69-.06-.99-.17-.29-.12-.52-.28-.69-.48-.17-.2-.25-.43-.25-.69,0-.29.07-.54.22-.76s.37-.41.68-.58c-.26-.28-.4-.58-.4-.88,0-.25.07-.46.21-.65.14-.19.33-.33.58-.44.25-.11.54-.16.87-.16.3,0,.57.05.8.14.23.09.41.23.54.41.13.18.19.38.19.62s-.06.44-.19.62c-.13.18-.33.35-.6.5l.49.42c.08-.18.14-.38.18-.6l1.19.36c-.09.39-.23.73-.44,1.04ZM393.8,285.92l-.84-.73c-.17.12-.26.27-.26.44,0,.11.05.21.16.28.1.07.25.11.43.11s.35-.04.52-.11Z" fill="#942934"/><path d="M393.18,283.37c-.06.05-.08.11-.08.19,0,.06.02.11.05.16.03.05.09.12.18.2.24-.13.36-.26.36-.4,0-.07-.02-.13-.07-.17-.05-.04-.12-.07-.2-.07-.1,0-.18.02-.23.07ZM395.57,285.84l.44.37-.8.9-.49-.42c-.46.29-.97.44-1.54.44-.37,0-.69-.06-.99-.17-.29-.12-.52-.28-.69-.48-.17-.2-.25-.43-.25-.69,0-.29.07-.54.22-.76s.37-.41.68-.58c-.26-.28-.4-.58-.4-.88,0-.25.07-.46.21-.65.14-.19.33-.33.58-.44.25-.11.54-.16.87-.16.3,0,.57.05.8.14.23.09.41.23.54.41.13.18.19.38.19.62s-.06.44-.19.62c-.13.18-.33.35-.6.5l.49.42c.08-.18.14-.38.18-.6l1.19.36c-.09.39-.23.73-.44,1.04ZM393.81,285.92l-.84-.73c-.17.12-.26.27-.26.44,0,.11.05.21.16.28.1.07.25.11.43.11s.35-.04.52-.11Z" fill="#942934"/><path d="M393.19,283.37c-.06.05-.08.11-.08.19,0,.06.02.11.05.16.03.05.09.12.18.2.24-.13.36-.26.36-.4,0-.07-.02-.13-.07-.17-.05-.04-.12-.07-.2-.07-.1,0-.18.02-.23.07ZM395.57,285.84l.44.37-.8.9-.49-.42c-.46.29-.97.44-1.54.44-.37,0-.69-.06-.99-.17-.29-.12-.52-.28-.69-.48-.17-.2-.25-.43-.25-.69,0-.29.07-.54.22-.76s.37-.41.68-.58c-.26-.28-.4-.58-.4-.88,0-.25.07-.46.21-.65.14-.19.33-.33.58-.44.25-.11.54-.16.87-.16.3,0,.57.05.8.14.23.09.41.23.54.41.13.18.19.38.19.62s-.06.44-.19.62c-.13.18-.33.35-.6.5l.49.42c.08-.18.14-.38.18-.6l1.19.36c-.09.39-.23.73-.44,1.04ZM393.81,285.91l-.84-.73c-.17.12-.26.27-.26.44,0,.11.05.21.16.28.1.07.25.11.43.11s.35-.04.52-.11Z" fill="#942934"/><path d="M393.19,283.37c-.06.05-.08.11-.08.19,0,.06.02.11.05.16.03.05.09.12.18.2.24-.13.36-.26.36-.4,0-.07-.02-.13-.07-.17-.05-.04-.12-.07-.2-.07-.1,0-.18.02-.23.07ZM395.57,285.84l.44.37-.8.9-.49-.42c-.46.29-.97.44-1.54.44-.37,0-.69-.06-.99-.17-.29-.12-.52-.28-.69-.48-.17-.2-.25-.43-.25-.69,0-.29.07-.54.22-.76s.37-.41.68-.58c-.26-.28-.4-.58-.4-.88,0-.25.07-.46.21-.65.14-.19.33-.33.58-.44.25-.11.54-.16.87-.16.3,0,.57.05.8.14.23.09.41.23.54.41.13.18.19.38.19.62s-.06.44-.19.62c-.13.18-.33.35-.6.5l.49.42c.08-.18.14-.38.18-.6l1.19.36c-.09.39-.23.73-.44,1.04ZM393.81,285.91l-.84-.73c-.17.12-.26.27-.26.44,0,.11.05.21.16.28.1.07.25.11.43.11s.35-.04.52-.11Z" fill="#942934"/><path d="M393.19,283.37c-.06.05-.08.11-.08.19,0,.06.02.11.05.16.03.05.09.12.18.2.24-.13.36-.26.36-.4,0-.07-.02-.13-.07-.17-.05-.04-.12-.07-.2-.07-.1,0-.18.02-.23.07ZM395.58,285.84l.44.37-.8.9-.49-.42c-.46.29-.97.44-1.54.44-.37,0-.69-.06-.99-.17-.29-.12-.52-.28-.69-.48-.17-.2-.25-.43-.25-.69,0-.29.07-.54.22-.76s.37-.41.68-.58c-.26-.28-.4-.58-.4-.88,0-.25.07-.46.21-.65.14-.19.33-.33.58-.44.25-.11.54-.16.87-.16.3,0,.57.05.8.14.23.09.41.23.54.41.13.18.19.38.19.62s-.06.44-.19.62c-.13.18-.33.35-.6.5l.49.42c.08-.18.14-.38.18-.6l1.19.36c-.09.39-.23.73-.44,1.04ZM393.81,285.91l-.84-.73c-.17.12-.26.27-.26.44,0,.11.05.21.16.28.1.07.25.11.43.11s.35-.04.52-.11Z" fill="#942934"/><path d="M393.19,283.36c-.06.05-.08.11-.08.19,0,.06.02.11.05.16.03.05.09.12.18.2.24-.13.36-.26.36-.4,0-.07-.02-.13-.07-.17-.05-.04-.12-.07-.2-.07-.1,0-.18.02-.23.07ZM395.58,285.84l.44.37-.8.9-.49-.42c-.46.29-.97.44-1.54.44-.37,0-.69-.06-.99-.17-.29-.12-.52-.28-.69-.48-.17-.2-.25-.43-.25-.69,0-.29.07-.54.22-.76s.37-.41.68-.58c-.26-.28-.4-.58-.4-.88,0-.25.07-.46.21-.65.14-.19.33-.33.58-.44.25-.11.54-.16.87-.16.3,0,.57.05.8.14.23.09.41.23.54.41.13.18.19.38.19.62s-.06.44-.19.62c-.13.18-.33.35-.6.5l.49.42c.08-.18.14-.38.18-.6l1.19.36c-.09.39-.23.73-.44,1.04ZM393.82,285.91l-.84-.73c-.17.12-.26.27-.26.44,0,.11.05.21.16.28.1.07.25.11.43.11s.35-.04.52-.11Z" fill="#942934"/><path d="M393.2,283.36c-.06.05-.08.11-.08.19,0,.06.02.11.05.16.03.05.09.12.18.2.24-.13.36-.26.36-.4,0-.07-.02-.13-.07-.17-.05-.04-.12-.07-.2-.07-.1,0-.18.02-.23.07ZM395.58,285.84l.44.37-.8.9-.49-.42c-.46.29-.97.44-1.54.44-.37,0-.69-.06-.99-.17-.29-.12-.52-.28-.69-.48-.17-.2-.25-.43-.25-.69,0-.29.07-.54.22-.76s.37-.41.68-.58c-.26-.28-.4-.58-.4-.88,0-.25.07-.46.21-.65.14-.19.33-.33.58-.44.25-.11.54-.16.87-.16.3,0,.57.05.8.14.23.09.41.23.54.41.13.18.19.38.19.62s-.06.44-.19.62c-.13.18-.33.35-.6.5l.49.42c.08-.18.14-.38.18-.6l1.19.36c-.09.39-.23.73-.44,1.04ZM393.82,285.91l-.84-.73c-.17.12-.26.27-.26.44,0,.11.05.21.16.28.1.07.25.11.43.11s.35-.04.52-.11Z" fill="#942934"/><path d="M393.2,283.36c-.06.05-.08.11-.08.19,0,.06.02.11.05.16.03.05.09.12.18.2.24-.13.36-.26.36-.4,0-.07-.02-.13-.07-.17-.05-.04-.12-.07-.2-.07-.1,0-.18.02-.23.07ZM395.58,285.84l.44.37-.8.9-.49-.42c-.46.29-.97.44-1.54.44-.37,0-.69-.06-.99-.17-.29-.12-.52-.28-.69-.48-.17-.2-.25-.43-.25-.69,0-.29.07-.54.22-.76s.37-.41.68-.58c-.26-.28-.4-.58-.4-.88,0-.25.07-.46.21-.65.14-.19.33-.33.58-.44.25-.11.54-.16.87-.16.3,0,.57.05.8.14.23.09.41.23.54.41.13.18.19.38.19.62s-.06.44-.19.62c-.13.18-.33.35-.6.5l.49.42c.08-.18.14-.38.18-.6l1.19.36c-.09.39-.23.73-.44,1.04ZM393.82,285.91l-.84-.73c-.17.12-.26.27-.26.44,0,.11.05.21.16.28.1.07.25.11.43.11s.35-.04.52-.11Z" fill="#942934"/><path d="M393.2,283.36c-.06.05-.08.11-.08.19,0,.06.02.11.05.16.03.05.09.12.18.2.24-.13.36-.26.36-.4,0-.07-.02-.13-.07-.17-.05-.04-.12-.07-.2-.07-.1,0-.18.02-.23.07ZM395.59,285.83l.44.37-.8.9-.49-.42c-.46.29-.97.44-1.54.44-.37,0-.69-.06-.99-.17-.29-.12-.52-.28-.69-.48-.17-.2-.25-.43-.25-.69,0-.29.07-.54.22-.76s.37-.41.68-.58c-.26-.28-.4-.58-.4-.88,0-.25.07-.46.21-.65.14-.19.33-.33.58-.44.25-.11.54-.16.87-.16.3,0,.57.05.8.14.23.09.41.23.54.41.13.18.19.38.19.62s-.06.44-.19.62c-.13.18-.33.35-.6.5l.49.42c.08-.18.14-.38.18-.6l1.19.36c-.09.39-.23.73-.44,1.04ZM393.83,285.91l-.84-.73c-.17.12-.26.27-.26.44,0,.11.05.21.16.28.1.07.25.11.43.11s.35-.04.52-.11Z" fill="#942934"/><path d="M393.21,283.36c-.06.05-.08.11-.08.19,0,.06.02.11.05.16.03.05.09.12.18.2.24-.13.36-.26.36-.4,0-.07-.02-.13-.07-.17-.05-.04-.12-.07-.2-.07-.1,0-.18.02-.23.07ZM395.59,285.83l.44.37-.8.9-.49-.42c-.46.29-.97.44-1.54.44-.37,0-.69-.06-.99-.17-.29-.12-.52-.28-.69-.48-.17-.2-.25-.43-.25-.69,0-.29.07-.54.22-.76s.37-.41.68-.58c-.26-.28-.4-.58-.4-.88,0-.25.07-.46.21-.65.14-.19.33-.33.58-.44.25-.11.54-.16.87-.16.3,0,.57.05.8.14.23.09.41.23.54.41.13.18.19.38.19.62s-.06.44-.19.62c-.13.18-.33.35-.6.5l.49.42c.08-.18.14-.38.18-.6l1.19.36c-.09.39-.23.73-.44,1.04ZM393.83,285.9l-.84-.73c-.17.12-.26.27-.26.44,0,.11.05.21.16.28.1.07.25.11.43.11s.35-.04.52-.11Z" fill="#942934"/><path d="M393.21,283.36c-.06.05-.08.11-.08.19,0,.06.02.11.05.16.03.05.09.12.18.2.24-.13.36-.26.36-.4,0-.07-.02-.13-.07-.17-.05-.04-.12-.07-.2-.07-.1,0-.18.02-.23.07ZM395.59,285.83l.44.37-.8.9-.49-.42c-.46.29-.97.44-1.54.44-.37,0-.69-.06-.99-.17-.29-.12-.52-.28-.69-.48-.17-.2-.25-.43-.25-.69,0-.29.07-.54.22-.76s.37-.41.68-.58c-.26-.28-.4-.58-.4-.88,0-.25.07-.46.21-.65.14-.19.33-.33.58-.44.25-.11.54-.16.87-.16.3,0,.57.05.8.14.23.09.41.23.54.41.13.18.19.38.19.62s-.06.44-.19.62c-.13.18-.33.35-.6.5l.49.42c.08-.18.14-.38.18-.6l1.19.36c-.09.39-.23.73-.44,1.04ZM393.83,285.9l-.84-.73c-.17.12-.26.27-.26.44,0,.11.05.21.16.28.1.07.25.11.43.11s.35-.04.52-.11Z" fill="#942934"/><path d="M393.21,283.36c-.06.05-.08.11-.08.19,0,.06.02.11.05.16.03.05.09.12.18.2.24-.13.36-.26.36-.4,0-.07-.02-.13-.07-.17-.05-.04-.12-.07-.2-.07-.1,0-.18.02-.23.07ZM395.59,285.83l.44.37-.8.9-.49-.42c-.46.29-.97.44-1.54.44-.37,0-.69-.06-.99-.17-.29-.12-.52-.28-.69-.48-.17-.2-.25-.43-.25-.69,0-.29.07-.54.22-.76s.37-.41.68-.58c-.26-.28-.4-.58-.4-.88,0-.25.07-.46.21-.65.14-.19.33-.33.58-.44.25-.11.54-.16.87-.16.3,0,.57.05.8.14.23.09.41.23.54.41.13.18.19.38.19.62s-.06.44-.19.62c-.13.18-.33.35-.6.5l.49.42c.08-.18.14-.38.18-.6l1.19.36c-.09.39-.23.73-.44,1.04ZM393.83,285.9l-.84-.73c-.17.12-.26.27-.26.44,0,.11.05.21.16.28.1.07.25.11.43.11s.35-.04.52-.11Z" fill="#942934"/><path d="M393.21,283.36c-.06.05-.08.11-.08.19,0,.06.02.11.05.16.03.05.09.12.18.2.24-.13.36-.26.36-.4,0-.07-.02-.13-.07-.17-.05-.04-.12-.07-.2-.07-.1,0-.18.02-.23.07ZM395.6,285.83l.44.37-.8.9-.49-.42c-.46.29-.97.44-1.54.44-.37,0-.69-.06-.99-.17-.29-.12-.52-.28-.69-.48-.17-.2-.25-.43-.25-.69,0-.29.07-.54.22-.76s.37-.41.68-.58c-.26-.28-.4-.58-.4-.88,0-.25.07-.46.21-.65.14-.19.33-.33.58-.44.25-.11.54-.16.87-.16.3,0,.57.05.8.14.23.09.41.23.54.41.13.18.19.38.19.62s-.06.44-.19.62c-.13.18-.33.35-.6.5l.49.42c.08-.18.14-.38.18-.6l1.19.36c-.09.39-.23.73-.44,1.04ZM393.84,285.9l-.84-.73c-.17.12-.26.27-.26.44,0,.11.05.21.16.28.1.07.25.11.43.11s.35-.04.52-.11Z" fill="#942934"/><path d="M393.22,283.35c-.06.05-.08.11-.08.19,0,.06.02.11.05.16.03.05.09.12.18.2.24-.13.36-.26.36-.4,0-.07-.02-.13-.07-.17-.05-.04-.12-.07-.2-.07-.1,0-.18.02-.23.07ZM395.6,285.83l.44.37-.8.9-.49-.42c-.46.29-.97.44-1.54.44-.37,0-.69-.06-.99-.17-.29-.12-.52-.28-.69-.48-.17-.2-.25-.43-.25-.69,0-.29.07-.54.22-.76s.37-.41.68-.58c-.26-.28-.4-.58-.4-.88,0-.25.07-.46.21-.65.14-.19.33-.33.58-.44.25-.11.54-.16.87-.16.3,0,.57.05.8.14.23.09.41.23.54.41.13.18.19.38.19.62s-.06.44-.19.62c-.13.18-.33.35-.6.5l.49.42c.08-.18.14-.38.18-.6l1.19.36c-.09.39-.23.73-.44,1.04ZM393.84,285.9l-.84-.73c-.17.12-.26.27-.26.44,0,.11.05.21.16.28.1.07.25.11.43.11s.35-.04.52-.11Z" fill="#942934"/><path d="M393.22,283.35c-.06.05-.08.11-.08.19,0,.06.02.11.05.16.03.05.09.12.18.2.24-.13.36-.26.36-.4,0-.07-.02-.13-.07-.17-.05-.04-.12-.07-.2-.07-.1,0-.18.02-.23.07ZM395.6,285.83l.44.37-.8.9-.49-.42c-.46.29-.97.44-1.54.44-.37,0-.69-.06-.99-.17-.29-.12-.52-.28-.69-.48-.17-.2-.25-.43-.25-.69,0-.29.07-.54.22-.76s.37-.41.68-.58c-.26-.28-.4-.58-.4-.88,0-.25.07-.46.21-.65.14-.19.33-.33.58-.44.25-.11.54-.16.87-.16.3,0,.57.05.8.14.23.09.41.23.54.41.13.18.19.38.19.62s-.06.44-.19.62c-.13.18-.33.35-.6.5l.49.42c.08-.18.14-.38.18-.6l1.19.36c-.09.39-.23.73-.44,1.04ZM393.84,285.9l-.84-.73c-.17.12-.26.27-.26.44,0,.11.05.21.16.28.1.07.25.11.43.11s.35-.04.52-.11Z" fill="#942934"/><path d="M393.22,283.35c-.06.05-.08.11-.08.19,0,.06.02.11.05.16.03.05.09.12.18.2.24-.13.36-.26.36-.4,0-.07-.02-.13-.07-.17-.05-.04-.12-.07-.2-.07-.1,0-.18.02-.23.07ZM395.61,285.82l.44.37-.8.9-.49-.42c-.46.29-.97.44-1.54.44-.37,0-.69-.06-.99-.17-.29-.12-.52-.28-.69-.48-.17-.2-.25-.43-.25-.69,0-.29.07-.54.22-.76s.37-.41.68-.58c-.26-.28-.4-.58-.4-.88,0-.25.07-.46.21-.65.14-.19.33-.33.58-.44.25-.11.54-.16.87-.16.3,0,.57.05.8.14.23.09.41.23.54.41.13.18.19.38.19.62s-.06.44-.19.62c-.13.18-.33.35-.6.5l.49.42c.08-.18.14-.38.18-.6l1.19.36c-.09.39-.23.73-.44,1.04ZM393.84,285.9l-.84-.73c-.17.12-.26.27-.26.44,0,.11.05.21.16.28.1.07.25.11.43.11s.35-.04.52-.11Z" fill="#942934"/><path d="M393.22,283.35c-.06.05-.08.11-.08.19,0,.06.02.11.05.16.03.05.09.12.18.2.24-.13.36-.26.36-.4,0-.07-.02-.13-.07-.17-.05-.04-.12-.07-.2-.07-.1,0-.18.02-.23.07ZM395.61,285.82l.44.37-.8.9-.49-.42c-.46.29-.97.44-1.54.44-.37,0-.69-.06-.99-.17-.29-.12-.52-.28-.69-.48-.17-.2-.25-.43-.25-.69,0-.29.07-.54.22-.76s.37-.41.68-.58c-.26-.28-.4-.58-.4-.88,0-.25.07-.46.21-.65.14-.19.33-.33.58-.44.25-.11.54-.16.87-.16.3,0,.57.05.8.14.23.09.41.23.54.41.13.18.19.38.19.62s-.06.44-.19.62c-.13.18-.33.35-.6.5l.49.42c.08-.18.14-.38.18-.6l1.19.36c-.09.39-.23.73-.44,1.04ZM393.85,285.9l-.84-.73c-.17.12-.26.27-.26.44,0,.11.05.21.16.28.1.07.25.11.43.11s.35-.04.52-.11Z" fill="#942934"/><path d="M393.23,283.35c-.06.05-.08.11-.08.19,0,.06.02.11.05.16.03.05.09.12.18.2.24-.13.36-.26.36-.4,0-.07-.02-.13-.07-.17-.05-.04-.12-.07-.2-.07-.1,0-.18.02-.23.07ZM395.61,285.82l.44.37-.8.9-.49-.42c-.46.29-.97.44-1.54.44-.37,0-.69-.06-.99-.17-.29-.12-.52-.28-.69-.48-.17-.2-.25-.43-.25-.69,0-.29.07-.54.22-.76s.37-.41.68-.58c-.26-.28-.4-.58-.4-.88,0-.25.07-.46.21-.65.14-.19.33-.33.58-.44.25-.11.54-.16.87-.16.3,0,.57.05.8.14.23.09.41.23.54.41.13.18.19.38.19.62s-.06.44-.19.62c-.13.18-.33.35-.6.5l.49.42c.08-.18.14-.38.18-.6l1.19.36c-.09.39-.23.73-.44,1.04ZM393.85,285.89l-.84-.73c-.17.12-.26.27-.26.44,0,.11.05.21.16.28.1.07.25.11.43.11s.35-.04.52-.11Z" fill="#942934"/><path d="M393.23,283.35c-.06.05-.08.11-.08.19,0,.06.02.11.05.16.03.05.09.12.18.2.24-.13.36-.26.36-.4,0-.07-.02-.13-.07-.17-.05-.04-.12-.07-.2-.07-.1,0-.18.02-.23.07ZM395.61,285.82l.44.37-.8.9-.49-.42c-.46.29-.97.44-1.54.44-.37,0-.69-.06-.99-.17-.29-.12-.52-.28-.69-.48-.17-.2-.25-.43-.25-.69,0-.29.07-.54.22-.76s.37-.41.68-.58c-.26-.28-.4-.58-.4-.88,0-.25.07-.46.21-.65.14-.19.33-.33.58-.44.25-.11.54-.16.87-.16.3,0,.57.05.8.14.23.09.41.23.54.41.13.18.19.38.19.62s-.06.44-.19.62c-.13.18-.33.35-.6.5l.49.42c.08-.18.14-.38.18-.6l1.19.36c-.09.39-.23.73-.44,1.04ZM393.85,285.89l-.84-.73c-.17.12-.26.27-.26.44,0,.11.05.21.16.28.1.07.25.11.43.11s.35-.04.52-.11Z" fill="#942934"/><path d="M393.23,283.35c-.06.05-.08.11-.08.19,0,.06.02.11.05.16.03.05.09.12.18.2.24-.13.36-.26.36-.4,0-.07-.02-.13-.07-.17-.05-.04-.12-.07-.2-.07-.1,0-.18.02-.23.07ZM395.62,285.82l.44.37-.8.9-.49-.42c-.46.29-.97.44-1.54.44-.37,0-.69-.06-.99-.17-.29-.12-.52-.28-.69-.48-.17-.2-.25-.43-.25-.69,0-.29.07-.54.22-.76s.37-.41.68-.58c-.26-.28-.4-.58-.4-.88,0-.25.07-.46.21-.65.14-.19.33-.33.58-.44.25-.11.54-.16.87-.16.3,0,.57.05.8.14.23.09.41.23.54.41.13.18.19.38.19.62s-.06.44-.19.62c-.13.18-.33.35-.6.5l.49.42c.08-.18.14-.38.18-.6l1.19.36c-.09.39-.23.73-.44,1.04ZM393.86,285.89l-.84-.73c-.17.12-.26.27-.26.44,0,.11.05.21.16.28.1.07.25.11.43.11s.35-.04.52-.11Z" fill="#942934"/><path d="M393.24,283.34c-.06.05-.08.11-.08.19,0,.06.02.11.05.16.03.05.09.12.18.2.24-.13.36-.26.36-.4,0-.07-.02-.13-.07-.17-.05-.04-.12-.07-.2-.07-.1,0-.18.02-.23.07ZM395.62,285.82l.44.37-.8.9-.49-.42c-.46.29-.97.44-1.54.44-.37,0-.69-.06-.99-.17-.29-.12-.52-.28-.69-.48-.17-.2-.25-.43-.25-.69,0-.29.07-.54.22-.76s.37-.41.68-.58c-.26-.28-.4-.58-.4-.88,0-.25.07-.46.21-.65.14-.19.33-.33.58-.44.25-.11.54-.16.87-.16.3,0,.57.05.8.14.23.09.41.23.54.41.13.18.19.38.19.62s-.06.44-.19.62c-.13.18-.33.35-.6.5l.49.42c.08-.18.14-.38.18-.6l1.19.36c-.09.39-.23.73-.44,1.04ZM393.86,285.89l-.84-.73c-.17.12-.26.27-.26.44,0,.11.05.21.16.28.1.07.25.11.43.11s.35-.04.52-.11Z" fill="#942934"/><path d="M393.24,283.34c-.06.05-.08.11-.08.19,0,.06.02.11.05.16.03.05.09.12.18.2.24-.13.36-.26.36-.4,0-.07-.02-.13-.07-.17-.05-.04-.12-.07-.2-.07-.1,0-.18.02-.23.07ZM395.62,285.82l.44.37-.8.9-.49-.42c-.46.29-.97.44-1.54.44-.37,0-.69-.06-.99-.17-.29-.12-.52-.28-.69-.48-.17-.2-.25-.43-.25-.69,0-.29.07-.54.22-.76s.37-.41.68-.58c-.26-.28-.4-.58-.4-.88,0-.25.07-.46.21-.65.14-.19.33-.33.58-.44.25-.11.54-.16.87-.16.3,0,.57.05.8.14.23.09.41.23.54.41.13.18.19.38.19.62s-.06.44-.19.62c-.13.18-.33.35-.6.5l.49.42c.08-.18.14-.38.18-.6l1.19.36c-.09.39-.23.73-.44,1.04ZM393.86,285.89l-.84-.73c-.17.12-.26.27-.26.44,0,.11.05.21.16.28.1.07.25.11.43.11s.35-.04.52-.11Z" fill="#942934"/><path d="M393.24,283.34c-.06.05-.08.11-.08.19,0,.06.02.11.05.16.03.05.09.12.18.2.24-.13.36-.26.36-.4,0-.07-.02-.13-.07-.17-.05-.04-.12-.07-.2-.07-.1,0-.18.02-.23.07ZM395.62,285.81l.44.37-.8.9-.49-.42c-.46.29-.97.44-1.54.44-.37,0-.69-.06-.99-.17-.29-.12-.52-.28-.69-.48-.17-.2-.25-.43-.25-.69,0-.29.07-.54.22-.76s.37-.41.68-.58c-.26-.28-.4-.58-.4-.88,0-.25.07-.46.21-.65.14-.19.33-.33.58-.44.25-.11.54-.16.87-.16.3,0,.57.05.8.14.23.09.41.23.54.41.13.18.19.38.19.62s-.06.44-.19.62c-.13.18-.33.35-.6.5l.49.42c.08-.18.14-.38.18-.6l1.19.36c-.09.39-.23.73-.44,1.04ZM393.86,285.89l-.84-.73c-.17.12-.26.27-.26.44,0,.11.05.21.16.28.1.07.25.11.43.11s.35-.04.52-.11Z" fill="#942934"/><path d="M393.24,283.34c-.06.05-.08.11-.08.19,0,.06.02.11.05.16.03.05.09.12.18.2.24-.13.36-.26.36-.4,0-.07-.02-.13-.07-.17-.05-.04-.12-.07-.2-.07-.1,0-.18.02-.23.07ZM395.63,285.81l.44.37-.8.9-.49-.42c-.46.29-.97.44-1.54.44-.37,0-.69-.06-.99-.17-.29-.12-.52-.28-.69-.48-.17-.2-.25-.43-.25-.69,0-.29.07-.54.22-.76s.37-.41.68-.58c-.26-.28-.4-.58-.4-.88,0-.25.07-.46.21-.65.14-.19.33-.33.58-.44.25-.11.54-.16.87-.16.3,0,.57.05.8.14.23.09.41.23.54.41.13.18.19.38.19.62s-.06.44-.19.62c-.13.18-.33.35-.6.5l.49.42c.08-.18.14-.38.18-.6l1.19.36c-.09.39-.23.73-.44,1.04ZM393.87,285.89l-.84-.73c-.17.12-.26.27-.26.44,0,.11.05.21.16.28.1.07.25.11.43.11s.35-.04.52-.11Z" fill="#942934"/><path d="M393.25,283.34c-.06.05-.08.11-.08.19,0,.06.02.11.05.16.03.05.09.12.18.2.24-.13.36-.26.36-.4,0-.07-.02-.13-.07-.17-.05-.04-.12-.07-.2-.07-.1,0-.18.02-.23.07ZM395.63,285.81l.44.37-.8.9-.49-.42c-.46.29-.97.44-1.54.44-.37,0-.69-.06-.99-.17-.29-.12-.52-.28-.69-.48-.17-.2-.25-.43-.25-.69,0-.29.07-.54.22-.76s.37-.41.68-.58c-.26-.28-.4-.58-.4-.88,0-.25.07-.46.21-.65.14-.19.33-.33.58-.44.25-.11.54-.16.87-.16.3,0,.57.05.8.14.23.09.41.23.54.41.13.18.19.38.19.62s-.06.44-.19.62c-.13.18-.33.35-.6.5l.49.42c.08-.18.14-.38.18-.6l1.19.36c-.09.39-.23.73-.44,1.04ZM393.87,285.88l-.84-.73c-.17.12-.26.27-.26.44,0,.11.05.21.16.28.1.07.25.11.43.11s.35-.04.52-.11Z" fill="#942934"/><path d="M393.25,283.34c-.06.05-.08.11-.08.19,0,.06.02.11.05.16.03.05.09.12.18.2.24-.13.36-.26.36-.4,0-.07-.02-.13-.07-.17-.05-.04-.12-.07-.2-.07-.1,0-.18.02-.23.07ZM395.63,285.81l.44.37-.8.9-.49-.42c-.46.29-.97.44-1.54.44-.37,0-.69-.06-.99-.17-.29-.12-.52-.28-.69-.48-.17-.2-.25-.43-.25-.69,0-.29.07-.54.22-.76s.37-.41.68-.58c-.26-.28-.4-.58-.4-.88,0-.25.07-.46.21-.65.14-.19.33-.33.58-.44.25-.11.54-.16.87-.16.3,0,.57.05.8.14.23.09.41.23.54.41.13.18.19.38.19.62s-.06.44-.19.62c-.13.18-.33.35-.6.5l.49.42c.08-.18.14-.38.18-.6l1.19.36c-.09.39-.23.73-.44,1.04ZM393.87,285.88l-.84-.73c-.17.12-.26.27-.26.44,0,.11.05.21.16.28.1.07.25.11.43.11s.35-.04.52-.11Z" fill="#942934"/><path d="M393.25,283.34c-.06.05-.08.11-.08.19,0,.06.02.11.05.16.03.05.09.12.18.2.24-.13.36-.26.36-.4,0-.07-.02-.13-.07-.17-.05-.04-.12-.07-.2-.07-.1,0-.18.02-.23.07ZM395.64,285.81l.44.37-.8.9-.49-.42c-.46.29-.97.44-1.54.44-.37,0-.69-.06-.99-.17-.29-.12-.52-.28-.69-.48-.17-.2-.25-.43-.25-.69,0-.29.07-.54.22-.76s.37-.41.68-.58c-.26-.28-.4-.58-.4-.88,0-.25.07-.46.21-.65.14-.19.33-.33.58-.44.25-.11.54-.16.87-.16.3,0,.57.05.8.14.23.09.41.23.54.41.13.18.19.38.19.62s-.06.44-.19.62c-.13.18-.33.35-.6.5l.49.42c.08-.18.14-.38.18-.6l1.19.36c-.09.39-.23.73-.44,1.04ZM393.87,285.88l-.84-.73c-.17.12-.26.27-.26.44,0,.11.05.21.16.28.1.07.25.11.43.11s.35-.04.52-.11Z" fill="#942934"/><path d="M393.25,283.33c-.06.05-.08.11-.08.19,0,.06.02.11.05.16.03.05.09.12.18.2.24-.13.36-.26.36-.4,0-.07-.02-.13-.07-.17-.05-.04-.12-.07-.2-.07-.1,0-.18.02-.23.07ZM395.64,285.81l.44.37-.8.9-.49-.42c-.46.29-.97.44-1.54.44-.37,0-.69-.06-.99-.17-.29-.12-.52-.28-.69-.48-.17-.2-.25-.43-.25-.69,0-.29.07-.54.22-.76s.37-.41.68-.58c-.26-.28-.4-.58-.4-.88,0-.25.07-.46.21-.65.14-.19.33-.33.58-.44.25-.11.54-.16.87-.16.3,0,.57.05.8.14.23.09.41.23.54.41.13.18.19.38.19.62s-.06.44-.19.62c-.13.18-.33.35-.6.5l.49.42c.08-.18.14-.38.18-.6l1.19.36c-.09.39-.23.73-.44,1.04ZM393.88,285.88l-.84-.73c-.17.12-.26.27-.26.44,0,.11.05.21.16.28.1.07.25.11.43.11s.35-.04.52-.11Z" fill="#942934"/><path d="M393.26,283.33c-.06.05-.08.11-.08.19,0,.06.02.11.05.16.03.05.09.12.18.2.24-.13.36-.26.36-.4,0-.07-.02-.13-.07-.17-.05-.04-.12-.07-.2-.07-.1,0-.18.02-.23.07ZM395.64,285.81l.44.37-.8.9-.49-.42c-.46.29-.97.44-1.54.44-.37,0-.69-.06-.99-.17-.29-.12-.52-.28-.69-.48-.17-.2-.25-.43-.25-.69,0-.29.07-.54.22-.76s.37-.41.68-.58c-.26-.28-.4-.58-.4-.88,0-.25.07-.46.21-.65.14-.19.33-.33.58-.44.25-.11.54-.16.87-.16.3,0,.57.05.8.14.23.09.41.23.54.41.13.18.19.38.19.62s-.06.44-.19.62c-.13.18-.33.35-.6.5l.49.42c.08-.18.14-.38.18-.6l1.19.36c-.09.39-.23.73-.44,1.04ZM393.88,285.88l-.84-.73c-.17.12-.26.27-.26.44,0,.11.05.21.16.28.1.07.25.11.43.11s.35-.04.52-.11Z" fill="#942934"/><path d="M393.26,283.33c-.06.05-.08.11-.08.19,0,.06.02.11.05.16.03.05.09.12.18.2.24-.13.36-.26.36-.4,0-.07-.02-.13-.07-.17-.05-.04-.12-.07-.2-.07-.1,0-.18.02-.23.07ZM395.64,285.8l.44.37-.8.9-.49-.42c-.46.29-.97.44-1.54.44-.37,0-.69-.06-.99-.17-.29-.12-.52-.28-.69-.48-.17-.2-.25-.43-.25-.69,0-.29.07-.54.22-.76s.37-.41.68-.58c-.26-.28-.4-.58-.4-.88,0-.25.07-.46.21-.65.14-.19.33-.33.58-.44.25-.11.54-.16.87-.16.3,0,.57.05.8.14.23.09.41.23.54.41.13.18.19.38.19.62s-.06.44-.19.62c-.13.18-.33.35-.6.5l.49.42c.08-.18.14-.38.18-.6l1.19.36c-.09.39-.23.73-.44,1.04ZM393.88,285.88l-.84-.73c-.17.12-.26.27-.26.44,0,.11.05.21.16.28.1.07.25.11.43.11s.35-.04.52-.11Z" fill="#942934"/><path d="M393.26,283.33c-.06.05-.08.11-.08.19,0,.06.02.11.05.16.03.05.09.12.18.2.24-.13.36-.26.36-.4,0-.07-.02-.13-.07-.17-.05-.04-.12-.07-.2-.07-.1,0-.18.02-.23.07ZM395.65,285.8l.44.37-.8.9-.49-.42c-.46.29-.97.44-1.54.44-.37,0-.69-.06-.99-.17-.29-.12-.52-.28-.69-.48-.17-.2-.25-.43-.25-.69,0-.29.07-.54.22-.76s.37-.41.68-.58c-.26-.28-.4-.58-.4-.88,0-.25.07-.46.21-.65.14-.19.33-.33.58-.44.25-.11.54-.16.87-.16.3,0,.57.05.8.14.23.09.41.23.54.41.13.18.19.38.19.62s-.06.44-.19.62c-.13.18-.33.35-.6.5l.49.42c.08-.18.14-.38.18-.6l1.19.36c-.09.39-.23.73-.44,1.04ZM393.89,285.88l-.84-.73c-.17.12-.26.27-.26.44,0,.11.05.21.16.28.1.07.25.11.43.11s.35-.04.52-.11Z" fill="#942934"/><path d="M393.26,283.33c-.06.05-.08.11-.08.19,0,.06.02.11.05.16.03.05.09.12.18.2.24-.13.36-.26.36-.4,0-.07-.02-.13-.07-.17-.05-.04-.12-.07-.2-.07-.1,0-.18.02-.23.07ZM395.65,285.8l.44.37-.8.9-.49-.42c-.46.29-.97.44-1.54.44-.37,0-.69-.06-.99-.17-.29-.12-.52-.28-.69-.48-.17-.2-.25-.43-.25-.69,0-.29.07-.54.22-.76s.37-.41.68-.58c-.26-.28-.4-.58-.4-.88,0-.25.07-.46.21-.65.14-.19.33-.33.58-.44.25-.11.54-.16.87-.16.3,0,.57.05.8.14.23.09.41.23.54.41.13.18.19.38.19.62s-.06.44-.19.62c-.13.18-.33.35-.6.5l.49.42c.08-.18.14-.38.18-.6l1.19.36c-.09.39-.23.73-.44,1.04ZM393.89,285.87l-.84-.73c-.17.12-.26.27-.26.44,0,.11.05.21.16.28.1.07.25.11.43.11s.35-.04.52-.11Z" fill="#942934"/><path d="M393.27,283.33c-.06.05-.08.11-.08.19,0,.06.02.11.05.16.03.05.09.12.18.2.24-.13.36-.26.36-.4,0-.07-.02-.13-.07-.17-.05-.04-.12-.07-.2-.07-.1,0-.18.02-.23.07ZM395.65,285.8l.44.37-.8.9-.49-.42c-.46.29-.97.44-1.54.44-.37,0-.69-.06-.99-.17-.29-.12-.52-.28-.69-.48-.17-.2-.25-.43-.25-.69,0-.29.07-.54.22-.76s.37-.41.68-.58c-.26-.28-.4-.58-.4-.88,0-.25.07-.46.21-.65.14-.19.33-.33.58-.44.25-.11.54-.16.87-.16.3,0,.57.05.8.14.23.09.41.23.54.41.13.18.19.38.19.62s-.06.44-.19.62c-.13.18-.33.35-.6.5l.49.42c.08-.18.14-.38.18-.6l1.19.36c-.09.39-.23.73-.44,1.04ZM393.89,285.87l-.84-.73c-.17.12-.26.27-.26.44,0,.11.05.21.16.28.1.07.25.11.43.11s.35-.04.52-.11Z" fill="#942934"/><path d="M393.27,283.33c-.06.05-.08.11-.08.19,0,.06.02.11.05.16.03.05.09.12.18.2.24-.13.36-.26.36-.4,0-.07-.02-.13-.07-.17-.05-.04-.12-.07-.2-.07-.1,0-.18.02-.23.07ZM395.65,285.8l.44.37-.8.9-.49-.42c-.46.29-.97.44-1.54.44-.37,0-.69-.06-.99-.17-.29-.12-.52-.28-.69-.48-.17-.2-.25-.43-.25-.69,0-.29.07-.54.22-.76s.37-.41.68-.58c-.26-.28-.4-.58-.4-.88,0-.25.07-.46.21-.65.14-.19.33-.33.58-.44.25-.11.54-.16.87-.16.3,0,.57.05.8.14.23.09.41.23.54.41.13.18.19.38.19.62s-.06.44-.19.62c-.13.18-.33.35-.6.5l.49.42c.08-.18.14-.38.18-.6l1.19.36c-.09.39-.23.73-.44,1.04ZM393.89,285.87l-.84-.73c-.17.12-.26.27-.26.44,0,.11.05.21.16.28.1.07.25.11.43.11s.35-.04.52-.11Z" fill="#942934"/><path d="M393.27,283.32c-.06.05-.08.11-.08.19,0,.06.02.11.05.16.03.05.09.12.18.2.24-.13.36-.26.36-.4,0-.07-.02-.13-.07-.17-.05-.04-.12-.07-.2-.07-.1,0-.18.02-.23.07ZM395.66,285.8l.44.37-.8.9-.49-.42c-.46.29-.97.44-1.54.44-.37,0-.69-.06-.99-.17-.29-.12-.52-.28-.69-.48-.17-.2-.25-.43-.25-.69,0-.29.07-.54.22-.76s.37-.41.68-.58c-.26-.28-.4-.58-.4-.88,0-.25.07-.46.21-.65.14-.19.33-.33.58-.44.25-.11.54-.16.87-.16.3,0,.57.05.8.14.23.09.41.23.54.41.13.18.19.38.19.62s-.06.44-.19.62c-.13.18-.33.35-.6.5l.49.42c.08-.18.14-.38.18-.6l1.19.36c-.09.39-.23.73-.44,1.04ZM393.9,285.87l-.84-.73c-.17.12-.26.27-.26.44,0,.11.05.21.16.28.1.07.25.11.43.11s.35-.04.52-.11Z" fill="#942934"/><path d="M393.28,283.32c-.06.05-.08.11-.08.19,0,.06.02.11.05.16.03.05.09.12.18.2.24-.13.36-.26.36-.4,0-.07-.02-.13-.07-.17-.05-.04-.12-.07-.2-.07-.1,0-.18.02-.23.07ZM395.66,285.8l.44.37-.8.9-.49-.42c-.46.29-.97.44-1.54.44-.37,0-.69-.06-.99-.17-.29-.12-.52-.28-.69-.48-.17-.2-.25-.43-.25-.69,0-.29.07-.54.22-.76s.37-.41.68-.58c-.26-.28-.4-.58-.4-.88,0-.25.07-.46.21-.65.14-.19.33-.33.58-.44.25-.11.54-.16.87-.16.3,0,.57.05.8.14.23.09.41.23.54.41.13.18.19.38.19.62s-.06.44-.19.62c-.13.18-.33.35-.6.5l.49.42c.08-.18.14-.38.18-.6l1.19.36c-.09.39-.23.73-.44,1.04ZM393.9,285.87l-.84-.73c-.17.12-.26.27-.26.44,0,.11.05.21.16.28.1.07.25.11.43.11s.35-.04.52-.11Z" fill="#942934"/><path d="M393.28,283.32c-.06.05-.08.11-.08.19,0,.06.02.11.05.16.03.05.09.12.18.2.24-.13.36-.26.36-.4,0-.07-.02-.13-.07-.17-.05-.04-.12-.07-.2-.07-.1,0-.18.02-.23.07ZM395.66,285.79l.44.37-.8.9-.49-.42c-.46.29-.97.44-1.54.44-.37,0-.69-.06-.99-.17-.29-.12-.52-.28-.69-.48-.17-.2-.25-.43-.25-.69,0-.29.07-.54.22-.76s.37-.41.68-.58c-.26-.28-.4-.58-.4-.88,0-.25.07-.46.21-.65.14-.19.33-.33.58-.44.25-.11.54-.16.87-.16.3,0,.57.05.8.14.23.09.41.23.54.41.13.18.19.38.19.62s-.06.44-.19.62c-.13.18-.33.35-.6.5l.49.42c.08-.18.14-.38.18-.6l1.19.36c-.09.39-.23.73-.44,1.04ZM393.9,285.87l-.84-.73c-.17.12-.26.27-.26.44,0,.11.05.21.16.28.1.07.25.11.43.11s.35-.04.52-.11Z" fill="#942934"/><path d="M393.28,283.32c-.06.05-.08.11-.08.19,0,.06.02.11.05.16.03.05.09.12.18.2.24-.13.36-.26.36-.4,0-.07-.02-.13-.07-.17-.05-.04-.12-.07-.2-.07-.1,0-.18.02-.23.07ZM395.67,285.79l.44.37-.8.9-.49-.42c-.46.29-.97.44-1.54.44-.37,0-.69-.06-.99-.17-.29-.12-.52-.28-.69-.48-.17-.2-.25-.43-.25-.69,0-.29.07-.54.22-.76s.37-.41.68-.58c-.26-.28-.4-.58-.4-.88,0-.25.07-.46.21-.65.14-.19.33-.33.58-.44.25-.11.54-.16.87-.16.3,0,.57.05.8.14.23.09.41.23.54.41.13.18.19.38.19.62s-.06.44-.19.62c-.13.18-.33.35-.6.5l.49.42c.08-.18.14-.38.18-.6l1.19.36c-.09.39-.23.73-.44,1.04ZM393.9,285.87l-.84-.73c-.17.12-.26.27-.26.44,0,.11.05.21.16.28.1.07.25.11.43.11s.35-.04.52-.11Z" fill="#942934"/><path d="M393.28,283.32c-.06.05-.08.11-.08.19,0,.06.02.11.05.16.03.05.09.12.18.2.24-.13.36-.26.36-.4,0-.07-.02-.13-.07-.17-.05-.04-.12-.07-.2-.07-.1,0-.18.02-.23.07ZM395.67,285.79l.44.37-.8.9-.49-.42c-.46.29-.97.44-1.54.44-.37,0-.69-.06-.99-.17-.29-.12-.52-.28-.69-.48-.17-.2-.25-.43-.25-.69,0-.29.07-.54.22-.76s.37-.41.68-.58c-.26-.28-.4-.58-.4-.88,0-.25.07-.46.21-.65.14-.19.33-.33.58-.44.25-.11.54-.16.87-.16.3,0,.57.05.8.14.23.09.41.23.54.41.13.18.19.38.19.62s-.06.44-.19.62c-.13.18-.33.35-.6.5l.49.42c.08-.18.14-.38.18-.6l1.19.36c-.09.39-.23.73-.44,1.04ZM393.91,285.86l-.84-.73c-.17.12-.26.27-.26.44,0,.11.05.21.16.28.1.07.25.11.43.11s.35-.04.52-.11Z" fill="#942934"/><path d="M393.29,283.32c-.06.05-.08.11-.08.19,0,.06.02.11.05.16.03.05.09.12.18.2.24-.13.36-.26.36-.4,0-.07-.02-.13-.07-.17-.05-.04-.12-.07-.2-.07-.1,0-.18.02-.23.07ZM395.67,285.79l.44.37-.8.9-.49-.42c-.46.29-.97.44-1.54.44-.37,0-.69-.06-.99-.17-.29-.12-.52-.28-.69-.48-.17-.2-.25-.43-.25-.69,0-.29.07-.54.22-.76s.37-.41.68-.58c-.26-.28-.4-.58-.4-.88,0-.25.07-.46.21-.65.14-.19.33-.33.58-.44.25-.11.54-.16.87-.16.3,0,.57.05.8.14.23.09.41.23.54.41.13.18.19.38.19.62s-.06.44-.19.62c-.13.18-.33.35-.6.5l.49.42c.08-.18.14-.38.18-.6l1.19.36c-.09.39-.23.73-.44,1.04ZM393.91,285.86l-.84-.73c-.17.12-.26.27-.26.44,0,.11.05.21.16.28.1.07.25.11.43.11s.35-.04.52-.11Z" fill="#942934"/><path d="M393.29,283.32c-.06.05-.08.11-.08.19,0,.06.02.11.05.16.03.05.09.12.18.2.24-.13.36-.26.36-.4,0-.07-.02-.13-.07-.17-.05-.04-.12-.07-.2-.07-.1,0-.18.02-.23.07ZM395.67,285.79l.44.37-.8.9-.49-.42c-.46.29-.97.44-1.54.44-.37,0-.69-.06-.99-.17-.29-.12-.52-.28-.69-.48-.17-.2-.25-.43-.25-.69,0-.29.07-.54.22-.76s.37-.41.68-.58c-.26-.28-.4-.58-.4-.88,0-.25.07-.46.21-.65.14-.19.33-.33.58-.44.25-.11.54-.16.87-.16.3,0,.57.05.8.14.23.09.41.23.54.41.13.18.19.38.19.62s-.06.44-.19.62c-.13.18-.33.35-.6.5l.49.42c.08-.18.14-.38.18-.6l1.19.36c-.09.39-.23.73-.44,1.04ZM393.91,285.86l-.84-.73c-.17.12-.26.27-.26.44,0,.11.05.21.16.28.1.07.25.11.43.11s.35-.04.52-.11Z" fill="#942934"/><path d="M393.29,283.31c-.06.05-.08.11-.08.19,0,.06.02.11.05.16.03.05.09.12.18.2.24-.13.36-.26.36-.4,0-.07-.02-.13-.07-.17-.05-.04-.12-.07-.2-.07-.1,0-.18.02-.23.07ZM395.68,285.79l.44.37-.8.9-.49-.42c-.46.29-.97.44-1.54.44-.37,0-.69-.06-.99-.17-.29-.12-.52-.28-.69-.48-.17-.2-.25-.43-.25-.69,0-.29.07-.54.22-.76s.37-.41.68-.58c-.26-.28-.4-.58-.4-.88,0-.25.07-.46.21-.65.14-.19.33-.33.58-.44.25-.11.54-.16.87-.16.3,0,.57.05.8.14.23.09.41.23.54.41.13.18.19.38.19.62s-.06.44-.19.62c-.13.18-.33.35-.6.5l.49.42c.08-.18.14-.38.18-.6l1.19.36c-.09.39-.23.73-.44,1.04ZM393.92,285.86l-.84-.73c-.17.12-.26.27-.26.44,0,.11.05.21.16.28.1.07.25.11.43.11s.35-.04.52-.11Z" fill="#942934"/><path d="M393.29,283.31c-.06.05-.08.11-.08.19,0,.06.02.11.05.16.03.05.09.12.18.2.24-.13.36-.26.36-.4,0-.07-.02-.13-.07-.17-.05-.04-.12-.07-.2-.07-.1,0-.18.02-.23.07ZM395.68,285.79l.44.37-.8.9-.49-.42c-.46.29-.97.44-1.54.44-.37,0-.69-.06-.99-.17-.29-.12-.52-.28-.69-.48-.17-.2-.25-.43-.25-.69,0-.29.07-.54.22-.76s.37-.41.68-.58c-.26-.28-.4-.58-.4-.88,0-.25.07-.46.21-.65.14-.19.33-.33.58-.44.25-.11.54-.16.87-.16.3,0,.57.05.8.14.23.09.41.23.54.41.13.18.19.38.19.62s-.06.44-.19.62c-.13.18-.33.35-.6.5l.49.42c.08-.18.14-.38.18-.6l1.19.36c-.09.39-.23.73-.44,1.04ZM393.92,285.86l-.84-.73c-.17.12-.26.27-.26.44,0,.11.05.21.16.28.1.07.25.11.43.11s.35-.04.52-.11Z" fill="#942934"/><path d="M393.3,283.31c-.06.05-.08.11-.08.19,0,.06.02.11.05.16.03.05.09.12.18.2.24-.13.36-.26.36-.4,0-.07-.02-.13-.07-.17-.05-.04-.12-.07-.2-.07-.1,0-.18.02-.23.07ZM395.68,285.78l.44.37-.8.9-.49-.42c-.46.29-.97.44-1.54.44-.37,0-.69-.06-.99-.17-.29-.12-.52-.28-.69-.48-.17-.2-.25-.43-.25-.69,0-.29.07-.54.22-.76s.37-.41.68-.58c-.26-.28-.4-.58-.4-.88,0-.25.07-.46.21-.65.14-.19.33-.33.58-.44.25-.11.54-.16.87-.16.3,0,.57.05.8.14.23.09.41.23.54.41.13.18.19.38.19.62s-.06.44-.19.62c-.13.18-.33.35-.6.5l.49.42c.08-.18.14-.38.18-.6l1.19.36c-.09.39-.23.73-.44,1.04ZM393.92,285.86l-.84-.73c-.17.12-.26.27-.26.44,0,.11.05.21.16.28.1.07.25.11.43.11s.35-.04.52-.11Z" fill="#942934"/><path d="M393.3,283.31c-.06.05-.08.11-.08.19,0,.06.02.11.05.16.03.05.09.12.18.2.24-.13.36-.26.36-.4,0-.07-.02-.13-.07-.17-.05-.04-.12-.07-.2-.07-.1,0-.18.02-.23.07ZM395.68,285.78l.44.37-.8.9-.49-.42c-.46.29-.97.44-1.54.44-.37,0-.69-.06-.99-.17-.29-.12-.52-.28-.69-.48-.17-.2-.25-.43-.25-.69,0-.29.07-.54.22-.76s.37-.41.68-.58c-.26-.28-.4-.58-.4-.88,0-.25.07-.46.21-.65.14-.19.33-.33.58-.44.25-.11.54-.16.87-.16.3,0,.57.05.8.14.23.09.41.23.54.41.13.18.19.38.19.62s-.06.44-.19.62c-.13.18-.33.35-.6.5l.49.42c.08-.18.14-.38.18-.6l1.19.36c-.09.39-.23.73-.44,1.04ZM393.92,285.86l-.84-.73c-.17.12-.26.27-.26.44,0,.11.05.21.16.28.1.07.25.11.43.11s.35-.04.52-.11Z" fill="#942934"/><path d="M393.3,283.31c-.06.05-.08.11-.08.19,0,.06.02.11.05.16.03.05.09.12.18.2.24-.13.36-.26.36-.4,0-.07-.02-.13-.07-.17-.05-.04-.12-.07-.2-.07-.1,0-.18.02-.23.07ZM395.69,285.78l.44.37-.8.9-.49-.42c-.46.29-.97.44-1.54.44-.37,0-.69-.06-.99-.17-.29-.12-.52-.28-.69-.48-.17-.2-.25-.43-.25-.69,0-.29.07-.54.22-.76s.37-.41.68-.58c-.26-.28-.4-.58-.4-.88,0-.25.07-.46.21-.65.14-.19.33-.33.58-.44.25-.11.54-.16.87-.16.3,0,.57.05.8.14.23.09.41.23.54.41.13.18.19.38.19.62s-.06.44-.19.62c-.13.18-.33.35-.6.5l.49.42c.08-.18.14-.38.18-.6l1.19.36c-.09.39-.23.73-.44,1.04ZM393.93,285.85l-.84-.73c-.17.12-.26.27-.26.44,0,.11.05.21.16.28.1.07.25.11.43.11s.35-.04.52-.11Z" fill="#942934"/><path d="M393.31,283.31c-.06.05-.08.11-.08.19,0,.06.02.11.05.16.03.05.09.12.18.2.24-.13.36-.26.36-.4,0-.07-.02-.13-.07-.17-.05-.04-.12-.07-.2-.07-.1,0-.18.02-.23.07ZM395.69,285.78l.44.37-.8.9-.49-.42c-.46.29-.97.44-1.54.44-.37,0-.69-.06-.99-.17-.29-.12-.52-.28-.69-.48-.17-.2-.25-.43-.25-.69,0-.29.07-.54.22-.76s.37-.41.68-.58c-.26-.28-.4-.58-.4-.88,0-.25.07-.46.21-.65.14-.19.33-.33.58-.44.25-.11.54-.16.87-.16.3,0,.57.05.8.14.23.09.41.23.54.41.13.18.19.38.19.62s-.06.44-.19.62c-.13.18-.33.35-.6.5l.49.42c.08-.18.14-.38.18-.6l1.19.36c-.09.39-.23.73-.44,1.04ZM393.93,285.85l-.84-.73c-.17.12-.26.27-.26.44,0,.11.05.21.16.28.1.07.25.11.43.11s.35-.04.52-.11Z" fill="#942934"/><path d="M393.31,283.31c-.06.05-.08.11-.08.19,0,.06.02.11.05.16.03.05.09.12.18.2.24-.13.36-.26.36-.4,0-.07-.02-.13-.07-.17-.05-.04-.12-.07-.2-.07-.1,0-.18.02-.23.07ZM395.69,285.78l.44.37-.8.9-.49-.42c-.46.29-.97.44-1.54.44-.37,0-.69-.06-.99-.17-.29-.12-.52-.28-.69-.48-.17-.2-.25-.43-.25-.69,0-.29.07-.54.22-.76s.37-.41.68-.58c-.26-.28-.4-.58-.4-.88,0-.25.07-.46.21-.65.14-.19.33-.33.58-.44.25-.11.54-.16.87-.16.3,0,.57.05.8.14.23.09.41.23.54.41.13.18.19.38.19.62s-.06.44-.19.62c-.13.18-.33.35-.6.5l.49.42c.08-.18.14-.38.18-.6l1.19.36c-.09.39-.23.73-.44,1.04ZM393.93,285.85l-.84-.73c-.17.12-.26.27-.26.44,0,.11.05.21.16.28.1.07.25.11.43.11s.35-.04.52-.11Z" fill="#942934"/><path d="M393.31,283.3c-.06.05-.08.11-.08.19,0,.06.02.11.05.16.03.05.09.12.18.2.24-.13.36-.26.36-.4,0-.07-.02-.13-.07-.17-.05-.04-.12-.07-.2-.07-.1,0-.18.02-.23.07ZM395.69,285.78l.44.37-.8.9-.49-.42c-.46.29-.97.44-1.54.44-.37,0-.69-.06-.99-.17-.29-.12-.52-.28-.69-.48-.17-.2-.25-.43-.25-.69,0-.29.07-.54.22-.76s.37-.41.68-.58c-.26-.28-.4-.58-.4-.88,0-.25.07-.46.21-.65.14-.19.33-.33.58-.44.25-.11.54-.16.87-.16.3,0,.57.05.8.14.23.09.41.23.54.41.13.18.19.38.19.62s-.06.44-.19.62c-.13.18-.33.35-.6.5l.49.42c.08-.18.14-.38.18-.6l1.19.36c-.09.39-.23.73-.44,1.04ZM393.93,285.85l-.84-.73c-.17.12-.26.27-.26.44,0,.11.05.21.16.28.1.07.25.11.43.11s.35-.04.52-.11Z" fill="#942934"/><path d="M393.31,283.3c-.06.05-.08.11-.08.19,0,.06.02.11.05.16.03.05.09.12.18.2.24-.13.36-.26.36-.4,0-.07-.02-.13-.07-.17-.05-.04-.12-.07-.2-.07-.1,0-.18.02-.23.07ZM395.7,285.78l.44.37-.8.9-.49-.42c-.46.29-.97.44-1.54.44-.37,0-.69-.06-.99-.17-.29-.12-.52-.28-.69-.48-.17-.2-.25-.43-.25-.69,0-.29.07-.54.22-.76s.37-.41.68-.58c-.26-.28-.4-.58-.4-.88,0-.25.07-.46.21-.65.14-.19.33-.33.58-.44.25-.11.54-.16.87-.16.3,0,.57.05.8.14.23.09.41.23.54.41.13.18.19.38.19.62s-.06.44-.19.62c-.13.18-.33.35-.6.5l.49.42c.08-.18.14-.38.18-.6l1.19.36c-.09.39-.23.73-.44,1.04ZM393.94,285.85l-.84-.73c-.17.12-.26.27-.26.44,0,.11.05.21.16.28.1.07.25.11.43.11s.35-.04.52-.11Z" fill="#942934"/><path d="M393.32,283.3c-.06.05-.08.11-.08.19,0,.06.02.11.05.16.03.05.09.12.18.2.24-.13.36-.26.36-.4,0-.07-.02-.13-.07-.17-.05-.04-.12-.07-.2-.07-.1,0-.18.02-.23.07ZM395.7,285.78l.44.37-.8.9-.49-.42c-.46.29-.97.44-1.54.44-.37,0-.69-.06-.99-.17-.29-.12-.52-.28-.69-.48-.17-.2-.25-.43-.25-.69,0-.29.07-.54.22-.76s.37-.41.68-.58c-.26-.28-.4-.58-.4-.88,0-.25.07-.46.21-.65.14-.19.33-.33.58-.44.25-.11.54-.16.87-.16.3,0,.57.05.8.14.23.09.41.23.54.41.13.18.19.38.19.62s-.06.44-.19.62c-.13.18-.33.35-.6.5l.49.42c.08-.18.14-.38.18-.6l1.19.36c-.09.39-.23.73-.44,1.04ZM393.94,285.85l-.84-.73c-.17.12-.26.27-.26.44,0,.11.05.21.16.28.1.07.25.11.43.11s.35-.04.52-.11Z" fill="#942934"/><path d="M393.32,283.3c-.06.05-.08.11-.08.19,0,.06.02.11.05.16.03.05.09.12.18.2.24-.13.36-.26.36-.4,0-.07-.02-.13-.07-.17-.05-.04-.12-.07-.2-.07-.1,0-.18.02-.23.07ZM395.7,285.77l.44.37-.8.9-.49-.42c-.46.29-.97.44-1.54.44-.37,0-.69-.06-.99-.17-.29-.12-.52-.28-.69-.48-.17-.2-.25-.43-.25-.69,0-.29.07-.54.22-.76s.37-.41.68-.58c-.26-.28-.4-.58-.4-.88,0-.25.07-.46.21-.65.14-.19.33-.33.58-.44.25-.11.54-.16.87-.16.3,0,.57.05.8.14.23.09.41.23.54.41.13.18.19.38.19.62s-.06.44-.19.62c-.13.18-.33.35-.6.5l.49.42c.08-.18.14-.38.18-.6l1.19.36c-.09.39-.23.73-.44,1.04ZM393.94,285.85l-.84-.73c-.17.12-.26.27-.26.44,0,.11.05.21.16.28.1.07.25.11.43.11s.35-.04.52-.11Z" fill="#942934"/><path d="M393.32,283.3c-.06.05-.08.11-.08.19,0,.06.02.11.05.16.03.05.09.12.18.2.24-.13.36-.26.36-.4,0-.07-.02-.13-.07-.17-.05-.04-.12-.07-.2-.07-.1,0-.18.02-.23.07ZM395.71,285.77l.44.37-.8.9-.49-.42c-.46.29-.97.44-1.54.44-.37,0-.69-.06-.99-.17-.29-.12-.52-.28-.69-.48-.17-.2-.25-.43-.25-.69,0-.29.07-.54.22-.76s.37-.41.68-.58c-.26-.28-.4-.58-.4-.88,0-.25.07-.46.21-.65.14-.19.33-.33.58-.44.25-.11.54-.16.87-.16.3,0,.57.05.8.14.23.09.41.23.54.41.13.18.19.38.19.62s-.06.44-.19.62c-.13.18-.33.35-.6.5l.49.42c.08-.18.14-.38.18-.6l1.19.36c-.09.39-.23.73-.44,1.04ZM393.94,285.84l-.84-.73c-.17.12-.26.27-.26.44,0,.11.05.21.16.28.1.07.25.11.43.11s.35-.04.52-.11Z" fill="#942934"/><path d="M393.32,283.3c-.06.05-.08.11-.08.19,0,.06.02.11.05.16.03.05.09.12.18.2.24-.13.36-.26.36-.4,0-.07-.02-.13-.07-.17-.05-.04-.12-.07-.2-.07-.1,0-.18.02-.23.07ZM395.71,285.77l.44.37-.8.9-.49-.42c-.46.29-.97.44-1.54.44-.37,0-.69-.06-.99-.17-.29-.12-.52-.28-.69-.48-.17-.2-.25-.43-.25-.69,0-.29.07-.54.22-.76s.37-.41.68-.58c-.26-.28-.4-.58-.4-.88,0-.25.07-.46.21-.65.14-.19.33-.33.58-.44.25-.11.54-.16.87-.16.3,0,.57.05.8.14.23.09.41.23.54.41.13.18.19.38.19.62s-.06.44-.19.62c-.13.18-.33.35-.6.5l.49.42c.08-.18.14-.38.18-.6l1.19.36c-.09.39-.23.73-.44,1.04ZM393.95,285.84l-.84-.73c-.17.12-.26.27-.26.44,0,.11.05.21.16.28.1.07.25.11.43.11s.35-.04.52-.11Z" fill="#942934"/><path d="M393.33,283.3c-.06.05-.08.11-.08.19,0,.06.02.11.05.16.03.05.09.12.18.2.24-.13.36-.26.36-.4,0-.07-.02-.13-.07-.17-.05-.04-.12-.07-.2-.07-.1,0-.18.02-.23.07ZM395.71,285.77l.44.37-.8.9-.49-.42c-.46.29-.97.44-1.54.44-.37,0-.69-.06-.99-.17-.29-.12-.52-.28-.69-.48-.17-.2-.25-.43-.25-.69,0-.29.07-.54.22-.76s.37-.41.68-.58c-.26-.28-.4-.58-.4-.88,0-.25.07-.46.21-.65.14-.19.33-.33.58-.44.25-.11.54-.16.87-.16.3,0,.57.05.8.14.23.09.41.23.54.41.13.18.19.38.19.62s-.06.44-.19.62c-.13.18-.33.35-.6.5l.49.42c.08-.18.14-.38.18-.6l1.19.36c-.09.39-.23.73-.44,1.04ZM393.95,285.84l-.84-.73c-.17.12-.26.27-.26.44,0,.11.05.21.16.28.1.07.25.11.43.11s.35-.04.52-.11Z" fill="#942934"/><path d="M393.33,283.29c-.06.05-.08.11-.08.19,0,.06.02.11.05.16.03.05.09.12.18.2.24-.13.36-.26.36-.4,0-.07-.02-.13-.07-.17-.05-.04-.12-.07-.2-.07-.1,0-.18.02-.23.07ZM395.71,285.77l.44.37-.8.9-.49-.42c-.46.29-.97.44-1.54.44-.37,0-.69-.06-.99-.17-.29-.12-.52-.28-.69-.48-.17-.2-.25-.43-.25-.69,0-.29.07-.54.22-.76s.37-.41.68-.58c-.26-.28-.4-.58-.4-.88,0-.25.07-.46.21-.65.14-.19.33-.33.58-.44.25-.11.54-.16.87-.16.3,0,.57.05.8.14.23.09.41.23.54.41.13.18.19.38.19.62s-.06.44-.19.62c-.13.18-.33.35-.6.5l.49.42c.08-.18.14-.38.18-.6l1.19.36c-.09.39-.23.73-.44,1.04ZM393.95,285.84l-.84-.73c-.17.12-.26.27-.26.44,0,.11.05.21.16.28.1.07.25.11.43.11s.35-.04.52-.11Z" fill="#942934"/><path d="M393.33,283.29c-.06.05-.08.11-.08.19,0,.06.02.11.05.16.03.05.09.12.18.2.24-.13.36-.26.36-.4,0-.07-.02-.13-.07-.17-.05-.04-.12-.07-.2-.07-.1,0-.18.02-.23.07ZM395.72,285.77l.44.37-.8.9-.49-.42c-.46.29-.97.44-1.54.44-.37,0-.69-.06-.99-.17-.29-.12-.52-.28-.69-.48-.17-.2-.25-.43-.25-.69,0-.29.07-.54.22-.76s.37-.41.68-.58c-.26-.28-.4-.58-.4-.88,0-.25.07-.46.21-.65.14-.19.33-.33.58-.44.25-.11.54-.16.87-.16.3,0,.57.05.8.14.23.09.41.23.54.41.13.18.19.38.19.62s-.06.44-.19.62c-.13.18-.33.35-.6.5l.49.42c.08-.18.14-.38.18-.6l1.19.36c-.09.39-.23.73-.44,1.04ZM393.96,285.84l-.84-.73c-.17.12-.26.27-.26.44,0,.11.05.21.16.28.1.07.25.11.43.11s.35-.04.52-.11Z" fill="#942934"/><path d="M393.34,283.29c-.06.05-.08.11-.08.19,0,.06.02.11.05.16.03.05.09.12.18.2.24-.13.36-.26.36-.4,0-.07-.02-.13-.07-.17-.05-.04-.12-.07-.2-.07-.1,0-.18.02-.23.07ZM395.72,285.77l.44.37-.8.9-.49-.42c-.46.29-.97.44-1.54.44-.37,0-.69-.06-.99-.17-.29-.12-.52-.28-.69-.48-.17-.2-.25-.43-.25-.69,0-.29.07-.54.22-.76s.37-.41.68-.58c-.26-.28-.4-.58-.4-.88,0-.25.07-.46.21-.65.14-.19.33-.33.58-.44.25-.11.54-.16.87-.16.3,0,.57.05.8.14.23.09.41.23.54.41.13.18.19.38.19.62s-.06.44-.19.62c-.13.18-.33.35-.6.5l.49.42c.08-.18.14-.38.18-.6l1.19.36c-.09.39-.23.73-.44,1.04ZM393.96,285.84l-.84-.73c-.17.12-.26.27-.26.44,0,.11.05.21.16.28.1.07.25.11.43.11s.35-.04.52-.11Z" fill="#942934"/><path d="M393.34,283.29c-.06.05-.08.11-.08.19,0,.06.02.11.05.16.03.05.09.12.18.2.24-.13.36-.26.36-.4,0-.07-.02-.13-.07-.17-.05-.04-.12-.07-.2-.07-.1,0-.18.02-.23.07ZM395.72,285.76l.44.37-.8.9-.49-.42c-.46.29-.97.44-1.54.44-.37,0-.69-.06-.99-.17-.29-.12-.52-.28-.69-.48-.17-.2-.25-.43-.25-.69,0-.29.07-.54.22-.76s.37-.41.68-.58c-.26-.28-.4-.58-.4-.88,0-.25.07-.46.21-.65.14-.19.33-.33.58-.44.25-.11.54-.16.87-.16.3,0,.57.05.8.14.23.09.41.23.54.41.13.18.19.38.19.62s-.06.44-.19.62c-.13.18-.33.35-.6.5l.49.42c.08-.18.14-.38.18-.6l1.19.36c-.09.39-.23.73-.44,1.04ZM393.96,285.84l-.84-.73c-.17.12-.26.27-.26.44,0,.11.05.21.16.28.1.07.25.11.43.11s.35-.04.52-.11Z" fill="#942934"/><path d="M393.34,283.29c-.06.05-.08.11-.08.19,0,.06.02.11.05.16.03.05.09.12.18.2.24-.13.36-.26.36-.4,0-.07-.02-.13-.07-.17-.05-.04-.12-.07-.2-.07-.1,0-.18.02-.23.07ZM395.72,285.76l.44.37-.8.9-.49-.42c-.46.29-.97.44-1.54.44-.37,0-.69-.06-.99-.17-.29-.12-.52-.28-.69-.48-.17-.2-.25-.43-.25-.69,0-.29.07-.54.22-.76s.37-.41.68-.58c-.26-.28-.4-.58-.4-.88,0-.25.07-.46.21-.65.14-.19.33-.33.58-.44.25-.11.54-.16.87-.16.3,0,.57.05.8.14.23.09.41.23.54.41.13.18.19.38.19.62s-.06.44-.19.62c-.13.18-.33.35-.6.5l.49.42c.08-.18.14-.38.18-.6l1.19.36c-.09.39-.23.73-.44,1.04ZM393.96,285.83l-.84-.73c-.17.12-.26.27-.26.44,0,.11.05.21.16.28.1.07.25.11.43.11s.35-.04.52-.11Z" fill="#942934"/><path d="M393.34,283.29c-.06.05-.08.11-.08.19,0,.06.02.11.05.16.03.05.09.12.18.2.24-.13.36-.26.36-.4,0-.07-.02-.13-.07-.17-.05-.04-.12-.07-.2-.07-.1,0-.18.02-.23.07ZM395.73,285.76l.44.37-.8.9-.49-.42c-.46.29-.97.44-1.54.44-.37,0-.69-.06-.99-.17-.29-.12-.52-.28-.69-.48-.17-.2-.25-.43-.25-.69,0-.29.07-.54.22-.76s.37-.41.68-.58c-.26-.28-.4-.58-.4-.88,0-.25.07-.46.21-.65.14-.19.33-.33.58-.44.25-.11.54-.16.87-.16.3,0,.57.05.8.14.23.09.41.23.54.41.13.18.19.38.19.62s-.06.44-.19.62c-.13.18-.33.35-.6.5l.49.42c.08-.18.14-.38.18-.6l1.19.36c-.09.39-.23.73-.44,1.04ZM393.97,285.83l-.84-.73c-.17.12-.26.27-.26.44,0,.11.05.21.16.28.1.07.25.11.43.11s.35-.04.52-.11Z" fill="#942934"/><path d="M393.35,283.29c-.06.05-.08.11-.08.19,0,.06.02.11.05.16.03.05.09.12.18.2.24-.13.36-.26.36-.4,0-.07-.02-.13-.07-.17-.05-.04-.12-.07-.2-.07-.1,0-.18.02-.23.07ZM395.73,285.76l.44.37-.8.9-.49-.42c-.46.29-.97.44-1.54.44-.37,0-.69-.06-.99-.17-.29-.12-.52-.28-.69-.48-.17-.2-.25-.43-.25-.69,0-.29.07-.54.22-.76s.37-.41.68-.58c-.26-.28-.4-.58-.4-.88,0-.25.07-.46.21-.65.14-.19.33-.33.58-.44.25-.11.54-.16.87-.16.3,0,.57.05.8.14.23.09.41.23.54.41.13.18.19.38.19.62s-.06.44-.19.62c-.13.18-.33.35-.6.5l.49.42c.08-.18.14-.38.18-.6l1.19.36c-.09.39-.23.73-.44,1.04ZM393.97,285.83l-.84-.73c-.17.12-.26.27-.26.44,0,.11.05.21.16.28.1.07.25.11.43.11s.35-.04.52-.11Z" fill="#942934"/><path d="M393.35,283.29c-.06.05-.08.11-.08.19,0,.06.02.11.05.16.03.05.09.12.18.2.24-.13.36-.26.36-.4,0-.07-.02-.13-.07-.17-.05-.04-.12-.07-.2-.07-.1,0-.18.02-.23.07ZM395.73,285.76l.44.37-.8.9-.49-.42c-.46.29-.97.44-1.54.44-.37,0-.69-.06-.99-.17-.29-.12-.52-.28-.69-.48-.17-.2-.25-.43-.25-.69,0-.29.07-.54.22-.76s.37-.41.68-.58c-.26-.28-.4-.58-.4-.88,0-.25.07-.46.21-.65.14-.19.33-.33.58-.44.25-.11.54-.16.87-.16.3,0,.57.05.8.14.23.09.41.23.54.41.13.18.19.38.19.62s-.06.44-.19.62c-.13.18-.33.35-.6.5l.49.42c.08-.18.14-.38.18-.6l1.19.36c-.09.39-.23.73-.44,1.04ZM393.97,285.83l-.84-.73c-.17.12-.26.27-.26.44,0,.11.05.21.16.28.1.07.25.11.43.11s.35-.04.52-.11Z" fill="#942934"/><path d="M393.35,283.28c-.06.05-.08.11-.08.19,0,.06.02.11.05.16.03.05.09.12.18.2.24-.13.36-.26.36-.4,0-.07-.02-.13-.07-.17-.05-.04-.12-.07-.2-.07-.1,0-.18.02-.23.07ZM395.74,285.76l.44.37-.8.9-.49-.42c-.46.29-.97.44-1.54.44-.37,0-.69-.06-.99-.17-.29-.12-.52-.28-.69-.48-.17-.2-.25-.43-.25-.69,0-.29.07-.54.22-.76s.37-.41.68-.58c-.26-.28-.4-.58-.4-.88,0-.25.07-.46.21-.65.14-.19.33-.33.58-.44.25-.11.54-.16.87-.16.3,0,.57.05.8.14.23.09.41.23.54.41.13.18.19.38.19.62s-.06.44-.19.62c-.13.18-.33.35-.6.5l.49.42c.08-.18.14-.38.18-.6l1.19.36c-.09.39-.23.73-.44,1.04ZM393.97,285.83l-.84-.73c-.17.12-.26.27-.26.44,0,.11.05.21.16.28.1.07.25.11.43.11s.35-.04.52-.11Z" fill="#942934"/><path d="M395.74,285.76l.44.37-.8.9-.49-.42c-.46.29-.97.44-1.54.44-.37,0-.69-.06-.99-.17-.29-.12-.52-.28-.69-.48-.17-.2-.25-.43-.25-.69,0-.29.07-.54.22-.76s.37-.41.68-.58c-.26-.28-.4-.58-.4-.88,0-.25.07-.46.21-.65.14-.19.33-.33.58-.44.25-.11.54-.16.87-.16.3,0,.57.05.8.14.23.09.41.23.54.41.13.18.19.38.19.62s-.06.44-.19.62c-.13.18-.33.35-.6.5l.49.42c.08-.18.14-.38.18-.6l1.19.36c-.09.39-.23.73-.44,1.04ZM393.97,285.83l-.84-.73c-.17.12-.26.27-.26.44,0,.11.05.21.16.28.1.07.25.11.43.11s.35-.04.52-.11ZM393.35,283.28c-.06.05-.08.11-.08.19,0,.06.02.11.05.16.03.05.09.12.18.2.24-.13.36-.26.36-.4,0-.07-.02-.13-.07-.17-.05-.04-.12-.07-.2-.07-.1,0-.18.02-.23.07Z" fill="#fff"/><path d="M403.14,291.44l-.09-.16h-.06v.16h-.1v-.47h.19s.06,0,.08.02.04.03.06.06c.01.02.02.05.02.08s0,.06-.02.08c-.02.02-.04.04-.06.05l.1.18h-.11ZM402.98,291.07v.12h.08s.04,0,.05-.02c.01-.01.02-.03.02-.04,0-.01,0-.02,0-.03,0,0-.01-.02-.02-.02-.01,0-.02,0-.04,0h-.08Z" fill="#685f2f"/><path d="M403.06,291.69c-.27,0-.48-.22-.48-.48s.22-.48.48-.48.48.22.48.48-.22.48-.48.48ZM403.06,290.8c-.23,0-.41.18-.41.41s.18.41.41.41.41-.18.41-.41-.18-.41-.41-.41Z" fill="#685f2f"/></svg>