<?xml version="1.0" encoding="UTF-8"?><svg id="Capa_1" xmlns="http://www.w3.org/2000/svg" viewBox="0 0 792 612"><path d="M516.64,223.12h-1.23s0,4.53,0,4.53l-18.41,11.48c-60.89,37.98-137.98,38.47-199.34,1.25l-21.63-13.12v-4.53s-1.22,0-1.22,0c-1.32,0-2.4,1.08-2.4,2.4l-.3,186.76c-.04,25.82,16.17,48.05,38.92,56.99,6.86,2.69,14.3,4.2,22.08,4.21l33.85.05,52.54.08,38.44.06c8.44.01,16.5-1.73,23.83-4.86,21.65-9.27,36.93-30.8,36.97-55.74l.3-187.16c0-1.32-1.08-2.4-2.4-2.4Z" fill="#942934"/><path d="M515.66,66.03s0,.1,0,.19c0-.06,0-.11,0-.19Z" fill="none"/><path d="M515.66,68.58c0-.24,0-.48,0-.72v-1.14s0-.07,0-.11c0,.71,0,1.8,0,1.97Z" fill="none"/><path d="M515.65,76.02c0,.09,0,.15,0,.22v-.22Z" fill="#7f7339"/><path d="M276.25,86.44c0-.42,0-.89,0-1.41v1.41Z" fill="#7f7339"/><path d="M515.65,74.9v.59c0-.18,0-.38,0-.59Z" fill="#942934"/><path d="M515.65,73.6v.95c0-.29,0-.61,0-.95Z" fill="#942934"/><path d="M515.66,68.58v2.6c0-.85,0-1.73,0-2.6Z" fill="#942934"/><path d="M515.66,66.62s0,.08,0,.11v-.7c0,.07,0,.13,0,.19,0,.1,0,.25,0,.4Z" fill="#942934"/><path d="M515.66,66.72v1.14c0-.78,0-.94,0-1.14Z" fill="#942934"/><path d="M276.25,88.29h0s0-.91,0-.91c0,.58,0,.91,0,.91Z" fill="#942934"/><path d="M515.65,76.23v.23s0-.11,0-.23Z" fill="#942934"/><path d="M276.25,85.03c0-.55,0-1.14,0-1.78v1.78Z" fill="#942934"/><path d="M276.25,87.38c0-.26,0-.58,0-.94v.94Z" fill="#942934"/><path d="M276.26,81.52c0-1.29,0-2.67,0-4.06v4.06Z" fill="#942934"/><path d="M515.65,74.55c0,.12,0,.24,0,.35v-.35Z" fill="#942934"/><path d="M515.65,71.67c0,.68,0,1.33,0,1.92v-1.92Z" fill="#942934"/><path d="M515.66,66.62c0-.16,0-.3,0-.4,0,.19,0,.31,0,.4Z" fill="#942934"/><path d="M333.1,473.08c-7.78-.01-15.23-1.52-22.08-4.21h0s-6.84,12.23-36.37,57.61c0,0,31.28,4.13,39.45-7.19,0,0,15.38,22.69,43.52,1.88l.63.44c2.54-10.27,5.78-29.03,8.72-48.48l-33.85-.05Z" fill="#7f7130"/><path d="M419.5,473.22h0c3.83,14,7.48,33.24,11.56,47.17l24.01,10.47s6.8,3.18,12.7-.43c5.9-3.62,12.25-8.59,12.25-8.59,0,0,9.5,10.44,35.81,6.4l-34.06-59.81h0c-7.33,3.13-15.38,4.87-23.83,4.86l-38.44-.06Z" fill="#7f7130"/><path d="M419.5,473.22l-52.54-.08c-2.94,19.46-6.18,38.21-8.72,48.48l8.99,6.33,20.72,14.58s3.2,3.64,7.27,3.43c.42-.02.86-.09,1.3-.21.26-.07.51-.15.77-.26.39-.15.78-.35,1.17-.59.48-.29.96-.65,1.44-1.09.4-.36.79-.78,1.19-1.26l6.36-7.7,23.6-14.47c-4.08-13.93-7.73-33.17-11.56-47.17h0Z" fill="#685f2f"/><path d="M287.68,98.6c12.18,9.55,26.12,17.12,40.88,21.88,15.29,4.93,34.59,6.89,47.65,16.71,11.88,8.94,19.62,22.96,19.58,37.99.03-15.6,6.46-32.42,20.04-41.13,11.84-7.59,26.29-10.04,39.45-14.74,40.66-14.53,60.36-37.18,60.36-42.83h0v-.25c0-.06,0-.13,0-.22v-.38s0-.09,0-.15v-.59c0-.11,0-.23,0-.35v-.95c0-.59,0-1.24,0-1.92,0-.16,0-.33,0-.49v-2.6c0-.17,0-1.26,0-1.97,0-.09,0-.22,0-.4,0-.09,0-.15,0-.19,0,0-5.13,0-5.13,0,.13,0-1.55,3.16-1.94,3.78-8.87,14.52-31.24,23.47-47.66,21.78-11.05-1.14-21.1-6.08-31.38-9.91-10.8-4.03-22.05-6.16-33.6-6.1-32.19.17-57.74,20.99-71.36,21.37-18.8.53-42.95-13.06-43.05-30.92l-5.26.03s0,4.76-.02,9.87v1.2c0,.11,0,.22,0,.33,0,1.39,0,2.77,0,4.06,0,.6,0,1.18,0,1.73,0,.64,0,1.23,0,1.78,0,.52,0,.99,0,1.41,0,.36,0,.68,0,.94v.91c0,2.76,9.43,8.74,11.43,10.31Z" fill="#942934"/><path d="M455.28,119.32c-13.16,4.7-27.61,7.15-39.45,14.74-13.58,8.7-20.01,25.53-20.04,41.13.03-15.04-7.7-29.05-19.58-37.99-13.06-9.82-32.36-11.78-47.65-16.71-14.76-4.76-28.7-12.33-40.88-21.88-2-1.57-11.43-7.55-11.43-10.31l-.22,134.44v4.53s21.62,13.12,21.62,13.12c61.37,37.21,138.45,36.73,199.34-1.25l18.41-11.48v-4.53s.24-146.64.24-146.64c0,5.65-19.71,28.31-60.36,42.83Z" fill="#7f7339"/><circle cx="343.53" cy="174.06" r="37.36" fill="#eae9e7"/><circle cx="343.53" cy="174.06" r="22.39" fill="#685f2f"/><circle cx="343.53" cy="174.06" r="9.75" fill="#151717"/><circle cx="448.71" cy="174.23" r="37.36" fill="#eae9e7"/><circle cx="448.71" cy="174.23" r="22.39" fill="#685f2f"/><circle cx="448.71" cy="174.23" r="9.75" fill="#151717"/><path d="M393,254.37l-6.53-23.48c-3.01-10.84-2.43-22.37,1.66-32.85l4.86-12.45c.86-2.2,3.96-2.26,4.9-.09l6.24,14.32c3.85,8.83,4.47,18.73,1.77,27.97l-7.79,26.62c-.75,2.56-4.38,2.54-5.1-.03Z" fill="#151717"/><path d="M571.86,351.42c-3.13,39.13-28.74,71.92-65.47,90.23l5.61-196c42.46,22.97,63.46,60.91,59.87,105.77Z" fill="#7f7130"/><path d="M219.88,349.15c1.82,39.21,26.33,72.84,62.43,92.37l.33-195.74c-43.2,21.54-64.84,58.42-62.75,103.37Z" fill="#7f7130"/><path d="M350.85,461.57c-3.09,0-5.85,1.09-7.71,2.81-1.85-1.73-4.61-2.83-7.7-2.83-5.59,0-10.13,3.57-10.14,7.99,0,4.42,4.52,8.02,10.11,8.03.99,0,1.94-.11,2.85-.32,1.09.21,2.27.33,3.5.33,1.82,0,3.52-.24,4.99-.67,1.25.44,2.62.69,4.07.69,5.59,0,10.13-3.57,10.14-7.99,0-4.42-4.52-8.02-10.11-8.03Z" fill="#764912"/><ellipse cx="331.3" cy="477.59" rx="6.8" ry="3.55" transform="translate(-214.42 677.7) rotate(-75.39)" fill="#151717"/><ellipse cx="342.59" cy="478.04" rx="6.8" ry="3.55" transform="translate(-136 819.86) rotate(-89.91)" fill="#151717"/><ellipse cx="353.01" cy="477.59" rx="3.55" ry="6.8" transform="translate(-64.25 54.98) rotate(-8.17)" fill="#151717"/><path d="M452.04,462.63c-3.09,0-5.85,1.09-7.71,2.81-1.85-1.73-4.61-2.83-7.7-2.83-5.59,0-10.13,3.57-10.14,7.99,0,4.42,4.52,8.02,10.11,8.03.99,0,1.94-.11,2.85-.32,1.09.21,2.27.33,3.5.33,1.82,0,3.52-.24,4.99-.67,1.25.44,2.62.69,4.07.69,5.59,0,10.13-3.57,10.14-7.99,0-4.42-4.52-8.02-10.11-8.03Z" fill="#764912"/><ellipse cx="433.66" cy="476.62" rx="6.8" ry="3.55" transform="translate(-140.38 769.36) rotate(-74.72)" fill="#151717"/><ellipse cx="444.04" cy="479.45" rx="6.8" ry="3.55" transform="translate(-36.13 922.71) rotate(-89.91)" fill="#151717"/><ellipse cx="455.4" cy="476.62" rx="3.55" ry="6.8" transform="translate(-150.12 216.03) rotate(-23.02)" fill="#151717"/><path d="M386.06,295.84l-26.93,100.36c-.2.76.19,1.53,1.1,2.17l27.88,19.63c2.98,2.1,9.87,2.03,12.63-.13l24.6-19.26c.75-.59,1.08-1.27.94-1.95l-20.93-100.74c-.35-1.7-3.54-3-7.35-3h-4.62c-3.74,0-6.88,1.25-7.33,2.91Z" fill="#bbdde1"/><path d="M401.65,297.96h-11.47c-1.78,0-3.35-1.18-3.86-2.89l-5.32-18.11c-.76-2.57,1.17-5.15,3.86-5.15h23.09c2.77,0,4.71,2.73,3.8,5.34l-6.3,18.11c-.56,1.62-2.09,2.7-3.8,2.7Z" fill="#92b8bc"/><path d="M513.61,220.67l-108.09,48.77c-2.79,1.26-2.44,3.8.64,4.53l72.06,17.16c2.34.56,5.1-.27,5.93-1.78l36.03-65.93c1.33-2.44-3.12-4.3-6.56-2.75Z" fill="#bbdde1"/><path d="M277.8,220.67l108.09,48.77c2.79,1.26,2.44,3.8-.64,4.53l-72.06,17.16c-2.34.56-5.1-.27-5.93-1.78l-36.03-65.93c-1.33-2.44,3.12-4.3,6.56-2.75Z" fill="#bbdde1"/><path d="M390.16,376.13c-.45-.48-.69-.98-.71-1.51h-4.86v-2.54h7.05v-3.77h-12.04v14.82h5v-4.74h3.95c.02-.46.15-.87.39-1.22.26-.39.67-.73,1.23-1.04Z" fill="#685f2f"/><path d="M401.75,379.23c-1.04,0-1.88-.34-2.52-1.01-.63-.67-.95-1.57-.95-2.7s.32-2.03.95-2.7c.64-.67,1.47-1.01,2.52-1.01,1.24,0,2.32.58,3.24,1.74l3.15-2.82c-.73-.96-1.67-1.69-2.79-2.2-1.13-.51-2.41-.76-3.85-.76-1.57,0-2.98.33-4.23.98-1.26.66-2.24,1.57-2.95,2.75-.19.31-.35.64-.49.98.03.01.06.02.09.03.42.17.74.42.97.74.23.32.35.69.35,1.12s-.12.8-.35,1.13c-.23.33-.6.63-1.09.91l.88.75c.14-.32.25-.68.32-1.09l2.16.64c-.16.7-.42,1.33-.79,1.89l.79.67-1.44,1.64-.88-.76s-.04.02-.06.03c.66.87,1.49,1.57,2.5,2.1,1.26.66,2.67.98,4.23.98,1.44,0,2.72-.25,3.85-.76,1.13-.51,2.06-1.24,2.79-2.2l-3.15-2.82c-.92,1.16-2,1.74-3.24,1.74Z" fill="#685f2f"/><path d="M405.03,386c-.04-.08-.11-.15-.18-.19-.08-.05-.17-.07-.27-.07s-.2.02-.27.07c-.08.05-.14.11-.18.2-.03.05-.04.1-.05.16h1.02c0-.06-.03-.12-.05-.17Z" fill="none"/><path d="M399.81,385.88c-.08-.05-.17-.07-.27-.07s-.19.02-.26.07c-.08.05-.14.11-.19.2-.05.09-.07.19-.07.32s.02.23.07.32c.05.09.11.16.19.2.08.05.17.07.26.07s.19-.02.27-.07c.08-.05.14-.11.19-.2.05-.09.07-.2.07-.32s-.02-.23-.07-.32c-.05-.09-.11-.15-.19-.2Z" fill="none"/><path d="M384.2,385.88c-.08-.05-.17-.07-.27-.07s-.19.02-.26.07c-.08.05-.14.11-.19.2-.05.09-.07.19-.07.32s.02.23.07.32c.05.09.11.16.19.2.08.05.17.07.26.07s.19-.02.27-.07c.08-.05.14-.11.19-.2.05-.09.07-.2.07-.32s-.02-.23-.07-.32c-.05-.09-.11-.15-.19-.2Z" fill="none"/><path d="M380.42,385.38c.08-.08.17-.14.28-.19.11-.04.23-.06.36-.06.15,0,.29.03.42.1.12.06.24.16.34.28l.58-.52c-.16-.2-.35-.35-.59-.45-.23-.1-.5-.16-.8-.16-.25,0-.49.04-.7.12-.22.08-.4.2-.56.35-.16.15-.28.33-.37.53-.09.2-.13.43-.13.67s.04.47.13.67c.09.2.21.38.37.53.16.15.34.27.56.35.22.08.45.12.7.12.3,0,.56-.05.8-.16.23-.11.43-.25.59-.45l-.58-.52c-.1.12-.22.22-.34.28-.12.06-.26.1-.42.1-.13,0-.25-.02-.36-.06-.11-.04-.2-.1-.28-.19-.08-.08-.14-.18-.18-.29-.04-.11-.07-.24-.07-.38s.02-.26.07-.38c.04-.11.11-.21.18-.29Z" fill="#942934"/><path d="M384.66,385.29c-.21-.11-.46-.16-.73-.16s-.51.05-.73.16c-.21.11-.38.26-.5.45-.12.19-.18.41-.18.67s.06.47.18.67c.12.19.29.35.5.46.21.11.45.17.73.17s.52-.06.73-.17c.21-.11.38-.26.5-.46.12-.19.18-.42.18-.67s-.06-.47-.18-.67c-.12-.19-.29-.34-.5-.45ZM384.39,386.73c-.05.09-.11.16-.19.2-.08.05-.17.07-.27.07s-.19-.02-.26-.07c-.08-.05-.14-.11-.19-.2-.05-.09-.07-.2-.07-.32s.02-.23.07-.32c.05-.09.11-.15.19-.2.08-.05.17-.07.26-.07s.19.02.27.07c.08.05.14.11.19.2.05.09.07.19.07.32s-.02.23-.07.32Z" fill="#942934"/><path d="M387.89,385.24c-.16-.08-.33-.12-.52-.12-.21,0-.39.05-.56.14-.09.05-.16.11-.23.18v.43l-.16-.21c.05-.09.1-.16.16-.23v-.27h-.83v2.49h.87v-1.2c0-.14.02-.25.06-.34.04-.09.1-.15.18-.19.08-.04.16-.06.25-.06.13,0,.23.04.3.12.07.08.11.21.11.39v1.28h.87v-1.42c0-.26-.05-.47-.14-.63-.09-.16-.21-.28-.37-.36Z" fill="#942934"/><path d="M386.57,385.87v-.43c-.06.07-.12.14-.16.23l.16.21Z" fill="#942934"/><path d="M390.79,386.31c-.09-.05-.18-.09-.29-.12-.11-.03-.21-.05-.31-.06-.1-.01-.2-.03-.29-.04-.09-.01-.16-.03-.21-.06-.05-.03-.08-.06-.08-.11s.03-.09.09-.12c.06-.03.16-.05.31-.05.11,0,.23.01.35.04.12.03.24.07.37.14l.26-.59c-.12-.07-.27-.12-.45-.16-.18-.04-.36-.05-.53-.05-.26,0-.48.04-.66.11-.18.07-.32.17-.41.29-.09.12-.14.27-.14.42,0,.14.03.26.08.35.05.09.12.16.21.22.09.05.18.09.29.12.11.03.21.05.31.06.1.02.2.03.29.04.09.01.16.03.21.05.05.02.08.06.08.11,0,.05-.03.09-.08.12-.06.03-.16.05-.31.05s-.3-.02-.46-.06c-.16-.04-.29-.1-.41-.17l-.26.6c.12.07.28.13.48.18.2.05.41.07.62.07.27,0,.5-.04.68-.11.18-.07.32-.17.41-.29.09-.12.14-.26.14-.41,0-.14-.03-.26-.08-.35-.05-.09-.12-.16-.21-.22Z" fill="#942934"/><path d="M393.24,386.95v.44c.06-.07.12-.15.16-.24l-.16-.2Z" fill="#942934"/><path d="M393.2,386.36c0,.14-.02.25-.06.34-.04.09-.1.15-.17.19-.07.04-.15.06-.23.06-.13,0-.23-.04-.31-.12-.07-.08-.11-.22-.11-.41v-1.25h-.87v1.39c0,.26.05.48.14.65.09.17.22.29.38.37.16.08.34.12.54.12.19,0,.37-.05.53-.14.08-.04.15-.1.21-.17v-.44l.16.2c-.04.09-.1.17-.16.24v.26h.83v-2.49h-.87v1.2Z" fill="#942934"/><rect x="394.63" y="384.25" width=".87" height="3.41" fill="#942934"/><rect x="396.42" y="385.26" width=".87" height=".65" fill="#942934"/><path d="M397.55,387.02c-.08,0-.14-.03-.19-.08s-.07-.12-.07-.21v-.83h-.87v.84c0,.32.09.56.27.71.18.16.43.24.74.24.12,0,.23-.01.34-.03.11-.02.2-.06.27-.11l-.22-.61c-.07.05-.16.08-.27.08Z" fill="#942934"/><rect x="397.29" y="385.26" width=".57" height=".65" fill="#942934"/><rect x="396.05" y="385.26" width=".36" height=".65" fill="#942934"/><rect x="396.42" y="384.61" width=".87" height=".65" fill="#942934"/><path d="M400.27,385.29c-.21-.11-.46-.16-.73-.16s-.51.05-.73.16c-.21.11-.38.26-.5.45-.12.19-.18.41-.18.67s.06.47.18.67c.12.19.29.35.5.46.21.11.45.17.73.17s.52-.06.73-.17c.21-.11.38-.26.5-.46.12-.19.18-.42.18-.67s-.06-.47-.18-.67c-.12-.19-.29-.34-.5-.45ZM400,386.73c-.05.09-.11.16-.19.2-.08.05-.17.07-.27.07s-.19-.02-.26-.07c-.08-.05-.14-.11-.19-.2-.05-.09-.07-.2-.07-.32s.02-.23.07-.32c.05-.09.11-.15.19-.2.08-.05.17-.07.26-.07s.19.02.27.07c.08.05.14.11.19.2.05.09.07.19.07.32s-.02.23-.07.32Z" fill="#942934"/><path d="M402.18,385.46v.43l-.12-.21c.03-.08.07-.15.12-.22v-.3h-.83v2.49h.87v-1.14c0-.22.06-.37.17-.47.11-.1.25-.14.43-.14.03,0,.07,0,.09,0,.03,0,.06,0,.1.01v-.79c-.24,0-.44.05-.6.14-.09.05-.17.12-.23.2Z" fill="#942934"/><path d="M402.18,385.89v-.43c-.05.06-.09.14-.12.22l.12.21Z" fill="#942934"/><path d="M404.05,386.3s0-.09.01-.13h-.15v.46h.16c-.02-.06-.02-.12-.02-.19v-.13Z" fill="#942934"/><path d="M405.24,385.27c-.2-.1-.43-.15-.67-.15-.26,0-.49.05-.7.16-.21.11-.37.26-.49.45-.12.19-.18.42-.18.66s.06.47.18.66c.12.19.29.35.51.46.22.11.48.17.77.17.24,0,.45-.03.62-.1.17-.07.32-.17.44-.3l-.46-.48c-.09.07-.17.13-.26.16-.09.04-.19.05-.31.05-.13,0-.24-.02-.34-.07-.09-.05-.17-.12-.22-.2-.02-.04-.04-.08-.05-.12h-.16v-.46h.15c.01-.06.03-.11.05-.16.04-.08.1-.15.18-.2.08-.05.17-.07.27-.07s.2.02.27.07c.08.05.14.11.18.19.03.05.04.1.05.17h.34l-.33.13s0-.09,0-.13h-1.02s-.01.09-.01.13v.13c0,.07,0,.13.02.19h1.81s0-.07,0-.11c0-.04,0-.07,0-.11,0-.28-.06-.51-.18-.7-.12-.19-.28-.34-.48-.44Z" fill="#942934"/><path d="M405.42,386.17h-.34s.01.08,0,.13l.33-.13Z" fill="#942934"/><path d="M408.36,386.53c-.05-.09-.12-.16-.21-.22-.09-.05-.18-.09-.29-.12-.11-.03-.21-.05-.31-.06-.1-.01-.2-.03-.29-.04-.09-.01-.16-.03-.21-.06-.05-.03-.08-.06-.08-.11s.03-.09.09-.12c.06-.03.16-.05.31-.05.11,0,.23.01.35.04.12.03.24.07.37.14l.26-.59c-.12-.07-.27-.12-.45-.16-.18-.04-.36-.05-.53-.05-.26,0-.48.04-.66.11-.18.07-.32.17-.41.29-.09.12-.14.27-.14.42,0,.14.03.26.08.35.05.09.12.16.21.22.09.05.18.09.29.12.11.03.21.05.31.06.1.02.2.03.29.04.09.01.16.03.21.05.05.02.08.06.08.11,0,.05-.03.09-.08.12s-.16.05-.31.05-.3-.02-.46-.06c-.16-.04-.29-.1-.41-.17l-.26.6c.12.07.28.13.48.18.2.05.41.07.62.07.27,0,.5-.04.68-.11.18-.07.32-.17.41-.29.09-.12.14-.26.14-.41,0-.14-.03-.26-.08-.35Z" fill="#942934"/><rect x="379.28" y="388.44" width="29.18" height=".3" fill="#942934"/><path d="M380.08,389.64v.34h.49v.12h-.49v.4h-.14v-.98h.69v.12h-.55Z" fill="#685f2f"/><path d="M380.9,390.46c-.06-.03-.1-.08-.14-.13-.03-.06-.05-.12-.05-.2s.02-.14.05-.19c.03-.06.08-.1.14-.13.06-.03.12-.05.2-.05s.14.02.2.05c.06.03.1.08.14.13.03.06.05.12.05.19s-.02.14-.05.2c-.03.06-.08.1-.14.13-.06.03-.12.05-.2.05s-.14-.02-.2-.05ZM381.23,390.35s.07-.05.09-.09c.02-.04.03-.08.03-.14s-.01-.1-.03-.14c-.02-.04-.05-.07-.09-.09-.04-.02-.08-.03-.13-.03s-.09.01-.13.03c-.04.02-.07.05-.09.09-.02.04-.03.08-.03.14s.01.1.03.14c.02.04.05.07.09.09s.08.03.13.03.09-.01.13-.03Z" fill="#685f2f"/><path d="M381.9,389.78s.1-.03.17-.03v.13s-.02,0-.03,0c-.07,0-.13.02-.17.06-.04.04-.06.11-.06.19v.37h-.13v-.74h.13v.12s.06-.08.1-.1Z" fill="#685f2f"/><path d="M383.38,389.83c.05.05.08.13.08.24v.43h-.13v-.41c0-.07-.02-.13-.05-.16-.03-.04-.08-.05-.14-.05-.07,0-.12.02-.16.06-.04.04-.06.1-.06.18v.38h-.13v-.41c0-.07-.02-.13-.05-.16-.03-.04-.08-.05-.14-.05-.07,0-.12.02-.16.06-.04.04-.06.1-.06.18v.38h-.13v-.74h.13v.11s.06-.07.11-.09c.04-.02.09-.03.15-.03s.11.01.15.03c.04.02.08.06.1.1.03-.04.07-.08.12-.1s.11-.04.17-.04c.09,0,.17.03.22.08Z" fill="#685f2f"/><path d="M384.22,389.82c.05.05.08.13.08.23v.45h-.13v-.1s-.05.06-.1.08c-.04.02-.09.03-.15.03-.08,0-.15-.02-.2-.06-.05-.04-.07-.09-.07-.16s.02-.12.07-.16c.05-.04.12-.06.23-.06h.21v-.03c0-.06-.02-.1-.05-.13s-.08-.05-.15-.05c-.04,0-.09,0-.13.02-.04.01-.08.03-.11.06l-.06-.1s.08-.05.14-.07c.05-.02.11-.02.17-.02.1,0,.18.03.24.08ZM384.08,390.37s.06-.06.08-.1v-.1h-.21c-.11,0-.17.04-.17.11,0,.04.01.07.04.09s.07.03.12.03.1-.01.13-.03Z" fill="#685f2f"/><path d="M384.67,390.46c-.06-.03-.11-.08-.14-.13s-.05-.12-.05-.2.02-.14.05-.19c.03-.06.08-.1.14-.13.06-.03.13-.05.2-.05.07,0,.13.01.18.04.05.03.09.07.12.12l-.1.07s-.05-.06-.09-.08c-.03-.02-.07-.03-.11-.03-.05,0-.09.01-.13.03-.04.02-.07.05-.09.09-.02.04-.03.08-.03.14s.01.1.03.14c.02.04.05.07.09.09s.08.03.13.03c.04,0,.08,0,.11-.03.03-.02.06-.04.09-.08l.1.06c-.03.05-.07.09-.12.12-.05.03-.11.04-.18.04-.08,0-.14-.02-.2-.05Z" fill="#685f2f"/><path d="M385.35,389.59s-.03-.04-.03-.06,0-.04.03-.06c.02-.02.04-.03.06-.03s.05,0,.07.02c.02.02.03.04.03.06s0,.05-.03.06c-.02.02-.04.03-.07.03s-.05,0-.06-.03ZM385.35,389.76h.13v.74h-.13v-.74Z" fill="#685f2f"/><path d="M385.86,390.46c-.06-.03-.1-.08-.14-.13-.03-.06-.05-.12-.05-.2s.02-.14.05-.19c.03-.06.08-.1.14-.13.06-.03.12-.05.2-.05s.14.02.2.05c.06.03.1.08.14.13.03.06.05.12.05.19s-.02.14-.05.2c-.03.06-.08.1-.14.13-.06.03-.12.05-.2.05s-.14-.02-.2-.05ZM386.19,390.35s.07-.05.09-.09c.02-.04.03-.08.03-.14s-.01-.1-.03-.14c-.02-.04-.05-.07-.09-.09-.04-.02-.08-.03-.13-.03s-.09.01-.13.03c-.04.02-.07.05-.09.09-.02.04-.03.08-.03.14s.01.1.03.14c.02.04.05.07.09.09s.08.03.13.03.09-.01.13-.03ZM386.14,389.47h.17l-.23.18h-.13l.19-.18Z" fill="#685f2f"/><path d="M387.25,389.83c.06.05.08.13.08.24v.43h-.13v-.41c0-.07-.02-.13-.05-.16-.03-.04-.08-.05-.15-.05-.07,0-.13.02-.17.06-.04.04-.06.1-.06.18v.38h-.13v-.74h.13v.11s.06-.07.11-.09.1-.03.16-.03c.09,0,.17.03.22.08Z" fill="#685f2f"/><path d="M388.61,389.76l-.36.81c-.03.08-.07.13-.11.16s-.09.05-.15.05c-.04,0-.07,0-.11-.02-.03-.01-.06-.03-.08-.05l.06-.1s.08.05.13.05c.03,0,.06,0,.08-.03.02-.02.04-.05.06-.09l.02-.05-.33-.74h.14l.26.59.26-.59h.13Z" fill="#685f2f"/><path d="M389.23,390.46c-.06-.03-.11-.08-.14-.13s-.05-.12-.05-.2.02-.14.05-.19c.03-.06.08-.1.14-.13.06-.03.13-.05.2-.05.07,0,.13.01.18.04.05.03.09.07.12.12l-.1.07s-.05-.06-.09-.08c-.03-.02-.07-.03-.11-.03-.05,0-.09.01-.13.03-.04.02-.07.05-.09.09-.02.04-.03.08-.03.14s.01.1.03.14c.02.04.05.07.09.09s.08.03.13.03c.04,0,.08,0,.11-.03.03-.02.06-.04.09-.08l.1.06c-.03.05-.07.09-.12.12-.05.03-.11.04-.18.04-.08,0-.14-.02-.2-.05Z" fill="#685f2f"/><path d="M390.42,389.82c.05.05.08.13.08.23v.45h-.13v-.1s-.05.06-.1.08c-.04.02-.09.03-.15.03-.08,0-.15-.02-.2-.06-.05-.04-.07-.09-.07-.16s.02-.12.07-.16c.05-.04.12-.06.23-.06h.21v-.03c0-.06-.02-.1-.05-.13s-.08-.05-.15-.05c-.04,0-.09,0-.13.02-.04.01-.08.03-.11.06l-.06-.1s.08-.05.14-.07c.05-.02.11-.02.17-.02.1,0,.18.03.24.08ZM390.28,390.37s.06-.06.08-.1v-.1h-.21c-.11,0-.17.04-.17.11,0,.04.01.07.04.09s.07.03.12.03.1-.01.13-.03Z" fill="#685f2f"/><path d="M391.33,389.8c.06.03.1.08.13.13.03.06.05.12.05.2s-.02.14-.05.2c-.03.06-.08.1-.13.13-.06.03-.12.05-.19.05-.05,0-.1-.01-.15-.03s-.08-.05-.11-.09v.38h-.13v-1.01h.13v.12s.07-.07.11-.09c.05-.02.1-.03.15-.03.07,0,.14.02.19.05ZM391.26,390.35s.07-.05.09-.09c.02-.04.03-.08.03-.14s-.01-.1-.03-.14c-.02-.04-.05-.07-.09-.09-.04-.02-.08-.03-.13-.03s-.09.01-.13.03c-.04.02-.07.05-.09.09-.02.04-.03.08-.03.14s.01.1.03.14c.02.04.05.07.09.09s.08.03.13.03.09-.01.13-.03Z" fill="#685f2f"/><path d="M392.2,389.82c.05.05.08.13.08.23v.45h-.13v-.1s-.05.06-.1.08c-.04.02-.09.03-.15.03-.08,0-.15-.02-.2-.06-.05-.04-.07-.09-.07-.16s.02-.12.07-.16c.05-.04.12-.06.23-.06h.21v-.03c0-.06-.02-.1-.05-.13s-.08-.05-.15-.05c-.04,0-.09,0-.13.02-.04.01-.08.03-.11.06l-.06-.1s.08-.05.14-.07c.05-.02.11-.02.17-.02.1,0,.18.03.24.08ZM392.07,390.37s.06-.06.08-.1v-.1h-.21c-.11,0-.17.04-.17.11,0,.04.01.07.04.09s.07.03.12.03.1-.01.13-.03Z" fill="#685f2f"/><path d="M392.65,390.46c-.06-.03-.11-.08-.14-.13s-.05-.12-.05-.2.02-.14.05-.19c.03-.06.08-.1.14-.13.06-.03.13-.05.2-.05.07,0,.13.01.18.04.05.03.09.07.12.12l-.1.07s-.05-.06-.09-.08c-.03-.02-.07-.03-.11-.03-.05,0-.09.01-.13.03-.04.02-.07.05-.09.09-.02.04-.03.08-.03.14s.01.1.03.14c.02.04.05.07.09.09s.08.03.13.03c.04,0,.08,0,.11-.03.03-.02.06-.04.09-.08l.1.06c-.03.05-.07.09-.12.12-.05.03-.11.04-.18.04-.08,0-.14-.02-.2-.05Z" fill="#685f2f"/><path d="M393.33,389.59s-.03-.04-.03-.06,0-.04.03-.06c.02-.02.04-.03.06-.03s.05,0,.07.02c.02.02.03.04.03.06s0,.05-.03.06c-.02.02-.04.03-.07.03s-.05,0-.06-.03ZM393.33,389.76h.13v.74h-.13v-.74Z" fill="#685f2f"/><path d="M394.14,390.45s-.04.03-.07.04c-.03,0-.06.01-.09.01-.07,0-.13-.02-.17-.06-.04-.04-.06-.1-.06-.17v-.41h-.13v-.11h.13v-.16h.13v.16h.21v.11h-.21v.4s0,.07.03.09c.02.02.05.03.09.03.04,0,.08-.01.1-.03l.04.1Z" fill="#685f2f"/><path d="M394.81,389.82c.05.05.08.13.08.23v.45h-.13v-.1s-.05.06-.1.08c-.04.02-.09.03-.15.03-.08,0-.15-.02-.2-.06-.05-.04-.07-.09-.07-.16s.02-.12.07-.16c.05-.04.12-.06.23-.06h.21v-.03c0-.06-.02-.1-.05-.13s-.08-.05-.15-.05c-.04,0-.09,0-.13.02-.04.01-.08.03-.11.06l-.06-.1s.08-.05.14-.07c.05-.02.11-.02.17-.02.1,0,.18.03.24.08ZM394.67,390.37s.06-.06.08-.1v-.1h-.21c-.11,0-.17.04-.17.11,0,.04.01.07.04.09s.07.03.12.03.1-.01.13-.03Z" fill="#685f2f"/><path d="M395.26,390.46c-.06-.03-.11-.08-.14-.13s-.05-.12-.05-.2.02-.14.05-.19c.03-.06.08-.1.14-.13.06-.03.13-.05.2-.05.07,0,.13.01.18.04.05.03.09.07.12.12l-.1.07s-.05-.06-.09-.08c-.03-.02-.07-.03-.11-.03-.05,0-.09.01-.13.03-.04.02-.07.05-.09.09-.02.04-.03.08-.03.14s.01.1.03.14c.02.04.05.07.09.09s.08.03.13.03c.04,0,.08,0,.11-.03.03-.02.06-.04.09-.08l.1.06c-.03.05-.07.09-.12.12-.05.03-.11.04-.18.04-.08,0-.14-.02-.2-.05Z" fill="#685f2f"/><path d="M395.94,389.59s-.03-.04-.03-.06,0-.04.03-.06c.02-.02.04-.03.06-.03s.05,0,.07.02c.02.02.03.04.03.06s0,.05-.03.06c-.02.02-.04.03-.07.03s-.05,0-.06-.03ZM395.94,389.76h.13v.74h-.13v-.74Z" fill="#685f2f"/><path d="M396.45,390.46c-.06-.03-.1-.08-.14-.13-.03-.06-.05-.12-.05-.2s.02-.14.05-.19c.03-.06.08-.1.14-.13.06-.03.12-.05.2-.05s.14.02.2.05c.06.03.1.08.14.13.03.06.05.12.05.19s-.02.14-.05.2c-.03.06-.08.1-.14.13-.06.03-.12.05-.2.05s-.14-.02-.2-.05ZM396.77,390.35s.07-.05.09-.09c.02-.04.03-.08.03-.14s-.01-.1-.03-.14c-.02-.04-.05-.07-.09-.09-.04-.02-.08-.03-.13-.03s-.09.01-.13.03c-.04.02-.07.05-.09.09-.02.04-.03.08-.03.14s.01.1.03.14c.02.04.05.07.09.09s.08.03.13.03.09-.01.13-.03ZM396.73,389.47h.17l-.23.18h-.13l.19-.18Z" fill="#685f2f"/><path d="M397.84,389.83c.06.05.08.13.08.24v.43h-.13v-.41c0-.07-.02-.13-.05-.16-.03-.04-.08-.05-.15-.05-.07,0-.13.02-.17.06-.04.04-.06.1-.06.18v.38h-.13v-.74h.13v.11s.06-.07.11-.09.1-.03.16-.03c.09,0,.17.03.22.08Z" fill="#685f2f"/><path d="M399.21,390.17h-.6c0,.07.04.12.09.16s.11.06.18.06c.09,0,.16-.03.21-.09l.07.09s-.08.07-.12.09c-.05.02-.11.03-.17.03-.08,0-.15-.02-.21-.05s-.11-.08-.14-.13c-.03-.06-.05-.12-.05-.2s.02-.14.05-.19c.03-.06.08-.1.13-.13.06-.03.12-.05.19-.05s.13.02.19.05c.06.03.1.08.13.13.03.06.05.12.05.2,0,.01,0,.02,0,.04ZM398.69,389.92s-.07.09-.08.15h.48c0-.06-.03-.11-.08-.15-.04-.04-.1-.06-.16-.06s-.12.02-.16.06Z" fill="#685f2f"/><path d="M399.44,390.48c-.06-.02-.1-.04-.13-.06l.06-.11s.07.04.12.06c.05.01.09.02.14.02.12,0,.18-.03.18-.1,0-.02,0-.04-.02-.05s-.04-.02-.06-.03c-.02,0-.06-.01-.1-.02-.06,0-.11-.02-.15-.03-.04-.01-.07-.03-.1-.06s-.04-.07-.04-.12c0-.07.03-.12.08-.16.06-.04.13-.06.22-.06.05,0,.1,0,.15.02.05.01.09.03.12.05l-.06.11c-.06-.04-.13-.06-.21-.06-.06,0-.1,0-.13.03-.03.02-.04.04-.04.07,0,.02,0,.04.02.06.02.01.04.02.06.03.02,0,.06.01.1.02.06.01.11.02.14.03.04.01.07.03.09.06.03.03.04.07.04.12,0,.07-.03.12-.09.16-.06.04-.14.06-.23.06-.06,0-.12,0-.17-.02Z" fill="#685f2f"/><path d="M400.69,389.8c.06.03.1.08.13.13.03.06.05.12.05.2s-.02.14-.05.2c-.03.06-.08.1-.13.13-.06.03-.12.05-.19.05-.05,0-.1-.01-.15-.03s-.08-.05-.11-.09v.38h-.13v-1.01h.13v.12s.07-.07.11-.09c.05-.02.1-.03.15-.03.07,0,.14.02.19.05ZM400.61,390.35s.07-.05.09-.09c.02-.04.03-.08.03-.14s-.01-.1-.03-.14c-.02-.04-.05-.07-.09-.09-.04-.02-.08-.03-.13-.03s-.09.01-.13.03c-.04.02-.07.05-.09.09-.02.04-.03.08-.03.14s.01.1.03.14c.02.04.05.07.09.09s.08.03.13.03.09-.01.13-.03Z" fill="#685f2f"/><path d="M401.72,390.17h-.6c0,.07.04.12.09.16s.11.06.18.06c.09,0,.16-.03.21-.09l.07.09s-.08.07-.12.09c-.05.02-.11.03-.17.03-.08,0-.15-.02-.21-.05s-.11-.08-.14-.13c-.03-.06-.05-.12-.05-.2s.02-.14.05-.19c.03-.06.08-.1.13-.13.06-.03.12-.05.19-.05s.13.02.19.05c.06.03.1.08.13.13.03.06.05.12.05.2,0,.01,0,.02,0,.04ZM401.19,389.92s-.07.09-.08.15h.48c0-.06-.03-.11-.08-.15-.04-.04-.1-.06-.16-.06s-.12.02-.16.06Z" fill="#685f2f"/><path d="M402.03,390.46c-.06-.03-.11-.08-.14-.13s-.05-.12-.05-.2.02-.14.05-.19c.03-.06.08-.1.14-.13.06-.03.13-.05.2-.05.07,0,.13.01.18.04.05.03.09.07.12.12l-.1.07s-.05-.06-.09-.08c-.03-.02-.07-.03-.11-.03-.05,0-.09.01-.13.03-.04.02-.07.05-.09.09-.02.04-.03.08-.03.14s.01.1.03.14c.02.04.05.07.09.09s.08.03.13.03c.04,0,.08,0,.11-.03.03-.02.06-.04.09-.08l.1.06c-.03.05-.07.09-.12.12-.05.03-.11.04-.18.04-.08,0-.14-.02-.2-.05Z" fill="#685f2f"/><path d="M402.71,389.59s-.03-.04-.03-.06,0-.04.03-.06c.02-.02.04-.03.06-.03s.05,0,.07.02c.02.02.03.04.03.06s0,.05-.03.06c-.02.02-.04.03-.07.03s-.05,0-.06-.03ZM402.71,389.76h.13v.74h-.13v-.74Z" fill="#685f2f"/><path d="M403.6,389.82c.05.05.08.13.08.23v.45h-.13v-.1s-.05.06-.1.08c-.04.02-.09.03-.15.03-.08,0-.15-.02-.2-.06-.05-.04-.07-.09-.07-.16s.02-.12.07-.16c.05-.04.12-.06.23-.06h.21v-.03c0-.06-.02-.1-.05-.13s-.08-.05-.15-.05c-.04,0-.09,0-.13.02-.04.01-.08.03-.11.06l-.06-.1s.08-.05.14-.07c.05-.02.11-.02.17-.02.1,0,.18.03.24.08ZM403.47,390.37s.06-.06.08-.1v-.1h-.21c-.11,0-.17.04-.17.11,0,.04.01.07.04.09s.07.03.12.03.1-.01.13-.03Z" fill="#685f2f"/><path d="M403.93,389.46h.13v1.04h-.13v-1.04Z" fill="#685f2f"/><path d="M404.32,389.59s-.03-.04-.03-.06,0-.04.03-.06c.02-.02.04-.03.06-.03s.05,0,.07.02c.02.02.03.04.03.06s0,.05-.03.06c-.02.02-.04.03-.07.03s-.05,0-.06-.03ZM404.32,389.76h.13v.74h-.13v-.74Z" fill="#685f2f"/><path d="M405.26,390.39v.11h-.62v-.09l.44-.54h-.43v-.11h.6v.09l-.44.54h.45Z" fill="#685f2f"/><path d="M405.95,389.82c.05.05.08.13.08.23v.45h-.13v-.1s-.05.06-.1.08c-.04.02-.09.03-.15.03-.08,0-.15-.02-.2-.06-.05-.04-.07-.09-.07-.16s.02-.12.07-.16c.05-.04.12-.06.23-.06h.21v-.03c0-.06-.02-.1-.05-.13s-.08-.05-.15-.05c-.04,0-.09,0-.13.02-.04.01-.08.03-.11.06l-.06-.1s.08-.05.14-.07c.05-.02.11-.02.17-.02.1,0,.18.03.24.08ZM405.81,390.37s.06-.06.08-.1v-.1h-.21c-.11,0-.17.04-.17.11,0,.04.01.07.04.09s.07.03.12.03.1-.01.13-.03Z" fill="#685f2f"/><path d="M406.98,389.46v1.04h-.13v-.12s-.07.07-.11.09-.1.03-.15.03c-.07,0-.14-.02-.19-.05-.06-.03-.1-.08-.13-.13-.03-.06-.05-.12-.05-.2s.02-.14.05-.2c.03-.06.08-.1.13-.13.06-.03.12-.05.19-.05.05,0,.1.01.15.03.04.02.08.05.11.09v-.41h.13ZM406.72,390.35s.07-.05.09-.09c.02-.04.03-.08.03-.14s-.01-.1-.03-.14c-.02-.04-.05-.07-.09-.09-.04-.02-.08-.03-.13-.03s-.09.01-.13.03c-.04.02-.07.05-.09.09-.02.04-.03.08-.03.14s.01.1.03.14c.02.04.05.07.09.09s.08.03.13.03.09-.01.13-.03Z" fill="#685f2f"/><path d="M407.74,389.82c.05.05.08.13.08.23v.45h-.13v-.1s-.05.06-.1.08c-.04.02-.09.03-.15.03-.08,0-.15-.02-.2-.06-.05-.04-.07-.09-.07-.16s.02-.12.07-.16c.05-.04.12-.06.23-.06h.21v-.03c0-.06-.02-.1-.05-.13s-.08-.05-.15-.05c-.04,0-.09,0-.13.02-.04.01-.08.03-.11.06l-.06-.1s.08-.05.14-.07c.05-.02.11-.02.17-.02.1,0,.18.03.24.08ZM407.61,390.37s.06-.06.08-.1v-.1h-.21c-.11,0-.17.04-.17.11,0,.04.01.07.04.09s.07.03.12.03.1-.01.13-.03Z" fill="#685f2f"/><path d="M391.65,374.39c-.1.09-.15.21-.15.35,0,.1.03.21.09.3.06.1.17.22.33.38.44-.24.67-.48.67-.73,0-.13-.04-.23-.13-.31-.09-.08-.21-.12-.38-.12-.19,0-.33.04-.43.13ZM396.02,378.93l.8.68-1.46,1.66-.9-.77c-.84.54-1.78.81-2.83.81-.67,0-1.27-.11-1.81-.32-.54-.21-.96-.51-1.26-.88-.31-.37-.46-.79-.46-1.26,0-.53.13-.99.4-1.39s.68-.74,1.25-1.06c-.48-.52-.73-1.06-.73-1.62,0-.45.13-.85.38-1.19.25-.34.61-.61,1.07-.8.46-.19.99-.29,1.6-.29.56,0,1.05.09,1.47.26.42.17.75.42.99.75.23.33.35.7.35,1.13s-.12.81-.36,1.14c-.24.33-.61.64-1.11.93l.9.76c.15-.32.25-.69.33-1.1l2.19.65c-.16.71-.43,1.35-.8,1.91ZM392.79,379.06l-1.55-1.33c-.31.23-.47.5-.47.81,0,.21.09.38.28.52.19.14.45.21.78.21s.64-.07.96-.21Z" fill="#942934"/><path d="M391.66,374.39c-.1.09-.15.21-.15.35,0,.1.03.21.09.3.06.1.17.22.33.38.44-.24.67-.48.67-.73,0-.13-.04-.23-.13-.31-.09-.08-.21-.12-.38-.12-.19,0-.33.04-.43.13ZM396.03,378.93l.8.68-1.46,1.66-.9-.77c-.84.54-1.78.81-2.83.81-.67,0-1.27-.11-1.81-.32-.54-.21-.96-.51-1.26-.88-.31-.37-.46-.79-.46-1.26,0-.53.13-.99.4-1.39s.68-.74,1.25-1.06c-.48-.52-.73-1.06-.73-1.62,0-.45.13-.85.38-1.19.25-.34.61-.61,1.07-.8.46-.19.99-.29,1.6-.29.56,0,1.05.09,1.47.26.42.17.75.42.99.75.23.33.35.7.35,1.13s-.12.81-.36,1.14c-.24.33-.61.64-1.11.93l.9.76c.15-.32.25-.69.33-1.1l2.19.65c-.16.71-.43,1.35-.8,1.91ZM392.8,379.06l-1.55-1.33c-.31.23-.47.5-.47.81,0,.21.09.38.28.52.19.14.45.21.78.21s.64-.07.96-.21Z" fill="#942934"/><path d="M391.66,374.39c-.1.09-.15.21-.15.35,0,.1.03.21.09.3.06.1.17.22.33.38.44-.24.67-.48.67-.73,0-.13-.04-.23-.13-.31-.09-.08-.21-.12-.38-.12-.19,0-.33.04-.43.13ZM396.03,378.92l.8.68-1.46,1.66-.9-.77c-.84.54-1.78.81-2.83.81-.67,0-1.27-.11-1.81-.32-.54-.21-.96-.51-1.26-.88-.31-.37-.46-.79-.46-1.26,0-.53.13-.99.4-1.39s.68-.74,1.25-1.06c-.48-.52-.73-1.06-.73-1.62,0-.45.13-.85.38-1.19.25-.34.61-.61,1.07-.8.46-.19.99-.29,1.6-.29.56,0,1.05.09,1.47.26.42.17.75.42.99.75.23.33.35.7.35,1.13s-.12.81-.36,1.14c-.24.33-.61.64-1.11.93l.9.76c.15-.32.25-.69.33-1.1l2.19.65c-.16.71-.43,1.35-.8,1.91ZM392.8,379.06l-1.55-1.33c-.31.23-.47.5-.47.81,0,.21.09.38.28.52.19.14.45.21.78.21s.64-.07.96-.21Z" fill="#942934"/><path d="M391.67,374.38c-.1.09-.15.21-.15.35,0,.1.03.21.09.3.06.1.17.22.33.38.44-.24.67-.48.67-.73,0-.13-.04-.23-.13-.31-.09-.08-.21-.12-.38-.12-.19,0-.33.04-.43.13ZM396.04,378.92l.8.68-1.46,1.66-.9-.77c-.84.54-1.78.81-2.83.81-.67,0-1.27-.11-1.81-.32-.54-.21-.96-.51-1.26-.88-.31-.37-.46-.79-.46-1.26,0-.53.13-.99.4-1.39s.68-.74,1.25-1.06c-.48-.52-.73-1.06-.73-1.62,0-.45.13-.85.38-1.19.25-.34.61-.61,1.07-.8.46-.19.99-.29,1.6-.29.56,0,1.05.09,1.47.26.42.17.75.42.99.75.23.33.35.7.35,1.13s-.12.81-.36,1.14c-.24.33-.61.64-1.11.93l.9.76c.15-.32.25-.69.33-1.1l2.19.65c-.16.71-.43,1.35-.8,1.91ZM392.81,379.05l-1.55-1.33c-.31.23-.47.5-.47.81,0,.21.09.38.28.52.19.14.45.21.78.21s.64-.07.96-.21Z" fill="#942934"/><path d="M391.67,374.38c-.1.09-.15.21-.15.35,0,.1.03.21.09.3.06.1.17.22.33.38.44-.24.67-.48.67-.73,0-.13-.04-.23-.13-.31-.09-.08-.21-.12-.38-.12-.19,0-.33.04-.43.13ZM396.04,378.92l.8.68-1.46,1.66-.9-.77c-.84.54-1.78.81-2.83.81-.67,0-1.27-.11-1.81-.32-.54-.21-.96-.51-1.26-.88-.31-.37-.46-.79-.46-1.26,0-.53.13-.99.4-1.39s.68-.74,1.25-1.06c-.48-.52-.73-1.06-.73-1.62,0-.45.13-.85.38-1.19.25-.34.61-.61,1.07-.8.46-.19.99-.29,1.6-.29.56,0,1.05.09,1.47.26.42.17.75.42.99.75.23.33.35.7.35,1.13s-.12.81-.36,1.14c-.24.33-.61.64-1.11.93l.9.76c.15-.32.25-.69.33-1.1l2.19.65c-.16.71-.43,1.35-.8,1.91ZM392.81,379.05l-1.55-1.33c-.31.23-.47.5-.47.81,0,.21.09.38.28.52.19.14.45.21.78.21s.64-.07.96-.21Z" fill="#942934"/><path d="M391.68,374.38c-.1.09-.15.21-.15.35,0,.1.03.21.09.3.06.1.17.22.33.38.44-.24.67-.48.67-.73,0-.13-.04-.23-.13-.31-.09-.08-.21-.12-.38-.12-.19,0-.33.04-.43.13ZM396.05,378.92l.8.68-1.46,1.66-.9-.77c-.84.54-1.78.81-2.83.81-.67,0-1.27-.11-1.81-.32-.54-.21-.96-.51-1.26-.88-.31-.37-.46-.79-.46-1.26,0-.53.13-.99.4-1.39s.68-.74,1.25-1.06c-.48-.52-.73-1.06-.73-1.62,0-.45.13-.85.38-1.19.25-.34.61-.61,1.07-.8.46-.19.99-.29,1.6-.29.56,0,1.05.09,1.47.26.42.17.75.42.99.75.23.33.35.7.35,1.13s-.12.81-.36,1.14c-.24.33-.61.64-1.11.93l.9.76c.15-.32.25-.69.33-1.1l2.19.65c-.16.71-.43,1.35-.8,1.91ZM392.82,379.05l-1.55-1.33c-.31.23-.47.5-.47.81,0,.21.09.38.28.52.19.14.45.21.78.21s.64-.07.96-.21Z" fill="#942934"/><path d="M391.68,374.38c-.1.09-.15.21-.15.35,0,.1.03.21.09.3.06.1.17.22.33.38.44-.24.67-.48.67-.73,0-.13-.04-.23-.13-.31-.09-.08-.21-.12-.38-.12-.19,0-.33.04-.43.13ZM396.05,378.91l.8.68-1.46,1.66-.9-.77c-.84.54-1.78.81-2.83.81-.67,0-1.27-.11-1.81-.32-.54-.21-.96-.51-1.26-.88-.31-.37-.46-.79-.46-1.26,0-.53.13-.99.4-1.39s.68-.74,1.25-1.06c-.48-.52-.73-1.06-.73-1.62,0-.45.13-.85.38-1.19.25-.34.61-.61,1.07-.8.46-.19.99-.29,1.6-.29.56,0,1.05.09,1.47.26.42.17.75.42.99.75.23.33.35.7.35,1.13s-.12.81-.36,1.14c-.24.33-.61.64-1.11.93l.9.76c.15-.32.25-.69.33-1.1l2.19.65c-.16.71-.43,1.35-.8,1.91ZM392.82,379.05l-1.55-1.33c-.31.23-.47.5-.47.81,0,.21.09.38.28.52.19.14.45.21.78.21s.64-.07.96-.21Z" fill="#942934"/><path d="M391.69,374.37c-.1.09-.15.21-.15.35,0,.1.03.21.09.3.06.1.17.22.33.38.44-.24.67-.48.67-.73,0-.13-.04-.23-.13-.31-.09-.08-.21-.12-.38-.12-.19,0-.33.04-.43.13ZM396.06,378.91l.8.68-1.46,1.66-.9-.77c-.84.54-1.78.81-2.83.81-.67,0-1.27-.11-1.81-.32-.54-.21-.96-.51-1.26-.88-.31-.37-.46-.79-.46-1.26,0-.53.13-.99.4-1.39s.68-.74,1.25-1.06c-.48-.52-.73-1.06-.73-1.62,0-.45.13-.85.38-1.19.25-.34.61-.61,1.07-.8.46-.19.99-.29,1.6-.29.56,0,1.05.09,1.47.26.42.17.75.42.99.75.23.33.35.7.35,1.13s-.12.81-.36,1.14c-.24.33-.61.64-1.11.93l.9.76c.15-.32.25-.69.33-1.1l2.19.65c-.16.71-.43,1.35-.8,1.91ZM392.83,379.04l-1.55-1.33c-.31.23-.47.5-.47.81,0,.21.09.38.28.52.19.14.45.21.78.21s.64-.07.96-.21Z" fill="#942934"/><path d="M391.69,374.37c-.1.09-.15.21-.15.35,0,.1.03.21.09.3.06.1.17.22.33.38.44-.24.67-.48.67-.73,0-.13-.04-.23-.13-.31-.09-.08-.21-.12-.38-.12-.19,0-.33.04-.43.13ZM396.06,378.91l.8.68-1.46,1.66-.9-.77c-.84.54-1.78.81-2.83.81-.67,0-1.27-.11-1.81-.32-.54-.21-.96-.51-1.26-.88-.31-.37-.46-.79-.46-1.26,0-.53.13-.99.4-1.39s.68-.74,1.25-1.06c-.48-.52-.73-1.06-.73-1.62,0-.45.13-.85.38-1.19.25-.34.61-.61,1.07-.8.46-.19.99-.29,1.6-.29.56,0,1.05.09,1.47.26.42.17.75.42.99.75.23.33.35.7.35,1.13s-.12.81-.36,1.14c-.24.33-.61.64-1.11.93l.9.76c.15-.32.25-.69.33-1.1l2.19.65c-.16.71-.43,1.35-.8,1.91ZM392.83,379.04l-1.55-1.33c-.31.23-.47.5-.47.81,0,.21.09.38.28.52.19.14.45.21.78.21s.64-.07.96-.21Z" fill="#942934"/><path d="M391.7,374.37c-.1.09-.15.21-.15.35,0,.1.03.21.09.3.06.1.17.22.33.38.44-.24.67-.48.67-.73,0-.13-.04-.23-.13-.31-.09-.08-.21-.12-.38-.12-.19,0-.33.04-.43.13ZM396.07,378.91l.8.68-1.46,1.66-.9-.77c-.84.54-1.78.81-2.83.81-.67,0-1.27-.11-1.81-.32-.54-.21-.96-.51-1.26-.88-.31-.37-.46-.79-.46-1.26,0-.53.13-.99.4-1.39s.68-.74,1.25-1.06c-.48-.52-.73-1.06-.73-1.62,0-.45.13-.85.38-1.19.25-.34.61-.61,1.07-.8.46-.19.99-.29,1.6-.29.56,0,1.05.09,1.47.26.42.17.75.42.99.75.23.33.35.7.35,1.13s-.12.81-.36,1.14c-.24.33-.61.64-1.11.93l.9.76c.15-.32.25-.69.33-1.1l2.19.65c-.16.71-.43,1.35-.8,1.91ZM392.84,379.04l-1.55-1.33c-.31.23-.47.5-.47.81,0,.21.09.38.28.52.19.14.45.21.78.21s.64-.07.96-.21Z" fill="#942934"/><path d="M391.7,374.37c-.1.09-.15.21-.15.35,0,.1.03.21.09.3.06.1.17.22.33.38.44-.24.67-.48.67-.73,0-.13-.04-.23-.13-.31-.09-.08-.21-.12-.38-.12-.19,0-.33.04-.43.13ZM396.07,378.9l.8.68-1.46,1.66-.9-.77c-.84.54-1.78.81-2.83.81-.67,0-1.27-.11-1.81-.32-.54-.21-.96-.51-1.26-.88-.31-.37-.46-.79-.46-1.26,0-.53.13-.99.4-1.39s.68-.74,1.25-1.06c-.48-.52-.73-1.06-.73-1.62,0-.45.13-.85.38-1.19.25-.34.61-.61,1.07-.8.46-.19.99-.29,1.6-.29.56,0,1.05.09,1.47.26.42.17.75.42.99.75.23.33.35.7.35,1.13s-.12.81-.36,1.14c-.24.33-.61.64-1.11.93l.9.76c.15-.32.25-.69.33-1.1l2.19.65c-.16.71-.43,1.35-.8,1.91ZM392.84,379.04l-1.55-1.33c-.31.23-.47.5-.47.81,0,.21.09.38.28.52.19.14.45.21.78.21s.64-.07.96-.21Z" fill="#942934"/><path d="M391.7,374.36c-.1.09-.15.21-.15.35,0,.1.03.21.09.3.06.1.17.22.33.38.44-.24.67-.48.67-.73,0-.13-.04-.23-.13-.31-.09-.08-.21-.12-.38-.12-.19,0-.33.04-.43.13ZM396.08,378.9l.8.68-1.46,1.66-.9-.77c-.84.54-1.78.81-2.83.81-.67,0-1.27-.11-1.81-.32-.54-.21-.96-.51-1.26-.88-.31-.37-.46-.79-.46-1.26,0-.53.13-.99.4-1.39s.68-.74,1.25-1.06c-.48-.52-.73-1.06-.73-1.62,0-.45.13-.85.38-1.19.25-.34.61-.61,1.07-.8.46-.19.99-.29,1.6-.29.56,0,1.05.09,1.47.26.42.17.75.42.99.75.23.33.35.7.35,1.13s-.12.81-.36,1.14c-.24.33-.61.64-1.11.93l.9.76c.15-.32.25-.69.33-1.1l2.19.65c-.16.71-.43,1.35-.8,1.91ZM392.85,379.03l-1.55-1.33c-.31.23-.47.5-.47.81,0,.21.09.38.28.52.19.14.45.21.78.21s.64-.07.96-.21Z" fill="#942934"/><path d="M391.71,374.36c-.1.09-.15.21-.15.35,0,.1.03.21.09.3.06.1.17.22.33.38.44-.24.67-.48.67-.73,0-.13-.04-.23-.13-.31-.09-.08-.21-.12-.38-.12-.19,0-.33.04-.43.13ZM396.08,378.9l.8.68-1.46,1.66-.9-.77c-.84.54-1.78.81-2.83.81-.67,0-1.27-.11-1.81-.32-.54-.21-.96-.51-1.26-.88-.31-.37-.46-.79-.46-1.26,0-.53.13-.99.4-1.39s.68-.74,1.25-1.06c-.48-.52-.73-1.06-.73-1.62,0-.45.13-.85.38-1.19.25-.34.61-.61,1.07-.8.46-.19.99-.29,1.6-.29.56,0,1.05.09,1.47.26.42.17.75.42.99.75.23.33.35.7.35,1.13s-.12.81-.36,1.14c-.24.33-.61.64-1.11.93l.9.76c.15-.32.25-.69.33-1.1l2.19.65c-.16.71-.43,1.35-.8,1.91ZM392.85,379.03l-1.55-1.33c-.31.23-.47.5-.47.81,0,.21.09.38.28.52.19.14.45.21.78.21s.64-.07.96-.21Z" fill="#942934"/><path d="M391.71,374.36c-.1.09-.15.21-.15.35,0,.1.03.21.09.3.06.1.17.22.33.38.44-.24.67-.48.67-.73,0-.13-.04-.23-.13-.31-.09-.08-.21-.12-.38-.12-.19,0-.33.04-.43.13ZM396.09,378.9l.8.68-1.46,1.66-.9-.77c-.84.54-1.78.81-2.83.81-.67,0-1.27-.11-1.81-.32-.54-.21-.96-.51-1.26-.88-.31-.37-.46-.79-.46-1.26,0-.53.13-.99.4-1.39s.68-.74,1.25-1.06c-.48-.52-.73-1.06-.73-1.62,0-.45.13-.85.38-1.19.25-.34.61-.61,1.07-.8.46-.19.99-.29,1.6-.29.56,0,1.05.09,1.47.26.42.17.75.42.99.75.23.33.35.7.35,1.13s-.12.81-.36,1.14c-.24.33-.61.64-1.11.93l.9.76c.15-.32.25-.69.33-1.1l2.19.65c-.16.71-.43,1.35-.8,1.91ZM392.86,379.03l-1.55-1.33c-.31.23-.47.5-.47.81,0,.21.09.38.28.52.19.14.45.21.78.21s.64-.07.96-.21Z" fill="#942934"/><path d="M391.72,374.35c-.1.09-.15.21-.15.35,0,.1.03.21.09.3.06.1.17.22.33.38.44-.24.67-.48.67-.73,0-.13-.04-.23-.13-.31-.09-.08-.21-.12-.38-.12-.19,0-.33.04-.43.13ZM396.09,378.89l.8.68-1.46,1.66-.9-.77c-.84.54-1.78.81-2.83.81-.67,0-1.27-.11-1.81-.32-.54-.21-.96-.51-1.26-.88-.31-.37-.46-.79-.46-1.26,0-.53.13-.99.4-1.39s.68-.74,1.25-1.06c-.48-.52-.73-1.06-.73-1.62,0-.45.13-.85.38-1.19.25-.34.61-.61,1.07-.8.46-.19.99-.29,1.6-.29.56,0,1.05.09,1.47.26.42.17.75.42.99.75.23.33.35.7.35,1.13s-.12.81-.36,1.14c-.24.33-.61.64-1.11.93l.9.76c.15-.32.25-.69.33-1.1l2.19.65c-.16.71-.43,1.35-.8,1.91ZM392.86,379.03l-1.55-1.33c-.31.23-.47.5-.47.81,0,.21.09.38.28.52.19.14.45.21.78.21s.64-.07.96-.21Z" fill="#942934"/><path d="M391.72,374.35c-.1.09-.15.21-.15.35,0,.1.03.21.09.3.06.1.17.22.33.38.44-.24.67-.48.67-.73,0-.13-.04-.23-.13-.31-.09-.08-.21-.12-.38-.12-.19,0-.33.04-.43.13ZM396.1,378.89l.8.68-1.46,1.66-.9-.77c-.84.54-1.78.81-2.83.81-.67,0-1.27-.11-1.81-.32-.54-.21-.96-.51-1.26-.88-.31-.37-.46-.79-.46-1.26,0-.53.13-.99.4-1.39s.68-.74,1.25-1.06c-.48-.52-.73-1.06-.73-1.62,0-.45.13-.85.38-1.19.25-.34.61-.61,1.07-.8.46-.19.99-.29,1.6-.29.56,0,1.05.09,1.47.26.42.17.75.42.99.75.23.33.35.7.35,1.13s-.12.81-.36,1.14c-.24.33-.61.64-1.11.93l.9.76c.15-.32.25-.69.33-1.1l2.19.65c-.16.71-.43,1.35-.8,1.91ZM392.87,379.02l-1.55-1.33c-.31.23-.47.5-.47.81,0,.21.09.38.28.52.19.14.45.21.78.21s.64-.07.96-.21Z" fill="#942934"/><path d="M391.73,374.35c-.1.09-.15.21-.15.35,0,.1.03.21.09.3.06.1.17.22.33.38.44-.24.67-.48.67-.73,0-.13-.04-.23-.13-.31-.09-.08-.21-.12-.38-.12-.19,0-.33.04-.43.13ZM396.1,378.89l.8.68-1.46,1.66-.9-.77c-.84.54-1.78.81-2.83.81-.67,0-1.27-.11-1.81-.32-.54-.21-.96-.51-1.26-.88-.31-.37-.46-.79-.46-1.26,0-.53.13-.99.4-1.39s.68-.74,1.25-1.06c-.48-.52-.73-1.06-.73-1.62,0-.45.13-.85.38-1.19.25-.34.61-.61,1.07-.8.46-.19.99-.29,1.6-.29.56,0,1.05.09,1.47.26.42.17.75.42.99.75.23.33.35.7.35,1.13s-.12.81-.36,1.14c-.24.33-.61.64-1.11.93l.9.76c.15-.32.25-.69.33-1.1l2.19.65c-.16.71-.43,1.35-.8,1.91ZM392.87,379.02l-1.55-1.33c-.31.23-.47.5-.47.81,0,.21.09.38.28.52.19.14.45.21.78.21s.64-.07.96-.21Z" fill="#942934"/><path d="M391.73,374.35c-.1.09-.15.21-.15.35,0,.1.03.21.09.3.06.1.17.22.33.38.44-.24.67-.48.67-.73,0-.13-.04-.23-.13-.31-.09-.08-.21-.12-.38-.12-.19,0-.33.04-.43.13ZM396.11,378.89l.8.68-1.46,1.66-.9-.77c-.84.54-1.78.81-2.83.81-.67,0-1.27-.11-1.81-.32-.54-.21-.96-.51-1.26-.88-.31-.37-.46-.79-.46-1.26,0-.53.13-.99.4-1.39s.68-.74,1.25-1.06c-.48-.52-.73-1.06-.73-1.62,0-.45.13-.85.38-1.19.25-.34.61-.61,1.07-.8.46-.19.99-.29,1.6-.29.56,0,1.05.09,1.47.26.42.17.75.42.99.75.23.33.35.7.35,1.13s-.12.81-.36,1.14c-.24.33-.61.64-1.11.93l.9.76c.15-.32.25-.69.33-1.1l2.19.65c-.16.71-.43,1.35-.8,1.91ZM392.88,379.02l-1.55-1.33c-.31.23-.47.5-.47.81,0,.21.09.38.28.52.19.14.45.21.78.21s.64-.07.96-.21Z" fill="#942934"/><path d="M391.74,374.34c-.1.09-.15.21-.15.35,0,.1.03.21.09.3.06.1.17.22.33.38.44-.24.67-.48.67-.73,0-.13-.04-.23-.13-.31-.09-.08-.21-.12-.38-.12-.19,0-.33.04-.43.13ZM396.11,378.88l.8.68-1.46,1.66-.9-.77c-.84.54-1.78.81-2.83.81-.67,0-1.27-.11-1.81-.32-.54-.21-.96-.51-1.26-.88-.31-.37-.46-.79-.46-1.26,0-.53.13-.99.4-1.39s.68-.74,1.25-1.06c-.48-.52-.73-1.06-.73-1.62,0-.45.13-.85.38-1.19.25-.34.61-.61,1.07-.8.46-.19.99-.29,1.6-.29.56,0,1.05.09,1.47.26.42.17.75.42.99.75.23.33.35.7.35,1.13s-.12.81-.36,1.14c-.24.33-.61.64-1.11.93l.9.76c.15-.32.25-.69.33-1.1l2.19.65c-.16.71-.43,1.35-.8,1.91ZM392.88,379.02l-1.55-1.33c-.31.23-.47.5-.47.81,0,.21.09.38.28.52.19.14.45.21.78.21s.64-.07.96-.21Z" fill="#942934"/><path d="M391.74,374.34c-.1.09-.15.21-.15.35,0,.1.03.21.09.3.06.1.17.22.33.38.44-.24.67-.48.67-.73,0-.13-.04-.23-.13-.31-.09-.08-.21-.12-.38-.12-.19,0-.33.04-.43.13ZM396.12,378.88l.8.68-1.46,1.66-.9-.77c-.84.54-1.78.81-2.83.81-.67,0-1.27-.11-1.81-.32-.54-.21-.96-.51-1.26-.88-.31-.37-.46-.79-.46-1.26,0-.53.13-.99.4-1.39s.68-.74,1.25-1.06c-.48-.52-.73-1.06-.73-1.62,0-.45.13-.85.38-1.19.25-.34.61-.61,1.07-.8.46-.19.99-.29,1.6-.29.56,0,1.05.09,1.47.26.42.17.75.42.99.75.23.33.35.7.35,1.13s-.12.81-.36,1.14c-.24.33-.61.64-1.11.93l.9.76c.15-.32.25-.69.33-1.1l2.19.65c-.16.71-.43,1.35-.8,1.91ZM392.89,379.01l-1.55-1.33c-.31.23-.47.5-.47.81,0,.21.09.38.28.52.19.14.45.21.78.21s.64-.07.96-.21Z" fill="#942934"/><path d="M391.75,374.34c-.1.09-.15.21-.15.35,0,.1.03.21.09.3.06.1.17.22.33.38.44-.24.67-.48.67-.73,0-.13-.04-.23-.13-.31-.09-.08-.21-.12-.38-.12-.19,0-.33.04-.43.13ZM396.12,378.88l.8.68-1.46,1.66-.9-.77c-.84.54-1.78.81-2.83.81-.67,0-1.27-.11-1.81-.32-.54-.21-.96-.51-1.26-.88-.31-.37-.46-.79-.46-1.26,0-.53.13-.99.4-1.39s.68-.74,1.25-1.06c-.48-.52-.73-1.06-.73-1.62,0-.45.13-.85.38-1.19.25-.34.61-.61,1.07-.8.46-.19.99-.29,1.6-.29.56,0,1.05.09,1.47.26.42.17.75.42.99.75.23.33.35.7.35,1.13s-.12.81-.36,1.14c-.24.33-.61.64-1.11.93l.9.76c.15-.32.25-.69.33-1.1l2.19.65c-.16.71-.43,1.35-.8,1.91ZM392.89,379.01l-1.55-1.33c-.31.23-.47.5-.47.81,0,.21.09.38.28.52.19.14.45.21.78.21s.64-.07.96-.21Z" fill="#942934"/><path d="M391.75,374.34c-.1.09-.15.21-.15.35,0,.1.03.21.09.3.06.1.17.22.33.38.44-.24.67-.48.67-.73,0-.13-.04-.23-.13-.31-.09-.08-.21-.12-.38-.12-.19,0-.33.04-.43.13ZM396.13,378.87l.8.68-1.46,1.66-.9-.77c-.84.54-1.78.81-2.83.81-.67,0-1.27-.11-1.81-.32-.54-.21-.96-.51-1.26-.88-.31-.37-.46-.79-.46-1.26,0-.53.13-.99.4-1.39s.68-.74,1.25-1.06c-.48-.52-.73-1.06-.73-1.62,0-.45.13-.85.38-1.19.25-.34.61-.61,1.07-.8.46-.19.99-.29,1.6-.29.56,0,1.05.09,1.47.26.42.17.75.42.99.75.23.33.35.7.35,1.13s-.12.81-.36,1.14c-.24.33-.61.64-1.11.93l.9.76c.15-.32.25-.69.33-1.1l2.19.65c-.16.71-.43,1.35-.8,1.91ZM392.9,379.01l-1.55-1.33c-.31.23-.47.5-.47.81,0,.21.09.38.28.52.19.14.45.21.78.21s.64-.07.96-.21Z" fill="#942934"/><path d="M391.76,374.33c-.1.09-.15.21-.15.35,0,.1.03.21.09.3.06.1.17.22.33.38.44-.24.67-.48.67-.73,0-.13-.04-.23-.13-.31-.09-.08-.21-.12-.38-.12-.19,0-.33.04-.43.13ZM396.13,378.87l.8.68-1.46,1.66-.9-.77c-.84.54-1.78.81-2.83.81-.67,0-1.27-.11-1.81-.32-.54-.21-.96-.51-1.26-.88-.31-.37-.46-.79-.46-1.26,0-.53.13-.99.4-1.39s.68-.74,1.25-1.06c-.48-.52-.73-1.06-.73-1.62,0-.45.13-.85.38-1.19.25-.34.61-.61,1.07-.8.46-.19.99-.29,1.6-.29.56,0,1.05.09,1.47.26.42.17.75.42.99.75.23.33.35.7.35,1.13s-.12.81-.36,1.14c-.24.33-.61.64-1.11.93l.9.76c.15-.32.25-.69.33-1.1l2.19.65c-.16.71-.43,1.35-.8,1.91ZM392.9,379.01l-1.55-1.33c-.31.23-.47.5-.47.81,0,.21.09.38.28.52.19.14.45.21.78.21s.64-.07.96-.21Z" fill="#942934"/><path d="M391.76,374.33c-.1.09-.15.21-.15.35,0,.1.03.21.09.3.06.1.17.22.33.38.44-.24.67-.48.67-.73,0-.13-.04-.23-.13-.31-.09-.08-.21-.12-.38-.12-.19,0-.33.04-.43.13ZM396.14,378.87l.8.68-1.46,1.66-.9-.77c-.84.54-1.78.81-2.83.81-.67,0-1.27-.11-1.81-.32-.54-.21-.96-.51-1.26-.88-.31-.37-.46-.79-.46-1.26,0-.53.13-.99.4-1.39s.68-.74,1.25-1.06c-.48-.52-.73-1.06-.73-1.62,0-.45.13-.85.38-1.19.25-.34.61-.61,1.07-.8.46-.19.99-.29,1.6-.29.56,0,1.05.09,1.47.26.42.17.75.42.99.75.23.33.35.7.35,1.13s-.12.81-.36,1.14c-.24.33-.61.64-1.11.93l.9.76c.15-.32.25-.69.33-1.1l2.19.65c-.16.71-.43,1.35-.8,1.91ZM392.91,379l-1.55-1.33c-.31.23-.47.5-.47.81,0,.21.09.38.28.52.19.14.45.21.78.21s.64-.07.96-.21Z" fill="#942934"/><path d="M391.77,374.33c-.1.09-.15.21-.15.35,0,.1.03.21.09.3.06.1.17.22.33.38.44-.24.67-.48.67-.73,0-.13-.04-.23-.13-.31-.09-.08-.21-.12-.38-.12-.19,0-.33.04-.43.13ZM396.14,378.87l.8.68-1.46,1.66-.9-.77c-.84.54-1.78.81-2.83.81-.67,0-1.27-.11-1.81-.32-.54-.21-.96-.51-1.26-.88-.31-.37-.46-.79-.46-1.26,0-.53.13-.99.4-1.39s.68-.74,1.25-1.06c-.48-.52-.73-1.06-.73-1.62,0-.45.13-.85.38-1.19.25-.34.61-.61,1.07-.8.46-.19.99-.29,1.6-.29.56,0,1.05.09,1.47.26.42.17.75.42.99.75.23.33.35.7.35,1.13s-.12.81-.36,1.14c-.24.33-.61.64-1.11.93l.9.76c.15-.32.25-.69.33-1.1l2.19.65c-.16.71-.43,1.35-.8,1.91ZM392.91,379l-1.55-1.33c-.31.23-.47.5-.47.81,0,.21.09.38.28.52.19.14.45.21.78.21s.64-.07.96-.21Z" fill="#942934"/><path d="M391.77,374.33c-.1.09-.15.21-.15.35,0,.1.03.21.09.3.06.1.17.22.33.38.44-.24.67-.48.67-.73,0-.13-.04-.23-.13-.31-.09-.08-.21-.12-.38-.12-.19,0-.33.04-.43.13ZM396.15,378.86l.8.68-1.46,1.66-.9-.77c-.84.54-1.78.81-2.83.81-.67,0-1.27-.11-1.81-.32-.54-.21-.96-.51-1.26-.88-.31-.37-.46-.79-.46-1.26,0-.53.13-.99.4-1.39s.68-.74,1.25-1.06c-.48-.52-.73-1.06-.73-1.62,0-.45.13-.85.38-1.19.25-.34.61-.61,1.07-.8.46-.19.99-.29,1.6-.29.56,0,1.05.09,1.47.26.42.17.75.42.99.75.23.33.35.7.35,1.13s-.12.81-.36,1.14c-.24.33-.61.64-1.11.93l.9.76c.15-.32.25-.69.33-1.1l2.19.65c-.16.71-.43,1.35-.8,1.91ZM392.92,379l-1.55-1.33c-.31.23-.47.5-.47.81,0,.21.09.38.28.52.19.14.45.21.78.21s.64-.07.96-.21Z" fill="#942934"/><path d="M391.78,374.32c-.1.09-.15.21-.15.35,0,.1.03.21.09.3.06.1.17.22.33.38.44-.24.67-.48.67-.73,0-.13-.04-.23-.13-.31-.09-.08-.21-.12-.38-.12-.19,0-.33.04-.43.13ZM396.15,378.86l.8.68-1.46,1.66-.9-.77c-.84.54-1.78.81-2.83.81-.67,0-1.27-.11-1.81-.32-.54-.21-.96-.51-1.26-.88-.31-.37-.46-.79-.46-1.26,0-.53.13-.99.4-1.39s.68-.74,1.25-1.06c-.48-.52-.73-1.06-.73-1.62,0-.45.13-.85.38-1.19.25-.34.61-.61,1.07-.8.46-.19.99-.29,1.6-.29.56,0,1.05.09,1.47.26.42.17.75.42.99.75.23.33.35.7.35,1.13s-.12.81-.36,1.14c-.24.33-.61.64-1.11.93l.9.76c.15-.32.25-.69.33-1.1l2.19.65c-.16.71-.43,1.35-.8,1.91ZM392.92,379l-1.55-1.33c-.31.23-.47.5-.47.81,0,.21.09.38.28.52.19.14.45.21.78.21s.64-.07.96-.21Z" fill="#942934"/><path d="M391.78,374.32c-.1.09-.15.21-.15.35,0,.1.03.21.09.3.06.1.17.22.33.38.44-.24.67-.48.67-.73,0-.13-.04-.23-.13-.31-.09-.08-.21-.12-.38-.12-.19,0-.33.04-.43.13ZM396.16,378.86l.8.68-1.46,1.66-.9-.77c-.84.54-1.78.81-2.83.81-.67,0-1.27-.11-1.81-.32-.54-.21-.96-.51-1.26-.88-.31-.37-.46-.79-.46-1.26,0-.53.13-.99.4-1.39s.68-.74,1.25-1.06c-.48-.52-.73-1.06-.73-1.62,0-.45.13-.85.38-1.19.25-.34.61-.61,1.07-.8.46-.19.99-.29,1.6-.29.56,0,1.05.09,1.47.26.42.17.75.42.99.75.23.33.35.7.35,1.13s-.12.81-.36,1.14c-.24.33-.61.64-1.11.93l.9.76c.15-.32.25-.69.33-1.1l2.19.65c-.16.71-.43,1.35-.8,1.91ZM392.93,378.99l-1.55-1.33c-.31.23-.47.5-.47.81,0,.21.09.38.28.52.19.14.45.21.78.21s.64-.07.96-.21Z" fill="#942934"/><path d="M391.79,374.32c-.1.09-.15.21-.15.35,0,.1.03.21.09.3.06.1.17.22.33.38.44-.24.67-.48.67-.73,0-.13-.04-.23-.13-.31-.09-.08-.21-.12-.38-.12-.19,0-.33.04-.43.13ZM396.16,378.86l.8.68-1.46,1.66-.9-.77c-.84.54-1.78.81-2.83.81-.67,0-1.27-.11-1.81-.32-.54-.21-.96-.51-1.26-.88-.31-.37-.46-.79-.46-1.26,0-.53.13-.99.4-1.39s.68-.74,1.25-1.06c-.48-.52-.73-1.06-.73-1.62,0-.45.13-.85.38-1.19.25-.34.61-.61,1.07-.8.46-.19.99-.29,1.6-.29.56,0,1.05.09,1.47.26.42.17.75.42.99.75.23.33.35.7.35,1.13s-.12.81-.36,1.14c-.24.33-.61.64-1.11.93l.9.76c.15-.32.25-.69.33-1.1l2.19.65c-.16.71-.43,1.35-.8,1.91ZM392.93,378.99l-1.55-1.33c-.31.23-.47.5-.47.81,0,.21.09.38.28.52.19.14.45.21.78.21s.64-.07.96-.21Z" fill="#942934"/><path d="M391.79,374.32c-.1.09-.15.21-.15.35,0,.1.03.21.09.3.06.1.17.22.33.38.44-.24.67-.48.67-.73,0-.13-.04-.23-.13-.31-.09-.08-.21-.12-.38-.12-.19,0-.33.04-.43.13ZM396.17,378.85l.8.68-1.46,1.66-.9-.77c-.84.54-1.78.81-2.83.81-.67,0-1.27-.11-1.81-.32-.54-.21-.96-.51-1.26-.88-.31-.37-.46-.79-.46-1.26,0-.53.13-.99.4-1.39s.68-.74,1.25-1.06c-.48-.52-.73-1.06-.73-1.62,0-.45.13-.85.38-1.19.25-.34.61-.61,1.07-.8.46-.19.99-.29,1.6-.29.56,0,1.05.09,1.47.26.42.17.75.42.99.75.23.33.35.7.35,1.13s-.12.81-.36,1.14c-.24.33-.61.64-1.11.93l.9.76c.15-.32.25-.69.33-1.1l2.19.65c-.16.71-.43,1.35-.8,1.91ZM392.94,378.99l-1.55-1.33c-.31.23-.47.5-.47.81,0,.21.09.38.28.52.19.14.45.21.78.21s.64-.07.96-.21Z" fill="#942934"/><path d="M391.8,374.31c-.1.09-.15.21-.15.35,0,.1.03.21.09.3.06.1.17.22.33.38.44-.24.67-.48.67-.73,0-.13-.04-.23-.13-.31-.09-.08-.21-.12-.38-.12-.19,0-.33.04-.43.13ZM396.17,378.85l.8.68-1.46,1.66-.9-.77c-.84.54-1.78.81-2.83.81-.67,0-1.27-.11-1.81-.32-.54-.21-.96-.51-1.26-.88-.31-.37-.46-.79-.46-1.26,0-.53.13-.99.4-1.39s.68-.74,1.25-1.06c-.48-.52-.73-1.06-.73-1.62,0-.45.13-.85.38-1.19.25-.34.61-.61,1.07-.8.46-.19.99-.29,1.6-.29.56,0,1.05.09,1.47.26.42.17.75.42.99.75.23.33.35.7.35,1.13s-.12.81-.36,1.14c-.24.33-.61.64-1.11.93l.9.76c.15-.32.25-.69.33-1.1l2.19.65c-.16.71-.43,1.35-.8,1.91ZM392.94,378.98l-1.55-1.33c-.31.23-.47.5-.47.81,0,.21.09.38.28.52.19.14.45.21.78.21s.64-.07.96-.21Z" fill="#942934"/><path d="M391.8,374.31c-.1.09-.15.21-.15.35,0,.1.03.21.09.3.06.1.17.22.33.38.44-.24.67-.48.67-.73,0-.13-.04-.23-.13-.31-.09-.08-.21-.12-.38-.12-.19,0-.33.04-.43.13ZM396.18,378.85l.8.68-1.46,1.66-.9-.77c-.84.54-1.78.81-2.83.81-.67,0-1.27-.11-1.81-.32-.54-.21-.96-.51-1.26-.88-.31-.37-.46-.79-.46-1.26,0-.53.13-.99.4-1.39s.68-.74,1.25-1.06c-.48-.52-.73-1.06-.73-1.62,0-.45.13-.85.38-1.19.25-.34.61-.61,1.07-.8.46-.19.99-.29,1.6-.29.56,0,1.05.09,1.47.26.42.17.75.42.99.75.23.33.35.7.35,1.13s-.12.81-.36,1.14c-.24.33-.61.64-1.11.93l.9.76c.15-.32.25-.69.33-1.1l2.19.65c-.16.71-.43,1.35-.8,1.91ZM392.95,378.98l-1.55-1.33c-.31.23-.47.5-.47.81,0,.21.09.38.28.52.19.14.45.21.78.21s.64-.07.96-.21Z" fill="#942934"/><path d="M391.81,374.31c-.1.09-.15.21-.15.35,0,.1.03.21.09.3.06.1.17.22.33.38.44-.24.67-.48.67-.73,0-.13-.04-.23-.13-.31-.09-.08-.21-.12-.38-.12-.19,0-.33.04-.43.13ZM396.18,378.85l.8.68-1.46,1.66-.9-.77c-.84.54-1.78.81-2.83.81-.67,0-1.27-.11-1.81-.32-.54-.21-.96-.51-1.26-.88-.31-.37-.46-.79-.46-1.26,0-.53.13-.99.4-1.39s.68-.74,1.25-1.06c-.48-.52-.73-1.06-.73-1.62,0-.45.13-.85.38-1.19.25-.34.61-.61,1.07-.8.46-.19.99-.29,1.6-.29.56,0,1.05.09,1.47.26.42.17.75.42.99.75.23.33.35.7.35,1.13s-.12.81-.36,1.14c-.24.33-.61.64-1.11.93l.9.76c.15-.32.25-.69.33-1.1l2.19.65c-.16.71-.43,1.35-.8,1.91ZM392.95,378.98l-1.55-1.33c-.31.23-.47.5-.47.81,0,.21.09.38.28.52.19.14.45.21.78.21s.64-.07.96-.21Z" fill="#942934"/><path d="M391.81,374.31c-.1.09-.15.21-.15.35,0,.1.03.21.09.3.06.1.17.22.33.38.44-.24.67-.48.67-.73,0-.13-.04-.23-.13-.31-.09-.08-.21-.12-.38-.12-.19,0-.33.04-.43.13ZM396.19,378.84l.8.68-1.46,1.66-.9-.77c-.84.54-1.78.81-2.83.81-.67,0-1.27-.11-1.81-.32-.54-.21-.96-.51-1.26-.88-.31-.37-.46-.79-.46-1.26,0-.53.13-.99.4-1.39s.68-.74,1.25-1.06c-.48-.52-.73-1.06-.73-1.62,0-.45.13-.85.38-1.19.25-.34.61-.61,1.07-.8.46-.19.99-.29,1.6-.29.56,0,1.05.09,1.47.26.42.17.75.42.99.75.23.33.35.7.35,1.13s-.12.81-.36,1.14c-.24.33-.61.64-1.11.93l.9.76c.15-.32.25-.69.33-1.1l2.19.65c-.16.71-.43,1.35-.8,1.91ZM392.96,378.98l-1.55-1.33c-.31.23-.47.5-.47.81,0,.21.09.38.28.52.19.14.45.21.78.21s.64-.07.96-.21Z" fill="#942934"/><path d="M391.82,374.3c-.1.09-.15.21-.15.35,0,.1.03.21.09.3.06.1.17.22.33.38.44-.24.67-.48.67-.73,0-.13-.04-.23-.13-.31-.09-.08-.21-.12-.38-.12-.19,0-.33.04-.43.13ZM396.19,378.84l.8.68-1.46,1.66-.9-.77c-.84.54-1.78.81-2.83.81-.67,0-1.27-.11-1.81-.32-.54-.21-.96-.51-1.26-.88-.31-.37-.46-.79-.46-1.26,0-.53.13-.99.4-1.39s.68-.74,1.25-1.06c-.48-.52-.73-1.06-.73-1.62,0-.45.13-.85.38-1.19.25-.34.61-.61,1.07-.8.46-.19.99-.29,1.6-.29.56,0,1.05.09,1.47.26.42.17.75.42.99.75.23.33.35.7.35,1.13s-.12.81-.36,1.14c-.24.33-.61.64-1.11.93l.9.76c.15-.32.25-.69.33-1.1l2.19.65c-.16.71-.43,1.35-.8,1.91ZM392.96,378.97l-1.55-1.33c-.31.23-.47.5-.47.81,0,.21.09.38.28.52.19.14.45.21.78.21s.64-.07.96-.21Z" fill="#942934"/><path d="M391.82,374.3c-.1.09-.15.21-.15.35,0,.1.03.21.09.3.06.1.17.22.33.38.44-.24.67-.48.67-.73,0-.13-.04-.23-.13-.31-.09-.08-.21-.12-.38-.12-.19,0-.33.04-.43.13ZM396.2,378.84l.8.68-1.46,1.66-.9-.77c-.84.54-1.78.81-2.83.81-.67,0-1.27-.11-1.81-.32-.54-.21-.96-.51-1.26-.88-.31-.37-.46-.79-.46-1.26,0-.53.13-.99.4-1.39s.68-.74,1.25-1.06c-.48-.52-.73-1.06-.73-1.62,0-.45.13-.85.38-1.19.25-.34.61-.61,1.07-.8.46-.19.99-.29,1.6-.29.56,0,1.05.09,1.47.26.42.17.75.42.99.75.23.33.35.7.35,1.13s-.12.81-.36,1.14c-.24.33-.61.64-1.11.93l.9.76c.15-.32.25-.69.33-1.1l2.19.65c-.16.71-.43,1.35-.8,1.91ZM392.97,378.97l-1.55-1.33c-.31.23-.47.5-.47.81,0,.21.09.38.28.52.19.14.45.21.78.21s.64-.07.96-.21Z" fill="#942934"/><path d="M391.83,374.3c-.1.09-.15.21-.15.35,0,.1.03.21.09.3.06.1.17.22.33.38.44-.24.67-.48.67-.73,0-.13-.04-.23-.13-.31-.09-.08-.21-.12-.38-.12-.19,0-.33.04-.43.13ZM396.2,378.84l.8.68-1.46,1.66-.9-.77c-.84.54-1.78.81-2.83.81-.67,0-1.27-.11-1.81-.32-.54-.21-.96-.51-1.26-.88-.31-.37-.46-.79-.46-1.26,0-.53.13-.99.4-1.39s.68-.74,1.25-1.06c-.48-.52-.73-1.06-.73-1.62,0-.45.13-.85.38-1.19.25-.34.61-.61,1.07-.8.46-.19.99-.29,1.6-.29.56,0,1.05.09,1.47.26.42.17.75.42.99.75.23.33.35.7.35,1.13s-.12.81-.36,1.14c-.24.33-.61.64-1.11.93l.9.76c.15-.32.25-.69.33-1.1l2.19.65c-.16.71-.43,1.35-.8,1.91ZM392.97,378.97l-1.55-1.33c-.31.23-.47.5-.47.81,0,.21.09.38.28.52.19.14.45.21.78.21s.64-.07.96-.21Z" fill="#942934"/><path d="M391.83,374.3c-.1.09-.15.21-.15.35,0,.1.03.21.09.3.06.1.17.22.33.38.44-.24.67-.48.67-.73,0-.13-.04-.23-.13-.31-.09-.08-.21-.12-.38-.12-.19,0-.33.04-.43.13ZM396.21,378.83l.8.68-1.46,1.66-.9-.77c-.84.54-1.78.81-2.83.81-.67,0-1.27-.11-1.81-.32-.54-.21-.96-.51-1.26-.88-.31-.37-.46-.79-.46-1.26,0-.53.13-.99.4-1.39s.68-.74,1.25-1.06c-.48-.52-.73-1.06-.73-1.62,0-.45.13-.85.38-1.19.25-.34.61-.61,1.07-.8.46-.19.99-.29,1.6-.29.56,0,1.05.09,1.47.26.42.17.75.42.99.75.23.33.35.7.35,1.13s-.12.81-.36,1.14c-.24.33-.61.64-1.11.93l.9.76c.15-.32.25-.69.33-1.1l2.19.65c-.16.71-.43,1.35-.8,1.91ZM392.98,378.97l-1.55-1.33c-.31.23-.47.5-.47.81,0,.21.09.38.28.52.19.14.45.21.78.21s.64-.07.96-.21Z" fill="#942934"/><path d="M391.84,374.29c-.1.09-.15.21-.15.35,0,.1.03.21.09.3.06.1.17.22.33.38.44-.24.67-.48.67-.73,0-.13-.04-.23-.13-.31-.09-.08-.21-.12-.38-.12-.19,0-.33.04-.43.13ZM396.21,378.83l.8.68-1.46,1.66-.9-.77c-.84.54-1.78.81-2.83.81-.67,0-1.27-.11-1.81-.32-.54-.21-.96-.51-1.26-.88-.31-.37-.46-.79-.46-1.26,0-.53.13-.99.4-1.39s.68-.74,1.25-1.06c-.48-.52-.73-1.06-.73-1.62,0-.45.13-.85.38-1.19.25-.34.61-.61,1.07-.8.46-.19.99-.29,1.6-.29.56,0,1.05.09,1.47.26.42.17.75.42.99.75.23.33.35.7.35,1.13s-.12.81-.36,1.14c-.24.33-.61.64-1.11.93l.9.76c.15-.32.25-.69.33-1.1l2.19.65c-.16.71-.43,1.35-.8,1.91ZM392.98,378.96l-1.55-1.33c-.31.23-.47.5-.47.81,0,.21.09.38.28.52.19.14.45.21.78.21s.64-.07.96-.21Z" fill="#942934"/><path d="M391.84,374.29c-.1.09-.15.21-.15.35,0,.1.03.21.09.3.06.1.17.22.33.38.44-.24.67-.48.67-.73,0-.13-.04-.23-.13-.31-.09-.08-.21-.12-.38-.12-.19,0-.33.04-.43.13ZM396.22,378.83l.8.68-1.46,1.66-.9-.77c-.84.54-1.78.81-2.83.81-.67,0-1.27-.11-1.81-.32-.54-.21-.96-.51-1.26-.88-.31-.37-.46-.79-.46-1.26,0-.53.13-.99.4-1.39s.68-.74,1.25-1.06c-.48-.52-.73-1.06-.73-1.62,0-.45.13-.85.38-1.19.25-.34.61-.61,1.07-.8.46-.19.99-.29,1.6-.29.56,0,1.05.09,1.47.26.42.17.75.42.99.75.23.33.35.7.35,1.13s-.12.81-.36,1.14c-.24.33-.61.64-1.11.93l.9.76c.15-.32.25-.69.33-1.1l2.19.65c-.16.71-.43,1.35-.8,1.91ZM392.99,378.96l-1.55-1.33c-.31.23-.47.5-.47.81,0,.21.09.38.28.52.19.14.45.21.78.21s.64-.07.96-.21Z" fill="#942934"/><path d="M391.85,374.29c-.1.09-.15.21-.15.35,0,.1.03.21.09.3.06.1.17.22.33.38.44-.24.67-.48.67-.73,0-.13-.04-.23-.13-.31-.09-.08-.21-.12-.38-.12-.19,0-.33.04-.43.13ZM396.22,378.83l.8.68-1.46,1.66-.9-.77c-.84.54-1.78.81-2.83.81-.67,0-1.27-.11-1.81-.32-.54-.21-.96-.51-1.26-.88-.31-.37-.46-.79-.46-1.26,0-.53.13-.99.4-1.39s.68-.74,1.25-1.06c-.48-.52-.73-1.06-.73-1.62,0-.45.13-.85.38-1.19.25-.34.61-.61,1.07-.8.46-.19.99-.29,1.6-.29.56,0,1.05.09,1.47.26.42.17.75.42.99.75.23.33.35.7.35,1.13s-.12.81-.36,1.14c-.24.33-.61.64-1.11.93l.9.76c.15-.32.25-.69.33-1.1l2.19.65c-.16.71-.43,1.35-.8,1.91ZM392.99,378.96l-1.55-1.33c-.31.23-.47.5-.47.81,0,.21.09.38.28.52.19.14.45.21.78.21s.64-.07.96-.21Z" fill="#942934"/><path d="M391.85,374.29c-.1.09-.15.21-.15.35,0,.1.03.21.09.3.06.1.17.22.33.38.44-.24.67-.48.67-.73,0-.13-.04-.23-.13-.31-.09-.08-.21-.12-.38-.12-.19,0-.33.04-.43.13ZM396.23,378.82l.8.68-1.46,1.66-.9-.77c-.84.54-1.78.81-2.83.81-.67,0-1.27-.11-1.81-.32-.54-.21-.96-.51-1.26-.88-.31-.37-.46-.79-.46-1.26,0-.53.13-.99.4-1.39s.68-.74,1.25-1.06c-.48-.52-.73-1.06-.73-1.62,0-.45.13-.85.38-1.19.25-.34.61-.61,1.07-.8.46-.19.99-.29,1.6-.29.56,0,1.05.09,1.47.26.42.17.75.42.99.75.23.33.35.7.35,1.13s-.12.81-.36,1.14c-.24.33-.61.64-1.11.93l.9.76c.15-.32.25-.69.33-1.1l2.19.65c-.16.71-.43,1.35-.8,1.91ZM393,378.96l-1.55-1.33c-.31.23-.47.5-.47.81,0,.21.09.38.28.52.19.14.45.21.78.21s.64-.07.96-.21Z" fill="#942934"/><path d="M391.86,374.28c-.1.09-.15.21-.15.35,0,.1.03.21.09.3.06.1.17.22.33.38.44-.24.67-.48.67-.73,0-.13-.04-.23-.13-.31-.09-.08-.21-.12-.38-.12-.19,0-.33.04-.43.13ZM396.23,378.82l.8.68-1.46,1.66-.9-.77c-.84.54-1.78.81-2.83.81-.67,0-1.27-.11-1.81-.32-.54-.21-.96-.51-1.26-.88-.31-.37-.46-.79-.46-1.26,0-.53.13-.99.4-1.39s.68-.74,1.25-1.06c-.48-.52-.73-1.06-.73-1.62,0-.45.13-.85.38-1.19.25-.34.61-.61,1.07-.8.46-.19.99-.29,1.6-.29.56,0,1.05.09,1.47.26.42.17.75.42.99.75.23.33.35.7.35,1.13s-.12.81-.36,1.14c-.24.33-.61.64-1.11.93l.9.76c.15-.32.25-.69.33-1.1l2.19.65c-.16.71-.43,1.35-.8,1.91ZM393,378.95l-1.55-1.33c-.31.23-.47.5-.47.81,0,.21.09.38.28.52.19.14.45.21.78.21s.64-.07.96-.21Z" fill="#942934"/><path d="M391.86,374.28c-.1.09-.15.21-.15.35,0,.1.03.21.09.3.06.1.17.22.33.38.44-.24.67-.48.67-.73,0-.13-.04-.23-.13-.31-.09-.08-.21-.12-.38-.12-.19,0-.33.04-.43.13ZM396.24,378.82l.8.68-1.46,1.66-.9-.77c-.84.54-1.78.81-2.83.81-.67,0-1.27-.11-1.81-.32-.54-.21-.96-.51-1.26-.88-.31-.37-.46-.79-.46-1.26,0-.53.13-.99.4-1.39s.68-.74,1.25-1.06c-.48-.52-.73-1.06-.73-1.62,0-.45.13-.85.38-1.19.25-.34.61-.61,1.07-.8.46-.19.99-.29,1.6-.29.56,0,1.05.09,1.47.26.42.17.75.42.99.75.23.33.35.7.35,1.13s-.12.81-.36,1.14c-.24.33-.61.64-1.11.93l.9.76c.15-.32.25-.69.33-1.1l2.19.65c-.16.71-.43,1.35-.8,1.91ZM393.01,378.95l-1.55-1.33c-.31.23-.47.5-.47.81,0,.21.09.38.28.52.19.14.45.21.78.21s.64-.07.96-.21Z" fill="#942934"/><path d="M391.87,374.28c-.1.09-.15.21-.15.35,0,.1.03.21.09.3.06.1.17.22.33.38.44-.24.67-.48.67-.73,0-.13-.04-.23-.13-.31-.09-.08-.21-.12-.38-.12-.19,0-.33.04-.43.13ZM396.24,378.82l.8.68-1.46,1.66-.9-.77c-.84.54-1.78.81-2.83.81-.67,0-1.27-.11-1.81-.32-.54-.21-.96-.51-1.26-.88-.31-.37-.46-.79-.46-1.26,0-.53.13-.99.4-1.39s.68-.74,1.25-1.06c-.48-.52-.73-1.06-.73-1.62,0-.45.13-.85.38-1.19.25-.34.61-.61,1.07-.8.46-.19.99-.29,1.6-.29.56,0,1.05.09,1.47.26.42.17.75.42.99.75.23.33.35.7.35,1.13s-.12.81-.36,1.14c-.24.33-.61.64-1.11.93l.9.76c.15-.32.25-.69.33-1.1l2.19.65c-.16.71-.43,1.35-.8,1.91ZM393.01,378.95l-1.55-1.33c-.31.23-.47.5-.47.81,0,.21.09.38.28.52.19.14.45.21.78.21s.64-.07.96-.21Z" fill="#942934"/><path d="M391.87,374.28c-.1.09-.15.21-.15.35,0,.1.03.21.09.3.06.1.17.22.33.38.44-.24.67-.48.67-.73,0-.13-.04-.23-.13-.31-.09-.08-.21-.12-.38-.12-.19,0-.33.04-.43.13ZM396.25,378.81l.8.68-1.46,1.66-.9-.77c-.84.54-1.78.81-2.83.81-.67,0-1.27-.11-1.81-.32-.54-.21-.96-.51-1.26-.88-.31-.37-.46-.79-.46-1.26,0-.53.13-.99.4-1.39s.68-.74,1.25-1.06c-.48-.52-.73-1.06-.73-1.62,0-.45.13-.85.38-1.19.25-.34.61-.61,1.07-.8.46-.19.99-.29,1.6-.29.56,0,1.05.09,1.47.26.42.17.75.42.99.75.23.33.35.7.35,1.13s-.12.81-.36,1.14c-.24.33-.61.64-1.11.93l.9.76c.15-.32.25-.69.33-1.1l2.19.65c-.16.71-.43,1.35-.8,1.91ZM393.02,378.95l-1.55-1.33c-.31.23-.47.5-.47.81,0,.21.09.38.28.52.19.14.45.21.78.21s.64-.07.96-.21Z" fill="#942934"/><path d="M391.88,374.27c-.1.09-.15.21-.15.35,0,.1.03.21.09.3.06.1.17.22.33.38.44-.24.67-.48.67-.73,0-.13-.04-.23-.13-.31-.09-.08-.21-.12-.38-.12-.19,0-.33.04-.43.13ZM396.25,378.81l.8.68-1.46,1.66-.9-.77c-.84.54-1.78.81-2.83.81-.67,0-1.27-.11-1.81-.32-.54-.21-.96-.51-1.26-.88-.31-.37-.46-.79-.46-1.26,0-.53.13-.99.4-1.39s.68-.74,1.25-1.06c-.48-.52-.73-1.06-.73-1.62,0-.45.13-.85.38-1.19.25-.34.61-.61,1.07-.8.46-.19.99-.29,1.6-.29.56,0,1.05.09,1.47.26.42.17.75.42.99.75.23.33.35.7.35,1.13s-.12.81-.36,1.14c-.24.33-.61.64-1.11.93l.9.76c.15-.32.25-.69.33-1.1l2.19.65c-.16.71-.43,1.35-.8,1.91ZM393.02,378.94l-1.55-1.33c-.31.23-.47.5-.47.81,0,.21.09.38.28.52.19.14.45.21.78.21s.64-.07.96-.21Z" fill="#942934"/><path d="M391.88,374.27c-.1.09-.15.21-.15.35,0,.1.03.21.09.3.06.1.17.22.33.38.44-.24.67-.48.67-.73,0-.13-.04-.23-.13-.31-.09-.08-.21-.12-.38-.12-.19,0-.33.04-.43.13ZM396.26,378.81l.8.68-1.46,1.66-.9-.77c-.84.54-1.78.81-2.83.81-.67,0-1.27-.11-1.81-.32-.54-.21-.96-.51-1.26-.88-.31-.37-.46-.79-.46-1.26,0-.53.13-.99.4-1.39s.68-.74,1.25-1.06c-.48-.52-.73-1.06-.73-1.62,0-.45.13-.85.38-1.19.25-.34.61-.61,1.07-.8.46-.19.99-.29,1.6-.29.56,0,1.05.09,1.47.26.42.17.75.42.99.75.23.33.35.7.35,1.13s-.12.81-.36,1.14c-.24.33-.61.64-1.11.93l.9.76c.15-.32.25-.69.33-1.1l2.19.65c-.16.71-.43,1.35-.8,1.91ZM393.03,378.94l-1.55-1.33c-.31.23-.47.5-.47.81,0,.21.09.38.28.52.19.14.45.21.78.21s.64-.07.96-.21Z" fill="#942934"/><path d="M391.89,374.27c-.1.09-.15.21-.15.35,0,.1.03.21.09.3.06.1.17.22.33.38.44-.24.67-.48.67-.73,0-.13-.04-.23-.13-.31-.09-.08-.21-.12-.38-.12-.19,0-.33.04-.43.13ZM396.26,378.81l.8.68-1.46,1.66-.9-.77c-.84.54-1.78.81-2.83.81-.67,0-1.27-.11-1.81-.32-.54-.21-.96-.51-1.26-.88-.31-.37-.46-.79-.46-1.26,0-.53.13-.99.4-1.39s.68-.74,1.25-1.06c-.48-.52-.73-1.06-.73-1.62,0-.45.13-.85.38-1.19.25-.34.61-.61,1.07-.8.46-.19.99-.29,1.6-.29.56,0,1.05.09,1.47.26.42.17.75.42.99.75.23.33.35.7.35,1.13s-.12.81-.36,1.14c-.24.33-.61.64-1.11.93l.9.76c.15-.32.25-.69.33-1.1l2.19.65c-.16.71-.43,1.35-.8,1.91ZM393.03,378.94l-1.55-1.33c-.31.23-.47.5-.47.81,0,.21.09.38.28.52.19.14.45.21.78.21s.64-.07.96-.21Z" fill="#942934"/><path d="M391.89,374.27c-.1.09-.15.21-.15.35,0,.1.03.21.09.3.06.1.17.22.33.38.44-.24.67-.48.67-.73,0-.13-.04-.23-.13-.31-.09-.08-.21-.12-.38-.12-.19,0-.33.04-.43.13ZM396.27,378.8l.8.68-1.46,1.66-.9-.77c-.84.54-1.78.81-2.83.81-.67,0-1.27-.11-1.81-.32-.54-.21-.96-.51-1.26-.88-.31-.37-.46-.79-.46-1.26,0-.53.13-.99.4-1.39s.68-.74,1.25-1.06c-.48-.52-.73-1.06-.73-1.62,0-.45.13-.85.38-1.19.25-.34.61-.61,1.07-.8.46-.19.99-.29,1.6-.29.56,0,1.05.09,1.47.26.42.17.75.42.99.75.23.33.35.7.35,1.13s-.12.81-.36,1.14c-.24.33-.61.64-1.11.93l.9.76c.15-.32.25-.69.33-1.1l2.19.65c-.16.71-.43,1.35-.8,1.91ZM393.04,378.94l-1.55-1.33c-.31.23-.47.5-.47.81,0,.21.09.38.28.52.19.14.45.21.78.21s.64-.07.96-.21Z" fill="#942934"/><path d="M391.9,374.26c-.1.09-.15.21-.15.35,0,.1.03.21.09.3.06.1.17.22.33.38.44-.24.67-.48.67-.73,0-.13-.04-.23-.13-.31-.09-.08-.21-.12-.38-.12-.19,0-.33.04-.43.13ZM396.27,378.8l.8.68-1.46,1.66-.9-.77c-.84.54-1.78.81-2.83.81-.67,0-1.27-.11-1.81-.32-.54-.21-.96-.51-1.26-.88-.31-.37-.46-.79-.46-1.26,0-.53.13-.99.4-1.39s.68-.74,1.25-1.06c-.48-.52-.73-1.06-.73-1.62,0-.45.13-.85.38-1.19.25-.34.61-.61,1.07-.8.46-.19.99-.29,1.6-.29.56,0,1.05.09,1.47.26.42.17.75.42.99.75.23.33.35.7.35,1.13s-.12.81-.36,1.14c-.24.33-.61.64-1.11.93l.9.76c.15-.32.25-.69.33-1.1l2.19.65c-.16.71-.43,1.35-.8,1.91ZM393.04,378.93l-1.55-1.33c-.31.23-.47.5-.47.81,0,.21.09.38.28.52.19.14.45.21.78.21s.64-.07.96-.21Z" fill="#942934"/><path d="M391.9,374.26c-.1.09-.15.21-.15.35,0,.1.03.21.09.3.06.1.17.22.33.38.44-.24.67-.48.67-.73,0-.13-.04-.23-.13-.31-.09-.08-.21-.12-.38-.12-.19,0-.33.04-.43.13ZM396.28,378.8l.8.68-1.46,1.66-.9-.77c-.84.54-1.78.81-2.83.81-.67,0-1.27-.11-1.81-.32-.54-.21-.96-.51-1.26-.88-.31-.37-.46-.79-.46-1.26,0-.53.13-.99.4-1.39s.68-.74,1.25-1.06c-.48-.52-.73-1.06-.73-1.62,0-.45.13-.85.38-1.19.25-.34.61-.61,1.07-.8.46-.19.99-.29,1.6-.29.56,0,1.05.09,1.47.26.42.17.75.42.99.75.23.33.35.7.35,1.13s-.12.81-.36,1.14c-.24.33-.61.64-1.11.93l.9.76c.15-.32.25-.69.33-1.1l2.19.65c-.16.71-.43,1.35-.8,1.91ZM393.05,378.93l-1.55-1.33c-.31.23-.47.5-.47.81,0,.21.09.38.28.52.19.14.45.21.78.21s.64-.07.96-.21Z" fill="#942934"/><path d="M391.91,374.26c-.1.09-.15.21-.15.35,0,.1.03.21.09.3.06.1.17.22.33.38.44-.24.67-.48.67-.73,0-.13-.04-.23-.13-.31-.09-.08-.21-.12-.38-.12-.19,0-.33.04-.43.13ZM396.28,378.8l.8.68-1.46,1.66-.9-.77c-.84.54-1.78.81-2.83.81-.67,0-1.27-.11-1.81-.32-.54-.21-.96-.51-1.26-.88-.31-.37-.46-.79-.46-1.26,0-.53.13-.99.4-1.39s.68-.74,1.25-1.06c-.48-.52-.73-1.06-.73-1.62,0-.45.13-.85.38-1.19.25-.34.61-.61,1.07-.8.46-.19.99-.29,1.6-.29.56,0,1.05.09,1.47.26.42.17.75.42.99.75.23.33.35.7.35,1.13s-.12.81-.36,1.14c-.24.33-.61.64-1.11.93l.9.76c.15-.32.25-.69.33-1.1l2.19.65c-.16.71-.43,1.35-.8,1.91ZM393.05,378.93l-1.55-1.33c-.31.23-.47.5-.47.81,0,.21.09.38.28.52.19.14.45.21.78.21s.64-.07.96-.21Z" fill="#942934"/><path d="M391.91,374.25c-.1.09-.15.21-.15.35,0,.1.03.21.09.3.06.1.17.22.33.38.44-.24.67-.48.67-.73,0-.13-.04-.23-.13-.31-.09-.08-.21-.12-.38-.12-.19,0-.33.04-.43.13ZM396.29,378.79l.8.68-1.46,1.66-.9-.77c-.84.54-1.78.81-2.83.81-.67,0-1.27-.11-1.81-.32-.54-.21-.96-.51-1.26-.88-.31-.37-.46-.79-.46-1.26,0-.53.13-.99.4-1.39s.68-.74,1.25-1.06c-.48-.52-.73-1.06-.73-1.62,0-.45.13-.85.38-1.19.25-.34.61-.61,1.07-.8.46-.19.99-.29,1.6-.29.56,0,1.05.09,1.47.26.42.17.75.42.99.75.23.33.35.7.35,1.13s-.12.81-.36,1.14c-.24.33-.61.64-1.11.93l.9.76c.15-.32.25-.69.33-1.1l2.19.65c-.16.71-.43,1.35-.8,1.91ZM393.06,378.93l-1.55-1.33c-.31.23-.47.5-.47.81,0,.21.09.38.28.52.19.14.45.21.78.21s.64-.07.96-.21Z" fill="#942934"/><path d="M391.92,374.25c-.1.09-.15.21-.15.35,0,.1.03.21.09.3.06.1.17.22.33.38.44-.24.67-.48.67-.73,0-.13-.04-.23-.13-.31-.09-.08-.21-.12-.38-.12-.19,0-.33.04-.43.13ZM396.29,378.79l.8.68-1.46,1.66-.9-.77c-.84.54-1.78.81-2.83.81-.67,0-1.27-.11-1.81-.32-.54-.21-.96-.51-1.26-.88-.31-.37-.46-.79-.46-1.26,0-.53.13-.99.4-1.39.27-.39.68-.74,1.25-1.06-.48-.52-.73-1.06-.73-1.62,0-.45.13-.85.38-1.19.25-.34.61-.61,1.07-.8.46-.19.99-.29,1.6-.29.56,0,1.05.09,1.47.26.42.17.75.42.99.75.23.33.35.7.35,1.13s-.12.81-.36,1.14c-.24.33-.61.64-1.11.93l.9.76c.15-.32.25-.69.33-1.1l2.19.65c-.16.71-.43,1.35-.8,1.91ZM393.06,378.92l-1.55-1.33c-.31.23-.47.5-.47.81,0,.21.09.38.28.52.19.14.45.21.78.21s.64-.07.96-.21Z" fill="#942934"/><path d="M391.92,374.25c-.1.09-.15.21-.15.35,0,.1.03.21.09.3.06.1.17.22.33.38.44-.24.67-.48.67-.73,0-.13-.04-.23-.13-.31-.09-.08-.21-.12-.38-.12-.19,0-.33.04-.43.13ZM396.3,378.79l.8.68-1.46,1.66-.9-.77c-.84.54-1.78.81-2.83.81-.67,0-1.27-.11-1.81-.32-.54-.21-.96-.51-1.26-.88-.31-.37-.46-.79-.46-1.26,0-.53.13-.99.4-1.39s.68-.74,1.25-1.06c-.48-.52-.73-1.06-.73-1.62,0-.45.13-.85.38-1.19.25-.34.61-.61,1.07-.8.46-.19.99-.29,1.6-.29.56,0,1.05.09,1.47.26.42.17.75.42.99.75.23.33.35.7.35,1.13s-.12.81-.36,1.14c-.24.33-.61.64-1.11.93l.9.76c.15-.32.25-.69.33-1.1l2.19.65c-.16.71-.43,1.35-.8,1.91ZM393.07,378.92l-1.55-1.33c-.31.23-.47.5-.47.81,0,.21.09.38.28.52.19.14.45.21.78.21s.64-.07.96-.21Z" fill="#942934"/><path d="M391.93,374.25c-.1.09-.15.21-.15.35,0,.1.03.21.09.3.06.1.17.22.33.38.44-.24.67-.48.67-.73,0-.13-.04-.23-.13-.31-.09-.08-.21-.12-.38-.12-.19,0-.33.04-.43.13ZM396.3,378.79l.8.68-1.46,1.66-.9-.77c-.84.54-1.78.81-2.83.81-.67,0-1.27-.11-1.81-.32-.54-.21-.96-.51-1.26-.88-.31-.37-.46-.79-.46-1.26,0-.53.13-.99.4-1.39.27-.39.68-.74,1.25-1.06-.48-.52-.73-1.06-.73-1.62,0-.45.13-.85.38-1.19.25-.34.61-.61,1.07-.8.46-.19.99-.29,1.6-.29.56,0,1.05.09,1.47.26.42.17.75.42.99.75.23.33.35.7.35,1.13s-.12.81-.36,1.14c-.24.33-.61.64-1.11.93l.9.76c.15-.32.25-.69.33-1.1l2.19.65c-.16.71-.43,1.35-.8,1.91ZM393.07,378.92l-1.55-1.33c-.31.23-.47.5-.47.81,0,.21.09.38.28.52.19.14.45.21.78.21s.64-.07.96-.21Z" fill="#942934"/><path d="M391.93,374.24c-.1.09-.15.21-.15.35,0,.1.03.21.09.3.06.1.17.22.33.38.44-.24.67-.48.67-.73,0-.13-.04-.23-.13-.31-.09-.08-.21-.12-.38-.12-.19,0-.33.04-.43.13ZM396.31,378.78l.8.68-1.46,1.66-.9-.77c-.84.54-1.78.81-2.83.81-.67,0-1.27-.11-1.81-.32-.54-.21-.96-.51-1.26-.88-.31-.37-.46-.79-.46-1.26,0-.53.13-.99.4-1.39.27-.39.68-.74,1.25-1.06-.48-.52-.73-1.06-.73-1.62,0-.45.13-.85.38-1.19.25-.34.61-.61,1.07-.8.46-.19.99-.29,1.6-.29.56,0,1.05.09,1.47.26.42.17.75.42.99.75.23.33.35.7.35,1.13s-.12.81-.36,1.14c-.24.33-.61.64-1.11.93l.9.76c.15-.32.25-.69.33-1.1l2.19.65c-.16.71-.43,1.35-.8,1.91ZM393.08,378.92l-1.55-1.33c-.31.23-.47.5-.47.81,0,.21.09.38.28.52.19.14.45.21.78.21s.64-.07.96-.21Z" fill="#942934"/><path d="M391.94,374.24c-.1.09-.15.21-.15.35,0,.1.03.21.09.3.06.1.17.22.33.38.44-.24.67-.48.67-.73,0-.13-.04-.23-.13-.31-.09-.08-.21-.12-.38-.12-.19,0-.33.04-.43.13ZM396.31,378.78l.8.68-1.46,1.66-.9-.77c-.84.54-1.78.81-2.83.81-.67,0-1.27-.11-1.81-.32-.54-.21-.96-.51-1.26-.88-.31-.37-.46-.79-.46-1.26,0-.53.13-.99.4-1.39.27-.39.68-.74,1.25-1.06-.48-.52-.73-1.06-.73-1.62,0-.45.13-.85.38-1.19.25-.34.61-.61,1.07-.8.46-.19.99-.29,1.6-.29.56,0,1.05.09,1.47.26.42.17.75.42.99.75.23.33.35.7.35,1.13s-.12.81-.36,1.14c-.24.33-.61.64-1.11.93l.9.76c.15-.32.25-.69.33-1.1l2.19.65c-.16.71-.43,1.35-.8,1.91ZM393.08,378.91l-1.55-1.33c-.31.23-.47.5-.47.81,0,.21.09.38.28.52.19.14.45.21.78.21s.64-.07.96-.21Z" fill="#942934"/><path d="M391.94,374.24c-.1.09-.15.21-.15.35,0,.1.03.21.09.3.06.1.17.22.33.38.44-.24.67-.48.67-.73,0-.13-.04-.23-.13-.31-.09-.08-.21-.12-.38-.12-.19,0-.33.04-.43.13ZM396.32,378.78l.8.68-1.46,1.66-.9-.77c-.84.54-1.78.81-2.83.81-.67,0-1.27-.11-1.81-.32-.54-.21-.96-.51-1.26-.88-.31-.37-.46-.79-.46-1.26,0-.53.13-.99.4-1.39.27-.39.68-.74,1.25-1.06-.48-.52-.73-1.06-.73-1.62,0-.45.13-.85.38-1.19.25-.34.61-.61,1.07-.8.46-.19.99-.29,1.6-.29.56,0,1.05.09,1.47.26.42.17.75.42.99.75.23.33.35.7.35,1.13s-.12.81-.36,1.14c-.24.33-.61.64-1.11.93l.9.76c.15-.32.25-.69.33-1.1l2.19.65c-.16.71-.43,1.35-.8,1.91ZM393.09,378.91l-1.55-1.33c-.31.23-.47.5-.47.81,0,.21.09.38.28.52.19.14.45.21.78.21s.64-.07.96-.21Z" fill="#942934"/><path d="M391.95,374.24c-.1.09-.15.21-.15.35,0,.1.03.21.09.3.06.1.17.22.33.38.44-.24.67-.48.67-.73,0-.13-.04-.23-.13-.31-.09-.08-.21-.12-.38-.12-.19,0-.33.04-.43.13ZM396.32,378.77l.8.68-1.46,1.66-.9-.77c-.84.54-1.78.81-2.83.81-.67,0-1.27-.11-1.81-.32-.54-.21-.96-.51-1.26-.88-.31-.37-.46-.79-.46-1.26,0-.53.13-.99.4-1.39.27-.39.68-.74,1.25-1.06-.48-.52-.73-1.06-.73-1.62,0-.45.13-.85.38-1.19.25-.34.61-.61,1.07-.8.46-.19.99-.29,1.6-.29.56,0,1.05.09,1.47.26.42.17.75.42.99.75.23.33.35.7.35,1.13s-.12.81-.36,1.14c-.24.33-.61.64-1.11.93l.9.76c.15-.32.25-.69.33-1.1l2.19.65c-.16.71-.43,1.35-.8,1.91ZM393.09,378.91l-1.55-1.33c-.31.23-.47.5-.47.81,0,.21.09.38.28.52.19.14.45.21.78.21s.64-.07.96-.21Z" fill="#942934"/><path d="M391.95,374.23c-.1.09-.15.21-.15.35,0,.1.03.21.09.3.06.1.17.22.33.38.44-.24.67-.48.67-.73,0-.13-.04-.23-.13-.31-.09-.08-.21-.12-.38-.12-.19,0-.33.04-.43.13ZM396.33,378.77l.8.68-1.46,1.66-.9-.77c-.84.54-1.78.81-2.83.81-.67,0-1.27-.11-1.81-.32-.54-.21-.96-.51-1.26-.88-.31-.37-.46-.79-.46-1.26,0-.53.13-.99.4-1.39.27-.39.68-.74,1.25-1.06-.48-.52-.73-1.06-.73-1.62,0-.45.13-.85.38-1.19.25-.34.61-.61,1.07-.8.46-.19.99-.29,1.6-.29.56,0,1.05.09,1.47.26.42.17.75.42.99.75.23.33.35.7.35,1.13s-.12.81-.36,1.14c-.24.33-.61.64-1.11.93l.9.76c.15-.32.25-.69.33-1.1l2.19.65c-.16.71-.43,1.35-.8,1.91ZM393.1,378.91l-1.55-1.33c-.31.23-.47.5-.47.81,0,.21.09.38.28.52.19.14.45.21.78.21s.64-.07.96-.21Z" fill="#942934"/><path d="M391.96,374.23c-.1.09-.15.21-.15.35,0,.1.03.21.09.3.06.1.17.22.33.38.44-.24.67-.48.67-.73,0-.13-.04-.23-.13-.31-.09-.08-.21-.12-.38-.12-.19,0-.33.04-.43.13ZM396.33,378.77l.8.68-1.46,1.66-.9-.77c-.84.54-1.78.81-2.83.81-.67,0-1.27-.11-1.81-.32-.54-.21-.96-.51-1.26-.88-.31-.37-.46-.79-.46-1.26,0-.53.13-.99.4-1.39.27-.39.68-.74,1.25-1.06-.48-.52-.73-1.06-.73-1.62,0-.45.13-.85.38-1.19.25-.34.61-.61,1.07-.8.46-.19.99-.29,1.6-.29.56,0,1.05.09,1.47.26.42.17.75.42.99.75.23.33.35.7.35,1.13s-.12.81-.36,1.14c-.24.33-.61.64-1.11.93l.9.76c.15-.32.25-.69.33-1.1l2.19.65c-.16.71-.43,1.35-.8,1.91ZM393.1,378.9l-1.55-1.33c-.31.23-.47.5-.47.81,0,.21.09.38.28.52.19.14.45.21.78.21s.64-.07.96-.21Z" fill="#942934"/><path d="M391.96,374.23c-.1.09-.15.21-.15.35,0,.1.03.21.09.3.06.1.17.22.33.38.44-.24.67-.48.67-.73,0-.13-.04-.23-.13-.31-.09-.08-.21-.12-.38-.12-.19,0-.33.04-.43.13ZM396.34,378.77l.8.68-1.46,1.66-.9-.77c-.84.54-1.78.81-2.83.81-.67,0-1.27-.11-1.81-.32-.54-.21-.96-.51-1.26-.88-.31-.37-.46-.79-.46-1.26,0-.53.13-.99.4-1.39.27-.39.68-.74,1.25-1.06-.48-.52-.73-1.06-.73-1.62,0-.45.13-.85.38-1.19.25-.34.61-.61,1.07-.8.46-.19.99-.29,1.6-.29.56,0,1.05.09,1.47.26.42.17.75.42.99.75.23.33.35.7.35,1.13s-.12.81-.36,1.14c-.24.33-.61.64-1.11.93l.9.76c.15-.32.25-.69.33-1.1l2.19.65c-.16.71-.43,1.35-.8,1.91ZM393.11,378.9l-1.55-1.33c-.31.23-.47.5-.47.81,0,.21.09.38.28.52.19.14.45.21.78.21s.64-.07.96-.21Z" fill="#942934"/><path d="M391.97,374.23c-.1.09-.15.21-.15.35,0,.1.03.21.09.3.06.1.17.22.33.38.44-.24.67-.48.67-.73,0-.13-.04-.23-.13-.31-.09-.08-.21-.12-.38-.12-.19,0-.33.04-.43.13ZM396.34,378.76l.8.68-1.46,1.66-.9-.77c-.84.54-1.78.81-2.83.81-.67,0-1.27-.11-1.81-.32-.54-.21-.96-.51-1.26-.88-.31-.37-.46-.79-.46-1.26,0-.53.13-.99.4-1.39.27-.39.68-.74,1.25-1.06-.48-.52-.73-1.06-.73-1.62,0-.45.13-.85.38-1.19.25-.34.61-.61,1.07-.8.46-.19.99-.29,1.6-.29.56,0,1.05.09,1.47.26.42.17.75.42.99.75.23.33.35.7.35,1.13s-.12.81-.36,1.14c-.24.33-.61.64-1.11.93l.9.76c.15-.32.25-.69.33-1.1l2.19.65c-.16.71-.43,1.35-.8,1.91ZM393.11,378.9l-1.55-1.33c-.31.23-.47.5-.47.81,0,.21.09.38.28.52.19.14.45.21.78.21s.64-.07.96-.21Z" fill="#942934"/><path d="M391.97,374.22c-.1.09-.15.21-.15.35,0,.1.03.21.09.3.06.1.17.22.33.38.44-.24.67-.48.67-.73,0-.13-.04-.23-.13-.31-.09-.08-.21-.12-.38-.12-.19,0-.33.04-.43.13ZM396.35,378.76l.8.68-1.46,1.66-.9-.77c-.84.54-1.78.81-2.83.81-.67,0-1.27-.11-1.81-.32-.54-.21-.96-.51-1.26-.88-.31-.37-.46-.79-.46-1.26,0-.53.13-.99.4-1.39.27-.39.68-.74,1.25-1.06-.48-.52-.73-1.06-.73-1.62,0-.45.13-.85.38-1.19.25-.34.61-.61,1.07-.8.46-.19.99-.29,1.6-.29.56,0,1.05.09,1.47.26.42.17.75.42.99.75.23.33.35.7.35,1.13s-.12.81-.36,1.14c-.24.33-.61.64-1.11.93l.9.76c.15-.32.25-.69.33-1.1l2.19.65c-.16.71-.43,1.35-.8,1.91ZM393.12,378.89l-1.55-1.33c-.31.23-.47.5-.47.81,0,.21.09.38.28.52.19.14.45.21.78.21s.64-.07.96-.21Z" fill="#942934"/><path d="M391.98,374.22c-.1.09-.15.21-.15.35,0,.1.03.21.09.3.06.1.17.22.33.38.44-.24.67-.48.67-.73,0-.13-.04-.23-.13-.31-.09-.08-.21-.12-.38-.12-.19,0-.33.04-.43.13ZM396.35,378.76l.8.68-1.46,1.66-.9-.77c-.84.54-1.78.81-2.83.81-.67,0-1.27-.11-1.81-.32-.54-.21-.96-.51-1.26-.88-.31-.37-.46-.79-.46-1.26,0-.53.13-.99.4-1.39.27-.39.68-.74,1.25-1.06-.48-.52-.73-1.06-.73-1.62,0-.45.13-.85.38-1.19.25-.34.61-.61,1.07-.8.46-.19.99-.29,1.6-.29.56,0,1.05.09,1.47.26.42.17.75.42.99.75.23.33.35.7.35,1.13s-.12.81-.36,1.14c-.24.33-.61.64-1.11.93l.9.76c.15-.32.25-.69.33-1.1l2.19.65c-.16.71-.43,1.35-.8,1.91ZM393.12,378.89l-1.55-1.33c-.31.23-.47.5-.47.81,0,.21.09.38.28.52.19.14.45.21.78.21s.64-.07.96-.21Z" fill="#942934"/><path d="M391.98,374.22c-.1.09-.15.21-.15.35,0,.1.03.21.09.3.06.1.17.22.33.38.44-.24.67-.48.67-.73,0-.13-.04-.23-.13-.31-.09-.08-.21-.12-.38-.12-.19,0-.33.04-.43.13ZM396.36,378.76l.8.68-1.46,1.66-.9-.77c-.84.54-1.78.81-2.83.81-.67,0-1.27-.11-1.81-.32-.54-.21-.96-.51-1.26-.88-.31-.37-.46-.79-.46-1.26,0-.53.13-.99.4-1.39.27-.39.68-.74,1.25-1.06-.48-.52-.73-1.06-.73-1.62,0-.45.13-.85.38-1.19.25-.34.61-.61,1.07-.8.46-.19.99-.29,1.6-.29.56,0,1.05.09,1.47.26.42.17.75.42.99.75.23.33.35.7.35,1.13s-.12.81-.36,1.14c-.24.33-.61.64-1.11.93l.9.76c.15-.32.25-.69.33-1.1l2.19.65c-.16.71-.43,1.35-.8,1.91ZM393.13,378.89l-1.55-1.33c-.31.23-.47.5-.47.81,0,.21.09.38.28.52.19.14.45.21.78.21s.64-.07.96-.21Z" fill="#942934"/><path d="M391.99,374.22c-.1.09-.15.21-.15.35,0,.1.03.21.09.3.06.1.17.22.33.38.44-.24.67-.48.67-.73,0-.13-.04-.23-.13-.31-.09-.08-.21-.12-.38-.12-.19,0-.33.04-.43.13ZM396.36,378.75l.8.68-1.46,1.66-.9-.77c-.84.54-1.78.81-2.83.81-.67,0-1.27-.11-1.81-.32-.54-.21-.96-.51-1.26-.88-.31-.37-.46-.79-.46-1.26,0-.53.13-.99.4-1.39.27-.39.68-.74,1.25-1.06-.48-.52-.73-1.06-.73-1.62,0-.45.13-.85.38-1.19.25-.34.61-.61,1.07-.8.46-.19.99-.29,1.6-.29.56,0,1.05.09,1.47.26.42.17.75.42.99.75.23.33.35.7.35,1.13s-.12.81-.36,1.14c-.24.33-.61.64-1.11.93l.9.76c.15-.32.25-.69.33-1.1l2.19.65c-.16.71-.43,1.35-.8,1.91ZM393.13,378.89l-1.55-1.33c-.31.23-.47.5-.47.81,0,.21.09.38.28.52.19.14.45.21.78.21s.64-.07.96-.21Z" fill="#942934"/><path d="M391.99,374.21c-.1.09-.15.21-.15.35,0,.1.03.21.09.3.06.1.17.22.33.38.44-.24.67-.48.67-.73,0-.13-.04-.23-.13-.31-.09-.08-.21-.12-.38-.12-.19,0-.33.04-.43.13ZM396.37,378.75l.8.68-1.46,1.66-.9-.77c-.84.54-1.78.81-2.83.81-.67,0-1.27-.11-1.81-.32-.54-.21-.96-.51-1.26-.88-.31-.37-.46-.79-.46-1.26,0-.53.13-.99.4-1.39.27-.39.68-.74,1.25-1.06-.48-.52-.73-1.06-.73-1.62,0-.45.13-.85.38-1.19.25-.34.61-.61,1.07-.8.46-.19.99-.29,1.6-.29.56,0,1.05.09,1.47.26.42.17.75.42.99.75.23.33.35.7.35,1.13s-.12.81-.36,1.14c-.24.33-.61.64-1.11.93l.9.76c.15-.32.25-.69.33-1.1l2.19.65c-.16.71-.43,1.35-.8,1.91ZM393.14,378.88l-1.55-1.33c-.31.23-.47.5-.47.81,0,.21.09.38.28.52.19.14.45.21.78.21s.64-.07.96-.21Z" fill="#942934"/><path d="M392,374.21c-.1.09-.15.21-.15.35,0,.1.03.21.09.3.06.1.17.22.33.38.44-.24.67-.48.67-.73,0-.13-.04-.23-.13-.31-.09-.08-.21-.12-.38-.12-.19,0-.33.04-.43.13ZM396.37,378.75l.8.68-1.46,1.66-.9-.77c-.84.54-1.78.81-2.83.81-.67,0-1.27-.11-1.81-.32-.54-.21-.96-.51-1.26-.88-.31-.37-.46-.79-.46-1.26,0-.53.13-.99.4-1.39.27-.39.68-.74,1.25-1.06-.48-.52-.73-1.06-.73-1.62,0-.45.13-.85.38-1.19.25-.34.61-.61,1.07-.8.46-.19.99-.29,1.6-.29.56,0,1.05.09,1.47.26.42.17.75.42.99.75.23.33.35.7.35,1.13s-.12.81-.36,1.14c-.24.33-.61.64-1.11.93l.9.76c.15-.32.25-.69.33-1.1l2.19.65c-.16.71-.43,1.35-.8,1.91ZM393.14,378.88l-1.55-1.33c-.31.23-.47.5-.47.81,0,.21.09.38.28.52.19.14.45.21.78.21s.64-.07.96-.21Z" fill="#942934"/><path d="M392,374.21c-.1.09-.15.21-.15.35,0,.1.03.21.09.3.06.1.17.22.33.38.44-.24.67-.48.67-.73,0-.13-.04-.23-.13-.31-.09-.08-.21-.12-.38-.12-.19,0-.33.04-.43.13ZM396.38,378.75l.8.68-1.46,1.66-.9-.77c-.84.54-1.78.81-2.83.81-.67,0-1.27-.11-1.81-.32-.54-.21-.96-.51-1.26-.88-.31-.37-.46-.79-.46-1.26,0-.53.13-.99.4-1.39.27-.39.68-.74,1.25-1.06-.48-.52-.73-1.06-.73-1.62,0-.45.13-.85.38-1.19.25-.34.61-.61,1.07-.8.46-.19.99-.29,1.6-.29.56,0,1.05.09,1.47.26.42.17.75.42.99.75.23.33.35.7.35,1.13s-.12.81-.36,1.14c-.24.33-.61.64-1.11.93l.9.76c.15-.32.25-.69.33-1.1l2.19.65c-.16.71-.43,1.35-.8,1.91ZM393.15,378.88l-1.55-1.33c-.31.23-.47.5-.47.81,0,.21.09.38.28.52.19.14.45.21.78.21s.64-.07.96-.21Z" fill="#942934"/><path d="M392.01,374.21c-.1.09-.15.21-.15.35,0,.1.03.21.09.3.06.1.17.22.33.38.44-.24.67-.48.67-.73,0-.13-.04-.23-.13-.31-.09-.08-.21-.12-.38-.12-.19,0-.33.04-.43.13ZM396.38,378.74l.8.68-1.46,1.66-.9-.77c-.84.54-1.78.81-2.83.81-.67,0-1.27-.11-1.81-.32-.54-.21-.96-.51-1.26-.88-.31-.37-.46-.79-.46-1.26,0-.53.13-.99.4-1.39.27-.39.68-.74,1.25-1.06-.48-.52-.73-1.06-.73-1.62,0-.45.13-.85.38-1.19.25-.34.61-.61,1.07-.8.46-.19.99-.29,1.6-.29.56,0,1.05.09,1.47.26.42.17.75.42.99.75.23.33.35.7.35,1.13s-.12.81-.36,1.14c-.24.33-.61.64-1.11.93l.9.76c.15-.32.25-.69.33-1.1l2.19.65c-.16.71-.43,1.35-.8,1.91ZM393.15,378.88l-1.55-1.33c-.31.23-.47.5-.47.81,0,.21.09.38.28.52.19.14.45.21.78.21s.64-.07.96-.21Z" fill="#942934"/><path d="M392.01,374.2c-.1.09-.15.21-.15.35,0,.1.03.21.09.3.06.1.17.22.33.38.44-.24.67-.48.67-.73,0-.13-.04-.23-.13-.31-.09-.08-.21-.12-.38-.12-.19,0-.33.04-.43.13ZM396.39,378.74l.8.68-1.46,1.66-.9-.77c-.84.54-1.78.81-2.83.81-.67,0-1.27-.11-1.81-.32-.54-.21-.96-.51-1.26-.88-.31-.37-.46-.79-.46-1.26,0-.53.13-.99.4-1.39.27-.39.68-.74,1.25-1.06-.48-.52-.73-1.06-.73-1.62,0-.45.13-.85.38-1.19.25-.34.61-.61,1.07-.8.46-.19.99-.29,1.6-.29.56,0,1.05.09,1.47.26.42.17.75.42.99.75.23.33.35.7.35,1.13s-.12.81-.36,1.14c-.24.33-.61.64-1.11.93l.9.76c.15-.32.25-.69.33-1.1l2.19.65c-.16.71-.43,1.35-.8,1.91ZM393.16,378.87l-1.55-1.33c-.31.23-.47.5-.47.81,0,.21.09.38.28.52.19.14.45.21.78.21s.64-.07.96-.21Z" fill="#942934"/><path d="M392.02,374.2c-.1.09-.15.21-.15.35,0,.1.03.21.09.3.06.1.17.22.33.38.44-.24.67-.48.67-.73,0-.13-.04-.23-.13-.31-.09-.08-.21-.12-.38-.12-.19,0-.33.04-.43.13ZM396.39,378.74l.8.68-1.46,1.66-.9-.77c-.84.54-1.78.81-2.83.81-.67,0-1.27-.11-1.81-.32-.54-.21-.96-.51-1.26-.88-.31-.37-.46-.79-.46-1.26,0-.53.13-.99.4-1.39.27-.39.68-.74,1.25-1.06-.48-.52-.73-1.06-.73-1.62,0-.45.13-.85.38-1.19.25-.34.61-.61,1.07-.8.46-.19.99-.29,1.6-.29.56,0,1.05.09,1.47.26.42.17.75.42.99.75.23.33.35.7.35,1.13s-.12.81-.36,1.14c-.24.33-.61.64-1.11.93l.9.76c.15-.32.25-.69.33-1.1l2.19.65c-.16.71-.43,1.35-.8,1.91ZM393.16,378.87l-1.55-1.33c-.31.23-.47.5-.47.81,0,.21.09.38.28.52.19.14.45.21.78.21s.64-.07.96-.21Z" fill="#942934"/><path d="M392.02,374.2c-.1.09-.15.21-.15.35,0,.1.03.21.09.3.06.1.17.22.33.38.44-.24.67-.48.67-.73,0-.13-.04-.23-.13-.31-.09-.08-.21-.12-.38-.12-.19,0-.33.04-.43.13ZM396.4,378.74l.8.68-1.46,1.66-.9-.77c-.84.54-1.78.81-2.83.81-.67,0-1.27-.11-1.81-.32-.54-.21-.96-.51-1.26-.88-.31-.37-.46-.79-.46-1.26,0-.53.13-.99.4-1.39.27-.39.68-.74,1.25-1.06-.48-.52-.73-1.06-.73-1.62,0-.45.13-.85.38-1.19.25-.34.61-.61,1.07-.8.46-.19.99-.29,1.6-.29.56,0,1.05.09,1.47.26.42.17.75.42.99.75.23.33.35.7.35,1.13s-.12.81-.36,1.14c-.24.33-.61.64-1.11.93l.9.76c.15-.32.25-.69.33-1.1l2.19.65c-.16.71-.43,1.35-.8,1.91ZM393.17,378.87l-1.55-1.33c-.31.23-.47.5-.47.81,0,.21.09.38.28.52.19.14.45.21.78.21s.64-.07.96-.21Z" fill="#942934"/><path d="M392.03,374.2c-.1.09-.15.21-.15.35,0,.1.03.21.09.3.06.1.17.22.33.38.44-.24.67-.48.67-.73,0-.13-.04-.23-.13-.31-.09-.08-.21-.12-.38-.12-.19,0-.33.04-.43.13ZM396.4,378.73l.8.68-1.46,1.66-.9-.77c-.84.54-1.78.81-2.83.81-.67,0-1.27-.11-1.81-.32-.54-.21-.96-.51-1.26-.88-.31-.37-.46-.79-.46-1.26,0-.53.13-.99.4-1.39.27-.39.68-.74,1.25-1.06-.48-.52-.73-1.06-.73-1.62,0-.45.13-.85.38-1.19.25-.34.61-.61,1.07-.8.46-.19.99-.29,1.6-.29.56,0,1.05.09,1.47.26.42.17.75.42.99.75.23.33.35.7.35,1.13s-.12.81-.36,1.14c-.24.33-.61.64-1.11.93l.9.76c.15-.32.25-.69.33-1.1l2.19.65c-.16.71-.43,1.35-.8,1.91ZM393.17,378.87l-1.55-1.33c-.31.23-.47.5-.47.81,0,.21.09.38.28.52.19.14.45.21.78.21s.64-.07.96-.21Z" fill="#942934"/><path d="M392.03,374.19c-.1.09-.15.21-.15.35,0,.1.03.21.09.3.06.1.17.22.33.38.44-.24.67-.48.67-.73,0-.13-.04-.23-.13-.31-.09-.08-.21-.12-.38-.12-.19,0-.33.04-.43.13ZM396.41,378.73l.8.68-1.46,1.66-.9-.77c-.84.54-1.78.81-2.83.81-.67,0-1.27-.11-1.81-.32-.54-.21-.96-.51-1.26-.88-.31-.37-.46-.79-.46-1.26,0-.53.13-.99.4-1.39.27-.39.68-.74,1.25-1.06-.48-.52-.73-1.06-.73-1.62,0-.45.13-.85.38-1.19.25-.34.61-.61,1.07-.8.46-.19.99-.29,1.6-.29.56,0,1.05.09,1.47.26.42.17.75.42.99.75.23.33.35.7.35,1.13s-.12.81-.36,1.14c-.24.33-.61.64-1.11.93l.9.76c.15-.32.25-.69.33-1.1l2.19.65c-.16.71-.43,1.35-.8,1.91ZM393.18,378.86l-1.55-1.33c-.31.23-.47.5-.47.81,0,.21.09.38.28.52.19.14.45.21.78.21s.64-.07.96-.21Z" fill="#942934"/><path d="M392.04,374.19c-.1.09-.15.21-.15.35,0,.1.03.21.09.3.06.1.17.22.33.38.44-.24.67-.48.67-.73,0-.13-.04-.23-.13-.31-.09-.08-.21-.12-.38-.12-.19,0-.33.04-.43.13ZM396.41,378.73l.8.68-1.46,1.66-.9-.77c-.84.54-1.78.81-2.83.81-.67,0-1.27-.11-1.81-.32-.54-.21-.96-.51-1.26-.88-.31-.37-.46-.79-.46-1.26,0-.53.13-.99.4-1.39.27-.39.68-.74,1.25-1.06-.48-.52-.73-1.06-.73-1.62,0-.45.13-.85.38-1.19.25-.34.61-.61,1.07-.8.46-.19.99-.29,1.6-.29.56,0,1.05.09,1.47.26.42.17.75.42.99.75.23.33.35.7.35,1.13s-.12.81-.36,1.14c-.24.33-.61.64-1.11.93l.9.76c.15-.32.25-.69.33-1.1l2.19.65c-.16.71-.43,1.35-.8,1.91ZM393.18,378.86l-1.55-1.33c-.31.23-.47.5-.47.81,0,.21.09.38.28.52.19.14.45.21.78.21s.64-.07.96-.21Z" fill="#942934"/><path d="M392.04,374.19c-.1.09-.15.21-.15.35,0,.1.03.21.09.3.06.1.17.22.33.38.44-.24.67-.48.67-.73,0-.13-.04-.23-.13-.31-.09-.08-.21-.12-.38-.12-.19,0-.33.04-.43.13ZM396.42,378.73l.8.68-1.46,1.66-.9-.77c-.84.54-1.78.81-2.83.81-.67,0-1.27-.11-1.81-.32-.54-.21-.96-.51-1.26-.88-.31-.37-.46-.79-.46-1.26,0-.53.13-.99.4-1.39.27-.39.68-.74,1.25-1.06-.48-.52-.73-1.06-.73-1.62,0-.45.13-.85.38-1.19.25-.34.61-.61,1.07-.8.46-.19.99-.29,1.6-.29.56,0,1.05.09,1.47.26.42.17.75.42.99.75.23.33.35.7.35,1.13s-.12.81-.36,1.14c-.24.33-.61.64-1.11.93l.9.76c.15-.32.25-.69.33-1.1l2.19.65c-.16.71-.43,1.35-.8,1.91ZM393.19,378.86l-1.55-1.33c-.31.23-.47.5-.47.81,0,.21.09.38.28.52.19.14.45.21.78.21s.64-.07.96-.21Z" fill="#942934"/><path d="M392.05,374.19c-.1.09-.15.21-.15.35,0,.1.03.21.09.3.06.1.17.22.33.38.44-.24.67-.48.67-.73,0-.13-.04-.23-.13-.31-.09-.08-.21-.12-.38-.12-.19,0-.33.04-.43.13ZM396.42,378.72l.8.68-1.46,1.66-.9-.77c-.84.54-1.78.81-2.83.81-.67,0-1.27-.11-1.81-.32-.54-.21-.96-.51-1.26-.88-.31-.37-.46-.79-.46-1.26,0-.53.13-.99.4-1.39.27-.39.68-.74,1.25-1.06-.48-.52-.73-1.06-.73-1.62,0-.45.13-.85.38-1.19.25-.34.61-.61,1.07-.8.46-.19.99-.29,1.6-.29.56,0,1.05.09,1.47.26.42.17.75.42.99.75.23.33.35.7.35,1.13s-.12.81-.36,1.14c-.24.33-.61.64-1.11.93l.9.76c.15-.32.25-.69.33-1.1l2.19.65c-.16.71-.43,1.35-.8,1.91ZM393.19,378.86l-1.55-1.33c-.31.23-.47.5-.47.81,0,.21.09.38.28.52.19.14.45.21.78.21s.64-.07.96-.21Z" fill="#942934"/><path d="M392.05,374.18c-.1.09-.15.21-.15.35,0,.1.03.21.09.3.06.1.17.22.33.38.44-.24.67-.48.67-.73,0-.13-.04-.23-.13-.31-.09-.08-.21-.12-.38-.12-.19,0-.33.04-.43.13ZM396.43,378.72l.8.68-1.46,1.66-.9-.77c-.84.54-1.78.81-2.83.81-.67,0-1.27-.11-1.81-.32-.54-.21-.96-.51-1.26-.88-.31-.37-.46-.79-.46-1.26,0-.53.13-.99.4-1.39.27-.39.68-.74,1.25-1.06-.48-.52-.73-1.06-.73-1.62,0-.45.13-.85.38-1.19.25-.34.61-.61,1.07-.8.46-.19.99-.29,1.6-.29.56,0,1.05.09,1.47.26.42.17.75.42.99.75.23.33.35.7.35,1.13s-.12.81-.36,1.14c-.24.33-.61.64-1.11.93l.9.76c.15-.32.25-.69.33-1.1l2.19.65c-.16.71-.43,1.35-.8,1.91ZM393.2,378.85l-1.55-1.33c-.31.23-.47.5-.47.81,0,.21.09.38.28.52.19.14.45.21.78.21s.64-.07.96-.21Z" fill="#942934"/><path d="M392.06,374.18c-.1.09-.15.21-.15.35,0,.1.03.21.09.3.06.1.17.22.33.38.44-.24.67-.48.67-.73,0-.13-.04-.23-.13-.31-.09-.08-.21-.12-.38-.12-.19,0-.33.04-.43.13ZM396.43,378.72l.8.68-1.46,1.66-.9-.77c-.84.54-1.78.81-2.83.81-.67,0-1.27-.11-1.81-.32-.54-.21-.96-.51-1.26-.88-.31-.37-.46-.79-.46-1.26,0-.53.13-.99.4-1.39.27-.39.68-.74,1.25-1.06-.48-.52-.73-1.06-.73-1.62,0-.45.13-.85.38-1.19.25-.34.61-.61,1.07-.8.46-.19.99-.29,1.6-.29.56,0,1.05.09,1.47.26.42.17.75.42.99.75.23.33.35.7.35,1.13s-.12.81-.36,1.14c-.24.33-.61.64-1.11.93l.9.76c.15-.32.25-.69.33-1.1l2.19.65c-.16.71-.43,1.35-.8,1.91ZM393.2,378.85l-1.55-1.33c-.31.23-.47.5-.47.81,0,.21.09.38.28.52.19.14.45.21.78.21s.64-.07.96-.21Z" fill="#942934"/><path d="M392.06,374.18c-.1.09-.15.21-.15.35,0,.1.03.21.09.3.06.1.17.22.33.38.44-.24.67-.48.67-.73,0-.13-.04-.23-.13-.31-.09-.08-.21-.12-.38-.12-.19,0-.33.04-.43.13ZM396.44,378.72l.8.68-1.46,1.66-.9-.77c-.84.54-1.78.81-2.83.81-.67,0-1.27-.11-1.81-.32-.54-.21-.96-.51-1.26-.88-.31-.37-.46-.79-.46-1.26,0-.53.13-.99.4-1.39.27-.39.68-.74,1.25-1.06-.48-.52-.73-1.06-.73-1.62,0-.45.13-.85.38-1.19.25-.34.61-.61,1.07-.8.46-.19.99-.29,1.6-.29.56,0,1.05.09,1.47.26.42.17.75.42.99.75.23.33.35.7.35,1.13s-.12.81-.36,1.14c-.24.33-.61.64-1.11.93l.9.76c.15-.32.25-.69.33-1.1l2.19.65c-.16.71-.43,1.35-.8,1.91ZM393.21,378.85l-1.55-1.33c-.31.23-.47.5-.47.81,0,.21.09.38.28.52.19.14.45.21.78.21s.64-.07.96-.21Z" fill="#942934"/><path d="M392.07,374.18c-.1.09-.15.21-.15.35,0,.1.03.21.09.3.06.1.17.22.33.38.44-.24.67-.48.67-.73,0-.13-.04-.23-.13-.31-.09-.08-.21-.12-.38-.12-.19,0-.33.04-.43.13ZM396.44,378.71l.8.68-1.46,1.66-.9-.77c-.84.54-1.78.81-2.83.81-.67,0-1.27-.11-1.81-.32-.54-.21-.96-.51-1.26-.88-.31-.37-.46-.79-.46-1.26,0-.53.13-.99.4-1.39.27-.39.68-.74,1.25-1.06-.48-.52-.73-1.06-.73-1.62,0-.45.13-.85.38-1.19.25-.34.61-.61,1.07-.8.46-.19.99-.29,1.6-.29.56,0,1.05.09,1.47.26.42.17.75.42.99.75.23.33.35.7.35,1.13s-.12.81-.36,1.14c-.24.33-.61.64-1.11.93l.9.76c.15-.32.25-.69.33-1.1l2.19.65c-.16.71-.43,1.35-.8,1.91ZM393.21,378.85l-1.55-1.33c-.31.23-.47.5-.47.81,0,.21.09.38.28.52.19.14.45.21.78.21s.64-.07.96-.21Z" fill="#942934"/><path d="M392.07,374.17c-.1.09-.15.21-.15.35,0,.1.03.21.09.3.06.1.17.22.33.38.44-.24.67-.48.67-.73,0-.13-.04-.23-.13-.31-.09-.08-.21-.12-.38-.12-.19,0-.33.04-.43.13ZM396.45,378.71l.8.68-1.46,1.66-.9-.77c-.84.54-1.78.81-2.83.81-.67,0-1.27-.11-1.81-.32-.54-.21-.96-.51-1.26-.88-.31-.37-.46-.79-.46-1.26,0-.53.13-.99.4-1.39.27-.39.68-.74,1.25-1.06-.48-.52-.73-1.06-.73-1.62,0-.45.13-.85.38-1.19.25-.34.61-.61,1.07-.8.46-.19.99-.29,1.6-.29.56,0,1.05.09,1.47.26.42.17.75.42.99.75.23.33.35.7.35,1.13s-.12.81-.36,1.14c-.24.33-.61.64-1.11.93l.9.76c.15-.32.25-.69.33-1.1l2.19.65c-.16.71-.43,1.35-.8,1.91ZM393.22,378.84l-1.55-1.33c-.31.23-.47.5-.47.81,0,.21.09.38.28.52.19.14.45.21.78.21s.64-.07.96-.21Z" fill="#942934"/><path d="M392.08,374.17c-.1.09-.15.21-.15.35,0,.1.03.21.09.3.06.1.17.22.33.38.44-.24.67-.48.67-.73,0-.13-.04-.23-.13-.31-.09-.08-.21-.12-.38-.12-.19,0-.33.04-.43.13ZM396.45,378.71l.8.68-1.46,1.66-.9-.77c-.84.54-1.78.81-2.83.81-.67,0-1.27-.11-1.81-.32-.54-.21-.96-.51-1.26-.88-.31-.37-.46-.79-.46-1.26,0-.53.13-.99.4-1.39.27-.39.68-.74,1.25-1.06-.48-.52-.73-1.06-.73-1.62,0-.45.13-.85.38-1.19.25-.34.61-.61,1.07-.8.46-.19.99-.29,1.6-.29.56,0,1.05.09,1.47.26.42.17.75.42.99.75.23.33.35.7.35,1.13s-.12.81-.36,1.14c-.24.33-.61.64-1.11.93l.9.76c.15-.32.25-.69.33-1.1l2.19.65c-.16.71-.43,1.35-.8,1.91ZM393.22,378.84l-1.55-1.33c-.31.23-.47.5-.47.81,0,.21.09.38.28.52.19.14.45.21.78.21s.64-.07.96-.21Z" fill="#942934"/><path d="M392.08,374.17c-.1.09-.15.21-.15.35,0,.1.03.21.09.3.06.1.17.22.33.38.44-.24.67-.48.67-.73,0-.13-.04-.23-.13-.31-.09-.08-.21-.12-.38-.12-.19,0-.33.04-.43.13ZM396.46,378.71l.8.68-1.46,1.66-.9-.77c-.84.54-1.78.81-2.83.81-.67,0-1.27-.11-1.81-.32-.54-.21-.96-.51-1.26-.88-.31-.37-.46-.79-.46-1.26,0-.53.13-.99.4-1.39.27-.39.68-.74,1.25-1.06-.48-.52-.73-1.06-.73-1.62,0-.45.13-.85.38-1.19.25-.34.61-.61,1.07-.8.46-.19.99-.29,1.6-.29.56,0,1.05.09,1.47.26.42.17.75.42.99.75.23.33.35.7.35,1.13s-.12.81-.36,1.14c-.24.33-.61.64-1.11.93l.9.76c.15-.32.25-.69.33-1.1l2.19.65c-.16.71-.43,1.35-.8,1.91ZM393.23,378.84l-1.55-1.33c-.31.23-.47.5-.47.81,0,.21.09.38.28.52.19.14.45.21.78.21s.64-.07.96-.21Z" fill="#942934"/><path d="M392.09,374.16c-.1.09-.15.21-.15.35,0,.1.03.21.09.3.06.1.17.22.33.38.44-.24.67-.48.67-.73,0-.13-.04-.23-.13-.31-.09-.08-.21-.12-.38-.12-.19,0-.33.04-.43.13ZM396.46,378.7l.8.68-1.46,1.66-.9-.77c-.84.54-1.78.81-2.83.81-.67,0-1.27-.11-1.81-.32-.54-.21-.96-.51-1.26-.88-.31-.37-.46-.79-.46-1.26,0-.53.13-.99.4-1.39.27-.39.68-.74,1.25-1.06-.48-.52-.73-1.06-.73-1.62,0-.45.13-.85.38-1.19.25-.34.61-.61,1.07-.8.46-.19.99-.29,1.6-.29.56,0,1.05.09,1.47.26.42.17.75.42.99.75.23.33.35.7.35,1.13s-.12.81-.36,1.14c-.24.33-.61.64-1.11.93l.9.76c.15-.32.25-.69.33-1.1l2.19.65c-.16.71-.43,1.35-.8,1.91ZM393.23,378.84l-1.55-1.33c-.31.23-.47.5-.47.81,0,.21.09.38.28.52.19.14.45.21.78.21s.64-.07.96-.21Z" fill="#942934"/><path d="M392.09,374.16c-.1.09-.15.21-.15.35,0,.1.03.21.09.3.06.1.17.22.33.38.44-.24.67-.48.67-.73,0-.13-.04-.23-.13-.31-.09-.08-.21-.12-.38-.12-.19,0-.33.04-.43.13ZM396.47,378.7l.8.68-1.46,1.66-.9-.77c-.84.54-1.78.81-2.83.81-.67,0-1.27-.11-1.81-.32-.54-.21-.96-.51-1.26-.88-.31-.37-.46-.79-.46-1.26,0-.53.13-.99.4-1.39.27-.39.68-.74,1.25-1.06-.48-.52-.73-1.06-.73-1.62,0-.45.13-.85.38-1.19.25-.34.61-.61,1.07-.8.46-.19.99-.29,1.6-.29.56,0,1.05.09,1.47.26.42.17.75.42.99.75.23.33.35.7.35,1.13s-.12.81-.36,1.14c-.24.33-.61.64-1.11.93l.9.76c.15-.32.25-.69.33-1.1l2.19.65c-.16.71-.43,1.35-.8,1.91ZM393.24,378.83l-1.55-1.33c-.31.23-.47.5-.47.81,0,.21.09.38.28.52.19.14.45.21.78.21s.64-.07.96-.21Z" fill="#942934"/><path d="M392.1,374.16c-.1.09-.15.21-.15.35,0,.1.03.21.09.3.06.1.17.22.33.38.44-.24.67-.48.67-.73,0-.13-.04-.23-.13-.31-.09-.08-.21-.12-.38-.12-.19,0-.33.04-.43.13ZM396.47,378.7l.8.68-1.46,1.66-.9-.77c-.84.54-1.78.81-2.83.81-.67,0-1.27-.11-1.81-.32-.54-.21-.96-.51-1.26-.88-.31-.37-.46-.79-.46-1.26,0-.53.13-.99.4-1.39.27-.39.68-.74,1.25-1.06-.48-.52-.73-1.06-.73-1.62,0-.45.13-.85.38-1.19.25-.34.61-.61,1.07-.8.46-.19.99-.29,1.6-.29.56,0,1.05.09,1.47.26.42.17.75.42.99.75.23.33.35.7.35,1.13s-.12.81-.36,1.14c-.24.33-.61.64-1.11.93l.9.76c.15-.32.25-.69.33-1.1l2.19.65c-.16.71-.43,1.35-.8,1.91ZM393.24,378.83l-1.55-1.33c-.31.23-.47.5-.47.81,0,.21.09.38.28.52.19.14.45.21.78.21s.64-.07.96-.21Z" fill="#942934"/><path d="M392.1,374.16c-.1.09-.15.21-.15.35,0,.1.03.21.09.3.06.1.17.22.33.38.44-.24.67-.48.67-.73,0-.13-.04-.23-.13-.31-.09-.08-.21-.12-.38-.12-.19,0-.33.04-.43.13ZM396.48,378.7l.8.68-1.46,1.66-.9-.77c-.84.54-1.78.81-2.83.81-.67,0-1.27-.11-1.81-.32-.54-.21-.96-.51-1.26-.88-.31-.37-.46-.79-.46-1.26,0-.53.13-.99.4-1.39.27-.39.68-.74,1.25-1.06-.48-.52-.73-1.06-.73-1.62,0-.45.13-.85.38-1.19.25-.34.61-.61,1.07-.8.46-.19.99-.29,1.6-.29.56,0,1.05.09,1.47.26.42.17.75.42.99.75.23.33.35.7.35,1.13s-.12.81-.36,1.14c-.24.33-.61.64-1.11.93l.9.76c.15-.32.25-.69.33-1.1l2.19.65c-.16.71-.43,1.35-.8,1.91ZM393.25,378.83l-1.55-1.33c-.31.23-.47.5-.47.81,0,.21.09.38.28.52.19.14.45.21.78.21s.64-.07.96-.21Z" fill="#942934"/><path d="M392.11,374.15c-.1.09-.15.21-.15.35,0,.1.03.21.09.3.06.1.17.22.33.38.44-.24.67-.48.67-.73,0-.13-.04-.23-.13-.31-.09-.08-.21-.12-.38-.12-.19,0-.33.04-.43.13ZM396.48,378.69l.8.68-1.46,1.66-.9-.77c-.84.54-1.78.81-2.83.81-.67,0-1.27-.11-1.81-.32-.54-.21-.96-.51-1.26-.88-.31-.37-.46-.79-.46-1.26,0-.53.13-.99.4-1.39.27-.39.68-.74,1.25-1.06-.48-.52-.73-1.06-.73-1.62,0-.45.13-.85.38-1.19.25-.34.61-.61,1.07-.8.46-.19.99-.29,1.6-.29.56,0,1.05.09,1.47.26.42.17.75.42.99.75.23.33.35.7.35,1.13s-.12.81-.36,1.14c-.24.33-.61.64-1.11.93l.9.76c.15-.32.25-.69.33-1.1l2.19.65c-.16.71-.43,1.35-.8,1.91ZM393.25,378.83l-1.55-1.33c-.31.23-.47.5-.47.81,0,.21.09.38.28.52.19.14.45.21.78.21s.64-.07.96-.21Z" fill="#942934"/><path d="M392.11,374.15c-.1.09-.15.21-.15.35,0,.1.03.21.09.3.06.1.17.22.33.38.44-.24.67-.48.67-.73,0-.13-.04-.23-.13-.31-.09-.08-.21-.12-.38-.12-.19,0-.33.04-.43.13ZM396.49,378.69l.8.68-1.46,1.66-.9-.77c-.84.54-1.78.81-2.83.81-.67,0-1.27-.11-1.81-.32-.54-.21-.96-.51-1.26-.88-.31-.37-.46-.79-.46-1.26,0-.53.13-.99.4-1.39.27-.39.68-.74,1.25-1.06-.48-.52-.73-1.06-.73-1.62,0-.45.13-.85.38-1.19.25-.34.61-.61,1.07-.8.46-.19.99-.29,1.6-.29.56,0,1.05.09,1.47.26.42.17.75.42.99.75.23.33.35.7.35,1.13s-.12.81-.36,1.14c-.24.33-.61.64-1.11.93l.9.76c.15-.32.25-.69.33-1.1l2.19.65c-.16.71-.43,1.35-.8,1.91ZM393.26,378.82l-1.55-1.33c-.31.23-.47.5-.47.81,0,.21.09.38.28.52.19.14.45.21.78.21s.64-.07.96-.21Z" fill="#942934"/><path d="M392.12,374.15c-.1.09-.15.21-.15.35,0,.1.03.21.09.3.06.1.17.22.33.38.44-.24.67-.48.67-.73,0-.13-.04-.23-.13-.31-.09-.08-.21-.12-.38-.12-.19,0-.33.04-.43.13ZM396.49,378.69l.8.68-1.46,1.66-.9-.77c-.84.54-1.78.81-2.83.81-.67,0-1.27-.11-1.81-.32-.54-.21-.96-.51-1.26-.88-.31-.37-.46-.79-.46-1.26,0-.53.13-.99.4-1.39.27-.39.68-.74,1.25-1.06-.48-.52-.73-1.06-.73-1.62,0-.45.13-.85.38-1.19.25-.34.61-.61,1.07-.8.46-.19.99-.29,1.6-.29.56,0,1.05.09,1.47.26.42.17.75.42.99.75.23.33.35.7.35,1.13s-.12.81-.36,1.14c-.24.33-.61.64-1.11.93l.9.76c.15-.32.25-.69.33-1.1l2.19.65c-.16.71-.43,1.35-.8,1.91ZM393.26,378.82l-1.55-1.33c-.31.23-.47.5-.47.81,0,.21.09.38.28.52.19.14.45.21.78.21s.64-.07.96-.21Z" fill="#942934"/><path d="M392.12,374.15c-.1.09-.15.21-.15.35,0,.1.03.21.09.3.06.1.17.22.33.38.44-.24.67-.48.67-.73,0-.13-.04-.23-.13-.31-.09-.08-.21-.12-.38-.12-.19,0-.33.04-.43.13ZM396.5,378.68l.8.68-1.46,1.66-.9-.77c-.84.54-1.78.81-2.83.81-.67,0-1.27-.11-1.81-.32-.54-.21-.96-.51-1.26-.88-.31-.37-.46-.79-.46-1.26,0-.53.13-.99.4-1.39.27-.39.68-.74,1.25-1.06-.48-.52-.73-1.06-.73-1.62,0-.45.13-.85.38-1.19.25-.34.61-.61,1.07-.8.46-.19.99-.29,1.6-.29.56,0,1.05.09,1.47.26.42.17.75.42.99.75.23.33.35.7.35,1.13s-.12.81-.36,1.14c-.24.33-.61.64-1.11.93l.9.76c.15-.32.25-.69.33-1.1l2.19.65c-.16.71-.43,1.35-.8,1.91ZM393.27,378.82l-1.55-1.33c-.31.23-.47.5-.47.81,0,.21.09.38.28.52.19.14.45.21.78.21s.64-.07.96-.21Z" fill="#942934"/><path d="M392.13,374.14c-.1.09-.15.21-.15.35,0,.1.03.21.09.3.06.1.17.22.33.38.44-.24.67-.48.67-.73,0-.13-.04-.23-.13-.31-.09-.08-.21-.12-.38-.12-.19,0-.33.04-.43.13ZM396.5,378.68l.8.68-1.46,1.66-.9-.77c-.84.54-1.78.81-2.83.81-.67,0-1.27-.11-1.81-.32-.54-.21-.96-.51-1.26-.88-.31-.37-.46-.79-.46-1.26,0-.53.13-.99.4-1.39.27-.39.68-.74,1.25-1.06-.48-.52-.73-1.06-.73-1.62,0-.45.13-.85.38-1.19.25-.34.61-.61,1.07-.8.46-.19.99-.29,1.6-.29.56,0,1.05.09,1.47.26.42.17.75.42.99.75.23.33.35.7.35,1.13s-.12.81-.36,1.14c-.24.33-.61.64-1.11.93l.9.76c.15-.32.25-.69.33-1.1l2.19.65c-.16.71-.43,1.35-.8,1.91ZM393.27,378.82l-1.55-1.33c-.31.23-.47.5-.47.81,0,.21.09.38.28.52.19.14.45.21.78.21s.64-.07.96-.21Z" fill="#942934"/><path d="M392.13,374.14c-.1.09-.15.21-.15.35,0,.1.03.21.09.3.06.1.17.22.33.38.44-.24.67-.48.67-.73,0-.13-.04-.23-.13-.31-.09-.08-.21-.12-.38-.12-.19,0-.33.04-.43.13ZM396.51,378.68l.8.68-1.46,1.66-.9-.77c-.84.54-1.78.81-2.83.81-.67,0-1.27-.11-1.81-.32-.54-.21-.96-.51-1.26-.88-.31-.37-.46-.79-.46-1.26,0-.53.13-.99.4-1.39.27-.39.68-.74,1.25-1.06-.48-.52-.73-1.06-.73-1.62,0-.45.13-.85.38-1.19.25-.34.61-.61,1.07-.8.46-.19.99-.29,1.6-.29.56,0,1.05.09,1.47.26.42.17.75.42.99.75.23.33.35.7.35,1.13s-.12.81-.36,1.14c-.24.33-.61.64-1.11.93l.9.76c.15-.32.25-.69.33-1.1l2.19.65c-.16.71-.43,1.35-.8,1.91ZM393.28,378.81l-1.55-1.33c-.31.23-.47.5-.47.81,0,.21.09.38.28.52.19.14.45.21.78.21s.64-.07.96-.21Z" fill="#942934"/><path d="M392.14,374.14c-.1.09-.15.21-.15.35,0,.1.03.21.09.3.06.1.17.22.33.38.44-.24.67-.48.67-.73,0-.13-.04-.23-.13-.31-.09-.08-.21-.12-.38-.12-.19,0-.33.04-.43.13ZM396.51,378.68l.8.68-1.46,1.66-.9-.77c-.84.54-1.78.81-2.83.81-.67,0-1.27-.11-1.81-.32-.54-.21-.96-.51-1.26-.88-.31-.37-.46-.79-.46-1.26,0-.53.13-.99.4-1.39.27-.39.68-.74,1.25-1.06-.48-.52-.73-1.06-.73-1.62,0-.45.13-.85.38-1.19.25-.34.61-.61,1.07-.8.46-.19.99-.29,1.6-.29.56,0,1.05.09,1.47.26.42.17.75.42.99.75.23.33.35.7.35,1.13s-.12.81-.36,1.14c-.24.33-.61.64-1.11.93l.9.76c.15-.32.25-.69.33-1.1l2.19.65c-.16.71-.43,1.35-.8,1.91ZM393.28,378.81l-1.55-1.33c-.31.23-.47.5-.47.81,0,.21.09.38.28.52.19.14.45.21.78.21s.64-.07.96-.21Z" fill="#942934"/><path d="M392.14,374.14c-.1.09-.15.21-.15.35,0,.1.03.21.09.3.06.1.17.22.33.38.44-.24.67-.48.67-.73,0-.13-.04-.23-.13-.31-.09-.08-.21-.12-.38-.12-.19,0-.33.04-.43.13ZM396.52,378.67l.8.68-1.46,1.66-.9-.77c-.84.54-1.78.81-2.83.81-.67,0-1.27-.11-1.81-.32-.54-.21-.96-.51-1.26-.88-.31-.37-.46-.79-.46-1.26,0-.53.13-.99.4-1.39.27-.39.68-.74,1.25-1.06-.48-.52-.73-1.06-.73-1.62,0-.45.13-.85.38-1.19.25-.34.61-.61,1.07-.8.46-.19.99-.29,1.6-.29.56,0,1.05.09,1.47.26.42.17.75.42.99.75.23.33.35.7.35,1.13s-.12.81-.36,1.14c-.24.33-.61.64-1.11.93l.9.76c.15-.32.25-.69.33-1.1l2.19.65c-.16.71-.43,1.35-.8,1.91ZM393.29,378.81l-1.55-1.33c-.31.23-.47.5-.47.81,0,.21.09.38.28.52.19.14.45.21.78.21s.64-.07.96-.21Z" fill="#942934"/><path d="M392.15,374.13c-.1.09-.15.21-.15.35,0,.1.03.21.09.3.06.1.17.22.33.38.44-.24.67-.48.67-.73,0-.13-.04-.23-.13-.31-.09-.08-.21-.12-.38-.12-.19,0-.33.04-.43.13ZM396.52,378.67l.8.68-1.46,1.66-.9-.77c-.84.54-1.78.81-2.83.81-.67,0-1.27-.11-1.81-.32-.54-.21-.96-.51-1.26-.88-.31-.37-.46-.79-.46-1.26,0-.53.13-.99.4-1.39.27-.39.68-.74,1.25-1.06-.48-.52-.73-1.06-.73-1.62,0-.45.13-.85.38-1.19.25-.34.61-.61,1.07-.8.46-.19.99-.29,1.6-.29.56,0,1.05.09,1.47.26.42.17.75.42.99.75.23.33.35.7.35,1.13s-.12.81-.36,1.14c-.24.33-.61.64-1.11.93l.9.76c.15-.32.25-.69.33-1.1l2.19.65c-.16.71-.43,1.35-.8,1.91ZM393.29,378.81l-1.55-1.33c-.31.23-.47.5-.47.81,0,.21.09.38.28.52.19.14.45.21.78.21s.64-.07.96-.21Z" fill="#942934"/><path d="M392.15,374.13c-.1.09-.15.21-.15.35,0,.1.03.21.09.3.06.1.17.22.33.38.44-.24.67-.48.67-.73,0-.13-.04-.23-.13-.31-.09-.08-.21-.12-.38-.12-.19,0-.33.04-.43.13ZM396.53,378.67l.8.68-1.46,1.66-.9-.77c-.84.54-1.78.81-2.83.81-.67,0-1.27-.11-1.81-.32-.54-.21-.96-.51-1.26-.88-.31-.37-.46-.79-.46-1.26,0-.53.13-.99.4-1.39.27-.39.68-.74,1.25-1.06-.48-.52-.73-1.06-.73-1.62,0-.45.13-.85.38-1.19.25-.34.61-.61,1.07-.8.46-.19.99-.29,1.6-.29.56,0,1.05.09,1.47.26.42.17.75.42.99.75.23.33.35.7.35,1.13s-.12.81-.36,1.14c-.24.33-.61.64-1.11.93l.9.76c.15-.32.25-.69.33-1.1l2.19.65c-.16.71-.43,1.35-.8,1.91ZM393.3,378.8l-1.55-1.33c-.31.23-.47.5-.47.81,0,.21.09.38.28.52.19.14.45.21.78.21s.64-.07.96-.21Z" fill="#942934"/><path d="M396.53,378.67l.8.68-1.46,1.66-.9-.77c-.84.54-1.78.81-2.83.81-.67,0-1.27-.11-1.81-.32-.54-.21-.96-.51-1.26-.88-.31-.37-.46-.79-.46-1.26,0-.53.13-.99.4-1.39.27-.39.68-.74,1.25-1.06-.48-.52-.73-1.06-.73-1.62,0-.45.13-.85.38-1.19.25-.34.61-.61,1.07-.8.46-.19.99-.29,1.6-.29.56,0,1.05.09,1.47.26.42.17.75.42.99.75.23.33.35.7.35,1.13s-.12.81-.36,1.14c-.24.33-.61.64-1.11.93l.9.76c.15-.32.25-.69.33-1.1l2.19.65c-.16.71-.43,1.35-.8,1.91ZM393.3,378.8l-1.55-1.33c-.31.23-.47.5-.47.81,0,.21.09.38.28.52.19.14.45.21.78.21s.64-.07.96-.21ZM392.15,374.13c-.1.09-.15.21-.15.35,0,.1.03.21.09.3.06.1.17.22.33.38.44-.24.67-.48.67-.73,0-.13-.04-.23-.13-.31-.09-.08-.21-.12-.38-.12-.19,0-.33.04-.43.13Z" fill="#fff"/><path d="M410.11,389.1l-.17-.29h-.12v.29h-.19v-.86h.35c.06,0,.11.01.15.04s.08.06.11.1c.03.04.04.09.04.15s-.01.1-.04.15c-.03.04-.07.08-.11.1l.19.32h-.21ZM409.82,388.41v.22h.15s.07-.01.09-.03c.02-.02.03-.05.03-.08,0-.02,0-.04-.01-.06,0-.02-.02-.03-.04-.04-.02,0-.04-.01-.07-.01h-.15Z" fill="#685f2f"/><path d="M409.97,389.56c-.49,0-.89-.4-.89-.89s.4-.89.89-.89.89.4.89.89-.4.89-.89.89ZM409.97,387.92c-.42,0-.75.34-.75.75s.34.75.75.75.75-.34.75-.75-.34-.75-.75-.75Z" fill="#685f2f"/></svg>